G04 #@! TF.GenerationSoftware,KiCad,Pcbnew,6.0.10-86aedd382b~118~ubuntu18.04.1*
G04 #@! TF.CreationDate,2024-08-26T14:05:47-06:00*
G04 #@! TF.ProjectId,mss-debug,6d73732d-6465-4627-9567-2e6b69636164,rev?*
G04 #@! TF.SameCoordinates,Original*
G04 #@! TF.FileFunction,Soldermask,Bot*
G04 #@! TF.FilePolarity,Negative*
%FSLAX46Y46*%
G04 Gerber Fmt 4.6, Leading zero omitted, Abs format (unit mm)*
G04 Created by KiCad (PCBNEW 6.0.10-86aedd382b~118~ubuntu18.04.1) date 2024-08-26 14:05:47*
%MOMM*%
%LPD*%
G01*
G04 APERTURE LIST*
%ADD10C,3.352400*%
%ADD11C,1.652400*%
%ADD12C,3.152400*%
G04 APERTURE END LIST*
D10*
X33802000Y-116875500D03*
X33802000Y-105445500D03*
G36*
G01*
X39402000Y-105889300D02*
X40902000Y-105889300D01*
G75*
G02*
X40978200Y-105965500I0J-76200D01*
G01*
X40978200Y-107465500D01*
G75*
G02*
X40902000Y-107541700I-76200J0D01*
G01*
X39402000Y-107541700D01*
G75*
G02*
X39325800Y-107465500I0J76200D01*
G01*
X39325800Y-105965500D01*
G75*
G02*
X39402000Y-105889300I76200J0D01*
G01*
G37*
D11*
X42692000Y-107985500D03*
X40152000Y-109255500D03*
X42692000Y-110525500D03*
X40152000Y-111795500D03*
X42692000Y-113065500D03*
X40152000Y-114335500D03*
X42692000Y-115605500D03*
D10*
X67798000Y-116931500D03*
X67798000Y-105501500D03*
G36*
G01*
X62198000Y-116487700D02*
X60698000Y-116487700D01*
G75*
G02*
X60621800Y-116411500I0J76200D01*
G01*
X60621800Y-114911500D01*
G75*
G02*
X60698000Y-114835300I76200J0D01*
G01*
X62198000Y-114835300D01*
G75*
G02*
X62274200Y-114911500I0J-76200D01*
G01*
X62274200Y-116411500D01*
G75*
G02*
X62198000Y-116487700I-76200J0D01*
G01*
G37*
D11*
X58908000Y-114391500D03*
X61448000Y-113121500D03*
X58908000Y-111851500D03*
X61448000Y-110581500D03*
X58908000Y-109311500D03*
X61448000Y-108041500D03*
X58908000Y-106771500D03*
G36*
G01*
X65000000Y-189536200D02*
X62000000Y-189536200D01*
G75*
G02*
X61923800Y-189460000I0J76200D01*
G01*
X61923800Y-186460000D01*
G75*
G02*
X62000000Y-186383800I76200J0D01*
G01*
X65000000Y-186383800D01*
G75*
G02*
X65076200Y-186460000I0J-76200D01*
G01*
X65076200Y-189460000D01*
G75*
G02*
X65000000Y-189536200I-76200J0D01*
G01*
G37*
D12*
X50800000Y-187960000D03*
M02*
