G04 #@! TF.GenerationSoftware,KiCad,Pcbnew,6.0.10-86aedd382b~118~ubuntu18.04.1*
G04 #@! TF.CreationDate,2024-08-26T14:05:47-06:00*
G04 #@! TF.ProjectId,mss-debug,6d73732d-6465-4627-9567-2e6b69636164,rev?*
G04 #@! TF.SameCoordinates,Original*
G04 #@! TF.FileFunction,Soldermask,Top*
G04 #@! TF.FilePolarity,Negative*
%FSLAX46Y46*%
G04 Gerber Fmt 4.6, Leading zero omitted, Abs format (unit mm)*
G04 Created by KiCad (PCBNEW 6.0.10-86aedd382b~118~ubuntu18.04.1) date 2024-08-26 14:05:47*
%MOMM*%
%LPD*%
G01*
G04 APERTURE LIST*
%ADD10C,3.352400*%
%ADD11C,1.652400*%
%ADD12C,3.152400*%
G04 APERTURE END LIST*
G36*
G01*
X45107800Y-172281000D02*
X45107800Y-171381000D01*
G75*
G02*
X45434000Y-171054800I326200J0D01*
G01*
X45959000Y-171054800D01*
G75*
G02*
X46285200Y-171381000I0J-326200D01*
G01*
X46285200Y-172281000D01*
G75*
G02*
X45959000Y-172607200I-326200J0D01*
G01*
X45434000Y-172607200D01*
G75*
G02*
X45107800Y-172281000I0J326200D01*
G01*
G37*
G36*
G01*
X46932800Y-172281000D02*
X46932800Y-171381000D01*
G75*
G02*
X47259000Y-171054800I326200J0D01*
G01*
X47784000Y-171054800D01*
G75*
G02*
X48110200Y-171381000I0J-326200D01*
G01*
X48110200Y-172281000D01*
G75*
G02*
X47784000Y-172607200I-326200J0D01*
G01*
X47259000Y-172607200D01*
G75*
G02*
X46932800Y-172281000I0J326200D01*
G01*
G37*
G36*
G01*
X51874000Y-178584800D02*
X52774000Y-178584800D01*
G75*
G02*
X53100200Y-178911000I0J-326200D01*
G01*
X53100200Y-179436000D01*
G75*
G02*
X52774000Y-179762200I-326200J0D01*
G01*
X51874000Y-179762200D01*
G75*
G02*
X51547800Y-179436000I0J326200D01*
G01*
X51547800Y-178911000D01*
G75*
G02*
X51874000Y-178584800I326200J0D01*
G01*
G37*
G36*
G01*
X51874000Y-180409800D02*
X52774000Y-180409800D01*
G75*
G02*
X53100200Y-180736000I0J-326200D01*
G01*
X53100200Y-181261000D01*
G75*
G02*
X52774000Y-181587200I-326200J0D01*
G01*
X51874000Y-181587200D01*
G75*
G02*
X51547800Y-181261000I0J326200D01*
G01*
X51547800Y-180736000D01*
G75*
G02*
X51874000Y-180409800I326200J0D01*
G01*
G37*
G36*
G01*
X35049800Y-166718000D02*
X35049800Y-165768000D01*
G75*
G02*
X35376000Y-165441800I326200J0D01*
G01*
X35876000Y-165441800D01*
G75*
G02*
X36202200Y-165768000I0J-326200D01*
G01*
X36202200Y-166718000D01*
G75*
G02*
X35876000Y-167044200I-326200J0D01*
G01*
X35376000Y-167044200D01*
G75*
G02*
X35049800Y-166718000I0J326200D01*
G01*
G37*
G36*
G01*
X36949800Y-166718000D02*
X36949800Y-165768000D01*
G75*
G02*
X37276000Y-165441800I326200J0D01*
G01*
X37776000Y-165441800D01*
G75*
G02*
X38102200Y-165768000I0J-326200D01*
G01*
X38102200Y-166718000D01*
G75*
G02*
X37776000Y-167044200I-326200J0D01*
G01*
X37276000Y-167044200D01*
G75*
G02*
X36949800Y-166718000I0J326200D01*
G01*
G37*
G36*
G01*
X35461800Y-168999000D02*
X35461800Y-168699000D01*
G75*
G02*
X35688000Y-168472800I226200J0D01*
G01*
X36713000Y-168472800D01*
G75*
G02*
X36939200Y-168699000I0J-226200D01*
G01*
X36939200Y-168999000D01*
G75*
G02*
X36713000Y-169225200I-226200J0D01*
G01*
X35688000Y-169225200D01*
G75*
G02*
X35461800Y-168999000I0J226200D01*
G01*
G37*
G36*
G01*
X35461800Y-169949000D02*
X35461800Y-169649000D01*
G75*
G02*
X35688000Y-169422800I226200J0D01*
G01*
X36713000Y-169422800D01*
G75*
G02*
X36939200Y-169649000I0J-226200D01*
G01*
X36939200Y-169949000D01*
G75*
G02*
X36713000Y-170175200I-226200J0D01*
G01*
X35688000Y-170175200D01*
G75*
G02*
X35461800Y-169949000I0J226200D01*
G01*
G37*
G36*
G01*
X35461800Y-170899000D02*
X35461800Y-170599000D01*
G75*
G02*
X35688000Y-170372800I226200J0D01*
G01*
X36713000Y-170372800D01*
G75*
G02*
X36939200Y-170599000I0J-226200D01*
G01*
X36939200Y-170899000D01*
G75*
G02*
X36713000Y-171125200I-226200J0D01*
G01*
X35688000Y-171125200D01*
G75*
G02*
X35461800Y-170899000I0J226200D01*
G01*
G37*
G36*
G01*
X37736800Y-170899000D02*
X37736800Y-170599000D01*
G75*
G02*
X37963000Y-170372800I226200J0D01*
G01*
X38988000Y-170372800D01*
G75*
G02*
X39214200Y-170599000I0J-226200D01*
G01*
X39214200Y-170899000D01*
G75*
G02*
X38988000Y-171125200I-226200J0D01*
G01*
X37963000Y-171125200D01*
G75*
G02*
X37736800Y-170899000I0J226200D01*
G01*
G37*
G36*
G01*
X37736800Y-168999000D02*
X37736800Y-168699000D01*
G75*
G02*
X37963000Y-168472800I226200J0D01*
G01*
X38988000Y-168472800D01*
G75*
G02*
X39214200Y-168699000I0J-226200D01*
G01*
X39214200Y-168999000D01*
G75*
G02*
X38988000Y-169225200I-226200J0D01*
G01*
X37963000Y-169225200D01*
G75*
G02*
X37736800Y-168999000I0J226200D01*
G01*
G37*
G36*
G01*
X49007750Y-121644700D02*
X48057750Y-121644700D01*
G75*
G02*
X47731550Y-121318500I0J326200D01*
G01*
X47731550Y-120818500D01*
G75*
G02*
X48057750Y-120492300I326200J0D01*
G01*
X49007750Y-120492300D01*
G75*
G02*
X49333950Y-120818500I0J-326200D01*
G01*
X49333950Y-121318500D01*
G75*
G02*
X49007750Y-121644700I-326200J0D01*
G01*
G37*
G36*
G01*
X49007750Y-119744700D02*
X48057750Y-119744700D01*
G75*
G02*
X47731550Y-119418500I0J326200D01*
G01*
X47731550Y-118918500D01*
G75*
G02*
X48057750Y-118592300I326200J0D01*
G01*
X49007750Y-118592300D01*
G75*
G02*
X49333950Y-118918500I0J-326200D01*
G01*
X49333950Y-119418500D01*
G75*
G02*
X49007750Y-119744700I-326200J0D01*
G01*
G37*
G36*
G01*
X52167200Y-147264000D02*
X52167200Y-147564000D01*
G75*
G02*
X51941000Y-147790200I-226200J0D01*
G01*
X50491000Y-147790200D01*
G75*
G02*
X50264800Y-147564000I0J226200D01*
G01*
X50264800Y-147264000D01*
G75*
G02*
X50491000Y-147037800I226200J0D01*
G01*
X51941000Y-147037800D01*
G75*
G02*
X52167200Y-147264000I0J-226200D01*
G01*
G37*
G36*
G01*
X52167200Y-145994000D02*
X52167200Y-146294000D01*
G75*
G02*
X51941000Y-146520200I-226200J0D01*
G01*
X50491000Y-146520200D01*
G75*
G02*
X50264800Y-146294000I0J226200D01*
G01*
X50264800Y-145994000D01*
G75*
G02*
X50491000Y-145767800I226200J0D01*
G01*
X51941000Y-145767800D01*
G75*
G02*
X52167200Y-145994000I0J-226200D01*
G01*
G37*
G36*
G01*
X52167200Y-144724000D02*
X52167200Y-145024000D01*
G75*
G02*
X51941000Y-145250200I-226200J0D01*
G01*
X50491000Y-145250200D01*
G75*
G02*
X50264800Y-145024000I0J226200D01*
G01*
X50264800Y-144724000D01*
G75*
G02*
X50491000Y-144497800I226200J0D01*
G01*
X51941000Y-144497800D01*
G75*
G02*
X52167200Y-144724000I0J-226200D01*
G01*
G37*
G36*
G01*
X52167200Y-143454000D02*
X52167200Y-143754000D01*
G75*
G02*
X51941000Y-143980200I-226200J0D01*
G01*
X50491000Y-143980200D01*
G75*
G02*
X50264800Y-143754000I0J226200D01*
G01*
X50264800Y-143454000D01*
G75*
G02*
X50491000Y-143227800I226200J0D01*
G01*
X51941000Y-143227800D01*
G75*
G02*
X52167200Y-143454000I0J-226200D01*
G01*
G37*
G36*
G01*
X52167200Y-142184000D02*
X52167200Y-142484000D01*
G75*
G02*
X51941000Y-142710200I-226200J0D01*
G01*
X50491000Y-142710200D01*
G75*
G02*
X50264800Y-142484000I0J226200D01*
G01*
X50264800Y-142184000D01*
G75*
G02*
X50491000Y-141957800I226200J0D01*
G01*
X51941000Y-141957800D01*
G75*
G02*
X52167200Y-142184000I0J-226200D01*
G01*
G37*
G36*
G01*
X52167200Y-140914000D02*
X52167200Y-141214000D01*
G75*
G02*
X51941000Y-141440200I-226200J0D01*
G01*
X50491000Y-141440200D01*
G75*
G02*
X50264800Y-141214000I0J226200D01*
G01*
X50264800Y-140914000D01*
G75*
G02*
X50491000Y-140687800I226200J0D01*
G01*
X51941000Y-140687800D01*
G75*
G02*
X52167200Y-140914000I0J-226200D01*
G01*
G37*
G36*
G01*
X52167200Y-139644000D02*
X52167200Y-139944000D01*
G75*
G02*
X51941000Y-140170200I-226200J0D01*
G01*
X50491000Y-140170200D01*
G75*
G02*
X50264800Y-139944000I0J226200D01*
G01*
X50264800Y-139644000D01*
G75*
G02*
X50491000Y-139417800I226200J0D01*
G01*
X51941000Y-139417800D01*
G75*
G02*
X52167200Y-139644000I0J-226200D01*
G01*
G37*
G36*
G01*
X52167200Y-138374000D02*
X52167200Y-138674000D01*
G75*
G02*
X51941000Y-138900200I-226200J0D01*
G01*
X50491000Y-138900200D01*
G75*
G02*
X50264800Y-138674000I0J226200D01*
G01*
X50264800Y-138374000D01*
G75*
G02*
X50491000Y-138147800I226200J0D01*
G01*
X51941000Y-138147800D01*
G75*
G02*
X52167200Y-138374000I0J-226200D01*
G01*
G37*
G36*
G01*
X47017200Y-138374000D02*
X47017200Y-138674000D01*
G75*
G02*
X46791000Y-138900200I-226200J0D01*
G01*
X45341000Y-138900200D01*
G75*
G02*
X45114800Y-138674000I0J226200D01*
G01*
X45114800Y-138374000D01*
G75*
G02*
X45341000Y-138147800I226200J0D01*
G01*
X46791000Y-138147800D01*
G75*
G02*
X47017200Y-138374000I0J-226200D01*
G01*
G37*
G36*
G01*
X47017200Y-139644000D02*
X47017200Y-139944000D01*
G75*
G02*
X46791000Y-140170200I-226200J0D01*
G01*
X45341000Y-140170200D01*
G75*
G02*
X45114800Y-139944000I0J226200D01*
G01*
X45114800Y-139644000D01*
G75*
G02*
X45341000Y-139417800I226200J0D01*
G01*
X46791000Y-139417800D01*
G75*
G02*
X47017200Y-139644000I0J-226200D01*
G01*
G37*
G36*
G01*
X47017200Y-140914000D02*
X47017200Y-141214000D01*
G75*
G02*
X46791000Y-141440200I-226200J0D01*
G01*
X45341000Y-141440200D01*
G75*
G02*
X45114800Y-141214000I0J226200D01*
G01*
X45114800Y-140914000D01*
G75*
G02*
X45341000Y-140687800I226200J0D01*
G01*
X46791000Y-140687800D01*
G75*
G02*
X47017200Y-140914000I0J-226200D01*
G01*
G37*
G36*
G01*
X47017200Y-142184000D02*
X47017200Y-142484000D01*
G75*
G02*
X46791000Y-142710200I-226200J0D01*
G01*
X45341000Y-142710200D01*
G75*
G02*
X45114800Y-142484000I0J226200D01*
G01*
X45114800Y-142184000D01*
G75*
G02*
X45341000Y-141957800I226200J0D01*
G01*
X46791000Y-141957800D01*
G75*
G02*
X47017200Y-142184000I0J-226200D01*
G01*
G37*
G36*
G01*
X47017200Y-143454000D02*
X47017200Y-143754000D01*
G75*
G02*
X46791000Y-143980200I-226200J0D01*
G01*
X45341000Y-143980200D01*
G75*
G02*
X45114800Y-143754000I0J226200D01*
G01*
X45114800Y-143454000D01*
G75*
G02*
X45341000Y-143227800I226200J0D01*
G01*
X46791000Y-143227800D01*
G75*
G02*
X47017200Y-143454000I0J-226200D01*
G01*
G37*
G36*
G01*
X47017200Y-144724000D02*
X47017200Y-145024000D01*
G75*
G02*
X46791000Y-145250200I-226200J0D01*
G01*
X45341000Y-145250200D01*
G75*
G02*
X45114800Y-145024000I0J226200D01*
G01*
X45114800Y-144724000D01*
G75*
G02*
X45341000Y-144497800I226200J0D01*
G01*
X46791000Y-144497800D01*
G75*
G02*
X47017200Y-144724000I0J-226200D01*
G01*
G37*
G36*
G01*
X47017200Y-145994000D02*
X47017200Y-146294000D01*
G75*
G02*
X46791000Y-146520200I-226200J0D01*
G01*
X45341000Y-146520200D01*
G75*
G02*
X45114800Y-146294000I0J226200D01*
G01*
X45114800Y-145994000D01*
G75*
G02*
X45341000Y-145767800I226200J0D01*
G01*
X46791000Y-145767800D01*
G75*
G02*
X47017200Y-145994000I0J-226200D01*
G01*
G37*
G36*
G01*
X47017200Y-147264000D02*
X47017200Y-147564000D01*
G75*
G02*
X46791000Y-147790200I-226200J0D01*
G01*
X45341000Y-147790200D01*
G75*
G02*
X45114800Y-147564000I0J226200D01*
G01*
X45114800Y-147264000D01*
G75*
G02*
X45341000Y-147037800I226200J0D01*
G01*
X46791000Y-147037800D01*
G75*
G02*
X47017200Y-147264000I0J-226200D01*
G01*
G37*
G36*
G01*
X50416800Y-136586000D02*
X50416800Y-135636000D01*
G75*
G02*
X50743000Y-135309800I326200J0D01*
G01*
X51243000Y-135309800D01*
G75*
G02*
X51569200Y-135636000I0J-326200D01*
G01*
X51569200Y-136586000D01*
G75*
G02*
X51243000Y-136912200I-326200J0D01*
G01*
X50743000Y-136912200D01*
G75*
G02*
X50416800Y-136586000I0J326200D01*
G01*
G37*
G36*
G01*
X52316800Y-136586000D02*
X52316800Y-135636000D01*
G75*
G02*
X52643000Y-135309800I326200J0D01*
G01*
X53143000Y-135309800D01*
G75*
G02*
X53469200Y-135636000I0J-326200D01*
G01*
X53469200Y-136586000D01*
G75*
G02*
X53143000Y-136912200I-326200J0D01*
G01*
X52643000Y-136912200D01*
G75*
G02*
X52316800Y-136586000I0J326200D01*
G01*
G37*
G36*
G01*
X64366200Y-171762000D02*
X64366200Y-172662000D01*
G75*
G02*
X64040000Y-172988200I-326200J0D01*
G01*
X63515000Y-172988200D01*
G75*
G02*
X63188800Y-172662000I0J326200D01*
G01*
X63188800Y-171762000D01*
G75*
G02*
X63515000Y-171435800I326200J0D01*
G01*
X64040000Y-171435800D01*
G75*
G02*
X64366200Y-171762000I0J-326200D01*
G01*
G37*
G36*
G01*
X62541200Y-171762000D02*
X62541200Y-172662000D01*
G75*
G02*
X62215000Y-172988200I-326200J0D01*
G01*
X61690000Y-172988200D01*
G75*
G02*
X61363800Y-172662000I0J326200D01*
G01*
X61363800Y-171762000D01*
G75*
G02*
X61690000Y-171435800I326200J0D01*
G01*
X62215000Y-171435800D01*
G75*
G02*
X62541200Y-171762000I0J-326200D01*
G01*
G37*
G36*
G01*
X55822000Y-114785200D02*
X54922000Y-114785200D01*
G75*
G02*
X54595800Y-114459000I0J326200D01*
G01*
X54595800Y-113934000D01*
G75*
G02*
X54922000Y-113607800I326200J0D01*
G01*
X55822000Y-113607800D01*
G75*
G02*
X56148200Y-113934000I0J-326200D01*
G01*
X56148200Y-114459000D01*
G75*
G02*
X55822000Y-114785200I-326200J0D01*
G01*
G37*
G36*
G01*
X55822000Y-112960200D02*
X54922000Y-112960200D01*
G75*
G02*
X54595800Y-112634000I0J326200D01*
G01*
X54595800Y-112109000D01*
G75*
G02*
X54922000Y-111782800I326200J0D01*
G01*
X55822000Y-111782800D01*
G75*
G02*
X56148200Y-112109000I0J-326200D01*
G01*
X56148200Y-112634000D01*
G75*
G02*
X55822000Y-112960200I-326200J0D01*
G01*
G37*
G36*
G01*
X72261100Y-181343300D02*
X73454900Y-181343300D01*
G75*
G02*
X73531100Y-181419500I0J-76200D01*
G01*
X73531100Y-183908700D01*
G75*
G02*
X73454900Y-183984900I-76200J0D01*
G01*
X72261100Y-183984900D01*
G75*
G02*
X72184900Y-183908700I0J76200D01*
G01*
X72184900Y-181419500D01*
G75*
G02*
X72261100Y-181343300I76200J0D01*
G01*
G37*
G36*
G01*
X69761100Y-181343300D02*
X70954900Y-181343300D01*
G75*
G02*
X71031100Y-181419500I0J-76200D01*
G01*
X71031100Y-183908700D01*
G75*
G02*
X70954900Y-183984900I-76200J0D01*
G01*
X69761100Y-183984900D01*
G75*
G02*
X69684900Y-183908700I0J76200D01*
G01*
X69684900Y-181419500D01*
G75*
G02*
X69761100Y-181343300I76200J0D01*
G01*
G37*
G36*
G01*
X67261100Y-181343300D02*
X68454900Y-181343300D01*
G75*
G02*
X68531100Y-181419500I0J-76200D01*
G01*
X68531100Y-183908700D01*
G75*
G02*
X68454900Y-183984900I-76200J0D01*
G01*
X67261100Y-183984900D01*
G75*
G02*
X67184900Y-183908700I0J76200D01*
G01*
X67184900Y-181419500D01*
G75*
G02*
X67261100Y-181343300I76200J0D01*
G01*
G37*
G36*
G01*
X72261100Y-186855100D02*
X73454900Y-186855100D01*
G75*
G02*
X73531100Y-186931300I0J-76200D01*
G01*
X73531100Y-189420500D01*
G75*
G02*
X73454900Y-189496700I-76200J0D01*
G01*
X72261100Y-189496700D01*
G75*
G02*
X72184900Y-189420500I0J76200D01*
G01*
X72184900Y-186931300D01*
G75*
G02*
X72261100Y-186855100I76200J0D01*
G01*
G37*
G36*
G01*
X69761100Y-186855100D02*
X70954900Y-186855100D01*
G75*
G02*
X71031100Y-186931300I0J-76200D01*
G01*
X71031100Y-189420500D01*
G75*
G02*
X70954900Y-189496700I-76200J0D01*
G01*
X69761100Y-189496700D01*
G75*
G02*
X69684900Y-189420500I0J76200D01*
G01*
X69684900Y-186931300D01*
G75*
G02*
X69761100Y-186855100I76200J0D01*
G01*
G37*
G36*
G01*
X67261100Y-186855100D02*
X68454900Y-186855100D01*
G75*
G02*
X68531100Y-186931300I0J-76200D01*
G01*
X68531100Y-189420500D01*
G75*
G02*
X68454900Y-189496700I-76200J0D01*
G01*
X67261100Y-189496700D01*
G75*
G02*
X67184900Y-189420500I0J76200D01*
G01*
X67184900Y-186931300D01*
G75*
G02*
X67261100Y-186855100I76200J0D01*
G01*
G37*
G36*
G01*
X54124800Y-145832000D02*
X54124800Y-144932000D01*
G75*
G02*
X54451000Y-144605800I326200J0D01*
G01*
X54976000Y-144605800D01*
G75*
G02*
X55302200Y-144932000I0J-326200D01*
G01*
X55302200Y-145832000D01*
G75*
G02*
X54976000Y-146158200I-326200J0D01*
G01*
X54451000Y-146158200D01*
G75*
G02*
X54124800Y-145832000I0J326200D01*
G01*
G37*
G36*
G01*
X55949800Y-145832000D02*
X55949800Y-144932000D01*
G75*
G02*
X56276000Y-144605800I326200J0D01*
G01*
X56801000Y-144605800D01*
G75*
G02*
X57127200Y-144932000I0J-326200D01*
G01*
X57127200Y-145832000D01*
G75*
G02*
X56801000Y-146158200I-326200J0D01*
G01*
X56276000Y-146158200D01*
G75*
G02*
X55949800Y-145832000I0J326200D01*
G01*
G37*
G36*
G01*
X27673300Y-180976900D02*
X27673300Y-179783100D01*
G75*
G02*
X27749500Y-179706900I76200J0D01*
G01*
X30238700Y-179706900D01*
G75*
G02*
X30314900Y-179783100I0J-76200D01*
G01*
X30314900Y-180976900D01*
G75*
G02*
X30238700Y-181053100I-76200J0D01*
G01*
X27749500Y-181053100D01*
G75*
G02*
X27673300Y-180976900I0J76200D01*
G01*
G37*
G36*
G01*
X27673300Y-183476900D02*
X27673300Y-182283100D01*
G75*
G02*
X27749500Y-182206900I76200J0D01*
G01*
X30238700Y-182206900D01*
G75*
G02*
X30314900Y-182283100I0J-76200D01*
G01*
X30314900Y-183476900D01*
G75*
G02*
X30238700Y-183553100I-76200J0D01*
G01*
X27749500Y-183553100D01*
G75*
G02*
X27673300Y-183476900I0J76200D01*
G01*
G37*
G36*
G01*
X27673300Y-185976900D02*
X27673300Y-184783100D01*
G75*
G02*
X27749500Y-184706900I76200J0D01*
G01*
X30238700Y-184706900D01*
G75*
G02*
X30314900Y-184783100I0J-76200D01*
G01*
X30314900Y-185976900D01*
G75*
G02*
X30238700Y-186053100I-76200J0D01*
G01*
X27749500Y-186053100D01*
G75*
G02*
X27673300Y-185976900I0J76200D01*
G01*
G37*
G36*
G01*
X33185100Y-180976900D02*
X33185100Y-179783100D01*
G75*
G02*
X33261300Y-179706900I76200J0D01*
G01*
X35750500Y-179706900D01*
G75*
G02*
X35826700Y-179783100I0J-76200D01*
G01*
X35826700Y-180976900D01*
G75*
G02*
X35750500Y-181053100I-76200J0D01*
G01*
X33261300Y-181053100D01*
G75*
G02*
X33185100Y-180976900I0J76200D01*
G01*
G37*
G36*
G01*
X33185100Y-183476900D02*
X33185100Y-182283100D01*
G75*
G02*
X33261300Y-182206900I76200J0D01*
G01*
X35750500Y-182206900D01*
G75*
G02*
X35826700Y-182283100I0J-76200D01*
G01*
X35826700Y-183476900D01*
G75*
G02*
X35750500Y-183553100I-76200J0D01*
G01*
X33261300Y-183553100D01*
G75*
G02*
X33185100Y-183476900I0J76200D01*
G01*
G37*
G36*
G01*
X33185100Y-185976900D02*
X33185100Y-184783100D01*
G75*
G02*
X33261300Y-184706900I76200J0D01*
G01*
X35750500Y-184706900D01*
G75*
G02*
X35826700Y-184783100I0J-76200D01*
G01*
X35826700Y-185976900D01*
G75*
G02*
X35750500Y-186053100I-76200J0D01*
G01*
X33261300Y-186053100D01*
G75*
G02*
X33185100Y-185976900I0J76200D01*
G01*
G37*
G36*
G01*
X59032200Y-159944750D02*
X59032200Y-160857250D01*
G75*
G02*
X58712250Y-161177200I-319950J0D01*
G01*
X58224750Y-161177200D01*
G75*
G02*
X57904800Y-160857250I0J319950D01*
G01*
X57904800Y-159944750D01*
G75*
G02*
X58224750Y-159624800I319950J0D01*
G01*
X58712250Y-159624800D01*
G75*
G02*
X59032200Y-159944750I0J-319950D01*
G01*
G37*
G36*
G01*
X57157200Y-159944750D02*
X57157200Y-160857250D01*
G75*
G02*
X56837250Y-161177200I-319950J0D01*
G01*
X56349750Y-161177200D01*
G75*
G02*
X56029800Y-160857250I0J319950D01*
G01*
X56029800Y-159944750D01*
G75*
G02*
X56349750Y-159624800I319950J0D01*
G01*
X56837250Y-159624800D01*
G75*
G02*
X57157200Y-159944750I0J-319950D01*
G01*
G37*
G36*
G01*
X52167200Y-133421000D02*
X52167200Y-133721000D01*
G75*
G02*
X51941000Y-133947200I-226200J0D01*
G01*
X50491000Y-133947200D01*
G75*
G02*
X50264800Y-133721000I0J226200D01*
G01*
X50264800Y-133421000D01*
G75*
G02*
X50491000Y-133194800I226200J0D01*
G01*
X51941000Y-133194800D01*
G75*
G02*
X52167200Y-133421000I0J-226200D01*
G01*
G37*
G36*
G01*
X52167200Y-132151000D02*
X52167200Y-132451000D01*
G75*
G02*
X51941000Y-132677200I-226200J0D01*
G01*
X50491000Y-132677200D01*
G75*
G02*
X50264800Y-132451000I0J226200D01*
G01*
X50264800Y-132151000D01*
G75*
G02*
X50491000Y-131924800I226200J0D01*
G01*
X51941000Y-131924800D01*
G75*
G02*
X52167200Y-132151000I0J-226200D01*
G01*
G37*
G36*
G01*
X52167200Y-130881000D02*
X52167200Y-131181000D01*
G75*
G02*
X51941000Y-131407200I-226200J0D01*
G01*
X50491000Y-131407200D01*
G75*
G02*
X50264800Y-131181000I0J226200D01*
G01*
X50264800Y-130881000D01*
G75*
G02*
X50491000Y-130654800I226200J0D01*
G01*
X51941000Y-130654800D01*
G75*
G02*
X52167200Y-130881000I0J-226200D01*
G01*
G37*
G36*
G01*
X52167200Y-129611000D02*
X52167200Y-129911000D01*
G75*
G02*
X51941000Y-130137200I-226200J0D01*
G01*
X50491000Y-130137200D01*
G75*
G02*
X50264800Y-129911000I0J226200D01*
G01*
X50264800Y-129611000D01*
G75*
G02*
X50491000Y-129384800I226200J0D01*
G01*
X51941000Y-129384800D01*
G75*
G02*
X52167200Y-129611000I0J-226200D01*
G01*
G37*
G36*
G01*
X52167200Y-128341000D02*
X52167200Y-128641000D01*
G75*
G02*
X51941000Y-128867200I-226200J0D01*
G01*
X50491000Y-128867200D01*
G75*
G02*
X50264800Y-128641000I0J226200D01*
G01*
X50264800Y-128341000D01*
G75*
G02*
X50491000Y-128114800I226200J0D01*
G01*
X51941000Y-128114800D01*
G75*
G02*
X52167200Y-128341000I0J-226200D01*
G01*
G37*
G36*
G01*
X52167200Y-127071000D02*
X52167200Y-127371000D01*
G75*
G02*
X51941000Y-127597200I-226200J0D01*
G01*
X50491000Y-127597200D01*
G75*
G02*
X50264800Y-127371000I0J226200D01*
G01*
X50264800Y-127071000D01*
G75*
G02*
X50491000Y-126844800I226200J0D01*
G01*
X51941000Y-126844800D01*
G75*
G02*
X52167200Y-127071000I0J-226200D01*
G01*
G37*
G36*
G01*
X52167200Y-125801000D02*
X52167200Y-126101000D01*
G75*
G02*
X51941000Y-126327200I-226200J0D01*
G01*
X50491000Y-126327200D01*
G75*
G02*
X50264800Y-126101000I0J226200D01*
G01*
X50264800Y-125801000D01*
G75*
G02*
X50491000Y-125574800I226200J0D01*
G01*
X51941000Y-125574800D01*
G75*
G02*
X52167200Y-125801000I0J-226200D01*
G01*
G37*
G36*
G01*
X52167200Y-124531000D02*
X52167200Y-124831000D01*
G75*
G02*
X51941000Y-125057200I-226200J0D01*
G01*
X50491000Y-125057200D01*
G75*
G02*
X50264800Y-124831000I0J226200D01*
G01*
X50264800Y-124531000D01*
G75*
G02*
X50491000Y-124304800I226200J0D01*
G01*
X51941000Y-124304800D01*
G75*
G02*
X52167200Y-124531000I0J-226200D01*
G01*
G37*
G36*
G01*
X47017200Y-124531000D02*
X47017200Y-124831000D01*
G75*
G02*
X46791000Y-125057200I-226200J0D01*
G01*
X45341000Y-125057200D01*
G75*
G02*
X45114800Y-124831000I0J226200D01*
G01*
X45114800Y-124531000D01*
G75*
G02*
X45341000Y-124304800I226200J0D01*
G01*
X46791000Y-124304800D01*
G75*
G02*
X47017200Y-124531000I0J-226200D01*
G01*
G37*
G36*
G01*
X47017200Y-125801000D02*
X47017200Y-126101000D01*
G75*
G02*
X46791000Y-126327200I-226200J0D01*
G01*
X45341000Y-126327200D01*
G75*
G02*
X45114800Y-126101000I0J226200D01*
G01*
X45114800Y-125801000D01*
G75*
G02*
X45341000Y-125574800I226200J0D01*
G01*
X46791000Y-125574800D01*
G75*
G02*
X47017200Y-125801000I0J-226200D01*
G01*
G37*
G36*
G01*
X47017200Y-127071000D02*
X47017200Y-127371000D01*
G75*
G02*
X46791000Y-127597200I-226200J0D01*
G01*
X45341000Y-127597200D01*
G75*
G02*
X45114800Y-127371000I0J226200D01*
G01*
X45114800Y-127071000D01*
G75*
G02*
X45341000Y-126844800I226200J0D01*
G01*
X46791000Y-126844800D01*
G75*
G02*
X47017200Y-127071000I0J-226200D01*
G01*
G37*
G36*
G01*
X47017200Y-128341000D02*
X47017200Y-128641000D01*
G75*
G02*
X46791000Y-128867200I-226200J0D01*
G01*
X45341000Y-128867200D01*
G75*
G02*
X45114800Y-128641000I0J226200D01*
G01*
X45114800Y-128341000D01*
G75*
G02*
X45341000Y-128114800I226200J0D01*
G01*
X46791000Y-128114800D01*
G75*
G02*
X47017200Y-128341000I0J-226200D01*
G01*
G37*
G36*
G01*
X47017200Y-129611000D02*
X47017200Y-129911000D01*
G75*
G02*
X46791000Y-130137200I-226200J0D01*
G01*
X45341000Y-130137200D01*
G75*
G02*
X45114800Y-129911000I0J226200D01*
G01*
X45114800Y-129611000D01*
G75*
G02*
X45341000Y-129384800I226200J0D01*
G01*
X46791000Y-129384800D01*
G75*
G02*
X47017200Y-129611000I0J-226200D01*
G01*
G37*
G36*
G01*
X47017200Y-130881000D02*
X47017200Y-131181000D01*
G75*
G02*
X46791000Y-131407200I-226200J0D01*
G01*
X45341000Y-131407200D01*
G75*
G02*
X45114800Y-131181000I0J226200D01*
G01*
X45114800Y-130881000D01*
G75*
G02*
X45341000Y-130654800I226200J0D01*
G01*
X46791000Y-130654800D01*
G75*
G02*
X47017200Y-130881000I0J-226200D01*
G01*
G37*
G36*
G01*
X47017200Y-132151000D02*
X47017200Y-132451000D01*
G75*
G02*
X46791000Y-132677200I-226200J0D01*
G01*
X45341000Y-132677200D01*
G75*
G02*
X45114800Y-132451000I0J226200D01*
G01*
X45114800Y-132151000D01*
G75*
G02*
X45341000Y-131924800I226200J0D01*
G01*
X46791000Y-131924800D01*
G75*
G02*
X47017200Y-132151000I0J-226200D01*
G01*
G37*
G36*
G01*
X47017200Y-133421000D02*
X47017200Y-133721000D01*
G75*
G02*
X46791000Y-133947200I-226200J0D01*
G01*
X45341000Y-133947200D01*
G75*
G02*
X45114800Y-133721000I0J226200D01*
G01*
X45114800Y-133421000D01*
G75*
G02*
X45341000Y-133194800I226200J0D01*
G01*
X46791000Y-133194800D01*
G75*
G02*
X47017200Y-133421000I0J-226200D01*
G01*
G37*
G36*
G01*
X55822000Y-107927200D02*
X54922000Y-107927200D01*
G75*
G02*
X54595800Y-107601000I0J326200D01*
G01*
X54595800Y-107076000D01*
G75*
G02*
X54922000Y-106749800I326200J0D01*
G01*
X55822000Y-106749800D01*
G75*
G02*
X56148200Y-107076000I0J-326200D01*
G01*
X56148200Y-107601000D01*
G75*
G02*
X55822000Y-107927200I-326200J0D01*
G01*
G37*
G36*
G01*
X55822000Y-106102200D02*
X54922000Y-106102200D01*
G75*
G02*
X54595800Y-105776000I0J326200D01*
G01*
X54595800Y-105251000D01*
G75*
G02*
X54922000Y-104924800I326200J0D01*
G01*
X55822000Y-104924800D01*
G75*
G02*
X56148200Y-105251000I0J-326200D01*
G01*
X56148200Y-105776000D01*
G75*
G02*
X55822000Y-106102200I-326200J0D01*
G01*
G37*
G36*
G01*
X27673300Y-139066900D02*
X27673300Y-137873100D01*
G75*
G02*
X27749500Y-137796900I76200J0D01*
G01*
X30238700Y-137796900D01*
G75*
G02*
X30314900Y-137873100I0J-76200D01*
G01*
X30314900Y-139066900D01*
G75*
G02*
X30238700Y-139143100I-76200J0D01*
G01*
X27749500Y-139143100D01*
G75*
G02*
X27673300Y-139066900I0J76200D01*
G01*
G37*
G36*
G01*
X27673300Y-141566900D02*
X27673300Y-140373100D01*
G75*
G02*
X27749500Y-140296900I76200J0D01*
G01*
X30238700Y-140296900D01*
G75*
G02*
X30314900Y-140373100I0J-76200D01*
G01*
X30314900Y-141566900D01*
G75*
G02*
X30238700Y-141643100I-76200J0D01*
G01*
X27749500Y-141643100D01*
G75*
G02*
X27673300Y-141566900I0J76200D01*
G01*
G37*
G36*
G01*
X27673300Y-144066900D02*
X27673300Y-142873100D01*
G75*
G02*
X27749500Y-142796900I76200J0D01*
G01*
X30238700Y-142796900D01*
G75*
G02*
X30314900Y-142873100I0J-76200D01*
G01*
X30314900Y-144066900D01*
G75*
G02*
X30238700Y-144143100I-76200J0D01*
G01*
X27749500Y-144143100D01*
G75*
G02*
X27673300Y-144066900I0J76200D01*
G01*
G37*
G36*
G01*
X33185100Y-139066900D02*
X33185100Y-137873100D01*
G75*
G02*
X33261300Y-137796900I76200J0D01*
G01*
X35750500Y-137796900D01*
G75*
G02*
X35826700Y-137873100I0J-76200D01*
G01*
X35826700Y-139066900D01*
G75*
G02*
X35750500Y-139143100I-76200J0D01*
G01*
X33261300Y-139143100D01*
G75*
G02*
X33185100Y-139066900I0J76200D01*
G01*
G37*
G36*
G01*
X33185100Y-141566900D02*
X33185100Y-140373100D01*
G75*
G02*
X33261300Y-140296900I76200J0D01*
G01*
X35750500Y-140296900D01*
G75*
G02*
X35826700Y-140373100I0J-76200D01*
G01*
X35826700Y-141566900D01*
G75*
G02*
X35750500Y-141643100I-76200J0D01*
G01*
X33261300Y-141643100D01*
G75*
G02*
X33185100Y-141566900I0J76200D01*
G01*
G37*
G36*
G01*
X33185100Y-144066900D02*
X33185100Y-142873100D01*
G75*
G02*
X33261300Y-142796900I76200J0D01*
G01*
X35750500Y-142796900D01*
G75*
G02*
X35826700Y-142873100I0J-76200D01*
G01*
X35826700Y-144066900D01*
G75*
G02*
X35750500Y-144143100I-76200J0D01*
G01*
X33261300Y-144143100D01*
G75*
G02*
X33185100Y-144066900I0J76200D01*
G01*
G37*
G36*
G01*
X41043800Y-172281000D02*
X41043800Y-171381000D01*
G75*
G02*
X41370000Y-171054800I326200J0D01*
G01*
X41895000Y-171054800D01*
G75*
G02*
X42221200Y-171381000I0J-326200D01*
G01*
X42221200Y-172281000D01*
G75*
G02*
X41895000Y-172607200I-326200J0D01*
G01*
X41370000Y-172607200D01*
G75*
G02*
X41043800Y-172281000I0J326200D01*
G01*
G37*
G36*
G01*
X42868800Y-172281000D02*
X42868800Y-171381000D01*
G75*
G02*
X43195000Y-171054800I326200J0D01*
G01*
X43720000Y-171054800D01*
G75*
G02*
X44046200Y-171381000I0J-326200D01*
G01*
X44046200Y-172281000D01*
G75*
G02*
X43720000Y-172607200I-326200J0D01*
G01*
X43195000Y-172607200D01*
G75*
G02*
X42868800Y-172281000I0J326200D01*
G01*
G37*
G36*
G01*
X33642300Y-174498000D02*
X28079700Y-174498000D01*
G75*
G02*
X28003500Y-174421800I0J76200D01*
G01*
X28003500Y-172313600D01*
G75*
G02*
X28079700Y-172237400I76200J0D01*
G01*
X33642300Y-172237400D01*
G75*
G02*
X33718500Y-172313600I0J-76200D01*
G01*
X33718500Y-174421800D01*
G75*
G02*
X33642300Y-174498000I-76200J0D01*
G01*
G37*
G36*
G01*
X33642300Y-169900600D02*
X28079700Y-169900600D01*
G75*
G02*
X28003500Y-169824400I0J76200D01*
G01*
X28003500Y-167716200D01*
G75*
G02*
X28079700Y-167640000I76200J0D01*
G01*
X33642300Y-167640000D01*
G75*
G02*
X33718500Y-167716200I0J-76200D01*
G01*
X33718500Y-169824400D01*
G75*
G02*
X33642300Y-169900600I-76200J0D01*
G01*
G37*
G36*
G01*
X64366200Y-137973750D02*
X64366200Y-138886250D01*
G75*
G02*
X64046250Y-139206200I-319950J0D01*
G01*
X63558750Y-139206200D01*
G75*
G02*
X63238800Y-138886250I0J319950D01*
G01*
X63238800Y-137973750D01*
G75*
G02*
X63558750Y-137653800I319950J0D01*
G01*
X64046250Y-137653800D01*
G75*
G02*
X64366200Y-137973750I0J-319950D01*
G01*
G37*
G36*
G01*
X62491200Y-137973750D02*
X62491200Y-138886250D01*
G75*
G02*
X62171250Y-139206200I-319950J0D01*
G01*
X61683750Y-139206200D01*
G75*
G02*
X61363800Y-138886250I0J319950D01*
G01*
X61363800Y-137973750D01*
G75*
G02*
X61683750Y-137653800I319950J0D01*
G01*
X62171250Y-137653800D01*
G75*
G02*
X62491200Y-137973750I0J-319950D01*
G01*
G37*
G36*
G01*
X46678000Y-114785200D02*
X45778000Y-114785200D01*
G75*
G02*
X45451800Y-114459000I0J326200D01*
G01*
X45451800Y-113934000D01*
G75*
G02*
X45778000Y-113607800I326200J0D01*
G01*
X46678000Y-113607800D01*
G75*
G02*
X47004200Y-113934000I0J-326200D01*
G01*
X47004200Y-114459000D01*
G75*
G02*
X46678000Y-114785200I-326200J0D01*
G01*
G37*
G36*
G01*
X46678000Y-112960200D02*
X45778000Y-112960200D01*
G75*
G02*
X45451800Y-112634000I0J326200D01*
G01*
X45451800Y-112109000D01*
G75*
G02*
X45778000Y-111782800I326200J0D01*
G01*
X46678000Y-111782800D01*
G75*
G02*
X47004200Y-112109000I0J-326200D01*
G01*
X47004200Y-112634000D01*
G75*
G02*
X46678000Y-112960200I-326200J0D01*
G01*
G37*
G36*
G01*
X46696750Y-121619700D02*
X45796750Y-121619700D01*
G75*
G02*
X45470550Y-121293500I0J326200D01*
G01*
X45470550Y-120768500D01*
G75*
G02*
X45796750Y-120442300I326200J0D01*
G01*
X46696750Y-120442300D01*
G75*
G02*
X47022950Y-120768500I0J-326200D01*
G01*
X47022950Y-121293500D01*
G75*
G02*
X46696750Y-121619700I-326200J0D01*
G01*
G37*
G36*
G01*
X46696750Y-119794700D02*
X45796750Y-119794700D01*
G75*
G02*
X45470550Y-119468500I0J326200D01*
G01*
X45470550Y-118943500D01*
G75*
G02*
X45796750Y-118617300I326200J0D01*
G01*
X46696750Y-118617300D01*
G75*
G02*
X47022950Y-118943500I0J-326200D01*
G01*
X47022950Y-119468500D01*
G75*
G02*
X46696750Y-119794700I-326200J0D01*
G01*
G37*
G36*
G01*
X33160200Y-164531000D02*
X33160200Y-166431000D01*
G75*
G02*
X33084000Y-166507200I-76200J0D01*
G01*
X31684000Y-166507200D01*
G75*
G02*
X31607800Y-166431000I0J76200D01*
G01*
X31607800Y-164531000D01*
G75*
G02*
X31684000Y-164454800I76200J0D01*
G01*
X33084000Y-164454800D01*
G75*
G02*
X33160200Y-164531000I0J-76200D01*
G01*
G37*
G36*
G01*
X29860200Y-164531000D02*
X29860200Y-166431000D01*
G75*
G02*
X29784000Y-166507200I-76200J0D01*
G01*
X28384000Y-166507200D01*
G75*
G02*
X28307800Y-166431000I0J76200D01*
G01*
X28307800Y-164531000D01*
G75*
G02*
X28384000Y-164454800I76200J0D01*
G01*
X29784000Y-164454800D01*
G75*
G02*
X29860200Y-164531000I0J-76200D01*
G01*
G37*
G36*
G01*
X40236200Y-151943750D02*
X40236200Y-152856250D01*
G75*
G02*
X39916250Y-153176200I-319950J0D01*
G01*
X39428750Y-153176200D01*
G75*
G02*
X39108800Y-152856250I0J319950D01*
G01*
X39108800Y-151943750D01*
G75*
G02*
X39428750Y-151623800I319950J0D01*
G01*
X39916250Y-151623800D01*
G75*
G02*
X40236200Y-151943750I0J-319950D01*
G01*
G37*
G36*
G01*
X38361200Y-151943750D02*
X38361200Y-152856250D01*
G75*
G02*
X38041250Y-153176200I-319950J0D01*
G01*
X37553750Y-153176200D01*
G75*
G02*
X37233800Y-152856250I0J319950D01*
G01*
X37233800Y-151943750D01*
G75*
G02*
X37553750Y-151623800I319950J0D01*
G01*
X38041250Y-151623800D01*
G75*
G02*
X38361200Y-151943750I0J-319950D01*
G01*
G37*
G36*
G01*
X42614000Y-169014200D02*
X41714000Y-169014200D01*
G75*
G02*
X41387800Y-168688000I0J326200D01*
G01*
X41387800Y-168163000D01*
G75*
G02*
X41714000Y-167836800I326200J0D01*
G01*
X42614000Y-167836800D01*
G75*
G02*
X42940200Y-168163000I0J-326200D01*
G01*
X42940200Y-168688000D01*
G75*
G02*
X42614000Y-169014200I-326200J0D01*
G01*
G37*
G36*
G01*
X42614000Y-167189200D02*
X41714000Y-167189200D01*
G75*
G02*
X41387800Y-166863000I0J326200D01*
G01*
X41387800Y-166338000D01*
G75*
G02*
X41714000Y-166011800I326200J0D01*
G01*
X42614000Y-166011800D01*
G75*
G02*
X42940200Y-166338000I0J-326200D01*
G01*
X42940200Y-166863000D01*
G75*
G02*
X42614000Y-167189200I-326200J0D01*
G01*
G37*
G36*
G01*
X45913000Y-178803800D02*
X47813000Y-178803800D01*
G75*
G02*
X47889200Y-178880000I0J-76200D01*
G01*
X47889200Y-180280000D01*
G75*
G02*
X47813000Y-180356200I-76200J0D01*
G01*
X45913000Y-180356200D01*
G75*
G02*
X45836800Y-180280000I0J76200D01*
G01*
X45836800Y-178880000D01*
G75*
G02*
X45913000Y-178803800I76200J0D01*
G01*
G37*
G36*
G01*
X45913000Y-182103800D02*
X47813000Y-182103800D01*
G75*
G02*
X47889200Y-182180000I0J-76200D01*
G01*
X47889200Y-183580000D01*
G75*
G02*
X47813000Y-183656200I-76200J0D01*
G01*
X45913000Y-183656200D01*
G75*
G02*
X45836800Y-183580000I0J76200D01*
G01*
X45836800Y-182180000D01*
G75*
G02*
X45913000Y-182103800I76200J0D01*
G01*
G37*
G36*
G01*
X38077200Y-163253000D02*
X38077200Y-164153000D01*
G75*
G02*
X37751000Y-164479200I-326200J0D01*
G01*
X37226000Y-164479200D01*
G75*
G02*
X36899800Y-164153000I0J326200D01*
G01*
X36899800Y-163253000D01*
G75*
G02*
X37226000Y-162926800I326200J0D01*
G01*
X37751000Y-162926800D01*
G75*
G02*
X38077200Y-163253000I0J-326200D01*
G01*
G37*
G36*
G01*
X36252200Y-163253000D02*
X36252200Y-164153000D01*
G75*
G02*
X35926000Y-164479200I-326200J0D01*
G01*
X35401000Y-164479200D01*
G75*
G02*
X35074800Y-164153000I0J326200D01*
G01*
X35074800Y-163253000D01*
G75*
G02*
X35401000Y-162926800I326200J0D01*
G01*
X35926000Y-162926800D01*
G75*
G02*
X36252200Y-163253000I0J-326200D01*
G01*
G37*
G36*
G01*
X47338000Y-177549200D02*
X46388000Y-177549200D01*
G75*
G02*
X46061800Y-177223000I0J326200D01*
G01*
X46061800Y-176723000D01*
G75*
G02*
X46388000Y-176396800I326200J0D01*
G01*
X47338000Y-176396800D01*
G75*
G02*
X47664200Y-176723000I0J-326200D01*
G01*
X47664200Y-177223000D01*
G75*
G02*
X47338000Y-177549200I-326200J0D01*
G01*
G37*
G36*
G01*
X47338000Y-175649200D02*
X46388000Y-175649200D01*
G75*
G02*
X46061800Y-175323000I0J326200D01*
G01*
X46061800Y-174823000D01*
G75*
G02*
X46388000Y-174496800I326200J0D01*
G01*
X47338000Y-174496800D01*
G75*
G02*
X47664200Y-174823000I0J-326200D01*
G01*
X47664200Y-175323000D01*
G75*
G02*
X47338000Y-175649200I-326200J0D01*
G01*
G37*
G36*
G01*
X60048200Y-178493000D02*
X60048200Y-179393000D01*
G75*
G02*
X59722000Y-179719200I-326200J0D01*
G01*
X59197000Y-179719200D01*
G75*
G02*
X58870800Y-179393000I0J326200D01*
G01*
X58870800Y-178493000D01*
G75*
G02*
X59197000Y-178166800I326200J0D01*
G01*
X59722000Y-178166800D01*
G75*
G02*
X60048200Y-178493000I0J-326200D01*
G01*
G37*
G36*
G01*
X58223200Y-178493000D02*
X58223200Y-179393000D01*
G75*
G02*
X57897000Y-179719200I-326200J0D01*
G01*
X57372000Y-179719200D01*
G75*
G02*
X57045800Y-179393000I0J326200D01*
G01*
X57045800Y-178493000D01*
G75*
G02*
X57372000Y-178166800I326200J0D01*
G01*
X57897000Y-178166800D01*
G75*
G02*
X58223200Y-178493000I0J-326200D01*
G01*
G37*
G36*
G01*
X60071700Y-181287000D02*
X60071700Y-182187000D01*
G75*
G02*
X59745500Y-182513200I-326200J0D01*
G01*
X59220500Y-182513200D01*
G75*
G02*
X58894300Y-182187000I0J326200D01*
G01*
X58894300Y-181287000D01*
G75*
G02*
X59220500Y-180960800I326200J0D01*
G01*
X59745500Y-180960800D01*
G75*
G02*
X60071700Y-181287000I0J-326200D01*
G01*
G37*
G36*
G01*
X58246700Y-181287000D02*
X58246700Y-182187000D01*
G75*
G02*
X57920500Y-182513200I-326200J0D01*
G01*
X57395500Y-182513200D01*
G75*
G02*
X57069300Y-182187000I0J326200D01*
G01*
X57069300Y-181287000D01*
G75*
G02*
X57395500Y-180960800I326200J0D01*
G01*
X57920500Y-180960800D01*
G75*
G02*
X58246700Y-181287000I0J-326200D01*
G01*
G37*
G36*
G01*
X61363800Y-155390000D02*
X61363800Y-154490000D01*
G75*
G02*
X61690000Y-154163800I326200J0D01*
G01*
X62215000Y-154163800D01*
G75*
G02*
X62541200Y-154490000I0J-326200D01*
G01*
X62541200Y-155390000D01*
G75*
G02*
X62215000Y-155716200I-326200J0D01*
G01*
X61690000Y-155716200D01*
G75*
G02*
X61363800Y-155390000I0J326200D01*
G01*
G37*
G36*
G01*
X63188800Y-155390000D02*
X63188800Y-154490000D01*
G75*
G02*
X63515000Y-154163800I326200J0D01*
G01*
X64040000Y-154163800D01*
G75*
G02*
X64366200Y-154490000I0J-326200D01*
G01*
X64366200Y-155390000D01*
G75*
G02*
X64040000Y-155716200I-326200J0D01*
G01*
X63515000Y-155716200D01*
G75*
G02*
X63188800Y-155390000I0J326200D01*
G01*
G37*
G36*
G01*
X53536000Y-107927200D02*
X52636000Y-107927200D01*
G75*
G02*
X52309800Y-107601000I0J326200D01*
G01*
X52309800Y-107076000D01*
G75*
G02*
X52636000Y-106749800I326200J0D01*
G01*
X53536000Y-106749800D01*
G75*
G02*
X53862200Y-107076000I0J-326200D01*
G01*
X53862200Y-107601000D01*
G75*
G02*
X53536000Y-107927200I-326200J0D01*
G01*
G37*
G36*
G01*
X53536000Y-106102200D02*
X52636000Y-106102200D01*
G75*
G02*
X52309800Y-105776000I0J326200D01*
G01*
X52309800Y-105251000D01*
G75*
G02*
X52636000Y-104924800I326200J0D01*
G01*
X53536000Y-104924800D01*
G75*
G02*
X53862200Y-105251000I0J-326200D01*
G01*
X53862200Y-105776000D01*
G75*
G02*
X53536000Y-106102200I-326200J0D01*
G01*
G37*
G36*
G01*
X35283200Y-129217000D02*
X35283200Y-130117000D01*
G75*
G02*
X34957000Y-130443200I-326200J0D01*
G01*
X34432000Y-130443200D01*
G75*
G02*
X34105800Y-130117000I0J326200D01*
G01*
X34105800Y-129217000D01*
G75*
G02*
X34432000Y-128890800I326200J0D01*
G01*
X34957000Y-128890800D01*
G75*
G02*
X35283200Y-129217000I0J-326200D01*
G01*
G37*
G36*
G01*
X33458200Y-129217000D02*
X33458200Y-130117000D01*
G75*
G02*
X33132000Y-130443200I-326200J0D01*
G01*
X32607000Y-130443200D01*
G75*
G02*
X32280800Y-130117000I0J326200D01*
G01*
X32280800Y-129217000D01*
G75*
G02*
X32607000Y-128890800I326200J0D01*
G01*
X33132000Y-128890800D01*
G75*
G02*
X33458200Y-129217000I0J-326200D01*
G01*
G37*
G36*
G01*
X53561000Y-114810200D02*
X52611000Y-114810200D01*
G75*
G02*
X52284800Y-114484000I0J326200D01*
G01*
X52284800Y-113984000D01*
G75*
G02*
X52611000Y-113657800I326200J0D01*
G01*
X53561000Y-113657800D01*
G75*
G02*
X53887200Y-113984000I0J-326200D01*
G01*
X53887200Y-114484000D01*
G75*
G02*
X53561000Y-114810200I-326200J0D01*
G01*
G37*
G36*
G01*
X53561000Y-112910200D02*
X52611000Y-112910200D01*
G75*
G02*
X52284800Y-112584000I0J326200D01*
G01*
X52284800Y-112084000D01*
G75*
G02*
X52611000Y-111757800I326200J0D01*
G01*
X53561000Y-111757800D01*
G75*
G02*
X53887200Y-112084000I0J-326200D01*
G01*
X53887200Y-112584000D01*
G75*
G02*
X53561000Y-112910200I-326200J0D01*
G01*
G37*
G36*
G01*
X40236200Y-140520000D02*
X40236200Y-141420000D01*
G75*
G02*
X39910000Y-141746200I-326200J0D01*
G01*
X39385000Y-141746200D01*
G75*
G02*
X39058800Y-141420000I0J326200D01*
G01*
X39058800Y-140520000D01*
G75*
G02*
X39385000Y-140193800I326200J0D01*
G01*
X39910000Y-140193800D01*
G75*
G02*
X40236200Y-140520000I0J-326200D01*
G01*
G37*
G36*
G01*
X38411200Y-140520000D02*
X38411200Y-141420000D01*
G75*
G02*
X38085000Y-141746200I-326200J0D01*
G01*
X37560000Y-141746200D01*
G75*
G02*
X37233800Y-141420000I0J326200D01*
G01*
X37233800Y-140520000D01*
G75*
G02*
X37560000Y-140193800I326200J0D01*
G01*
X38085000Y-140193800D01*
G75*
G02*
X38411200Y-140520000I0J-326200D01*
G01*
G37*
G36*
G01*
X27673300Y-153036900D02*
X27673300Y-151843100D01*
G75*
G02*
X27749500Y-151766900I76200J0D01*
G01*
X30238700Y-151766900D01*
G75*
G02*
X30314900Y-151843100I0J-76200D01*
G01*
X30314900Y-153036900D01*
G75*
G02*
X30238700Y-153113100I-76200J0D01*
G01*
X27749500Y-153113100D01*
G75*
G02*
X27673300Y-153036900I0J76200D01*
G01*
G37*
G36*
G01*
X27673300Y-155536900D02*
X27673300Y-154343100D01*
G75*
G02*
X27749500Y-154266900I76200J0D01*
G01*
X30238700Y-154266900D01*
G75*
G02*
X30314900Y-154343100I0J-76200D01*
G01*
X30314900Y-155536900D01*
G75*
G02*
X30238700Y-155613100I-76200J0D01*
G01*
X27749500Y-155613100D01*
G75*
G02*
X27673300Y-155536900I0J76200D01*
G01*
G37*
G36*
G01*
X27673300Y-158036900D02*
X27673300Y-156843100D01*
G75*
G02*
X27749500Y-156766900I76200J0D01*
G01*
X30238700Y-156766900D01*
G75*
G02*
X30314900Y-156843100I0J-76200D01*
G01*
X30314900Y-158036900D01*
G75*
G02*
X30238700Y-158113100I-76200J0D01*
G01*
X27749500Y-158113100D01*
G75*
G02*
X27673300Y-158036900I0J76200D01*
G01*
G37*
G36*
G01*
X33185100Y-153036900D02*
X33185100Y-151843100D01*
G75*
G02*
X33261300Y-151766900I76200J0D01*
G01*
X35750500Y-151766900D01*
G75*
G02*
X35826700Y-151843100I0J-76200D01*
G01*
X35826700Y-153036900D01*
G75*
G02*
X35750500Y-153113100I-76200J0D01*
G01*
X33261300Y-153113100D01*
G75*
G02*
X33185100Y-153036900I0J76200D01*
G01*
G37*
G36*
G01*
X33185100Y-155536900D02*
X33185100Y-154343100D01*
G75*
G02*
X33261300Y-154266900I76200J0D01*
G01*
X35750500Y-154266900D01*
G75*
G02*
X35826700Y-154343100I0J-76200D01*
G01*
X35826700Y-155536900D01*
G75*
G02*
X35750500Y-155613100I-76200J0D01*
G01*
X33261300Y-155613100D01*
G75*
G02*
X33185100Y-155536900I0J76200D01*
G01*
G37*
G36*
G01*
X33185100Y-158036900D02*
X33185100Y-156843100D01*
G75*
G02*
X33261300Y-156766900I76200J0D01*
G01*
X35750500Y-156766900D01*
G75*
G02*
X35826700Y-156843100I0J-76200D01*
G01*
X35826700Y-158036900D01*
G75*
G02*
X35750500Y-158113100I-76200J0D01*
G01*
X33261300Y-158113100D01*
G75*
G02*
X33185100Y-158036900I0J76200D01*
G01*
G37*
G36*
G01*
X65773300Y-153036900D02*
X65773300Y-151843100D01*
G75*
G02*
X65849500Y-151766900I76200J0D01*
G01*
X68338700Y-151766900D01*
G75*
G02*
X68414900Y-151843100I0J-76200D01*
G01*
X68414900Y-153036900D01*
G75*
G02*
X68338700Y-153113100I-76200J0D01*
G01*
X65849500Y-153113100D01*
G75*
G02*
X65773300Y-153036900I0J76200D01*
G01*
G37*
G36*
G01*
X65773300Y-155536900D02*
X65773300Y-154343100D01*
G75*
G02*
X65849500Y-154266900I76200J0D01*
G01*
X68338700Y-154266900D01*
G75*
G02*
X68414900Y-154343100I0J-76200D01*
G01*
X68414900Y-155536900D01*
G75*
G02*
X68338700Y-155613100I-76200J0D01*
G01*
X65849500Y-155613100D01*
G75*
G02*
X65773300Y-155536900I0J76200D01*
G01*
G37*
G36*
G01*
X65773300Y-158036900D02*
X65773300Y-156843100D01*
G75*
G02*
X65849500Y-156766900I76200J0D01*
G01*
X68338700Y-156766900D01*
G75*
G02*
X68414900Y-156843100I0J-76200D01*
G01*
X68414900Y-158036900D01*
G75*
G02*
X68338700Y-158113100I-76200J0D01*
G01*
X65849500Y-158113100D01*
G75*
G02*
X65773300Y-158036900I0J76200D01*
G01*
G37*
G36*
G01*
X71285100Y-153036900D02*
X71285100Y-151843100D01*
G75*
G02*
X71361300Y-151766900I76200J0D01*
G01*
X73850500Y-151766900D01*
G75*
G02*
X73926700Y-151843100I0J-76200D01*
G01*
X73926700Y-153036900D01*
G75*
G02*
X73850500Y-153113100I-76200J0D01*
G01*
X71361300Y-153113100D01*
G75*
G02*
X71285100Y-153036900I0J76200D01*
G01*
G37*
G36*
G01*
X71285100Y-155536900D02*
X71285100Y-154343100D01*
G75*
G02*
X71361300Y-154266900I76200J0D01*
G01*
X73850500Y-154266900D01*
G75*
G02*
X73926700Y-154343100I0J-76200D01*
G01*
X73926700Y-155536900D01*
G75*
G02*
X73850500Y-155613100I-76200J0D01*
G01*
X71361300Y-155613100D01*
G75*
G02*
X71285100Y-155536900I0J76200D01*
G01*
G37*
G36*
G01*
X71285100Y-158036900D02*
X71285100Y-156843100D01*
G75*
G02*
X71361300Y-156766900I76200J0D01*
G01*
X73850500Y-156766900D01*
G75*
G02*
X73926700Y-156843100I0J-76200D01*
G01*
X73926700Y-158036900D01*
G75*
G02*
X73850500Y-158113100I-76200J0D01*
G01*
X71361300Y-158113100D01*
G75*
G02*
X71285100Y-158036900I0J76200D01*
G01*
G37*
G36*
G01*
X40236200Y-137973750D02*
X40236200Y-138886250D01*
G75*
G02*
X39916250Y-139206200I-319950J0D01*
G01*
X39428750Y-139206200D01*
G75*
G02*
X39108800Y-138886250I0J319950D01*
G01*
X39108800Y-137973750D01*
G75*
G02*
X39428750Y-137653800I319950J0D01*
G01*
X39916250Y-137653800D01*
G75*
G02*
X40236200Y-137973750I0J-319950D01*
G01*
G37*
G36*
G01*
X38361200Y-137973750D02*
X38361200Y-138886250D01*
G75*
G02*
X38041250Y-139206200I-319950J0D01*
G01*
X37553750Y-139206200D01*
G75*
G02*
X37233800Y-138886250I0J319950D01*
G01*
X37233800Y-137973750D01*
G75*
G02*
X37553750Y-137653800I319950J0D01*
G01*
X38041250Y-137653800D01*
G75*
G02*
X38361200Y-137973750I0J-319950D01*
G01*
G37*
G36*
G01*
X40328000Y-166093200D02*
X39428000Y-166093200D01*
G75*
G02*
X39101800Y-165767000I0J326200D01*
G01*
X39101800Y-165242000D01*
G75*
G02*
X39428000Y-164915800I326200J0D01*
G01*
X40328000Y-164915800D01*
G75*
G02*
X40654200Y-165242000I0J-326200D01*
G01*
X40654200Y-165767000D01*
G75*
G02*
X40328000Y-166093200I-326200J0D01*
G01*
G37*
G36*
G01*
X40328000Y-164268200D02*
X39428000Y-164268200D01*
G75*
G02*
X39101800Y-163942000I0J326200D01*
G01*
X39101800Y-163417000D01*
G75*
G02*
X39428000Y-163090800I326200J0D01*
G01*
X40328000Y-163090800D01*
G75*
G02*
X40654200Y-163417000I0J-326200D01*
G01*
X40654200Y-163942000D01*
G75*
G02*
X40328000Y-164268200I-326200J0D01*
G01*
G37*
G36*
G01*
X37846000Y-183503300D02*
X37846000Y-177940700D01*
G75*
G02*
X37922200Y-177864500I76200J0D01*
G01*
X40030400Y-177864500D01*
G75*
G02*
X40106600Y-177940700I0J-76200D01*
G01*
X40106600Y-183503300D01*
G75*
G02*
X40030400Y-183579500I-76200J0D01*
G01*
X37922200Y-183579500D01*
G75*
G02*
X37846000Y-183503300I0J76200D01*
G01*
G37*
G36*
G01*
X42443400Y-183503300D02*
X42443400Y-177940700D01*
G75*
G02*
X42519600Y-177864500I76200J0D01*
G01*
X44627800Y-177864500D01*
G75*
G02*
X44704000Y-177940700I0J-76200D01*
G01*
X44704000Y-183503300D01*
G75*
G02*
X44627800Y-183579500I-76200J0D01*
G01*
X42519600Y-183579500D01*
G75*
G02*
X42443400Y-183503300I0J76200D01*
G01*
G37*
G36*
G01*
X49044800Y-174694000D02*
X49044800Y-173794000D01*
G75*
G02*
X49371000Y-173467800I326200J0D01*
G01*
X49896000Y-173467800D01*
G75*
G02*
X50222200Y-173794000I0J-326200D01*
G01*
X50222200Y-174694000D01*
G75*
G02*
X49896000Y-175020200I-326200J0D01*
G01*
X49371000Y-175020200D01*
G75*
G02*
X49044800Y-174694000I0J326200D01*
G01*
G37*
G36*
G01*
X50869800Y-174694000D02*
X50869800Y-173794000D01*
G75*
G02*
X51196000Y-173467800I326200J0D01*
G01*
X51721000Y-173467800D01*
G75*
G02*
X52047200Y-173794000I0J-326200D01*
G01*
X52047200Y-174694000D01*
G75*
G02*
X51721000Y-175020200I-326200J0D01*
G01*
X51196000Y-175020200D01*
G75*
G02*
X50869800Y-174694000I0J326200D01*
G01*
G37*
D10*
X33802000Y-116875500D03*
X33802000Y-105445500D03*
G36*
G01*
X39402000Y-105889300D02*
X40902000Y-105889300D01*
G75*
G02*
X40978200Y-105965500I0J-76200D01*
G01*
X40978200Y-107465500D01*
G75*
G02*
X40902000Y-107541700I-76200J0D01*
G01*
X39402000Y-107541700D01*
G75*
G02*
X39325800Y-107465500I0J76200D01*
G01*
X39325800Y-105965500D01*
G75*
G02*
X39402000Y-105889300I76200J0D01*
G01*
G37*
D11*
X42692000Y-107985500D03*
X40152000Y-109255500D03*
X42692000Y-110525500D03*
X40152000Y-111795500D03*
X42692000Y-113065500D03*
X40152000Y-114335500D03*
X42692000Y-115605500D03*
G36*
G01*
X65773300Y-139066900D02*
X65773300Y-137873100D01*
G75*
G02*
X65849500Y-137796900I76200J0D01*
G01*
X68338700Y-137796900D01*
G75*
G02*
X68414900Y-137873100I0J-76200D01*
G01*
X68414900Y-139066900D01*
G75*
G02*
X68338700Y-139143100I-76200J0D01*
G01*
X65849500Y-139143100D01*
G75*
G02*
X65773300Y-139066900I0J76200D01*
G01*
G37*
G36*
G01*
X65773300Y-141566900D02*
X65773300Y-140373100D01*
G75*
G02*
X65849500Y-140296900I76200J0D01*
G01*
X68338700Y-140296900D01*
G75*
G02*
X68414900Y-140373100I0J-76200D01*
G01*
X68414900Y-141566900D01*
G75*
G02*
X68338700Y-141643100I-76200J0D01*
G01*
X65849500Y-141643100D01*
G75*
G02*
X65773300Y-141566900I0J76200D01*
G01*
G37*
G36*
G01*
X65773300Y-144066900D02*
X65773300Y-142873100D01*
G75*
G02*
X65849500Y-142796900I76200J0D01*
G01*
X68338700Y-142796900D01*
G75*
G02*
X68414900Y-142873100I0J-76200D01*
G01*
X68414900Y-144066900D01*
G75*
G02*
X68338700Y-144143100I-76200J0D01*
G01*
X65849500Y-144143100D01*
G75*
G02*
X65773300Y-144066900I0J76200D01*
G01*
G37*
G36*
G01*
X71285100Y-139066900D02*
X71285100Y-137873100D01*
G75*
G02*
X71361300Y-137796900I76200J0D01*
G01*
X73850500Y-137796900D01*
G75*
G02*
X73926700Y-137873100I0J-76200D01*
G01*
X73926700Y-139066900D01*
G75*
G02*
X73850500Y-139143100I-76200J0D01*
G01*
X71361300Y-139143100D01*
G75*
G02*
X71285100Y-139066900I0J76200D01*
G01*
G37*
G36*
G01*
X71285100Y-141566900D02*
X71285100Y-140373100D01*
G75*
G02*
X71361300Y-140296900I76200J0D01*
G01*
X73850500Y-140296900D01*
G75*
G02*
X73926700Y-140373100I0J-76200D01*
G01*
X73926700Y-141566900D01*
G75*
G02*
X73850500Y-141643100I-76200J0D01*
G01*
X71361300Y-141643100D01*
G75*
G02*
X71285100Y-141566900I0J76200D01*
G01*
G37*
G36*
G01*
X71285100Y-144066900D02*
X71285100Y-142873100D01*
G75*
G02*
X71361300Y-142796900I76200J0D01*
G01*
X73850500Y-142796900D01*
G75*
G02*
X73926700Y-142873100I0J-76200D01*
G01*
X73926700Y-144066900D01*
G75*
G02*
X73850500Y-144143100I-76200J0D01*
G01*
X71361300Y-144143100D01*
G75*
G02*
X71285100Y-144066900I0J76200D01*
G01*
G37*
G36*
G01*
X57045800Y-185997000D02*
X57045800Y-185097000D01*
G75*
G02*
X57372000Y-184770800I326200J0D01*
G01*
X57897000Y-184770800D01*
G75*
G02*
X58223200Y-185097000I0J-326200D01*
G01*
X58223200Y-185997000D01*
G75*
G02*
X57897000Y-186323200I-326200J0D01*
G01*
X57372000Y-186323200D01*
G75*
G02*
X57045800Y-185997000I0J326200D01*
G01*
G37*
G36*
G01*
X58870800Y-185997000D02*
X58870800Y-185097000D01*
G75*
G02*
X59197000Y-184770800I326200J0D01*
G01*
X59722000Y-184770800D01*
G75*
G02*
X60048200Y-185097000I0J-326200D01*
G01*
X60048200Y-185997000D01*
G75*
G02*
X59722000Y-186323200I-326200J0D01*
G01*
X59197000Y-186323200D01*
G75*
G02*
X58870800Y-185997000I0J326200D01*
G01*
G37*
G36*
G01*
X46723300Y-161037900D02*
X46723300Y-159844100D01*
G75*
G02*
X46799500Y-159767900I76200J0D01*
G01*
X49288700Y-159767900D01*
G75*
G02*
X49364900Y-159844100I0J-76200D01*
G01*
X49364900Y-161037900D01*
G75*
G02*
X49288700Y-161114100I-76200J0D01*
G01*
X46799500Y-161114100D01*
G75*
G02*
X46723300Y-161037900I0J76200D01*
G01*
G37*
G36*
G01*
X46723300Y-163537900D02*
X46723300Y-162344100D01*
G75*
G02*
X46799500Y-162267900I76200J0D01*
G01*
X49288700Y-162267900D01*
G75*
G02*
X49364900Y-162344100I0J-76200D01*
G01*
X49364900Y-163537900D01*
G75*
G02*
X49288700Y-163614100I-76200J0D01*
G01*
X46799500Y-163614100D01*
G75*
G02*
X46723300Y-163537900I0J76200D01*
G01*
G37*
G36*
G01*
X46723300Y-166037900D02*
X46723300Y-164844100D01*
G75*
G02*
X46799500Y-164767900I76200J0D01*
G01*
X49288700Y-164767900D01*
G75*
G02*
X49364900Y-164844100I0J-76200D01*
G01*
X49364900Y-166037900D01*
G75*
G02*
X49288700Y-166114100I-76200J0D01*
G01*
X46799500Y-166114100D01*
G75*
G02*
X46723300Y-166037900I0J76200D01*
G01*
G37*
G36*
G01*
X52235100Y-161037900D02*
X52235100Y-159844100D01*
G75*
G02*
X52311300Y-159767900I76200J0D01*
G01*
X54800500Y-159767900D01*
G75*
G02*
X54876700Y-159844100I0J-76200D01*
G01*
X54876700Y-161037900D01*
G75*
G02*
X54800500Y-161114100I-76200J0D01*
G01*
X52311300Y-161114100D01*
G75*
G02*
X52235100Y-161037900I0J76200D01*
G01*
G37*
G36*
G01*
X52235100Y-163537900D02*
X52235100Y-162344100D01*
G75*
G02*
X52311300Y-162267900I76200J0D01*
G01*
X54800500Y-162267900D01*
G75*
G02*
X54876700Y-162344100I0J-76200D01*
G01*
X54876700Y-163537900D01*
G75*
G02*
X54800500Y-163614100I-76200J0D01*
G01*
X52311300Y-163614100D01*
G75*
G02*
X52235100Y-163537900I0J76200D01*
G01*
G37*
G36*
G01*
X52235100Y-166037900D02*
X52235100Y-164844100D01*
G75*
G02*
X52311300Y-164767900I76200J0D01*
G01*
X54800500Y-164767900D01*
G75*
G02*
X54876700Y-164844100I0J-76200D01*
G01*
X54876700Y-166037900D01*
G75*
G02*
X54800500Y-166114100I-76200J0D01*
G01*
X52311300Y-166114100D01*
G75*
G02*
X52235100Y-166037900I0J76200D01*
G01*
G37*
G36*
G01*
X36446800Y-130142000D02*
X36446800Y-129192000D01*
G75*
G02*
X36773000Y-128865800I326200J0D01*
G01*
X37273000Y-128865800D01*
G75*
G02*
X37599200Y-129192000I0J-326200D01*
G01*
X37599200Y-130142000D01*
G75*
G02*
X37273000Y-130468200I-326200J0D01*
G01*
X36773000Y-130468200D01*
G75*
G02*
X36446800Y-130142000I0J326200D01*
G01*
G37*
G36*
G01*
X38346800Y-130142000D02*
X38346800Y-129192000D01*
G75*
G02*
X38673000Y-128865800I326200J0D01*
G01*
X39173000Y-128865800D01*
G75*
G02*
X39499200Y-129192000I0J-326200D01*
G01*
X39499200Y-130142000D01*
G75*
G02*
X39173000Y-130468200I-326200J0D01*
G01*
X38673000Y-130468200D01*
G75*
G02*
X38346800Y-130142000I0J326200D01*
G01*
G37*
G36*
G01*
X50416800Y-150429000D02*
X50416800Y-149479000D01*
G75*
G02*
X50743000Y-149152800I326200J0D01*
G01*
X51243000Y-149152800D01*
G75*
G02*
X51569200Y-149479000I0J-326200D01*
G01*
X51569200Y-150429000D01*
G75*
G02*
X51243000Y-150755200I-326200J0D01*
G01*
X50743000Y-150755200D01*
G75*
G02*
X50416800Y-150429000I0J326200D01*
G01*
G37*
G36*
G01*
X52316800Y-150429000D02*
X52316800Y-149479000D01*
G75*
G02*
X52643000Y-149152800I326200J0D01*
G01*
X53143000Y-149152800D01*
G75*
G02*
X53469200Y-149479000I0J-326200D01*
G01*
X53469200Y-150429000D01*
G75*
G02*
X53143000Y-150755200I-326200J0D01*
G01*
X52643000Y-150755200D01*
G75*
G02*
X52316800Y-150429000I0J326200D01*
G01*
G37*
G36*
G01*
X44421200Y-175934000D02*
X44421200Y-176234000D01*
G75*
G02*
X44195000Y-176460200I-226200J0D01*
G01*
X43170000Y-176460200D01*
G75*
G02*
X42943800Y-176234000I0J226200D01*
G01*
X42943800Y-175934000D01*
G75*
G02*
X43170000Y-175707800I226200J0D01*
G01*
X44195000Y-175707800D01*
G75*
G02*
X44421200Y-175934000I0J-226200D01*
G01*
G37*
G36*
G01*
X44421200Y-174984000D02*
X44421200Y-175284000D01*
G75*
G02*
X44195000Y-175510200I-226200J0D01*
G01*
X43170000Y-175510200D01*
G75*
G02*
X42943800Y-175284000I0J226200D01*
G01*
X42943800Y-174984000D01*
G75*
G02*
X43170000Y-174757800I226200J0D01*
G01*
X44195000Y-174757800D01*
G75*
G02*
X44421200Y-174984000I0J-226200D01*
G01*
G37*
G36*
G01*
X44421200Y-174034000D02*
X44421200Y-174334000D01*
G75*
G02*
X44195000Y-174560200I-226200J0D01*
G01*
X43170000Y-174560200D01*
G75*
G02*
X42943800Y-174334000I0J226200D01*
G01*
X42943800Y-174034000D01*
G75*
G02*
X43170000Y-173807800I226200J0D01*
G01*
X44195000Y-173807800D01*
G75*
G02*
X44421200Y-174034000I0J-226200D01*
G01*
G37*
G36*
G01*
X42146200Y-174034000D02*
X42146200Y-174334000D01*
G75*
G02*
X41920000Y-174560200I-226200J0D01*
G01*
X40895000Y-174560200D01*
G75*
G02*
X40668800Y-174334000I0J226200D01*
G01*
X40668800Y-174034000D01*
G75*
G02*
X40895000Y-173807800I226200J0D01*
G01*
X41920000Y-173807800D01*
G75*
G02*
X42146200Y-174034000I0J-226200D01*
G01*
G37*
G36*
G01*
X42146200Y-175934000D02*
X42146200Y-176234000D01*
G75*
G02*
X41920000Y-176460200I-226200J0D01*
G01*
X40895000Y-176460200D01*
G75*
G02*
X40668800Y-176234000I0J226200D01*
G01*
X40668800Y-175934000D01*
G75*
G02*
X40895000Y-175707800I226200J0D01*
G01*
X41920000Y-175707800D01*
G75*
G02*
X42146200Y-175934000I0J-226200D01*
G01*
G37*
G36*
G01*
X54099800Y-143444000D02*
X54099800Y-142494000D01*
G75*
G02*
X54426000Y-142167800I326200J0D01*
G01*
X54926000Y-142167800D01*
G75*
G02*
X55252200Y-142494000I0J-326200D01*
G01*
X55252200Y-143444000D01*
G75*
G02*
X54926000Y-143770200I-326200J0D01*
G01*
X54426000Y-143770200D01*
G75*
G02*
X54099800Y-143444000I0J326200D01*
G01*
G37*
G36*
G01*
X55999800Y-143444000D02*
X55999800Y-142494000D01*
G75*
G02*
X56326000Y-142167800I326200J0D01*
G01*
X56826000Y-142167800D01*
G75*
G02*
X57152200Y-142494000I0J-326200D01*
G01*
X57152200Y-143444000D01*
G75*
G02*
X56826000Y-143770200I-326200J0D01*
G01*
X56326000Y-143770200D01*
G75*
G02*
X55999800Y-143444000I0J326200D01*
G01*
G37*
G36*
G01*
X48964000Y-107927200D02*
X48064000Y-107927200D01*
G75*
G02*
X47737800Y-107601000I0J326200D01*
G01*
X47737800Y-107076000D01*
G75*
G02*
X48064000Y-106749800I326200J0D01*
G01*
X48964000Y-106749800D01*
G75*
G02*
X49290200Y-107076000I0J-326200D01*
G01*
X49290200Y-107601000D01*
G75*
G02*
X48964000Y-107927200I-326200J0D01*
G01*
G37*
G36*
G01*
X48964000Y-106102200D02*
X48064000Y-106102200D01*
G75*
G02*
X47737800Y-105776000I0J326200D01*
G01*
X47737800Y-105251000D01*
G75*
G02*
X48064000Y-104924800I326200J0D01*
G01*
X48964000Y-104924800D01*
G75*
G02*
X49290200Y-105251000I0J-326200D01*
G01*
X49290200Y-105776000D01*
G75*
G02*
X48964000Y-106102200I-326200J0D01*
G01*
G37*
G36*
G01*
X49044800Y-177234000D02*
X49044800Y-176334000D01*
G75*
G02*
X49371000Y-176007800I326200J0D01*
G01*
X49896000Y-176007800D01*
G75*
G02*
X50222200Y-176334000I0J-326200D01*
G01*
X50222200Y-177234000D01*
G75*
G02*
X49896000Y-177560200I-326200J0D01*
G01*
X49371000Y-177560200D01*
G75*
G02*
X49044800Y-177234000I0J326200D01*
G01*
G37*
G36*
G01*
X50869800Y-177234000D02*
X50869800Y-176334000D01*
G75*
G02*
X51196000Y-176007800I326200J0D01*
G01*
X51721000Y-176007800D01*
G75*
G02*
X52047200Y-176334000I0J-326200D01*
G01*
X52047200Y-177234000D01*
G75*
G02*
X51721000Y-177560200I-326200J0D01*
G01*
X51196000Y-177560200D01*
G75*
G02*
X50869800Y-177234000I0J326200D01*
G01*
G37*
G36*
G01*
X59032200Y-162364000D02*
X59032200Y-163264000D01*
G75*
G02*
X58706000Y-163590200I-326200J0D01*
G01*
X58181000Y-163590200D01*
G75*
G02*
X57854800Y-163264000I0J326200D01*
G01*
X57854800Y-162364000D01*
G75*
G02*
X58181000Y-162037800I326200J0D01*
G01*
X58706000Y-162037800D01*
G75*
G02*
X59032200Y-162364000I0J-326200D01*
G01*
G37*
G36*
G01*
X57207200Y-162364000D02*
X57207200Y-163264000D01*
G75*
G02*
X56881000Y-163590200I-326200J0D01*
G01*
X56356000Y-163590200D01*
G75*
G02*
X56029800Y-163264000I0J326200D01*
G01*
X56029800Y-162364000D01*
G75*
G02*
X56356000Y-162037800I326200J0D01*
G01*
X56881000Y-162037800D01*
G75*
G02*
X57207200Y-162364000I0J-326200D01*
G01*
G37*
G36*
G01*
X64366200Y-169342750D02*
X64366200Y-170255250D01*
G75*
G02*
X64046250Y-170575200I-319950J0D01*
G01*
X63558750Y-170575200D01*
G75*
G02*
X63238800Y-170255250I0J319950D01*
G01*
X63238800Y-169342750D01*
G75*
G02*
X63558750Y-169022800I319950J0D01*
G01*
X64046250Y-169022800D01*
G75*
G02*
X64366200Y-169342750I0J-319950D01*
G01*
G37*
G36*
G01*
X62491200Y-169342750D02*
X62491200Y-170255250D01*
G75*
G02*
X62171250Y-170575200I-319950J0D01*
G01*
X61683750Y-170575200D01*
G75*
G02*
X61363800Y-170255250I0J319950D01*
G01*
X61363800Y-169342750D01*
G75*
G02*
X61683750Y-169022800I319950J0D01*
G01*
X62171250Y-169022800D01*
G75*
G02*
X62491200Y-169342750I0J-319950D01*
G01*
G37*
G36*
G01*
X44300200Y-186233750D02*
X44300200Y-187146250D01*
G75*
G02*
X43980250Y-187466200I-319950J0D01*
G01*
X43492750Y-187466200D01*
G75*
G02*
X43172800Y-187146250I0J319950D01*
G01*
X43172800Y-186233750D01*
G75*
G02*
X43492750Y-185913800I319950J0D01*
G01*
X43980250Y-185913800D01*
G75*
G02*
X44300200Y-186233750I0J-319950D01*
G01*
G37*
G36*
G01*
X42425200Y-186233750D02*
X42425200Y-187146250D01*
G75*
G02*
X42105250Y-187466200I-319950J0D01*
G01*
X41617750Y-187466200D01*
G75*
G02*
X41297800Y-187146250I0J319950D01*
G01*
X41297800Y-186233750D01*
G75*
G02*
X41617750Y-185913800I319950J0D01*
G01*
X42105250Y-185913800D01*
G75*
G02*
X42425200Y-186233750I0J-319950D01*
G01*
G37*
D10*
X67798000Y-116931500D03*
X67798000Y-105501500D03*
G36*
G01*
X62198000Y-116487700D02*
X60698000Y-116487700D01*
G75*
G02*
X60621800Y-116411500I0J76200D01*
G01*
X60621800Y-114911500D01*
G75*
G02*
X60698000Y-114835300I76200J0D01*
G01*
X62198000Y-114835300D01*
G75*
G02*
X62274200Y-114911500I0J-76200D01*
G01*
X62274200Y-116411500D01*
G75*
G02*
X62198000Y-116487700I-76200J0D01*
G01*
G37*
D11*
X58908000Y-114391500D03*
X61448000Y-113121500D03*
X58908000Y-111851500D03*
X61448000Y-110581500D03*
X58908000Y-109311500D03*
X61448000Y-108041500D03*
X58908000Y-106771500D03*
G36*
G01*
X49334000Y-178584800D02*
X50234000Y-178584800D01*
G75*
G02*
X50560200Y-178911000I0J-326200D01*
G01*
X50560200Y-179436000D01*
G75*
G02*
X50234000Y-179762200I-326200J0D01*
G01*
X49334000Y-179762200D01*
G75*
G02*
X49007800Y-179436000I0J326200D01*
G01*
X49007800Y-178911000D01*
G75*
G02*
X49334000Y-178584800I326200J0D01*
G01*
G37*
G36*
G01*
X49334000Y-180409800D02*
X50234000Y-180409800D01*
G75*
G02*
X50560200Y-180736000I0J-326200D01*
G01*
X50560200Y-181261000D01*
G75*
G02*
X50234000Y-181587200I-326200J0D01*
G01*
X49334000Y-181587200D01*
G75*
G02*
X49007800Y-181261000I0J326200D01*
G01*
X49007800Y-180736000D01*
G75*
G02*
X49334000Y-180409800I326200J0D01*
G01*
G37*
G36*
G01*
X65773300Y-170308900D02*
X65773300Y-169115100D01*
G75*
G02*
X65849500Y-169038900I76200J0D01*
G01*
X68338700Y-169038900D01*
G75*
G02*
X68414900Y-169115100I0J-76200D01*
G01*
X68414900Y-170308900D01*
G75*
G02*
X68338700Y-170385100I-76200J0D01*
G01*
X65849500Y-170385100D01*
G75*
G02*
X65773300Y-170308900I0J76200D01*
G01*
G37*
G36*
G01*
X65773300Y-172808900D02*
X65773300Y-171615100D01*
G75*
G02*
X65849500Y-171538900I76200J0D01*
G01*
X68338700Y-171538900D01*
G75*
G02*
X68414900Y-171615100I0J-76200D01*
G01*
X68414900Y-172808900D01*
G75*
G02*
X68338700Y-172885100I-76200J0D01*
G01*
X65849500Y-172885100D01*
G75*
G02*
X65773300Y-172808900I0J76200D01*
G01*
G37*
G36*
G01*
X65773300Y-175308900D02*
X65773300Y-174115100D01*
G75*
G02*
X65849500Y-174038900I76200J0D01*
G01*
X68338700Y-174038900D01*
G75*
G02*
X68414900Y-174115100I0J-76200D01*
G01*
X68414900Y-175308900D01*
G75*
G02*
X68338700Y-175385100I-76200J0D01*
G01*
X65849500Y-175385100D01*
G75*
G02*
X65773300Y-175308900I0J76200D01*
G01*
G37*
G36*
G01*
X71285100Y-170308900D02*
X71285100Y-169115100D01*
G75*
G02*
X71361300Y-169038900I76200J0D01*
G01*
X73850500Y-169038900D01*
G75*
G02*
X73926700Y-169115100I0J-76200D01*
G01*
X73926700Y-170308900D01*
G75*
G02*
X73850500Y-170385100I-76200J0D01*
G01*
X71361300Y-170385100D01*
G75*
G02*
X71285100Y-170308900I0J76200D01*
G01*
G37*
G36*
G01*
X71285100Y-172808900D02*
X71285100Y-171615100D01*
G75*
G02*
X71361300Y-171538900I76200J0D01*
G01*
X73850500Y-171538900D01*
G75*
G02*
X73926700Y-171615100I0J-76200D01*
G01*
X73926700Y-172808900D01*
G75*
G02*
X73850500Y-172885100I-76200J0D01*
G01*
X71361300Y-172885100D01*
G75*
G02*
X71285100Y-172808900I0J76200D01*
G01*
G37*
G36*
G01*
X71285100Y-175308900D02*
X71285100Y-174115100D01*
G75*
G02*
X71361300Y-174038900I76200J0D01*
G01*
X73850500Y-174038900D01*
G75*
G02*
X73926700Y-174115100I0J-76200D01*
G01*
X73926700Y-175308900D01*
G75*
G02*
X73850500Y-175385100I-76200J0D01*
G01*
X71361300Y-175385100D01*
G75*
G02*
X71285100Y-175308900I0J76200D01*
G01*
G37*
G36*
G01*
X61363800Y-141420000D02*
X61363800Y-140520000D01*
G75*
G02*
X61690000Y-140193800I326200J0D01*
G01*
X62215000Y-140193800D01*
G75*
G02*
X62541200Y-140520000I0J-326200D01*
G01*
X62541200Y-141420000D01*
G75*
G02*
X62215000Y-141746200I-326200J0D01*
G01*
X61690000Y-141746200D01*
G75*
G02*
X61363800Y-141420000I0J326200D01*
G01*
G37*
G36*
G01*
X63188800Y-141420000D02*
X63188800Y-140520000D01*
G75*
G02*
X63515000Y-140193800I326200J0D01*
G01*
X64040000Y-140193800D01*
G75*
G02*
X64366200Y-140520000I0J-326200D01*
G01*
X64366200Y-141420000D01*
G75*
G02*
X64040000Y-141746200I-326200J0D01*
G01*
X63515000Y-141746200D01*
G75*
G02*
X63188800Y-141420000I0J326200D01*
G01*
G37*
G36*
G01*
X46678000Y-107927200D02*
X45778000Y-107927200D01*
G75*
G02*
X45451800Y-107601000I0J326200D01*
G01*
X45451800Y-107076000D01*
G75*
G02*
X45778000Y-106749800I326200J0D01*
G01*
X46678000Y-106749800D01*
G75*
G02*
X47004200Y-107076000I0J-326200D01*
G01*
X47004200Y-107601000D01*
G75*
G02*
X46678000Y-107927200I-326200J0D01*
G01*
G37*
G36*
G01*
X46678000Y-106102200D02*
X45778000Y-106102200D01*
G75*
G02*
X45451800Y-105776000I0J326200D01*
G01*
X45451800Y-105251000D01*
G75*
G02*
X45778000Y-104924800I326200J0D01*
G01*
X46678000Y-104924800D01*
G75*
G02*
X47004200Y-105251000I0J-326200D01*
G01*
X47004200Y-105776000D01*
G75*
G02*
X46678000Y-106102200I-326200J0D01*
G01*
G37*
G36*
G01*
X40105200Y-189014000D02*
X40105200Y-189314000D01*
G75*
G02*
X39879000Y-189540200I-226200J0D01*
G01*
X38704000Y-189540200D01*
G75*
G02*
X38477800Y-189314000I0J226200D01*
G01*
X38477800Y-189014000D01*
G75*
G02*
X38704000Y-188787800I226200J0D01*
G01*
X39879000Y-188787800D01*
G75*
G02*
X40105200Y-189014000I0J-226200D01*
G01*
G37*
G36*
G01*
X40105200Y-187114000D02*
X40105200Y-187414000D01*
G75*
G02*
X39879000Y-187640200I-226200J0D01*
G01*
X38704000Y-187640200D01*
G75*
G02*
X38477800Y-187414000I0J226200D01*
G01*
X38477800Y-187114000D01*
G75*
G02*
X38704000Y-186887800I226200J0D01*
G01*
X39879000Y-186887800D01*
G75*
G02*
X40105200Y-187114000I0J-226200D01*
G01*
G37*
G36*
G01*
X38230200Y-188064000D02*
X38230200Y-188364000D01*
G75*
G02*
X38004000Y-188590200I-226200J0D01*
G01*
X36829000Y-188590200D01*
G75*
G02*
X36602800Y-188364000I0J226200D01*
G01*
X36602800Y-188064000D01*
G75*
G02*
X36829000Y-187837800I226200J0D01*
G01*
X38004000Y-187837800D01*
G75*
G02*
X38230200Y-188064000I0J-226200D01*
G01*
G37*
G36*
G01*
X35283200Y-126804000D02*
X35283200Y-127704000D01*
G75*
G02*
X34957000Y-128030200I-326200J0D01*
G01*
X34432000Y-128030200D01*
G75*
G02*
X34105800Y-127704000I0J326200D01*
G01*
X34105800Y-126804000D01*
G75*
G02*
X34432000Y-126477800I326200J0D01*
G01*
X34957000Y-126477800D01*
G75*
G02*
X35283200Y-126804000I0J-326200D01*
G01*
G37*
G36*
G01*
X33458200Y-126804000D02*
X33458200Y-127704000D01*
G75*
G02*
X33132000Y-128030200I-326200J0D01*
G01*
X32607000Y-128030200D01*
G75*
G02*
X32280800Y-127704000I0J326200D01*
G01*
X32280800Y-126804000D01*
G75*
G02*
X32607000Y-126477800I326200J0D01*
G01*
X33132000Y-126477800D01*
G75*
G02*
X33458200Y-126804000I0J-326200D01*
G01*
G37*
G36*
G01*
X60048200Y-175826000D02*
X60048200Y-176726000D01*
G75*
G02*
X59722000Y-177052200I-326200J0D01*
G01*
X59197000Y-177052200D01*
G75*
G02*
X58870800Y-176726000I0J326200D01*
G01*
X58870800Y-175826000D01*
G75*
G02*
X59197000Y-175499800I326200J0D01*
G01*
X59722000Y-175499800D01*
G75*
G02*
X60048200Y-175826000I0J-326200D01*
G01*
G37*
G36*
G01*
X58223200Y-175826000D02*
X58223200Y-176726000D01*
G75*
G02*
X57897000Y-177052200I-326200J0D01*
G01*
X57372000Y-177052200D01*
G75*
G02*
X57045800Y-176726000I0J326200D01*
G01*
X57045800Y-175826000D01*
G75*
G02*
X57372000Y-175499800I326200J0D01*
G01*
X57897000Y-175499800D01*
G75*
G02*
X58223200Y-175826000I0J-326200D01*
G01*
G37*
G36*
G01*
X48989000Y-114810200D02*
X48039000Y-114810200D01*
G75*
G02*
X47712800Y-114484000I0J326200D01*
G01*
X47712800Y-113984000D01*
G75*
G02*
X48039000Y-113657800I326200J0D01*
G01*
X48989000Y-113657800D01*
G75*
G02*
X49315200Y-113984000I0J-326200D01*
G01*
X49315200Y-114484000D01*
G75*
G02*
X48989000Y-114810200I-326200J0D01*
G01*
G37*
G36*
G01*
X48989000Y-112910200D02*
X48039000Y-112910200D01*
G75*
G02*
X47712800Y-112584000I0J326200D01*
G01*
X47712800Y-112084000D01*
G75*
G02*
X48039000Y-111757800I326200J0D01*
G01*
X48989000Y-111757800D01*
G75*
G02*
X49315200Y-112084000I0J-326200D01*
G01*
X49315200Y-112584000D01*
G75*
G02*
X48989000Y-112910200I-326200J0D01*
G01*
G37*
G36*
G01*
X37178000Y-177040200D02*
X36228000Y-177040200D01*
G75*
G02*
X35901800Y-176714000I0J326200D01*
G01*
X35901800Y-176214000D01*
G75*
G02*
X36228000Y-175887800I326200J0D01*
G01*
X37178000Y-175887800D01*
G75*
G02*
X37504200Y-176214000I0J-326200D01*
G01*
X37504200Y-176714000D01*
G75*
G02*
X37178000Y-177040200I-326200J0D01*
G01*
G37*
G36*
G01*
X37178000Y-175140200D02*
X36228000Y-175140200D01*
G75*
G02*
X35901800Y-174814000I0J326200D01*
G01*
X35901800Y-174314000D01*
G75*
G02*
X36228000Y-173987800I326200J0D01*
G01*
X37178000Y-173987800D01*
G75*
G02*
X37504200Y-174314000I0J-326200D01*
G01*
X37504200Y-174814000D01*
G75*
G02*
X37178000Y-175140200I-326200J0D01*
G01*
G37*
G36*
G01*
X51250000Y-107927200D02*
X50350000Y-107927200D01*
G75*
G02*
X50023800Y-107601000I0J326200D01*
G01*
X50023800Y-107076000D01*
G75*
G02*
X50350000Y-106749800I326200J0D01*
G01*
X51250000Y-106749800D01*
G75*
G02*
X51576200Y-107076000I0J-326200D01*
G01*
X51576200Y-107601000D01*
G75*
G02*
X51250000Y-107927200I-326200J0D01*
G01*
G37*
G36*
G01*
X51250000Y-106102200D02*
X50350000Y-106102200D01*
G75*
G02*
X50023800Y-105776000I0J326200D01*
G01*
X50023800Y-105251000D01*
G75*
G02*
X50350000Y-104924800I326200J0D01*
G01*
X51250000Y-104924800D01*
G75*
G02*
X51576200Y-105251000I0J-326200D01*
G01*
X51576200Y-105776000D01*
G75*
G02*
X51250000Y-106102200I-326200J0D01*
G01*
G37*
G36*
G01*
X40236200Y-154490000D02*
X40236200Y-155390000D01*
G75*
G02*
X39910000Y-155716200I-326200J0D01*
G01*
X39385000Y-155716200D01*
G75*
G02*
X39058800Y-155390000I0J326200D01*
G01*
X39058800Y-154490000D01*
G75*
G02*
X39385000Y-154163800I326200J0D01*
G01*
X39910000Y-154163800D01*
G75*
G02*
X40236200Y-154490000I0J-326200D01*
G01*
G37*
G36*
G01*
X38411200Y-154490000D02*
X38411200Y-155390000D01*
G75*
G02*
X38085000Y-155716200I-326200J0D01*
G01*
X37560000Y-155716200D01*
G75*
G02*
X37233800Y-155390000I0J326200D01*
G01*
X37233800Y-154490000D01*
G75*
G02*
X37560000Y-154163800I326200J0D01*
G01*
X38085000Y-154163800D01*
G75*
G02*
X38411200Y-154490000I0J-326200D01*
G01*
G37*
G36*
G01*
X64366200Y-151943750D02*
X64366200Y-152856250D01*
G75*
G02*
X64046250Y-153176200I-319950J0D01*
G01*
X63558750Y-153176200D01*
G75*
G02*
X63238800Y-152856250I0J319950D01*
G01*
X63238800Y-151943750D01*
G75*
G02*
X63558750Y-151623800I319950J0D01*
G01*
X64046250Y-151623800D01*
G75*
G02*
X64366200Y-151943750I0J-319950D01*
G01*
G37*
G36*
G01*
X62491200Y-151943750D02*
X62491200Y-152856250D01*
G75*
G02*
X62171250Y-153176200I-319950J0D01*
G01*
X61683750Y-153176200D01*
G75*
G02*
X61363800Y-152856250I0J319950D01*
G01*
X61363800Y-151943750D01*
G75*
G02*
X61683750Y-151623800I319950J0D01*
G01*
X62171250Y-151623800D01*
G75*
G02*
X62491200Y-151943750I0J-319950D01*
G01*
G37*
G36*
G01*
X48364200Y-186240000D02*
X48364200Y-187140000D01*
G75*
G02*
X48038000Y-187466200I-326200J0D01*
G01*
X47513000Y-187466200D01*
G75*
G02*
X47186800Y-187140000I0J326200D01*
G01*
X47186800Y-186240000D01*
G75*
G02*
X47513000Y-185913800I326200J0D01*
G01*
X48038000Y-185913800D01*
G75*
G02*
X48364200Y-186240000I0J-326200D01*
G01*
G37*
G36*
G01*
X46539200Y-186240000D02*
X46539200Y-187140000D01*
G75*
G02*
X46213000Y-187466200I-326200J0D01*
G01*
X45688000Y-187466200D01*
G75*
G02*
X45361800Y-187140000I0J326200D01*
G01*
X45361800Y-186240000D01*
G75*
G02*
X45688000Y-185913800I326200J0D01*
G01*
X46213000Y-185913800D01*
G75*
G02*
X46539200Y-186240000I0J-326200D01*
G01*
G37*
G36*
G01*
X36446800Y-127729000D02*
X36446800Y-126779000D01*
G75*
G02*
X36773000Y-126452800I326200J0D01*
G01*
X37273000Y-126452800D01*
G75*
G02*
X37599200Y-126779000I0J-326200D01*
G01*
X37599200Y-127729000D01*
G75*
G02*
X37273000Y-128055200I-326200J0D01*
G01*
X36773000Y-128055200D01*
G75*
G02*
X36446800Y-127729000I0J326200D01*
G01*
G37*
G36*
G01*
X38346800Y-127729000D02*
X38346800Y-126779000D01*
G75*
G02*
X38673000Y-126452800I326200J0D01*
G01*
X39173000Y-126452800D01*
G75*
G02*
X39499200Y-126779000I0J-326200D01*
G01*
X39499200Y-127729000D01*
G75*
G02*
X39173000Y-128055200I-326200J0D01*
G01*
X38673000Y-128055200D01*
G75*
G02*
X38346800Y-127729000I0J326200D01*
G01*
G37*
G36*
G01*
X65000000Y-189536200D02*
X62000000Y-189536200D01*
G75*
G02*
X61923800Y-189460000I0J76200D01*
G01*
X61923800Y-186460000D01*
G75*
G02*
X62000000Y-186383800I76200J0D01*
G01*
X65000000Y-186383800D01*
G75*
G02*
X65076200Y-186460000I0J-76200D01*
G01*
X65076200Y-189460000D01*
G75*
G02*
X65000000Y-189536200I-76200J0D01*
G01*
G37*
D12*
X50800000Y-187960000D03*
M02*
