G04 #@! TF.GenerationSoftware,KiCad,Pcbnew,6.0.10-86aedd382b~118~ubuntu18.04.1*
G04 #@! TF.CreationDate,2024-08-26T14:05:47-06:00*
G04 #@! TF.ProjectId,mss-debug,6d73732d-6465-4627-9567-2e6b69636164,rev?*
G04 #@! TF.SameCoordinates,Original*
G04 #@! TF.FileFunction,Legend,Top*
G04 #@! TF.FilePolarity,Positive*
%FSLAX46Y46*%
G04 Gerber Fmt 4.6, Leading zero omitted, Abs format (unit mm)*
G04 Created by KiCad (PCBNEW 6.0.10-86aedd382b~118~ubuntu18.04.1) date 2024-08-26 14:05:47*
%MOMM*%
%LPD*%
G01*
G04 APERTURE LIST*
%ADD10C,0.203200*%
%ADD11C,0.300000*%
%ADD12C,0.254000*%
%ADD13C,0.150000*%
%ADD14C,0.120000*%
%ADD15C,0.152400*%
G04 APERTURE END LIST*
D10*
X57086500Y-121793000D02*
X58229500Y-121031000D01*
X44386500Y-121793000D02*
X43243500Y-122555000D01*
X57023000Y-125857000D02*
X58166000Y-125095000D01*
X60579000Y-167862250D02*
X60579000Y-161321750D01*
X57086500Y-121793000D02*
X58229500Y-122555000D01*
X25781000Y-147066000D02*
X44259500Y-147066000D01*
X44450000Y-125857000D02*
X43307000Y-126619000D01*
X57023000Y-125857000D02*
X58166000Y-126619000D01*
X44450000Y-125857000D02*
X43307000Y-125095000D01*
X75692000Y-125857000D02*
X57023000Y-125857000D01*
X57150000Y-130683000D02*
X75628500Y-130683000D01*
X25971500Y-125857000D02*
X44450000Y-125857000D01*
X42037000Y-163703000D02*
X42037000Y-152654000D01*
X60579000Y-161290000D02*
X75692000Y-161290000D01*
X59944000Y-159258000D02*
X59944000Y-152717500D01*
X44386500Y-121793000D02*
X43243500Y-121031000D01*
X75692000Y-121793000D02*
X57086500Y-121793000D01*
X25908000Y-121793000D02*
X44386500Y-121793000D01*
X57181750Y-146812000D02*
X75660250Y-146812000D01*
X42037000Y-152654000D02*
X59944000Y-152654000D01*
D11*
X30321428Y-188535571D02*
X30607142Y-188535571D01*
X30750000Y-188607000D01*
X30892857Y-188749857D01*
X30964285Y-189035571D01*
X30964285Y-189535571D01*
X30892857Y-189821285D01*
X30750000Y-189964142D01*
X30607142Y-190035571D01*
X30321428Y-190035571D01*
X30178571Y-189964142D01*
X30035714Y-189821285D01*
X29964285Y-189535571D01*
X29964285Y-189035571D01*
X30035714Y-188749857D01*
X30178571Y-188607000D01*
X30321428Y-188535571D01*
X32107142Y-189249857D02*
X31607142Y-189249857D01*
X31607142Y-190035571D02*
X31607142Y-188535571D01*
X32321428Y-188535571D01*
X33392857Y-189249857D02*
X32892857Y-189249857D01*
X32892857Y-190035571D02*
X32892857Y-188535571D01*
X33607142Y-188535571D01*
D12*
X26030766Y-124980095D02*
X26284766Y-125101047D01*
X26708100Y-125101047D01*
X26877433Y-124980095D01*
X26962100Y-124859142D01*
X27046766Y-124617238D01*
X27046766Y-124375333D01*
X26962100Y-124133428D01*
X26877433Y-124012476D01*
X26708100Y-123891523D01*
X26369433Y-123770571D01*
X26200100Y-123649619D01*
X26115433Y-123528666D01*
X26030766Y-123286761D01*
X26030766Y-123044857D01*
X26115433Y-122802952D01*
X26200100Y-122682000D01*
X26369433Y-122561047D01*
X26792766Y-122561047D01*
X27046766Y-122682000D01*
X27808766Y-125101047D02*
X27808766Y-122561047D01*
X29586766Y-122682000D02*
X29417433Y-122561047D01*
X29163433Y-122561047D01*
X28909433Y-122682000D01*
X28740100Y-122923904D01*
X28655433Y-123165809D01*
X28570766Y-123649619D01*
X28570766Y-124012476D01*
X28655433Y-124496285D01*
X28740100Y-124738190D01*
X28909433Y-124980095D01*
X29163433Y-125101047D01*
X29332766Y-125101047D01*
X29586766Y-124980095D01*
X29671433Y-124859142D01*
X29671433Y-124012476D01*
X29332766Y-124012476D01*
X30433433Y-125101047D02*
X30433433Y-122561047D01*
X31449433Y-125101047D01*
X31449433Y-122561047D01*
X32211433Y-124375333D02*
X33058100Y-124375333D01*
X32042100Y-125101047D02*
X32634766Y-122561047D01*
X33227433Y-125101047D01*
X34666766Y-125101047D02*
X33820100Y-125101047D01*
X33820100Y-122561047D01*
X35174766Y-124980095D02*
X35428766Y-125101047D01*
X35852100Y-125101047D01*
X36021433Y-124980095D01*
X36106100Y-124859142D01*
X36190766Y-124617238D01*
X36190766Y-124375333D01*
X36106100Y-124133428D01*
X36021433Y-124012476D01*
X35852100Y-123891523D01*
X35513433Y-123770571D01*
X35344100Y-123649619D01*
X35259433Y-123528666D01*
X35174766Y-123286761D01*
X35174766Y-123044857D01*
X35259433Y-122802952D01*
X35344100Y-122682000D01*
X35513433Y-122561047D01*
X35936766Y-122561047D01*
X36190766Y-122682000D01*
X38307433Y-125101047D02*
X38307433Y-122561047D01*
X39154100Y-125101047D02*
X39154100Y-122561047D01*
X40170100Y-125101047D01*
X40170100Y-122561047D01*
D11*
X30567428Y-175962571D02*
X30853142Y-175962571D01*
X30996000Y-176034000D01*
X31138857Y-176176857D01*
X31210285Y-176462571D01*
X31210285Y-176962571D01*
X31138857Y-177248285D01*
X30996000Y-177391142D01*
X30853142Y-177462571D01*
X30567428Y-177462571D01*
X30424571Y-177391142D01*
X30281714Y-177248285D01*
X30210285Y-176962571D01*
X30210285Y-176462571D01*
X30281714Y-176176857D01*
X30424571Y-176034000D01*
X30567428Y-175962571D01*
X31853142Y-177462571D02*
X31853142Y-175962571D01*
X32710285Y-177462571D01*
X32710285Y-175962571D01*
D12*
X59945814Y-120414142D02*
X59522480Y-120414142D01*
X59522480Y-121212428D02*
X59522480Y-119688428D01*
X60127242Y-119688428D01*
X61336766Y-121212428D02*
X60913433Y-120486714D01*
X60611052Y-121212428D02*
X60611052Y-119688428D01*
X61094861Y-119688428D01*
X61215814Y-119761000D01*
X61276290Y-119833571D01*
X61336766Y-119978714D01*
X61336766Y-120196428D01*
X61276290Y-120341571D01*
X61215814Y-120414142D01*
X61094861Y-120486714D01*
X60611052Y-120486714D01*
X62122957Y-119688428D02*
X62364861Y-119688428D01*
X62485814Y-119761000D01*
X62606766Y-119906142D01*
X62667242Y-120196428D01*
X62667242Y-120704428D01*
X62606766Y-120994714D01*
X62485814Y-121139857D01*
X62364861Y-121212428D01*
X62122957Y-121212428D01*
X62002004Y-121139857D01*
X61881052Y-120994714D01*
X61820576Y-120704428D01*
X61820576Y-120196428D01*
X61881052Y-119906142D01*
X62002004Y-119761000D01*
X62122957Y-119688428D01*
X63211528Y-121212428D02*
X63211528Y-119688428D01*
X63634861Y-120777000D01*
X64058195Y-119688428D01*
X64058195Y-121212428D01*
X65630576Y-121212428D02*
X65630576Y-119688428D01*
X66356290Y-121212428D01*
X66356290Y-119688428D01*
X67202957Y-119688428D02*
X67444861Y-119688428D01*
X67565814Y-119761000D01*
X67686766Y-119906142D01*
X67747242Y-120196428D01*
X67747242Y-120704428D01*
X67686766Y-120994714D01*
X67565814Y-121139857D01*
X67444861Y-121212428D01*
X67202957Y-121212428D01*
X67082004Y-121139857D01*
X66961052Y-120994714D01*
X66900576Y-120704428D01*
X66900576Y-120196428D01*
X66961052Y-119906142D01*
X67082004Y-119761000D01*
X67202957Y-119688428D01*
X68291528Y-121212428D02*
X68291528Y-119688428D01*
X68593909Y-119688428D01*
X68775338Y-119761000D01*
X68896290Y-119906142D01*
X68956766Y-120051285D01*
X69017242Y-120341571D01*
X69017242Y-120559285D01*
X68956766Y-120849571D01*
X68896290Y-120994714D01*
X68775338Y-121139857D01*
X68593909Y-121212428D01*
X68291528Y-121212428D01*
X69561528Y-120414142D02*
X69984861Y-120414142D01*
X70166290Y-121212428D02*
X69561528Y-121212428D01*
X69561528Y-119688428D01*
X70166290Y-119688428D01*
X72645814Y-120196428D02*
X71678195Y-120631857D01*
X72645814Y-121067285D01*
X74218195Y-120196428D02*
X73250576Y-120631857D01*
X74218195Y-121067285D01*
X75790576Y-120196428D02*
X74822957Y-120631857D01*
X75790576Y-121067285D01*
D11*
X74106047Y-180497238D02*
X75363952Y-180497238D01*
X74686619Y-181271333D01*
X74976904Y-181271333D01*
X75170428Y-181368095D01*
X75267190Y-181464857D01*
X75363952Y-181658380D01*
X75363952Y-182142190D01*
X75267190Y-182335714D01*
X75170428Y-182432476D01*
X74976904Y-182529238D01*
X74396333Y-182529238D01*
X74202809Y-182432476D01*
X74106047Y-182335714D01*
X64804809Y-180690761D02*
X64901571Y-180594000D01*
X65095095Y-180497238D01*
X65578904Y-180497238D01*
X65772428Y-180594000D01*
X65869190Y-180690761D01*
X65965952Y-180884285D01*
X65965952Y-181077809D01*
X65869190Y-181368095D01*
X64708047Y-182529238D01*
X65965952Y-182529238D01*
X64211285Y-163809071D02*
X64211285Y-162309071D01*
X64568428Y-162309071D01*
X64782714Y-162380500D01*
X64925571Y-162523357D01*
X64997000Y-162666214D01*
X65068428Y-162951928D01*
X65068428Y-163166214D01*
X64997000Y-163451928D01*
X64925571Y-163594785D01*
X64782714Y-163737642D01*
X64568428Y-163809071D01*
X64211285Y-163809071D01*
X65711285Y-163809071D02*
X65711285Y-162309071D01*
X66211285Y-162309071D02*
X66711285Y-163809071D01*
X67211285Y-162309071D01*
X67711285Y-163023357D02*
X68211285Y-163023357D01*
X68425571Y-163809071D02*
X67711285Y-163809071D01*
X67711285Y-162309071D01*
X68425571Y-162309071D01*
X69925571Y-163809071D02*
X69425571Y-163094785D01*
X69068428Y-163809071D02*
X69068428Y-162309071D01*
X69639857Y-162309071D01*
X69782714Y-162380500D01*
X69854142Y-162451928D01*
X69925571Y-162594785D01*
X69925571Y-162809071D01*
X69854142Y-162951928D01*
X69782714Y-163023357D01*
X69639857Y-163094785D01*
X69068428Y-163094785D01*
X71354142Y-162380500D02*
X71211285Y-162309071D01*
X70997000Y-162309071D01*
X70782714Y-162380500D01*
X70639857Y-162523357D01*
X70568428Y-162666214D01*
X70497000Y-162951928D01*
X70497000Y-163166214D01*
X70568428Y-163451928D01*
X70639857Y-163594785D01*
X70782714Y-163737642D01*
X70997000Y-163809071D01*
X71139857Y-163809071D01*
X71354142Y-163737642D01*
X71425571Y-163666214D01*
X71425571Y-163166214D01*
X71139857Y-163166214D01*
X72068428Y-163809071D02*
X72068428Y-162309071D01*
X72782714Y-163809071D02*
X72782714Y-162309071D01*
X73639857Y-163809071D01*
X73639857Y-162309071D01*
X75139857Y-162380500D02*
X74997000Y-162309071D01*
X74782714Y-162309071D01*
X74568428Y-162380500D01*
X74425571Y-162523357D01*
X74354142Y-162666214D01*
X74282714Y-162951928D01*
X74282714Y-163166214D01*
X74354142Y-163451928D01*
X74425571Y-163594785D01*
X74568428Y-163737642D01*
X74782714Y-163809071D01*
X74925571Y-163809071D01*
X75139857Y-163737642D01*
X75211285Y-163666214D01*
X75211285Y-163166214D01*
X74925571Y-163166214D01*
X64068428Y-165795500D02*
X64782714Y-165795500D01*
X63925571Y-166224071D02*
X64425571Y-164724071D01*
X64925571Y-166224071D01*
X65425571Y-166224071D02*
X65425571Y-164724071D01*
X65997000Y-164724071D01*
X66139857Y-164795500D01*
X66211285Y-164866928D01*
X66282714Y-165009785D01*
X66282714Y-165224071D01*
X66211285Y-165366928D01*
X66139857Y-165438357D01*
X65997000Y-165509785D01*
X65425571Y-165509785D01*
X66925571Y-166224071D02*
X66925571Y-164724071D01*
X67497000Y-164724071D01*
X67639857Y-164795500D01*
X67711285Y-164866928D01*
X67782714Y-165009785D01*
X67782714Y-165224071D01*
X67711285Y-165366928D01*
X67639857Y-165438357D01*
X67497000Y-165509785D01*
X66925571Y-165509785D01*
X69282714Y-166224071D02*
X68782714Y-165509785D01*
X68425571Y-166224071D02*
X68425571Y-164724071D01*
X68997000Y-164724071D01*
X69139857Y-164795500D01*
X69211285Y-164866928D01*
X69282714Y-165009785D01*
X69282714Y-165224071D01*
X69211285Y-165366928D01*
X69139857Y-165438357D01*
X68997000Y-165509785D01*
X68425571Y-165509785D01*
X70211285Y-164724071D02*
X70497000Y-164724071D01*
X70639857Y-164795500D01*
X70782714Y-164938357D01*
X70854142Y-165224071D01*
X70854142Y-165724071D01*
X70782714Y-166009785D01*
X70639857Y-166152642D01*
X70497000Y-166224071D01*
X70211285Y-166224071D01*
X70068428Y-166152642D01*
X69925571Y-166009785D01*
X69854142Y-165724071D01*
X69854142Y-165224071D01*
X69925571Y-164938357D01*
X70068428Y-164795500D01*
X70211285Y-164724071D01*
X71425571Y-165795500D02*
X72139857Y-165795500D01*
X71282714Y-166224071D02*
X71782714Y-164724071D01*
X72282714Y-166224071D01*
X73639857Y-166081214D02*
X73568428Y-166152642D01*
X73354142Y-166224071D01*
X73211285Y-166224071D01*
X72997000Y-166152642D01*
X72854142Y-166009785D01*
X72782714Y-165866928D01*
X72711285Y-165581214D01*
X72711285Y-165366928D01*
X72782714Y-165081214D01*
X72854142Y-164938357D01*
X72997000Y-164795500D01*
X73211285Y-164724071D01*
X73354142Y-164724071D01*
X73568428Y-164795500D01*
X73639857Y-164866928D01*
X74282714Y-166224071D02*
X74282714Y-164724071D01*
X74282714Y-165438357D02*
X75139857Y-165438357D01*
X75139857Y-166224071D02*
X75139857Y-164724071D01*
X44264285Y-154919071D02*
X43550000Y-154919071D01*
X43550000Y-153419071D01*
X45050000Y-153419071D02*
X45335714Y-153419071D01*
X45478571Y-153490500D01*
X45621428Y-153633357D01*
X45692857Y-153919071D01*
X45692857Y-154419071D01*
X45621428Y-154704785D01*
X45478571Y-154847642D01*
X45335714Y-154919071D01*
X45050000Y-154919071D01*
X44907142Y-154847642D01*
X44764285Y-154704785D01*
X44692857Y-154419071D01*
X44692857Y-153919071D01*
X44764285Y-153633357D01*
X44907142Y-153490500D01*
X45050000Y-153419071D01*
X47192857Y-154776214D02*
X47121428Y-154847642D01*
X46907142Y-154919071D01*
X46764285Y-154919071D01*
X46550000Y-154847642D01*
X46407142Y-154704785D01*
X46335714Y-154561928D01*
X46264285Y-154276214D01*
X46264285Y-154061928D01*
X46335714Y-153776214D01*
X46407142Y-153633357D01*
X46550000Y-153490500D01*
X46764285Y-153419071D01*
X46907142Y-153419071D01*
X47121428Y-153490500D01*
X47192857Y-153561928D01*
X47764285Y-154490500D02*
X48478571Y-154490500D01*
X47621428Y-154919071D02*
X48121428Y-153419071D01*
X48621428Y-154919071D01*
X49835714Y-154919071D02*
X49121428Y-154919071D01*
X49121428Y-153419071D01*
X51978571Y-154133357D02*
X52192857Y-154204785D01*
X52264285Y-154276214D01*
X52335714Y-154419071D01*
X52335714Y-154633357D01*
X52264285Y-154776214D01*
X52192857Y-154847642D01*
X52050000Y-154919071D01*
X51478571Y-154919071D01*
X51478571Y-153419071D01*
X51978571Y-153419071D01*
X52121428Y-153490500D01*
X52192857Y-153561928D01*
X52264285Y-153704785D01*
X52264285Y-153847642D01*
X52192857Y-153990500D01*
X52121428Y-154061928D01*
X51978571Y-154133357D01*
X51478571Y-154133357D01*
X53692857Y-154919071D02*
X52978571Y-154919071D01*
X52978571Y-153419071D01*
X54478571Y-153419071D02*
X54764285Y-153419071D01*
X54907142Y-153490500D01*
X55050000Y-153633357D01*
X55121428Y-153919071D01*
X55121428Y-154419071D01*
X55050000Y-154704785D01*
X54907142Y-154847642D01*
X54764285Y-154919071D01*
X54478571Y-154919071D01*
X54335714Y-154847642D01*
X54192857Y-154704785D01*
X54121428Y-154419071D01*
X54121428Y-153919071D01*
X54192857Y-153633357D01*
X54335714Y-153490500D01*
X54478571Y-153419071D01*
X56621428Y-154776214D02*
X56550000Y-154847642D01*
X56335714Y-154919071D01*
X56192857Y-154919071D01*
X55978571Y-154847642D01*
X55835714Y-154704785D01*
X55764285Y-154561928D01*
X55692857Y-154276214D01*
X55692857Y-154061928D01*
X55764285Y-153776214D01*
X55835714Y-153633357D01*
X55978571Y-153490500D01*
X56192857Y-153419071D01*
X56335714Y-153419071D01*
X56550000Y-153490500D01*
X56621428Y-153561928D01*
X57264285Y-154919071D02*
X57264285Y-153419071D01*
X58121428Y-154919071D02*
X57478571Y-154061928D01*
X58121428Y-153419071D02*
X57264285Y-154276214D01*
X44800000Y-155834071D02*
X45085714Y-155834071D01*
X45228571Y-155905500D01*
X45371428Y-156048357D01*
X45442857Y-156334071D01*
X45442857Y-156834071D01*
X45371428Y-157119785D01*
X45228571Y-157262642D01*
X45085714Y-157334071D01*
X44800000Y-157334071D01*
X44657142Y-157262642D01*
X44514285Y-157119785D01*
X44442857Y-156834071D01*
X44442857Y-156334071D01*
X44514285Y-156048357D01*
X44657142Y-155905500D01*
X44800000Y-155834071D01*
X46942857Y-157191214D02*
X46871428Y-157262642D01*
X46657142Y-157334071D01*
X46514285Y-157334071D01*
X46300000Y-157262642D01*
X46157142Y-157119785D01*
X46085714Y-156976928D01*
X46014285Y-156691214D01*
X46014285Y-156476928D01*
X46085714Y-156191214D01*
X46157142Y-156048357D01*
X46300000Y-155905500D01*
X46514285Y-155834071D01*
X46657142Y-155834071D01*
X46871428Y-155905500D01*
X46942857Y-155976928D01*
X48442857Y-157191214D02*
X48371428Y-157262642D01*
X48157142Y-157334071D01*
X48014285Y-157334071D01*
X47800000Y-157262642D01*
X47657142Y-157119785D01*
X47585714Y-156976928D01*
X47514285Y-156691214D01*
X47514285Y-156476928D01*
X47585714Y-156191214D01*
X47657142Y-156048357D01*
X47800000Y-155905500D01*
X48014285Y-155834071D01*
X48157142Y-155834071D01*
X48371428Y-155905500D01*
X48442857Y-155976928D01*
X49085714Y-155834071D02*
X49085714Y-157048357D01*
X49157142Y-157191214D01*
X49228571Y-157262642D01*
X49371428Y-157334071D01*
X49657142Y-157334071D01*
X49800000Y-157262642D01*
X49871428Y-157191214D01*
X49942857Y-157048357D01*
X49942857Y-155834071D01*
X50657142Y-157334071D02*
X50657142Y-155834071D01*
X51228571Y-155834071D01*
X51371428Y-155905500D01*
X51442857Y-155976928D01*
X51514285Y-156119785D01*
X51514285Y-156334071D01*
X51442857Y-156476928D01*
X51371428Y-156548357D01*
X51228571Y-156619785D01*
X50657142Y-156619785D01*
X52085714Y-156905500D02*
X52800000Y-156905500D01*
X51942857Y-157334071D02*
X52442857Y-155834071D01*
X52942857Y-157334071D01*
X53442857Y-157334071D02*
X53442857Y-155834071D01*
X54300000Y-157334071D01*
X54300000Y-155834071D01*
X55871428Y-157191214D02*
X55800000Y-157262642D01*
X55585714Y-157334071D01*
X55442857Y-157334071D01*
X55228571Y-157262642D01*
X55085714Y-157119785D01*
X55014285Y-156976928D01*
X54942857Y-156691214D01*
X54942857Y-156476928D01*
X55014285Y-156191214D01*
X55085714Y-156048357D01*
X55228571Y-155905500D01*
X55442857Y-155834071D01*
X55585714Y-155834071D01*
X55800000Y-155905500D01*
X55871428Y-155976928D01*
X56800000Y-156619785D02*
X56800000Y-157334071D01*
X56300000Y-155834071D02*
X56800000Y-156619785D01*
X57300000Y-155834071D01*
D12*
X58847566Y-124980095D02*
X59101566Y-125101047D01*
X59524900Y-125101047D01*
X59694233Y-124980095D01*
X59778900Y-124859142D01*
X59863566Y-124617238D01*
X59863566Y-124375333D01*
X59778900Y-124133428D01*
X59694233Y-124012476D01*
X59524900Y-123891523D01*
X59186233Y-123770571D01*
X59016900Y-123649619D01*
X58932233Y-123528666D01*
X58847566Y-123286761D01*
X58847566Y-123044857D01*
X58932233Y-122802952D01*
X59016900Y-122682000D01*
X59186233Y-122561047D01*
X59609566Y-122561047D01*
X59863566Y-122682000D01*
X60625566Y-125101047D02*
X60625566Y-122561047D01*
X62403566Y-122682000D02*
X62234233Y-122561047D01*
X61980233Y-122561047D01*
X61726233Y-122682000D01*
X61556900Y-122923904D01*
X61472233Y-123165809D01*
X61387566Y-123649619D01*
X61387566Y-124012476D01*
X61472233Y-124496285D01*
X61556900Y-124738190D01*
X61726233Y-124980095D01*
X61980233Y-125101047D01*
X62149566Y-125101047D01*
X62403566Y-124980095D01*
X62488233Y-124859142D01*
X62488233Y-124012476D01*
X62149566Y-124012476D01*
X63250233Y-125101047D02*
X63250233Y-122561047D01*
X64266233Y-125101047D01*
X64266233Y-122561047D01*
X65028233Y-124375333D02*
X65874900Y-124375333D01*
X64858900Y-125101047D02*
X65451566Y-122561047D01*
X66044233Y-125101047D01*
X67483566Y-125101047D02*
X66636900Y-125101047D01*
X66636900Y-122561047D01*
X67991566Y-124980095D02*
X68245566Y-125101047D01*
X68668900Y-125101047D01*
X68838233Y-124980095D01*
X68922900Y-124859142D01*
X69007566Y-124617238D01*
X69007566Y-124375333D01*
X68922900Y-124133428D01*
X68838233Y-124012476D01*
X68668900Y-123891523D01*
X68330233Y-123770571D01*
X68160900Y-123649619D01*
X68076233Y-123528666D01*
X67991566Y-123286761D01*
X67991566Y-123044857D01*
X68076233Y-122802952D01*
X68160900Y-122682000D01*
X68330233Y-122561047D01*
X68753566Y-122561047D01*
X69007566Y-122682000D01*
X71462900Y-122561047D02*
X71801566Y-122561047D01*
X71970900Y-122682000D01*
X72140233Y-122923904D01*
X72224900Y-123407714D01*
X72224900Y-124254380D01*
X72140233Y-124738190D01*
X71970900Y-124980095D01*
X71801566Y-125101047D01*
X71462900Y-125101047D01*
X71293566Y-124980095D01*
X71124233Y-124738190D01*
X71039566Y-124254380D01*
X71039566Y-123407714D01*
X71124233Y-122923904D01*
X71293566Y-122682000D01*
X71462900Y-122561047D01*
X72986900Y-122561047D02*
X72986900Y-124617238D01*
X73071566Y-124859142D01*
X73156233Y-124980095D01*
X73325566Y-125101047D01*
X73664233Y-125101047D01*
X73833566Y-124980095D01*
X73918233Y-124859142D01*
X74002900Y-124617238D01*
X74002900Y-122561047D01*
X74595566Y-122561047D02*
X75611566Y-122561047D01*
X75103566Y-125101047D02*
X75103566Y-122561047D01*
D11*
X41239714Y-189908571D02*
X41239714Y-188408571D01*
X41811142Y-188408571D01*
X41954000Y-188480000D01*
X42025428Y-188551428D01*
X42096857Y-188694285D01*
X42096857Y-188908571D01*
X42025428Y-189051428D01*
X41954000Y-189122857D01*
X41811142Y-189194285D01*
X41239714Y-189194285D01*
X43025428Y-188408571D02*
X43311142Y-188408571D01*
X43454000Y-188480000D01*
X43596857Y-188622857D01*
X43668285Y-188908571D01*
X43668285Y-189408571D01*
X43596857Y-189694285D01*
X43454000Y-189837142D01*
X43311142Y-189908571D01*
X43025428Y-189908571D01*
X42882571Y-189837142D01*
X42739714Y-189694285D01*
X42668285Y-189408571D01*
X42668285Y-188908571D01*
X42739714Y-188622857D01*
X42882571Y-188480000D01*
X43025428Y-188408571D01*
X44168285Y-188408571D02*
X44525428Y-189908571D01*
X44811142Y-188837142D01*
X45096857Y-189908571D01*
X45454000Y-188408571D01*
X46025428Y-189122857D02*
X46525428Y-189122857D01*
X46739714Y-189908571D02*
X46025428Y-189908571D01*
X46025428Y-188408571D01*
X46739714Y-188408571D01*
X48239714Y-189908571D02*
X47739714Y-189194285D01*
X47382571Y-189908571D02*
X47382571Y-188408571D01*
X47954000Y-188408571D01*
X48096857Y-188480000D01*
X48168285Y-188551428D01*
X48239714Y-188694285D01*
X48239714Y-188908571D01*
X48168285Y-189051428D01*
X48096857Y-189122857D01*
X47954000Y-189194285D01*
X47382571Y-189194285D01*
X60838285Y-179494571D02*
X60838285Y-177994571D01*
X61338285Y-179066000D01*
X61838285Y-177994571D01*
X61838285Y-179494571D01*
X62481142Y-179423142D02*
X62695428Y-179494571D01*
X63052571Y-179494571D01*
X63195428Y-179423142D01*
X63266857Y-179351714D01*
X63338285Y-179208857D01*
X63338285Y-179066000D01*
X63266857Y-178923142D01*
X63195428Y-178851714D01*
X63052571Y-178780285D01*
X62766857Y-178708857D01*
X62624000Y-178637428D01*
X62552571Y-178566000D01*
X62481142Y-178423142D01*
X62481142Y-178280285D01*
X62552571Y-178137428D01*
X62624000Y-178066000D01*
X62766857Y-177994571D01*
X63124000Y-177994571D01*
X63338285Y-178066000D01*
X63909714Y-179423142D02*
X64124000Y-179494571D01*
X64481142Y-179494571D01*
X64624000Y-179423142D01*
X64695428Y-179351714D01*
X64766857Y-179208857D01*
X64766857Y-179066000D01*
X64695428Y-178923142D01*
X64624000Y-178851714D01*
X64481142Y-178780285D01*
X64195428Y-178708857D01*
X64052571Y-178637428D01*
X63981142Y-178566000D01*
X63909714Y-178423142D01*
X63909714Y-178280285D01*
X63981142Y-178137428D01*
X64052571Y-178066000D01*
X64195428Y-177994571D01*
X64552571Y-177994571D01*
X64766857Y-178066000D01*
X66338285Y-177994571D02*
X66838285Y-179494571D01*
X67338285Y-177994571D01*
X67838285Y-178708857D02*
X68338285Y-178708857D01*
X68552571Y-179494571D02*
X67838285Y-179494571D01*
X67838285Y-177994571D01*
X68552571Y-177994571D01*
X70052571Y-179494571D02*
X69552571Y-178780285D01*
X69195428Y-179494571D02*
X69195428Y-177994571D01*
X69766857Y-177994571D01*
X69909714Y-178066000D01*
X69981142Y-178137428D01*
X70052571Y-178280285D01*
X70052571Y-178494571D01*
X69981142Y-178637428D01*
X69909714Y-178708857D01*
X69766857Y-178780285D01*
X69195428Y-178780285D01*
X70624000Y-179423142D02*
X70838285Y-179494571D01*
X71195428Y-179494571D01*
X71338285Y-179423142D01*
X71409714Y-179351714D01*
X71481142Y-179208857D01*
X71481142Y-179066000D01*
X71409714Y-178923142D01*
X71338285Y-178851714D01*
X71195428Y-178780285D01*
X70909714Y-178708857D01*
X70766857Y-178637428D01*
X70695428Y-178566000D01*
X70624000Y-178423142D01*
X70624000Y-178280285D01*
X70695428Y-178137428D01*
X70766857Y-178066000D01*
X70909714Y-177994571D01*
X71266857Y-177994571D01*
X71481142Y-178066000D01*
X72124000Y-179494571D02*
X72124000Y-177994571D01*
X73124000Y-177994571D02*
X73409714Y-177994571D01*
X73552571Y-178066000D01*
X73695428Y-178208857D01*
X73766857Y-178494571D01*
X73766857Y-178994571D01*
X73695428Y-179280285D01*
X73552571Y-179423142D01*
X73409714Y-179494571D01*
X73124000Y-179494571D01*
X72981142Y-179423142D01*
X72838285Y-179280285D01*
X72766857Y-178994571D01*
X72766857Y-178494571D01*
X72838285Y-178208857D01*
X72981142Y-178066000D01*
X73124000Y-177994571D01*
X74409714Y-179494571D02*
X74409714Y-177994571D01*
X75266857Y-179494571D01*
X75266857Y-177994571D01*
X65997000Y-132392500D02*
X66711285Y-132392500D01*
X65854142Y-132821071D02*
X66354142Y-131321071D01*
X66854142Y-132821071D01*
X67354142Y-132821071D02*
X67354142Y-131321071D01*
X67711285Y-131321071D01*
X67925571Y-131392500D01*
X68068428Y-131535357D01*
X68139857Y-131678214D01*
X68211285Y-131963928D01*
X68211285Y-132178214D01*
X68139857Y-132463928D01*
X68068428Y-132606785D01*
X67925571Y-132749642D01*
X67711285Y-132821071D01*
X67354142Y-132821071D01*
X68639857Y-131321071D02*
X69139857Y-132821071D01*
X69639857Y-131321071D01*
X70068428Y-132392500D02*
X70782714Y-132392500D01*
X69925571Y-132821071D02*
X70425571Y-131321071D01*
X70925571Y-132821071D01*
X71425571Y-132821071D02*
X71425571Y-131321071D01*
X72282714Y-132821071D01*
X72282714Y-131321071D01*
X73854142Y-132678214D02*
X73782714Y-132749642D01*
X73568428Y-132821071D01*
X73425571Y-132821071D01*
X73211285Y-132749642D01*
X73068428Y-132606785D01*
X72997000Y-132463928D01*
X72925571Y-132178214D01*
X72925571Y-131963928D01*
X72997000Y-131678214D01*
X73068428Y-131535357D01*
X73211285Y-131392500D01*
X73425571Y-131321071D01*
X73568428Y-131321071D01*
X73782714Y-131392500D01*
X73854142Y-131463928D01*
X74497000Y-132035357D02*
X74997000Y-132035357D01*
X75211285Y-132821071D02*
X74497000Y-132821071D01*
X74497000Y-131321071D01*
X75211285Y-131321071D01*
X58639857Y-134807500D02*
X59354142Y-134807500D01*
X58497000Y-135236071D02*
X58997000Y-133736071D01*
X59497000Y-135236071D01*
X59997000Y-135236071D02*
X59997000Y-133736071D01*
X60568428Y-133736071D01*
X60711285Y-133807500D01*
X60782714Y-133878928D01*
X60854142Y-134021785D01*
X60854142Y-134236071D01*
X60782714Y-134378928D01*
X60711285Y-134450357D01*
X60568428Y-134521785D01*
X59997000Y-134521785D01*
X61497000Y-135236071D02*
X61497000Y-133736071D01*
X62068428Y-133736071D01*
X62211285Y-133807500D01*
X62282714Y-133878928D01*
X62354142Y-134021785D01*
X62354142Y-134236071D01*
X62282714Y-134378928D01*
X62211285Y-134450357D01*
X62068428Y-134521785D01*
X61497000Y-134521785D01*
X63854142Y-135236071D02*
X63354142Y-134521785D01*
X62997000Y-135236071D02*
X62997000Y-133736071D01*
X63568428Y-133736071D01*
X63711285Y-133807500D01*
X63782714Y-133878928D01*
X63854142Y-134021785D01*
X63854142Y-134236071D01*
X63782714Y-134378928D01*
X63711285Y-134450357D01*
X63568428Y-134521785D01*
X62997000Y-134521785D01*
X64782714Y-133736071D02*
X65068428Y-133736071D01*
X65211285Y-133807500D01*
X65354142Y-133950357D01*
X65425571Y-134236071D01*
X65425571Y-134736071D01*
X65354142Y-135021785D01*
X65211285Y-135164642D01*
X65068428Y-135236071D01*
X64782714Y-135236071D01*
X64639857Y-135164642D01*
X64497000Y-135021785D01*
X64425571Y-134736071D01*
X64425571Y-134236071D01*
X64497000Y-133950357D01*
X64639857Y-133807500D01*
X64782714Y-133736071D01*
X65997000Y-134807500D02*
X66711285Y-134807500D01*
X65854142Y-135236071D02*
X66354142Y-133736071D01*
X66854142Y-135236071D01*
X68211285Y-135093214D02*
X68139857Y-135164642D01*
X67925571Y-135236071D01*
X67782714Y-135236071D01*
X67568428Y-135164642D01*
X67425571Y-135021785D01*
X67354142Y-134878928D01*
X67282714Y-134593214D01*
X67282714Y-134378928D01*
X67354142Y-134093214D01*
X67425571Y-133950357D01*
X67568428Y-133807500D01*
X67782714Y-133736071D01*
X67925571Y-133736071D01*
X68139857Y-133807500D01*
X68211285Y-133878928D01*
X68854142Y-135236071D02*
X68854142Y-133736071D01*
X68854142Y-134450357D02*
X69711285Y-134450357D01*
X69711285Y-135236071D02*
X69711285Y-133736071D01*
X71854142Y-133736071D02*
X72139857Y-133736071D01*
X72282714Y-133807500D01*
X72425571Y-133950357D01*
X72497000Y-134236071D01*
X72497000Y-134736071D01*
X72425571Y-135021785D01*
X72282714Y-135164642D01*
X72139857Y-135236071D01*
X71854142Y-135236071D01*
X71711285Y-135164642D01*
X71568428Y-135021785D01*
X71497000Y-134736071D01*
X71497000Y-134236071D01*
X71568428Y-133950357D01*
X71711285Y-133807500D01*
X71854142Y-133736071D01*
X73139857Y-133736071D02*
X73139857Y-134950357D01*
X73211285Y-135093214D01*
X73282714Y-135164642D01*
X73425571Y-135236071D01*
X73711285Y-135236071D01*
X73854142Y-135164642D01*
X73925571Y-135093214D01*
X73997000Y-134950357D01*
X73997000Y-133736071D01*
X74497000Y-133736071D02*
X75354142Y-133736071D01*
X74925571Y-135236071D02*
X74925571Y-133736071D01*
X53471428Y-147100571D02*
X53471428Y-147457714D01*
X53114285Y-147314857D02*
X53471428Y-147457714D01*
X53828571Y-147314857D01*
X53257142Y-147743428D02*
X53471428Y-147457714D01*
X53685714Y-147743428D01*
X26388714Y-148840000D02*
X27103000Y-148840000D01*
X26245857Y-149268571D02*
X26745857Y-147768571D01*
X27245857Y-149268571D01*
X27745857Y-149268571D02*
X27745857Y-147768571D01*
X28317285Y-147768571D01*
X28460142Y-147840000D01*
X28531571Y-147911428D01*
X28603000Y-148054285D01*
X28603000Y-148268571D01*
X28531571Y-148411428D01*
X28460142Y-148482857D01*
X28317285Y-148554285D01*
X27745857Y-148554285D01*
X29245857Y-149268571D02*
X29245857Y-147768571D01*
X29817285Y-147768571D01*
X29960142Y-147840000D01*
X30031571Y-147911428D01*
X30103000Y-148054285D01*
X30103000Y-148268571D01*
X30031571Y-148411428D01*
X29960142Y-148482857D01*
X29817285Y-148554285D01*
X29245857Y-148554285D01*
X31603000Y-149268571D02*
X31103000Y-148554285D01*
X30745857Y-149268571D02*
X30745857Y-147768571D01*
X31317285Y-147768571D01*
X31460142Y-147840000D01*
X31531571Y-147911428D01*
X31603000Y-148054285D01*
X31603000Y-148268571D01*
X31531571Y-148411428D01*
X31460142Y-148482857D01*
X31317285Y-148554285D01*
X30745857Y-148554285D01*
X32531571Y-147768571D02*
X32817285Y-147768571D01*
X32960142Y-147840000D01*
X33103000Y-147982857D01*
X33174428Y-148268571D01*
X33174428Y-148768571D01*
X33103000Y-149054285D01*
X32960142Y-149197142D01*
X32817285Y-149268571D01*
X32531571Y-149268571D01*
X32388714Y-149197142D01*
X32245857Y-149054285D01*
X32174428Y-148768571D01*
X32174428Y-148268571D01*
X32245857Y-147982857D01*
X32388714Y-147840000D01*
X32531571Y-147768571D01*
X33745857Y-148840000D02*
X34460142Y-148840000D01*
X33603000Y-149268571D02*
X34103000Y-147768571D01*
X34603000Y-149268571D01*
X35960142Y-149125714D02*
X35888714Y-149197142D01*
X35674428Y-149268571D01*
X35531571Y-149268571D01*
X35317285Y-149197142D01*
X35174428Y-149054285D01*
X35103000Y-148911428D01*
X35031571Y-148625714D01*
X35031571Y-148411428D01*
X35103000Y-148125714D01*
X35174428Y-147982857D01*
X35317285Y-147840000D01*
X35531571Y-147768571D01*
X35674428Y-147768571D01*
X35888714Y-147840000D01*
X35960142Y-147911428D01*
X36603000Y-149268571D02*
X36603000Y-147768571D01*
X36603000Y-148482857D02*
X37460142Y-148482857D01*
X37460142Y-149268571D02*
X37460142Y-147768571D01*
X39317285Y-149268571D02*
X39317285Y-147768571D01*
X40031571Y-149268571D02*
X40031571Y-147768571D01*
X40888714Y-149268571D01*
X40888714Y-147768571D01*
X26388714Y-132392500D02*
X27103000Y-132392500D01*
X26245857Y-132821071D02*
X26745857Y-131321071D01*
X27245857Y-132821071D01*
X27745857Y-132821071D02*
X27745857Y-131321071D01*
X28103000Y-131321071D01*
X28317285Y-131392500D01*
X28460142Y-131535357D01*
X28531571Y-131678214D01*
X28603000Y-131963928D01*
X28603000Y-132178214D01*
X28531571Y-132463928D01*
X28460142Y-132606785D01*
X28317285Y-132749642D01*
X28103000Y-132821071D01*
X27745857Y-132821071D01*
X29031571Y-131321071D02*
X29531571Y-132821071D01*
X30031571Y-131321071D01*
X30460142Y-132392500D02*
X31174428Y-132392500D01*
X30317285Y-132821071D02*
X30817285Y-131321071D01*
X31317285Y-132821071D01*
X31817285Y-132821071D02*
X31817285Y-131321071D01*
X32674428Y-132821071D01*
X32674428Y-131321071D01*
X34245857Y-132678214D02*
X34174428Y-132749642D01*
X33960142Y-132821071D01*
X33817285Y-132821071D01*
X33603000Y-132749642D01*
X33460142Y-132606785D01*
X33388714Y-132463928D01*
X33317285Y-132178214D01*
X33317285Y-131963928D01*
X33388714Y-131678214D01*
X33460142Y-131535357D01*
X33603000Y-131392500D01*
X33817285Y-131321071D01*
X33960142Y-131321071D01*
X34174428Y-131392500D01*
X34245857Y-131463928D01*
X34888714Y-132035357D02*
X35388714Y-132035357D01*
X35603000Y-132821071D02*
X34888714Y-132821071D01*
X34888714Y-131321071D01*
X35603000Y-131321071D01*
X26388714Y-134807500D02*
X27103000Y-134807500D01*
X26245857Y-135236071D02*
X26745857Y-133736071D01*
X27245857Y-135236071D01*
X27745857Y-135236071D02*
X27745857Y-133736071D01*
X28317285Y-133736071D01*
X28460142Y-133807500D01*
X28531571Y-133878928D01*
X28603000Y-134021785D01*
X28603000Y-134236071D01*
X28531571Y-134378928D01*
X28460142Y-134450357D01*
X28317285Y-134521785D01*
X27745857Y-134521785D01*
X29245857Y-135236071D02*
X29245857Y-133736071D01*
X29817285Y-133736071D01*
X29960142Y-133807500D01*
X30031571Y-133878928D01*
X30103000Y-134021785D01*
X30103000Y-134236071D01*
X30031571Y-134378928D01*
X29960142Y-134450357D01*
X29817285Y-134521785D01*
X29245857Y-134521785D01*
X31603000Y-135236071D02*
X31103000Y-134521785D01*
X30745857Y-135236071D02*
X30745857Y-133736071D01*
X31317285Y-133736071D01*
X31460142Y-133807500D01*
X31531571Y-133878928D01*
X31603000Y-134021785D01*
X31603000Y-134236071D01*
X31531571Y-134378928D01*
X31460142Y-134450357D01*
X31317285Y-134521785D01*
X30745857Y-134521785D01*
X32531571Y-133736071D02*
X32817285Y-133736071D01*
X32960142Y-133807500D01*
X33103000Y-133950357D01*
X33174428Y-134236071D01*
X33174428Y-134736071D01*
X33103000Y-135021785D01*
X32960142Y-135164642D01*
X32817285Y-135236071D01*
X32531571Y-135236071D01*
X32388714Y-135164642D01*
X32245857Y-135021785D01*
X32174428Y-134736071D01*
X32174428Y-134236071D01*
X32245857Y-133950357D01*
X32388714Y-133807500D01*
X32531571Y-133736071D01*
X33745857Y-134807500D02*
X34460142Y-134807500D01*
X33603000Y-135236071D02*
X34103000Y-133736071D01*
X34603000Y-135236071D01*
X35960142Y-135093214D02*
X35888714Y-135164642D01*
X35674428Y-135236071D01*
X35531571Y-135236071D01*
X35317285Y-135164642D01*
X35174428Y-135021785D01*
X35103000Y-134878928D01*
X35031571Y-134593214D01*
X35031571Y-134378928D01*
X35103000Y-134093214D01*
X35174428Y-133950357D01*
X35317285Y-133807500D01*
X35531571Y-133736071D01*
X35674428Y-133736071D01*
X35888714Y-133807500D01*
X35960142Y-133878928D01*
X36603000Y-135236071D02*
X36603000Y-133736071D01*
X36603000Y-134450357D02*
X37460142Y-134450357D01*
X37460142Y-135236071D02*
X37460142Y-133736071D01*
X39317285Y-135236071D02*
X39317285Y-133736071D01*
X40031571Y-135236071D02*
X40031571Y-133736071D01*
X40888714Y-135236071D01*
X40888714Y-133736071D01*
D12*
X27089100Y-120196428D02*
X26121480Y-120631857D01*
X27089100Y-121067285D01*
X28661480Y-120196428D02*
X27693861Y-120631857D01*
X28661480Y-121067285D01*
X30233861Y-120196428D02*
X29266242Y-120631857D01*
X30233861Y-121067285D01*
X31624814Y-119688428D02*
X32350528Y-119688428D01*
X31987671Y-121212428D02*
X31987671Y-119688428D01*
X33015766Y-119688428D02*
X33257671Y-119688428D01*
X33378623Y-119761000D01*
X33499576Y-119906142D01*
X33560052Y-120196428D01*
X33560052Y-120704428D01*
X33499576Y-120994714D01*
X33378623Y-121139857D01*
X33257671Y-121212428D01*
X33015766Y-121212428D01*
X32894814Y-121139857D01*
X32773861Y-120994714D01*
X32713385Y-120704428D01*
X32713385Y-120196428D01*
X32773861Y-119906142D01*
X32894814Y-119761000D01*
X33015766Y-119688428D01*
X35495290Y-120414142D02*
X35676719Y-120486714D01*
X35737195Y-120559285D01*
X35797671Y-120704428D01*
X35797671Y-120922142D01*
X35737195Y-121067285D01*
X35676719Y-121139857D01*
X35555766Y-121212428D01*
X35071957Y-121212428D01*
X35071957Y-119688428D01*
X35495290Y-119688428D01*
X35616242Y-119761000D01*
X35676719Y-119833571D01*
X35737195Y-119978714D01*
X35737195Y-120123857D01*
X35676719Y-120269000D01*
X35616242Y-120341571D01*
X35495290Y-120414142D01*
X35071957Y-120414142D01*
X36341957Y-119688428D02*
X36341957Y-120922142D01*
X36402433Y-121067285D01*
X36462909Y-121139857D01*
X36583861Y-121212428D01*
X36825766Y-121212428D01*
X36946719Y-121139857D01*
X37007195Y-121067285D01*
X37067671Y-120922142D01*
X37067671Y-119688428D01*
X37611957Y-121139857D02*
X37793385Y-121212428D01*
X38095766Y-121212428D01*
X38216719Y-121139857D01*
X38277195Y-121067285D01*
X38337671Y-120922142D01*
X38337671Y-120777000D01*
X38277195Y-120631857D01*
X38216719Y-120559285D01*
X38095766Y-120486714D01*
X37853861Y-120414142D01*
X37732909Y-120341571D01*
X37672433Y-120269000D01*
X37611957Y-120123857D01*
X37611957Y-119978714D01*
X37672433Y-119833571D01*
X37732909Y-119761000D01*
X37853861Y-119688428D01*
X38156242Y-119688428D01*
X38337671Y-119761000D01*
D11*
X58639857Y-148840000D02*
X59354142Y-148840000D01*
X58497000Y-149268571D02*
X58997000Y-147768571D01*
X59497000Y-149268571D01*
X59997000Y-149268571D02*
X59997000Y-147768571D01*
X60568428Y-147768571D01*
X60711285Y-147840000D01*
X60782714Y-147911428D01*
X60854142Y-148054285D01*
X60854142Y-148268571D01*
X60782714Y-148411428D01*
X60711285Y-148482857D01*
X60568428Y-148554285D01*
X59997000Y-148554285D01*
X61497000Y-149268571D02*
X61497000Y-147768571D01*
X62068428Y-147768571D01*
X62211285Y-147840000D01*
X62282714Y-147911428D01*
X62354142Y-148054285D01*
X62354142Y-148268571D01*
X62282714Y-148411428D01*
X62211285Y-148482857D01*
X62068428Y-148554285D01*
X61497000Y-148554285D01*
X63854142Y-149268571D02*
X63354142Y-148554285D01*
X62997000Y-149268571D02*
X62997000Y-147768571D01*
X63568428Y-147768571D01*
X63711285Y-147840000D01*
X63782714Y-147911428D01*
X63854142Y-148054285D01*
X63854142Y-148268571D01*
X63782714Y-148411428D01*
X63711285Y-148482857D01*
X63568428Y-148554285D01*
X62997000Y-148554285D01*
X64782714Y-147768571D02*
X65068428Y-147768571D01*
X65211285Y-147840000D01*
X65354142Y-147982857D01*
X65425571Y-148268571D01*
X65425571Y-148768571D01*
X65354142Y-149054285D01*
X65211285Y-149197142D01*
X65068428Y-149268571D01*
X64782714Y-149268571D01*
X64639857Y-149197142D01*
X64497000Y-149054285D01*
X64425571Y-148768571D01*
X64425571Y-148268571D01*
X64497000Y-147982857D01*
X64639857Y-147840000D01*
X64782714Y-147768571D01*
X65997000Y-148840000D02*
X66711285Y-148840000D01*
X65854142Y-149268571D02*
X66354142Y-147768571D01*
X66854142Y-149268571D01*
X68211285Y-149125714D02*
X68139857Y-149197142D01*
X67925571Y-149268571D01*
X67782714Y-149268571D01*
X67568428Y-149197142D01*
X67425571Y-149054285D01*
X67354142Y-148911428D01*
X67282714Y-148625714D01*
X67282714Y-148411428D01*
X67354142Y-148125714D01*
X67425571Y-147982857D01*
X67568428Y-147840000D01*
X67782714Y-147768571D01*
X67925571Y-147768571D01*
X68139857Y-147840000D01*
X68211285Y-147911428D01*
X68854142Y-149268571D02*
X68854142Y-147768571D01*
X68854142Y-148482857D02*
X69711285Y-148482857D01*
X69711285Y-149268571D02*
X69711285Y-147768571D01*
X71854142Y-147768571D02*
X72139857Y-147768571D01*
X72282714Y-147840000D01*
X72425571Y-147982857D01*
X72497000Y-148268571D01*
X72497000Y-148768571D01*
X72425571Y-149054285D01*
X72282714Y-149197142D01*
X72139857Y-149268571D01*
X71854142Y-149268571D01*
X71711285Y-149197142D01*
X71568428Y-149054285D01*
X71497000Y-148768571D01*
X71497000Y-148268571D01*
X71568428Y-147982857D01*
X71711285Y-147840000D01*
X71854142Y-147768571D01*
X73139857Y-147768571D02*
X73139857Y-148982857D01*
X73211285Y-149125714D01*
X73282714Y-149197142D01*
X73425571Y-149268571D01*
X73711285Y-149268571D01*
X73854142Y-149197142D01*
X73925571Y-149125714D01*
X73997000Y-148982857D01*
X73997000Y-147768571D01*
X74497000Y-147768571D02*
X75354142Y-147768571D01*
X74925571Y-149268571D02*
X74925571Y-147768571D01*
X53217428Y-133130571D02*
X53217428Y-133487714D01*
X52860285Y-133344857D02*
X53217428Y-133487714D01*
X53574571Y-133344857D01*
X53003142Y-133773428D02*
X53217428Y-133487714D01*
X53431714Y-133773428D01*
D13*
X46442333Y-170632380D02*
X46109000Y-170156190D01*
X45870904Y-170632380D02*
X45870904Y-169632380D01*
X46251857Y-169632380D01*
X46347095Y-169680000D01*
X46394714Y-169727619D01*
X46442333Y-169822857D01*
X46442333Y-169965714D01*
X46394714Y-170060952D01*
X46347095Y-170108571D01*
X46251857Y-170156190D01*
X45870904Y-170156190D01*
X47013761Y-170060952D02*
X46918523Y-170013333D01*
X46870904Y-169965714D01*
X46823285Y-169870476D01*
X46823285Y-169822857D01*
X46870904Y-169727619D01*
X46918523Y-169680000D01*
X47013761Y-169632380D01*
X47204238Y-169632380D01*
X47299476Y-169680000D01*
X47347095Y-169727619D01*
X47394714Y-169822857D01*
X47394714Y-169870476D01*
X47347095Y-169965714D01*
X47299476Y-170013333D01*
X47204238Y-170060952D01*
X47013761Y-170060952D01*
X46918523Y-170108571D01*
X46870904Y-170156190D01*
X46823285Y-170251428D01*
X46823285Y-170441904D01*
X46870904Y-170537142D01*
X46918523Y-170584761D01*
X47013761Y-170632380D01*
X47204238Y-170632380D01*
X47299476Y-170584761D01*
X47347095Y-170537142D01*
X47394714Y-170441904D01*
X47394714Y-170251428D01*
X47347095Y-170156190D01*
X47299476Y-170108571D01*
X47204238Y-170060952D01*
X52157333Y-183205380D02*
X51824000Y-182729190D01*
X51585904Y-183205380D02*
X51585904Y-182205380D01*
X51966857Y-182205380D01*
X52062095Y-182253000D01*
X52109714Y-182300619D01*
X52157333Y-182395857D01*
X52157333Y-182538714D01*
X52109714Y-182633952D01*
X52062095Y-182681571D01*
X51966857Y-182729190D01*
X51585904Y-182729190D01*
X53062095Y-182205380D02*
X52585904Y-182205380D01*
X52538285Y-182681571D01*
X52585904Y-182633952D01*
X52681142Y-182586333D01*
X52919238Y-182586333D01*
X53014476Y-182633952D01*
X53062095Y-182681571D01*
X53109714Y-182776809D01*
X53109714Y-183014904D01*
X53062095Y-183110142D01*
X53014476Y-183157761D01*
X52919238Y-183205380D01*
X52681142Y-183205380D01*
X52585904Y-183157761D01*
X52538285Y-183110142D01*
X39203333Y-167616142D02*
X39155714Y-167663761D01*
X39012857Y-167711380D01*
X38917619Y-167711380D01*
X38774761Y-167663761D01*
X38679523Y-167568523D01*
X38631904Y-167473285D01*
X38584285Y-167282809D01*
X38584285Y-167139952D01*
X38631904Y-166949476D01*
X38679523Y-166854238D01*
X38774761Y-166759000D01*
X38917619Y-166711380D01*
X39012857Y-166711380D01*
X39155714Y-166759000D01*
X39203333Y-166806619D01*
X40155714Y-167711380D02*
X39584285Y-167711380D01*
X39870000Y-167711380D02*
X39870000Y-166711380D01*
X39774761Y-166854238D01*
X39679523Y-166949476D01*
X39584285Y-166997095D01*
X38608095Y-171918380D02*
X38608095Y-172727904D01*
X38655714Y-172823142D01*
X38703333Y-172870761D01*
X38798571Y-172918380D01*
X38989047Y-172918380D01*
X39084285Y-172870761D01*
X39131904Y-172823142D01*
X39179523Y-172727904D01*
X39179523Y-171918380D01*
X39608095Y-172013619D02*
X39655714Y-171966000D01*
X39750952Y-171918380D01*
X39989047Y-171918380D01*
X40084285Y-171966000D01*
X40131904Y-172013619D01*
X40179523Y-172108857D01*
X40179523Y-172204095D01*
X40131904Y-172346952D01*
X39560476Y-172918380D01*
X40179523Y-172918380D01*
X47889892Y-123142642D02*
X47842273Y-123190261D01*
X47699416Y-123237880D01*
X47604178Y-123237880D01*
X47461321Y-123190261D01*
X47366083Y-123095023D01*
X47318464Y-122999785D01*
X47270845Y-122809309D01*
X47270845Y-122666452D01*
X47318464Y-122475976D01*
X47366083Y-122380738D01*
X47461321Y-122285500D01*
X47604178Y-122237880D01*
X47699416Y-122237880D01*
X47842273Y-122285500D01*
X47889892Y-122333119D01*
X48842273Y-123237880D02*
X48270845Y-123237880D01*
X48556559Y-123237880D02*
X48556559Y-122237880D01*
X48461321Y-122380738D01*
X48366083Y-122475976D01*
X48270845Y-122523595D01*
X49461321Y-122237880D02*
X49556559Y-122237880D01*
X49651797Y-122285500D01*
X49699416Y-122333119D01*
X49747035Y-122428357D01*
X49794654Y-122618833D01*
X49794654Y-122856928D01*
X49747035Y-123047404D01*
X49699416Y-123142642D01*
X49651797Y-123190261D01*
X49556559Y-123237880D01*
X49461321Y-123237880D01*
X49366083Y-123190261D01*
X49318464Y-123142642D01*
X49270845Y-123047404D01*
X49223226Y-122856928D01*
X49223226Y-122618833D01*
X49270845Y-122428357D01*
X49318464Y-122333119D01*
X49366083Y-122285500D01*
X49461321Y-122237880D01*
X44831095Y-136325380D02*
X44831095Y-137134904D01*
X44878714Y-137230142D01*
X44926333Y-137277761D01*
X45021571Y-137325380D01*
X45212047Y-137325380D01*
X45307285Y-137277761D01*
X45354904Y-137230142D01*
X45402523Y-137134904D01*
X45402523Y-136325380D01*
X46307285Y-136658714D02*
X46307285Y-137325380D01*
X46069190Y-136277761D02*
X45831095Y-136992047D01*
X46450142Y-136992047D01*
X48855333Y-136468142D02*
X48807714Y-136515761D01*
X48664857Y-136563380D01*
X48569619Y-136563380D01*
X48426761Y-136515761D01*
X48331523Y-136420523D01*
X48283904Y-136325285D01*
X48236285Y-136134809D01*
X48236285Y-135991952D01*
X48283904Y-135801476D01*
X48331523Y-135706238D01*
X48426761Y-135611000D01*
X48569619Y-135563380D01*
X48664857Y-135563380D01*
X48807714Y-135611000D01*
X48855333Y-135658619D01*
X49236285Y-135658619D02*
X49283904Y-135611000D01*
X49379142Y-135563380D01*
X49617238Y-135563380D01*
X49712476Y-135611000D01*
X49760095Y-135658619D01*
X49807714Y-135753857D01*
X49807714Y-135849095D01*
X49760095Y-135991952D01*
X49188666Y-136563380D01*
X49807714Y-136563380D01*
X58920142Y-172664380D02*
X58586809Y-172188190D01*
X58348714Y-172664380D02*
X58348714Y-171664380D01*
X58729666Y-171664380D01*
X58824904Y-171712000D01*
X58872523Y-171759619D01*
X58920142Y-171854857D01*
X58920142Y-171997714D01*
X58872523Y-172092952D01*
X58824904Y-172140571D01*
X58729666Y-172188190D01*
X58348714Y-172188190D01*
X59872523Y-172664380D02*
X59301095Y-172664380D01*
X59586809Y-172664380D02*
X59586809Y-171664380D01*
X59491571Y-171807238D01*
X59396333Y-171902476D01*
X59301095Y-171950095D01*
X60729666Y-171664380D02*
X60539190Y-171664380D01*
X60443952Y-171712000D01*
X60396333Y-171759619D01*
X60301095Y-171902476D01*
X60253476Y-172092952D01*
X60253476Y-172473904D01*
X60301095Y-172569142D01*
X60348714Y-172616761D01*
X60443952Y-172664380D01*
X60634428Y-172664380D01*
X60729666Y-172616761D01*
X60777285Y-172569142D01*
X60824904Y-172473904D01*
X60824904Y-172235809D01*
X60777285Y-172140571D01*
X60729666Y-172092952D01*
X60634428Y-172045333D01*
X60443952Y-172045333D01*
X60348714Y-172092952D01*
X60301095Y-172140571D01*
X60253476Y-172235809D01*
X54729142Y-111196380D02*
X54395809Y-110720190D01*
X54157714Y-111196380D02*
X54157714Y-110196380D01*
X54538666Y-110196380D01*
X54633904Y-110244000D01*
X54681523Y-110291619D01*
X54729142Y-110386857D01*
X54729142Y-110529714D01*
X54681523Y-110624952D01*
X54633904Y-110672571D01*
X54538666Y-110720190D01*
X54157714Y-110720190D01*
X55110095Y-110291619D02*
X55157714Y-110244000D01*
X55252952Y-110196380D01*
X55491047Y-110196380D01*
X55586285Y-110244000D01*
X55633904Y-110291619D01*
X55681523Y-110386857D01*
X55681523Y-110482095D01*
X55633904Y-110624952D01*
X55062476Y-111196380D01*
X55681523Y-111196380D01*
X56538666Y-110196380D02*
X56348190Y-110196380D01*
X56252952Y-110244000D01*
X56205333Y-110291619D01*
X56110095Y-110434476D01*
X56062476Y-110624952D01*
X56062476Y-111005904D01*
X56110095Y-111101142D01*
X56157714Y-111148761D01*
X56252952Y-111196380D01*
X56443428Y-111196380D01*
X56538666Y-111148761D01*
X56586285Y-111101142D01*
X56633904Y-111005904D01*
X56633904Y-110767809D01*
X56586285Y-110672571D01*
X56538666Y-110624952D01*
X56443428Y-110577333D01*
X56252952Y-110577333D01*
X56157714Y-110624952D01*
X56110095Y-110672571D01*
X56062476Y-110767809D01*
X69151666Y-185824761D02*
X69294523Y-185872380D01*
X69532619Y-185872380D01*
X69627857Y-185824761D01*
X69675476Y-185777142D01*
X69723095Y-185681904D01*
X69723095Y-185586666D01*
X69675476Y-185491428D01*
X69627857Y-185443809D01*
X69532619Y-185396190D01*
X69342142Y-185348571D01*
X69246904Y-185300952D01*
X69199285Y-185253333D01*
X69151666Y-185158095D01*
X69151666Y-185062857D01*
X69199285Y-184967619D01*
X69246904Y-184920000D01*
X69342142Y-184872380D01*
X69580238Y-184872380D01*
X69723095Y-184920000D01*
X70056428Y-184872380D02*
X70294523Y-185872380D01*
X70485000Y-185158095D01*
X70675476Y-185872380D01*
X70913571Y-184872380D01*
X71246904Y-184967619D02*
X71294523Y-184920000D01*
X71389761Y-184872380D01*
X71627857Y-184872380D01*
X71723095Y-184920000D01*
X71770714Y-184967619D01*
X71818333Y-185062857D01*
X71818333Y-185158095D01*
X71770714Y-185300952D01*
X71199285Y-185872380D01*
X71818333Y-185872380D01*
X54983142Y-147645380D02*
X54649809Y-147169190D01*
X54411714Y-147645380D02*
X54411714Y-146645380D01*
X54792666Y-146645380D01*
X54887904Y-146693000D01*
X54935523Y-146740619D01*
X54983142Y-146835857D01*
X54983142Y-146978714D01*
X54935523Y-147073952D01*
X54887904Y-147121571D01*
X54792666Y-147169190D01*
X54411714Y-147169190D01*
X55935523Y-147645380D02*
X55364095Y-147645380D01*
X55649809Y-147645380D02*
X55649809Y-146645380D01*
X55554571Y-146788238D01*
X55459333Y-146883476D01*
X55364095Y-146931095D01*
X56887904Y-147645380D02*
X56316476Y-147645380D01*
X56602190Y-147645380D02*
X56602190Y-146645380D01*
X56506952Y-146788238D01*
X56411714Y-146883476D01*
X56316476Y-146931095D01*
X30416666Y-183284761D02*
X30559523Y-183332380D01*
X30797619Y-183332380D01*
X30892857Y-183284761D01*
X30940476Y-183237142D01*
X30988095Y-183141904D01*
X30988095Y-183046666D01*
X30940476Y-182951428D01*
X30892857Y-182903809D01*
X30797619Y-182856190D01*
X30607142Y-182808571D01*
X30511904Y-182760952D01*
X30464285Y-182713333D01*
X30416666Y-182618095D01*
X30416666Y-182522857D01*
X30464285Y-182427619D01*
X30511904Y-182380000D01*
X30607142Y-182332380D01*
X30845238Y-182332380D01*
X30988095Y-182380000D01*
X31321428Y-182332380D02*
X31559523Y-183332380D01*
X31750000Y-182618095D01*
X31940476Y-183332380D01*
X32178571Y-182332380D01*
X33083333Y-183332380D02*
X32511904Y-183332380D01*
X32797619Y-183332380D02*
X32797619Y-182332380D01*
X32702380Y-182475238D01*
X32607142Y-182570476D01*
X32511904Y-182618095D01*
X55903904Y-159075380D02*
X55903904Y-158075380D01*
X56142000Y-158075380D01*
X56284857Y-158123000D01*
X56380095Y-158218238D01*
X56427714Y-158313476D01*
X56475333Y-158503952D01*
X56475333Y-158646809D01*
X56427714Y-158837285D01*
X56380095Y-158932523D01*
X56284857Y-159027761D01*
X56142000Y-159075380D01*
X55903904Y-159075380D01*
X56951523Y-159075380D02*
X57142000Y-159075380D01*
X57237238Y-159027761D01*
X57284857Y-158980142D01*
X57380095Y-158837285D01*
X57427714Y-158646809D01*
X57427714Y-158265857D01*
X57380095Y-158170619D01*
X57332476Y-158123000D01*
X57237238Y-158075380D01*
X57046761Y-158075380D01*
X56951523Y-158123000D01*
X56903904Y-158170619D01*
X56856285Y-158265857D01*
X56856285Y-158503952D01*
X56903904Y-158599190D01*
X56951523Y-158646809D01*
X57046761Y-158694428D01*
X57237238Y-158694428D01*
X57332476Y-158646809D01*
X57380095Y-158599190D01*
X57427714Y-158503952D01*
X50800095Y-122482380D02*
X50800095Y-123291904D01*
X50847714Y-123387142D01*
X50895333Y-123434761D01*
X50990571Y-123482380D01*
X51181047Y-123482380D01*
X51276285Y-123434761D01*
X51323904Y-123387142D01*
X51371523Y-123291904D01*
X51371523Y-122482380D01*
X51752476Y-122482380D02*
X52371523Y-122482380D01*
X52038190Y-122863333D01*
X52181047Y-122863333D01*
X52276285Y-122910952D01*
X52323904Y-122958571D01*
X52371523Y-123053809D01*
X52371523Y-123291904D01*
X52323904Y-123387142D01*
X52276285Y-123434761D01*
X52181047Y-123482380D01*
X51895333Y-123482380D01*
X51800095Y-123434761D01*
X51752476Y-123387142D01*
X54729142Y-104361880D02*
X54395809Y-103885690D01*
X54157714Y-104361880D02*
X54157714Y-103361880D01*
X54538666Y-103361880D01*
X54633904Y-103409500D01*
X54681523Y-103457119D01*
X54729142Y-103552357D01*
X54729142Y-103695214D01*
X54681523Y-103790452D01*
X54633904Y-103838071D01*
X54538666Y-103885690D01*
X54157714Y-103885690D01*
X55110095Y-103457119D02*
X55157714Y-103409500D01*
X55252952Y-103361880D01*
X55491047Y-103361880D01*
X55586285Y-103409500D01*
X55633904Y-103457119D01*
X55681523Y-103552357D01*
X55681523Y-103647595D01*
X55633904Y-103790452D01*
X55062476Y-104361880D01*
X55681523Y-104361880D01*
X56538666Y-103695214D02*
X56538666Y-104361880D01*
X56300571Y-103314261D02*
X56062476Y-104028547D01*
X56681523Y-104028547D01*
X32154761Y-145097333D02*
X32202380Y-144954476D01*
X32202380Y-144716380D01*
X32154761Y-144621142D01*
X32107142Y-144573523D01*
X32011904Y-144525904D01*
X31916666Y-144525904D01*
X31821428Y-144573523D01*
X31773809Y-144621142D01*
X31726190Y-144716380D01*
X31678571Y-144906857D01*
X31630952Y-145002095D01*
X31583333Y-145049714D01*
X31488095Y-145097333D01*
X31392857Y-145097333D01*
X31297619Y-145049714D01*
X31250000Y-145002095D01*
X31202380Y-144906857D01*
X31202380Y-144668761D01*
X31250000Y-144525904D01*
X31202380Y-144192571D02*
X32202380Y-143954476D01*
X31488095Y-143764000D01*
X32202380Y-143573523D01*
X31202380Y-143335428D01*
X31535714Y-142525904D02*
X32202380Y-142525904D01*
X31154761Y-142764000D02*
X31869047Y-143002095D01*
X31869047Y-142383047D01*
X42029142Y-170632380D02*
X41695809Y-170156190D01*
X41457714Y-170632380D02*
X41457714Y-169632380D01*
X41838666Y-169632380D01*
X41933904Y-169680000D01*
X41981523Y-169727619D01*
X42029142Y-169822857D01*
X42029142Y-169965714D01*
X41981523Y-170060952D01*
X41933904Y-170108571D01*
X41838666Y-170156190D01*
X41457714Y-170156190D01*
X42981523Y-170632380D02*
X42410095Y-170632380D01*
X42695809Y-170632380D02*
X42695809Y-169632380D01*
X42600571Y-169775238D01*
X42505333Y-169870476D01*
X42410095Y-169918095D01*
X43600571Y-169632380D02*
X43695809Y-169632380D01*
X43791047Y-169680000D01*
X43838666Y-169727619D01*
X43886285Y-169822857D01*
X43933904Y-170013333D01*
X43933904Y-170251428D01*
X43886285Y-170441904D01*
X43838666Y-170537142D01*
X43791047Y-170584761D01*
X43695809Y-170632380D01*
X43600571Y-170632380D01*
X43505333Y-170584761D01*
X43457714Y-170537142D01*
X43410095Y-170441904D01*
X43362476Y-170251428D01*
X43362476Y-170013333D01*
X43410095Y-169822857D01*
X43457714Y-169727619D01*
X43505333Y-169680000D01*
X43600571Y-169632380D01*
X30694333Y-171521380D02*
X30218142Y-171521380D01*
X30218142Y-170521380D01*
X30980047Y-170616619D02*
X31027666Y-170569000D01*
X31122904Y-170521380D01*
X31361000Y-170521380D01*
X31456238Y-170569000D01*
X31503857Y-170616619D01*
X31551476Y-170711857D01*
X31551476Y-170807095D01*
X31503857Y-170949952D01*
X30932428Y-171521380D01*
X31551476Y-171521380D01*
X59284404Y-138882380D02*
X59284404Y-137882380D01*
X59522500Y-137882380D01*
X59665357Y-137930000D01*
X59760595Y-138025238D01*
X59808214Y-138120476D01*
X59855833Y-138310952D01*
X59855833Y-138453809D01*
X59808214Y-138644285D01*
X59760595Y-138739523D01*
X59665357Y-138834761D01*
X59522500Y-138882380D01*
X59284404Y-138882380D01*
X60189166Y-137882380D02*
X60855833Y-137882380D01*
X60427261Y-138882380D01*
X45585142Y-111196380D02*
X45251809Y-110720190D01*
X45013714Y-111196380D02*
X45013714Y-110196380D01*
X45394666Y-110196380D01*
X45489904Y-110244000D01*
X45537523Y-110291619D01*
X45585142Y-110386857D01*
X45585142Y-110529714D01*
X45537523Y-110624952D01*
X45489904Y-110672571D01*
X45394666Y-110720190D01*
X45013714Y-110720190D01*
X45966095Y-110291619D02*
X46013714Y-110244000D01*
X46108952Y-110196380D01*
X46347047Y-110196380D01*
X46442285Y-110244000D01*
X46489904Y-110291619D01*
X46537523Y-110386857D01*
X46537523Y-110482095D01*
X46489904Y-110624952D01*
X45918476Y-111196380D01*
X46537523Y-111196380D01*
X47108952Y-110624952D02*
X47013714Y-110577333D01*
X46966095Y-110529714D01*
X46918476Y-110434476D01*
X46918476Y-110386857D01*
X46966095Y-110291619D01*
X47013714Y-110244000D01*
X47108952Y-110196380D01*
X47299428Y-110196380D01*
X47394666Y-110244000D01*
X47442285Y-110291619D01*
X47489904Y-110386857D01*
X47489904Y-110434476D01*
X47442285Y-110529714D01*
X47394666Y-110577333D01*
X47299428Y-110624952D01*
X47108952Y-110624952D01*
X47013714Y-110672571D01*
X46966095Y-110720190D01*
X46918476Y-110815428D01*
X46918476Y-111005904D01*
X46966095Y-111101142D01*
X47013714Y-111148761D01*
X47108952Y-111196380D01*
X47299428Y-111196380D01*
X47394666Y-111148761D01*
X47442285Y-111101142D01*
X47489904Y-111005904D01*
X47489904Y-110815428D01*
X47442285Y-110720190D01*
X47394666Y-110672571D01*
X47299428Y-110624952D01*
X45603892Y-118030880D02*
X45270559Y-117554690D01*
X45032464Y-118030880D02*
X45032464Y-117030880D01*
X45413416Y-117030880D01*
X45508654Y-117078500D01*
X45556273Y-117126119D01*
X45603892Y-117221357D01*
X45603892Y-117364214D01*
X45556273Y-117459452D01*
X45508654Y-117507071D01*
X45413416Y-117554690D01*
X45032464Y-117554690D01*
X45937226Y-117030880D02*
X46556273Y-117030880D01*
X46222940Y-117411833D01*
X46365797Y-117411833D01*
X46461035Y-117459452D01*
X46508654Y-117507071D01*
X46556273Y-117602309D01*
X46556273Y-117840404D01*
X46508654Y-117935642D01*
X46461035Y-117983261D01*
X46365797Y-118030880D01*
X46080083Y-118030880D01*
X45984845Y-117983261D01*
X45937226Y-117935642D01*
X47175321Y-117030880D02*
X47270559Y-117030880D01*
X47365797Y-117078500D01*
X47413416Y-117126119D01*
X47461035Y-117221357D01*
X47508654Y-117411833D01*
X47508654Y-117649928D01*
X47461035Y-117840404D01*
X47413416Y-117935642D01*
X47365797Y-117983261D01*
X47270559Y-118030880D01*
X47175321Y-118030880D01*
X47080083Y-117983261D01*
X47032464Y-117935642D01*
X46984845Y-117840404D01*
X46937226Y-117649928D01*
X46937226Y-117411833D01*
X46984845Y-117221357D01*
X47032464Y-117126119D01*
X47080083Y-117078500D01*
X47175321Y-117030880D01*
X26439904Y-165933380D02*
X26439904Y-164933380D01*
X26678000Y-164933380D01*
X26820857Y-164981000D01*
X26916095Y-165076238D01*
X26963714Y-165171476D01*
X27011333Y-165361952D01*
X27011333Y-165504809D01*
X26963714Y-165695285D01*
X26916095Y-165790523D01*
X26820857Y-165885761D01*
X26678000Y-165933380D01*
X26439904Y-165933380D01*
X27963714Y-165933380D02*
X27392285Y-165933380D01*
X27678000Y-165933380D02*
X27678000Y-164933380D01*
X27582761Y-165076238D01*
X27487523Y-165171476D01*
X27392285Y-165219095D01*
X37996904Y-151074380D02*
X37996904Y-150074380D01*
X38235000Y-150074380D01*
X38377857Y-150122000D01*
X38473095Y-150217238D01*
X38520714Y-150312476D01*
X38568333Y-150502952D01*
X38568333Y-150645809D01*
X38520714Y-150836285D01*
X38473095Y-150931523D01*
X38377857Y-151026761D01*
X38235000Y-151074380D01*
X37996904Y-151074380D01*
X39425476Y-150074380D02*
X39235000Y-150074380D01*
X39139761Y-150122000D01*
X39092142Y-150169619D01*
X38996904Y-150312476D01*
X38949285Y-150502952D01*
X38949285Y-150883904D01*
X38996904Y-150979142D01*
X39044523Y-151026761D01*
X39139761Y-151074380D01*
X39330238Y-151074380D01*
X39425476Y-151026761D01*
X39473095Y-150979142D01*
X39520714Y-150883904D01*
X39520714Y-150645809D01*
X39473095Y-150550571D01*
X39425476Y-150502952D01*
X39330238Y-150455333D01*
X39139761Y-150455333D01*
X39044523Y-150502952D01*
X38996904Y-150550571D01*
X38949285Y-150645809D01*
X41997333Y-165425380D02*
X41664000Y-164949190D01*
X41425904Y-165425380D02*
X41425904Y-164425380D01*
X41806857Y-164425380D01*
X41902095Y-164473000D01*
X41949714Y-164520619D01*
X41997333Y-164615857D01*
X41997333Y-164758714D01*
X41949714Y-164853952D01*
X41902095Y-164901571D01*
X41806857Y-164949190D01*
X41425904Y-164949190D01*
X42854476Y-164425380D02*
X42664000Y-164425380D01*
X42568761Y-164473000D01*
X42521142Y-164520619D01*
X42425904Y-164663476D01*
X42378285Y-164853952D01*
X42378285Y-165234904D01*
X42425904Y-165330142D01*
X42473523Y-165377761D01*
X42568761Y-165425380D01*
X42759238Y-165425380D01*
X42854476Y-165377761D01*
X42902095Y-165330142D01*
X42949714Y-165234904D01*
X42949714Y-164996809D01*
X42902095Y-164901571D01*
X42854476Y-164853952D01*
X42759238Y-164806333D01*
X42568761Y-164806333D01*
X42473523Y-164853952D01*
X42425904Y-164901571D01*
X42378285Y-164996809D01*
X48410904Y-184729380D02*
X48410904Y-183729380D01*
X48649000Y-183729380D01*
X48791857Y-183777000D01*
X48887095Y-183872238D01*
X48934714Y-183967476D01*
X48982333Y-184157952D01*
X48982333Y-184300809D01*
X48934714Y-184491285D01*
X48887095Y-184586523D01*
X48791857Y-184681761D01*
X48649000Y-184729380D01*
X48410904Y-184729380D01*
X49363285Y-183824619D02*
X49410904Y-183777000D01*
X49506142Y-183729380D01*
X49744238Y-183729380D01*
X49839476Y-183777000D01*
X49887095Y-183824619D01*
X49934714Y-183919857D01*
X49934714Y-184015095D01*
X49887095Y-184157952D01*
X49315666Y-184729380D01*
X49934714Y-184729380D01*
X36409333Y-162377380D02*
X36076000Y-161901190D01*
X35837904Y-162377380D02*
X35837904Y-161377380D01*
X36218857Y-161377380D01*
X36314095Y-161425000D01*
X36361714Y-161472619D01*
X36409333Y-161567857D01*
X36409333Y-161710714D01*
X36361714Y-161805952D01*
X36314095Y-161853571D01*
X36218857Y-161901190D01*
X35837904Y-161901190D01*
X37361714Y-162377380D02*
X36790285Y-162377380D01*
X37076000Y-162377380D02*
X37076000Y-161377380D01*
X36980761Y-161520238D01*
X36885523Y-161615476D01*
X36790285Y-161663095D01*
X46696333Y-173966142D02*
X46648714Y-174013761D01*
X46505857Y-174061380D01*
X46410619Y-174061380D01*
X46267761Y-174013761D01*
X46172523Y-173918523D01*
X46124904Y-173823285D01*
X46077285Y-173632809D01*
X46077285Y-173489952D01*
X46124904Y-173299476D01*
X46172523Y-173204238D01*
X46267761Y-173109000D01*
X46410619Y-173061380D01*
X46505857Y-173061380D01*
X46648714Y-173109000D01*
X46696333Y-173156619D01*
X47553476Y-173394714D02*
X47553476Y-174061380D01*
X47315380Y-173013761D02*
X47077285Y-173728047D01*
X47696333Y-173728047D01*
X54602142Y-179395380D02*
X54268809Y-178919190D01*
X54030714Y-179395380D02*
X54030714Y-178395380D01*
X54411666Y-178395380D01*
X54506904Y-178443000D01*
X54554523Y-178490619D01*
X54602142Y-178585857D01*
X54602142Y-178728714D01*
X54554523Y-178823952D01*
X54506904Y-178871571D01*
X54411666Y-178919190D01*
X54030714Y-178919190D01*
X55554523Y-179395380D02*
X54983095Y-179395380D01*
X55268809Y-179395380D02*
X55268809Y-178395380D01*
X55173571Y-178538238D01*
X55078333Y-178633476D01*
X54983095Y-178681095D01*
X55887857Y-178395380D02*
X56506904Y-178395380D01*
X56173571Y-178776333D01*
X56316428Y-178776333D01*
X56411666Y-178823952D01*
X56459285Y-178871571D01*
X56506904Y-178966809D01*
X56506904Y-179204904D01*
X56459285Y-179300142D01*
X56411666Y-179347761D01*
X56316428Y-179395380D01*
X56030714Y-179395380D01*
X55935476Y-179347761D01*
X55887857Y-179300142D01*
X54729142Y-182697380D02*
X54395809Y-182221190D01*
X54157714Y-182697380D02*
X54157714Y-181697380D01*
X54538666Y-181697380D01*
X54633904Y-181745000D01*
X54681523Y-181792619D01*
X54729142Y-181887857D01*
X54729142Y-182030714D01*
X54681523Y-182125952D01*
X54633904Y-182173571D01*
X54538666Y-182221190D01*
X54157714Y-182221190D01*
X55681523Y-182697380D02*
X55110095Y-182697380D01*
X55395809Y-182697380D02*
X55395809Y-181697380D01*
X55300571Y-181840238D01*
X55205333Y-181935476D01*
X55110095Y-181983095D01*
X56062476Y-181792619D02*
X56110095Y-181745000D01*
X56205333Y-181697380D01*
X56443428Y-181697380D01*
X56538666Y-181745000D01*
X56586285Y-181792619D01*
X56633904Y-181887857D01*
X56633904Y-181983095D01*
X56586285Y-182125952D01*
X56014857Y-182697380D01*
X56633904Y-182697380D01*
X62222142Y-157170380D02*
X61888809Y-156694190D01*
X61650714Y-157170380D02*
X61650714Y-156170380D01*
X62031666Y-156170380D01*
X62126904Y-156218000D01*
X62174523Y-156265619D01*
X62222142Y-156360857D01*
X62222142Y-156503714D01*
X62174523Y-156598952D01*
X62126904Y-156646571D01*
X62031666Y-156694190D01*
X61650714Y-156694190D01*
X62603095Y-156265619D02*
X62650714Y-156218000D01*
X62745952Y-156170380D01*
X62984047Y-156170380D01*
X63079285Y-156218000D01*
X63126904Y-156265619D01*
X63174523Y-156360857D01*
X63174523Y-156456095D01*
X63126904Y-156598952D01*
X62555476Y-157170380D01*
X63174523Y-157170380D01*
X63650714Y-157170380D02*
X63841190Y-157170380D01*
X63936428Y-157122761D01*
X63984047Y-157075142D01*
X64079285Y-156932285D01*
X64126904Y-156741809D01*
X64126904Y-156360857D01*
X64079285Y-156265619D01*
X64031666Y-156218000D01*
X63936428Y-156170380D01*
X63745952Y-156170380D01*
X63650714Y-156218000D01*
X63603095Y-156265619D01*
X63555476Y-156360857D01*
X63555476Y-156598952D01*
X63603095Y-156694190D01*
X63650714Y-156741809D01*
X63745952Y-156789428D01*
X63936428Y-156789428D01*
X64031666Y-156741809D01*
X64079285Y-156694190D01*
X64126904Y-156598952D01*
X52443142Y-109545380D02*
X52109809Y-109069190D01*
X51871714Y-109545380D02*
X51871714Y-108545380D01*
X52252666Y-108545380D01*
X52347904Y-108593000D01*
X52395523Y-108640619D01*
X52443142Y-108735857D01*
X52443142Y-108878714D01*
X52395523Y-108973952D01*
X52347904Y-109021571D01*
X52252666Y-109069190D01*
X51871714Y-109069190D01*
X52824095Y-108640619D02*
X52871714Y-108593000D01*
X52966952Y-108545380D01*
X53205047Y-108545380D01*
X53300285Y-108593000D01*
X53347904Y-108640619D01*
X53395523Y-108735857D01*
X53395523Y-108831095D01*
X53347904Y-108973952D01*
X52776476Y-109545380D01*
X53395523Y-109545380D01*
X54300285Y-108545380D02*
X53824095Y-108545380D01*
X53776476Y-109021571D01*
X53824095Y-108973952D01*
X53919333Y-108926333D01*
X54157428Y-108926333D01*
X54252666Y-108973952D01*
X54300285Y-109021571D01*
X54347904Y-109116809D01*
X54347904Y-109354904D01*
X54300285Y-109450142D01*
X54252666Y-109497761D01*
X54157428Y-109545380D01*
X53919333Y-109545380D01*
X53824095Y-109497761D01*
X53776476Y-109450142D01*
X29837142Y-130119380D02*
X29503809Y-129643190D01*
X29265714Y-130119380D02*
X29265714Y-129119380D01*
X29646666Y-129119380D01*
X29741904Y-129167000D01*
X29789523Y-129214619D01*
X29837142Y-129309857D01*
X29837142Y-129452714D01*
X29789523Y-129547952D01*
X29741904Y-129595571D01*
X29646666Y-129643190D01*
X29265714Y-129643190D01*
X30789523Y-130119380D02*
X30218095Y-130119380D01*
X30503809Y-130119380D02*
X30503809Y-129119380D01*
X30408571Y-129262238D01*
X30313333Y-129357476D01*
X30218095Y-129405095D01*
X31122857Y-129119380D02*
X31789523Y-129119380D01*
X31360952Y-130119380D01*
X52919333Y-116181142D02*
X52871714Y-116228761D01*
X52728857Y-116276380D01*
X52633619Y-116276380D01*
X52490761Y-116228761D01*
X52395523Y-116133523D01*
X52347904Y-116038285D01*
X52300285Y-115847809D01*
X52300285Y-115704952D01*
X52347904Y-115514476D01*
X52395523Y-115419238D01*
X52490761Y-115324000D01*
X52633619Y-115276380D01*
X52728857Y-115276380D01*
X52871714Y-115324000D01*
X52919333Y-115371619D01*
X53490761Y-115704952D02*
X53395523Y-115657333D01*
X53347904Y-115609714D01*
X53300285Y-115514476D01*
X53300285Y-115466857D01*
X53347904Y-115371619D01*
X53395523Y-115324000D01*
X53490761Y-115276380D01*
X53681238Y-115276380D01*
X53776476Y-115324000D01*
X53824095Y-115371619D01*
X53871714Y-115466857D01*
X53871714Y-115514476D01*
X53824095Y-115609714D01*
X53776476Y-115657333D01*
X53681238Y-115704952D01*
X53490761Y-115704952D01*
X53395523Y-115752571D01*
X53347904Y-115800190D01*
X53300285Y-115895428D01*
X53300285Y-116085904D01*
X53347904Y-116181142D01*
X53395523Y-116228761D01*
X53490761Y-116276380D01*
X53681238Y-116276380D01*
X53776476Y-116228761D01*
X53824095Y-116181142D01*
X53871714Y-116085904D01*
X53871714Y-115895428D01*
X53824095Y-115800190D01*
X53776476Y-115752571D01*
X53681238Y-115704952D01*
X41394142Y-141422380D02*
X41060809Y-140946190D01*
X40822714Y-141422380D02*
X40822714Y-140422380D01*
X41203666Y-140422380D01*
X41298904Y-140470000D01*
X41346523Y-140517619D01*
X41394142Y-140612857D01*
X41394142Y-140755714D01*
X41346523Y-140850952D01*
X41298904Y-140898571D01*
X41203666Y-140946190D01*
X40822714Y-140946190D01*
X42346523Y-141422380D02*
X41775095Y-141422380D01*
X42060809Y-141422380D02*
X42060809Y-140422380D01*
X41965571Y-140565238D01*
X41870333Y-140660476D01*
X41775095Y-140708095D01*
X42917952Y-140850952D02*
X42822714Y-140803333D01*
X42775095Y-140755714D01*
X42727476Y-140660476D01*
X42727476Y-140612857D01*
X42775095Y-140517619D01*
X42822714Y-140470000D01*
X42917952Y-140422380D01*
X43108428Y-140422380D01*
X43203666Y-140470000D01*
X43251285Y-140517619D01*
X43298904Y-140612857D01*
X43298904Y-140660476D01*
X43251285Y-140755714D01*
X43203666Y-140803333D01*
X43108428Y-140850952D01*
X42917952Y-140850952D01*
X42822714Y-140898571D01*
X42775095Y-140946190D01*
X42727476Y-141041428D01*
X42727476Y-141231904D01*
X42775095Y-141327142D01*
X42822714Y-141374761D01*
X42917952Y-141422380D01*
X43108428Y-141422380D01*
X43203666Y-141374761D01*
X43251285Y-141327142D01*
X43298904Y-141231904D01*
X43298904Y-141041428D01*
X43251285Y-140946190D01*
X43203666Y-140898571D01*
X43108428Y-140850952D01*
X32154761Y-158940333D02*
X32202380Y-158797476D01*
X32202380Y-158559380D01*
X32154761Y-158464142D01*
X32107142Y-158416523D01*
X32011904Y-158368904D01*
X31916666Y-158368904D01*
X31821428Y-158416523D01*
X31773809Y-158464142D01*
X31726190Y-158559380D01*
X31678571Y-158749857D01*
X31630952Y-158845095D01*
X31583333Y-158892714D01*
X31488095Y-158940333D01*
X31392857Y-158940333D01*
X31297619Y-158892714D01*
X31250000Y-158845095D01*
X31202380Y-158749857D01*
X31202380Y-158511761D01*
X31250000Y-158368904D01*
X31202380Y-158035571D02*
X32202380Y-157797476D01*
X31488095Y-157607000D01*
X32202380Y-157416523D01*
X31202380Y-157178428D01*
X31202380Y-156321285D02*
X31202380Y-156797476D01*
X31678571Y-156845095D01*
X31630952Y-156797476D01*
X31583333Y-156702238D01*
X31583333Y-156464142D01*
X31630952Y-156368904D01*
X31678571Y-156321285D01*
X31773809Y-156273666D01*
X32011904Y-156273666D01*
X32107142Y-156321285D01*
X32154761Y-156368904D01*
X32202380Y-156464142D01*
X32202380Y-156702238D01*
X32154761Y-156797476D01*
X32107142Y-156845095D01*
X70254761Y-159321333D02*
X70302380Y-159178476D01*
X70302380Y-158940380D01*
X70254761Y-158845142D01*
X70207142Y-158797523D01*
X70111904Y-158749904D01*
X70016666Y-158749904D01*
X69921428Y-158797523D01*
X69873809Y-158845142D01*
X69826190Y-158940380D01*
X69778571Y-159130857D01*
X69730952Y-159226095D01*
X69683333Y-159273714D01*
X69588095Y-159321333D01*
X69492857Y-159321333D01*
X69397619Y-159273714D01*
X69350000Y-159226095D01*
X69302380Y-159130857D01*
X69302380Y-158892761D01*
X69350000Y-158749904D01*
X69302380Y-158416571D02*
X70302380Y-158178476D01*
X69588095Y-157988000D01*
X70302380Y-157797523D01*
X69302380Y-157559428D01*
X69302380Y-157273714D02*
X69302380Y-156607047D01*
X70302380Y-157035619D01*
X40917904Y-138882380D02*
X40917904Y-137882380D01*
X41156000Y-137882380D01*
X41298857Y-137930000D01*
X41394095Y-138025238D01*
X41441714Y-138120476D01*
X41489333Y-138310952D01*
X41489333Y-138453809D01*
X41441714Y-138644285D01*
X41394095Y-138739523D01*
X41298857Y-138834761D01*
X41156000Y-138882380D01*
X40917904Y-138882380D01*
X42394095Y-137882380D02*
X41917904Y-137882380D01*
X41870285Y-138358571D01*
X41917904Y-138310952D01*
X42013142Y-138263333D01*
X42251238Y-138263333D01*
X42346476Y-138310952D01*
X42394095Y-138358571D01*
X42441714Y-138453809D01*
X42441714Y-138691904D01*
X42394095Y-138787142D01*
X42346476Y-138834761D01*
X42251238Y-138882380D01*
X42013142Y-138882380D01*
X41917904Y-138834761D01*
X41870285Y-138787142D01*
X39711333Y-162504380D02*
X39378000Y-162028190D01*
X39139904Y-162504380D02*
X39139904Y-161504380D01*
X39520857Y-161504380D01*
X39616095Y-161552000D01*
X39663714Y-161599619D01*
X39711333Y-161694857D01*
X39711333Y-161837714D01*
X39663714Y-161932952D01*
X39616095Y-161980571D01*
X39520857Y-162028190D01*
X39139904Y-162028190D01*
X40092285Y-161599619D02*
X40139904Y-161552000D01*
X40235142Y-161504380D01*
X40473238Y-161504380D01*
X40568476Y-161552000D01*
X40616095Y-161599619D01*
X40663714Y-161694857D01*
X40663714Y-161790095D01*
X40616095Y-161932952D01*
X40044666Y-162504380D01*
X40663714Y-162504380D01*
X41108333Y-181174380D02*
X40632142Y-181174380D01*
X40632142Y-180174380D01*
X41965476Y-181174380D02*
X41394047Y-181174380D01*
X41679761Y-181174380D02*
X41679761Y-180174380D01*
X41584523Y-180317238D01*
X41489285Y-180412476D01*
X41394047Y-180460095D01*
X53300333Y-174696380D02*
X52967000Y-174220190D01*
X52728904Y-174696380D02*
X52728904Y-173696380D01*
X53109857Y-173696380D01*
X53205095Y-173744000D01*
X53252714Y-173791619D01*
X53300333Y-173886857D01*
X53300333Y-174029714D01*
X53252714Y-174124952D01*
X53205095Y-174172571D01*
X53109857Y-174220190D01*
X52728904Y-174220190D01*
X53776523Y-174696380D02*
X53967000Y-174696380D01*
X54062238Y-174648761D01*
X54109857Y-174601142D01*
X54205095Y-174458285D01*
X54252714Y-174267809D01*
X54252714Y-173886857D01*
X54205095Y-173791619D01*
X54157476Y-173744000D01*
X54062238Y-173696380D01*
X53871761Y-173696380D01*
X53776523Y-173744000D01*
X53728904Y-173791619D01*
X53681285Y-173886857D01*
X53681285Y-174124952D01*
X53728904Y-174220190D01*
X53776523Y-174267809D01*
X53871761Y-174315428D01*
X54062238Y-174315428D01*
X54157476Y-174267809D01*
X54205095Y-174220190D01*
X54252714Y-174124952D01*
X26844666Y-103719380D02*
X26844666Y-104433666D01*
X26797047Y-104576523D01*
X26701809Y-104671761D01*
X26558952Y-104719380D01*
X26463714Y-104719380D01*
X27844666Y-104719380D02*
X27273238Y-104719380D01*
X27558952Y-104719380D02*
X27558952Y-103719380D01*
X27463714Y-103862238D01*
X27368476Y-103957476D01*
X27273238Y-104005095D01*
X70254761Y-145351333D02*
X70302380Y-145208476D01*
X70302380Y-144970380D01*
X70254761Y-144875142D01*
X70207142Y-144827523D01*
X70111904Y-144779904D01*
X70016666Y-144779904D01*
X69921428Y-144827523D01*
X69873809Y-144875142D01*
X69826190Y-144970380D01*
X69778571Y-145160857D01*
X69730952Y-145256095D01*
X69683333Y-145303714D01*
X69588095Y-145351333D01*
X69492857Y-145351333D01*
X69397619Y-145303714D01*
X69350000Y-145256095D01*
X69302380Y-145160857D01*
X69302380Y-144922761D01*
X69350000Y-144779904D01*
X69302380Y-144446571D02*
X70302380Y-144208476D01*
X69588095Y-144018000D01*
X70302380Y-143827523D01*
X69302380Y-143589428D01*
X69302380Y-142779904D02*
X69302380Y-142970380D01*
X69350000Y-143065619D01*
X69397619Y-143113238D01*
X69540476Y-143208476D01*
X69730952Y-143256095D01*
X70111904Y-143256095D01*
X70207142Y-143208476D01*
X70254761Y-143160857D01*
X70302380Y-143065619D01*
X70302380Y-142875142D01*
X70254761Y-142779904D01*
X70207142Y-142732285D01*
X70111904Y-142684666D01*
X69873809Y-142684666D01*
X69778571Y-142732285D01*
X69730952Y-142779904D01*
X69683333Y-142875142D01*
X69683333Y-143065619D01*
X69730952Y-143160857D01*
X69778571Y-143208476D01*
X69873809Y-143256095D01*
X61206142Y-185999380D02*
X60872809Y-185523190D01*
X60634714Y-185999380D02*
X60634714Y-184999380D01*
X61015666Y-184999380D01*
X61110904Y-185047000D01*
X61158523Y-185094619D01*
X61206142Y-185189857D01*
X61206142Y-185332714D01*
X61158523Y-185427952D01*
X61110904Y-185475571D01*
X61015666Y-185523190D01*
X60634714Y-185523190D01*
X61587095Y-185094619D02*
X61634714Y-185047000D01*
X61729952Y-184999380D01*
X61968047Y-184999380D01*
X62063285Y-185047000D01*
X62110904Y-185094619D01*
X62158523Y-185189857D01*
X62158523Y-185285095D01*
X62110904Y-185427952D01*
X61539476Y-185999380D01*
X62158523Y-185999380D01*
X62539476Y-185094619D02*
X62587095Y-185047000D01*
X62682333Y-184999380D01*
X62920428Y-184999380D01*
X63015666Y-185047000D01*
X63063285Y-185094619D01*
X63110904Y-185189857D01*
X63110904Y-185285095D01*
X63063285Y-185427952D01*
X62491857Y-185999380D01*
X63110904Y-185999380D01*
X51331761Y-167068333D02*
X51379380Y-166925476D01*
X51379380Y-166687380D01*
X51331761Y-166592142D01*
X51284142Y-166544523D01*
X51188904Y-166496904D01*
X51093666Y-166496904D01*
X50998428Y-166544523D01*
X50950809Y-166592142D01*
X50903190Y-166687380D01*
X50855571Y-166877857D01*
X50807952Y-166973095D01*
X50760333Y-167020714D01*
X50665095Y-167068333D01*
X50569857Y-167068333D01*
X50474619Y-167020714D01*
X50427000Y-166973095D01*
X50379380Y-166877857D01*
X50379380Y-166639761D01*
X50427000Y-166496904D01*
X50379380Y-166163571D02*
X51379380Y-165925476D01*
X50665095Y-165735000D01*
X51379380Y-165544523D01*
X50379380Y-165306428D01*
X50807952Y-164782619D02*
X50760333Y-164877857D01*
X50712714Y-164925476D01*
X50617476Y-164973095D01*
X50569857Y-164973095D01*
X50474619Y-164925476D01*
X50427000Y-164877857D01*
X50379380Y-164782619D01*
X50379380Y-164592142D01*
X50427000Y-164496904D01*
X50474619Y-164449285D01*
X50569857Y-164401666D01*
X50617476Y-164401666D01*
X50712714Y-164449285D01*
X50760333Y-164496904D01*
X50807952Y-164592142D01*
X50807952Y-164782619D01*
X50855571Y-164877857D01*
X50903190Y-164925476D01*
X50998428Y-164973095D01*
X51188904Y-164973095D01*
X51284142Y-164925476D01*
X51331761Y-164877857D01*
X51379380Y-164782619D01*
X51379380Y-164592142D01*
X51331761Y-164496904D01*
X51284142Y-164449285D01*
X51188904Y-164401666D01*
X50998428Y-164401666D01*
X50903190Y-164449285D01*
X50855571Y-164496904D01*
X50807952Y-164592142D01*
X40600333Y-130024142D02*
X40552714Y-130071761D01*
X40409857Y-130119380D01*
X40314619Y-130119380D01*
X40171761Y-130071761D01*
X40076523Y-129976523D01*
X40028904Y-129881285D01*
X39981285Y-129690809D01*
X39981285Y-129547952D01*
X40028904Y-129357476D01*
X40076523Y-129262238D01*
X40171761Y-129167000D01*
X40314619Y-129119380D01*
X40409857Y-129119380D01*
X40552714Y-129167000D01*
X40600333Y-129214619D01*
X41457476Y-129119380D02*
X41267000Y-129119380D01*
X41171761Y-129167000D01*
X41124142Y-129214619D01*
X41028904Y-129357476D01*
X40981285Y-129547952D01*
X40981285Y-129928904D01*
X41028904Y-130024142D01*
X41076523Y-130071761D01*
X41171761Y-130119380D01*
X41362238Y-130119380D01*
X41457476Y-130071761D01*
X41505095Y-130024142D01*
X41552714Y-129928904D01*
X41552714Y-129690809D01*
X41505095Y-129595571D01*
X41457476Y-129547952D01*
X41362238Y-129500333D01*
X41171761Y-129500333D01*
X41076523Y-129547952D01*
X41028904Y-129595571D01*
X40981285Y-129690809D01*
X51903333Y-152216142D02*
X51855714Y-152263761D01*
X51712857Y-152311380D01*
X51617619Y-152311380D01*
X51474761Y-152263761D01*
X51379523Y-152168523D01*
X51331904Y-152073285D01*
X51284285Y-151882809D01*
X51284285Y-151739952D01*
X51331904Y-151549476D01*
X51379523Y-151454238D01*
X51474761Y-151359000D01*
X51617619Y-151311380D01*
X51712857Y-151311380D01*
X51855714Y-151359000D01*
X51903333Y-151406619D01*
X52236666Y-151311380D02*
X52855714Y-151311380D01*
X52522380Y-151692333D01*
X52665238Y-151692333D01*
X52760476Y-151739952D01*
X52808095Y-151787571D01*
X52855714Y-151882809D01*
X52855714Y-152120904D01*
X52808095Y-152216142D01*
X52760476Y-152263761D01*
X52665238Y-152311380D01*
X52379523Y-152311380D01*
X52284285Y-152263761D01*
X52236666Y-152216142D01*
X38862095Y-176236380D02*
X38862095Y-177045904D01*
X38909714Y-177141142D01*
X38957333Y-177188761D01*
X39052571Y-177236380D01*
X39243047Y-177236380D01*
X39338285Y-177188761D01*
X39385904Y-177141142D01*
X39433523Y-177045904D01*
X39433523Y-176236380D01*
X40433523Y-177236380D02*
X39862095Y-177236380D01*
X40147809Y-177236380D02*
X40147809Y-176236380D01*
X40052571Y-176379238D01*
X39957333Y-176474476D01*
X39862095Y-176522095D01*
X55078333Y-141581142D02*
X55030714Y-141628761D01*
X54887857Y-141676380D01*
X54792619Y-141676380D01*
X54649761Y-141628761D01*
X54554523Y-141533523D01*
X54506904Y-141438285D01*
X54459285Y-141247809D01*
X54459285Y-141104952D01*
X54506904Y-140914476D01*
X54554523Y-140819238D01*
X54649761Y-140724000D01*
X54792619Y-140676380D01*
X54887857Y-140676380D01*
X55030714Y-140724000D01*
X55078333Y-140771619D01*
X55983095Y-140676380D02*
X55506904Y-140676380D01*
X55459285Y-141152571D01*
X55506904Y-141104952D01*
X55602142Y-141057333D01*
X55840238Y-141057333D01*
X55935476Y-141104952D01*
X55983095Y-141152571D01*
X56030714Y-141247809D01*
X56030714Y-141485904D01*
X55983095Y-141581142D01*
X55935476Y-141628761D01*
X55840238Y-141676380D01*
X55602142Y-141676380D01*
X55506904Y-141628761D01*
X55459285Y-141581142D01*
X47871142Y-109545380D02*
X47537809Y-109069190D01*
X47299714Y-109545380D02*
X47299714Y-108545380D01*
X47680666Y-108545380D01*
X47775904Y-108593000D01*
X47823523Y-108640619D01*
X47871142Y-108735857D01*
X47871142Y-108878714D01*
X47823523Y-108973952D01*
X47775904Y-109021571D01*
X47680666Y-109069190D01*
X47299714Y-109069190D01*
X48823523Y-109545380D02*
X48252095Y-109545380D01*
X48537809Y-109545380D02*
X48537809Y-108545380D01*
X48442571Y-108688238D01*
X48347333Y-108783476D01*
X48252095Y-108831095D01*
X49728285Y-108545380D02*
X49252095Y-108545380D01*
X49204476Y-109021571D01*
X49252095Y-108973952D01*
X49347333Y-108926333D01*
X49585428Y-108926333D01*
X49680666Y-108973952D01*
X49728285Y-109021571D01*
X49775904Y-109116809D01*
X49775904Y-109354904D01*
X49728285Y-109450142D01*
X49680666Y-109497761D01*
X49585428Y-109545380D01*
X49347333Y-109545380D01*
X49252095Y-109497761D01*
X49204476Y-109450142D01*
X53300333Y-177109380D02*
X52967000Y-176633190D01*
X52728904Y-177109380D02*
X52728904Y-176109380D01*
X53109857Y-176109380D01*
X53205095Y-176157000D01*
X53252714Y-176204619D01*
X53300333Y-176299857D01*
X53300333Y-176442714D01*
X53252714Y-176537952D01*
X53205095Y-176585571D01*
X53109857Y-176633190D01*
X52728904Y-176633190D01*
X53633666Y-176109380D02*
X54300333Y-176109380D01*
X53871761Y-177109380D01*
X57777142Y-165044380D02*
X57443809Y-164568190D01*
X57205714Y-165044380D02*
X57205714Y-164044380D01*
X57586666Y-164044380D01*
X57681904Y-164092000D01*
X57729523Y-164139619D01*
X57777142Y-164234857D01*
X57777142Y-164377714D01*
X57729523Y-164472952D01*
X57681904Y-164520571D01*
X57586666Y-164568190D01*
X57205714Y-164568190D01*
X58110476Y-164044380D02*
X58729523Y-164044380D01*
X58396190Y-164425333D01*
X58539047Y-164425333D01*
X58634285Y-164472952D01*
X58681904Y-164520571D01*
X58729523Y-164615809D01*
X58729523Y-164853904D01*
X58681904Y-164949142D01*
X58634285Y-164996761D01*
X58539047Y-165044380D01*
X58253333Y-165044380D01*
X58158095Y-164996761D01*
X58110476Y-164949142D01*
X59681904Y-165044380D02*
X59110476Y-165044380D01*
X59396190Y-165044380D02*
X59396190Y-164044380D01*
X59300952Y-164187238D01*
X59205714Y-164282476D01*
X59110476Y-164330095D01*
X59332904Y-170251380D02*
X59332904Y-169251380D01*
X59571000Y-169251380D01*
X59713857Y-169299000D01*
X59809095Y-169394238D01*
X59856714Y-169489476D01*
X59904333Y-169679952D01*
X59904333Y-169822809D01*
X59856714Y-170013285D01*
X59809095Y-170108523D01*
X59713857Y-170203761D01*
X59571000Y-170251380D01*
X59332904Y-170251380D01*
X60761476Y-169584714D02*
X60761476Y-170251380D01*
X60523380Y-169203761D02*
X60285285Y-169918047D01*
X60904333Y-169918047D01*
X42060904Y-185364380D02*
X42060904Y-184364380D01*
X42299000Y-184364380D01*
X42441857Y-184412000D01*
X42537095Y-184507238D01*
X42584714Y-184602476D01*
X42632333Y-184792952D01*
X42632333Y-184935809D01*
X42584714Y-185126285D01*
X42537095Y-185221523D01*
X42441857Y-185316761D01*
X42299000Y-185364380D01*
X42060904Y-185364380D01*
X42965666Y-184364380D02*
X43584714Y-184364380D01*
X43251380Y-184745333D01*
X43394238Y-184745333D01*
X43489476Y-184792952D01*
X43537095Y-184840571D01*
X43584714Y-184935809D01*
X43584714Y-185173904D01*
X43537095Y-185269142D01*
X43489476Y-185316761D01*
X43394238Y-185364380D01*
X43108523Y-185364380D01*
X43013285Y-185316761D01*
X42965666Y-185269142D01*
X74088666Y-103846380D02*
X74088666Y-104560666D01*
X74041047Y-104703523D01*
X73945809Y-104798761D01*
X73802952Y-104846380D01*
X73707714Y-104846380D01*
X74517238Y-103941619D02*
X74564857Y-103894000D01*
X74660095Y-103846380D01*
X74898190Y-103846380D01*
X74993428Y-103894000D01*
X75041047Y-103941619D01*
X75088666Y-104036857D01*
X75088666Y-104132095D01*
X75041047Y-104274952D01*
X74469619Y-104846380D01*
X75088666Y-104846380D01*
X49617333Y-183205380D02*
X49284000Y-182729190D01*
X49045904Y-183205380D02*
X49045904Y-182205380D01*
X49426857Y-182205380D01*
X49522095Y-182253000D01*
X49569714Y-182300619D01*
X49617333Y-182395857D01*
X49617333Y-182538714D01*
X49569714Y-182633952D01*
X49522095Y-182681571D01*
X49426857Y-182729190D01*
X49045904Y-182729190D01*
X49950666Y-182205380D02*
X50569714Y-182205380D01*
X50236380Y-182586333D01*
X50379238Y-182586333D01*
X50474476Y-182633952D01*
X50522095Y-182681571D01*
X50569714Y-182776809D01*
X50569714Y-183014904D01*
X50522095Y-183110142D01*
X50474476Y-183157761D01*
X50379238Y-183205380D01*
X50093523Y-183205380D01*
X49998285Y-183157761D01*
X49950666Y-183110142D01*
X70254761Y-171132333D02*
X70302380Y-170989476D01*
X70302380Y-170751380D01*
X70254761Y-170656142D01*
X70207142Y-170608523D01*
X70111904Y-170560904D01*
X70016666Y-170560904D01*
X69921428Y-170608523D01*
X69873809Y-170656142D01*
X69826190Y-170751380D01*
X69778571Y-170941857D01*
X69730952Y-171037095D01*
X69683333Y-171084714D01*
X69588095Y-171132333D01*
X69492857Y-171132333D01*
X69397619Y-171084714D01*
X69350000Y-171037095D01*
X69302380Y-170941857D01*
X69302380Y-170703761D01*
X69350000Y-170560904D01*
X69302380Y-170227571D02*
X70302380Y-169989476D01*
X69588095Y-169799000D01*
X70302380Y-169608523D01*
X69302380Y-169370428D01*
X69302380Y-169084714D02*
X69302380Y-168465666D01*
X69683333Y-168799000D01*
X69683333Y-168656142D01*
X69730952Y-168560904D01*
X69778571Y-168513285D01*
X69873809Y-168465666D01*
X70111904Y-168465666D01*
X70207142Y-168513285D01*
X70254761Y-168560904D01*
X70302380Y-168656142D01*
X70302380Y-168941857D01*
X70254761Y-169037095D01*
X70207142Y-169084714D01*
X58793142Y-141422380D02*
X58459809Y-140946190D01*
X58221714Y-141422380D02*
X58221714Y-140422380D01*
X58602666Y-140422380D01*
X58697904Y-140470000D01*
X58745523Y-140517619D01*
X58793142Y-140612857D01*
X58793142Y-140755714D01*
X58745523Y-140850952D01*
X58697904Y-140898571D01*
X58602666Y-140946190D01*
X58221714Y-140946190D01*
X59174095Y-140517619D02*
X59221714Y-140470000D01*
X59316952Y-140422380D01*
X59555047Y-140422380D01*
X59650285Y-140470000D01*
X59697904Y-140517619D01*
X59745523Y-140612857D01*
X59745523Y-140708095D01*
X59697904Y-140850952D01*
X59126476Y-141422380D01*
X59745523Y-141422380D01*
X60078857Y-140422380D02*
X60745523Y-140422380D01*
X60316952Y-141422380D01*
X45585142Y-104338380D02*
X45251809Y-103862190D01*
X45013714Y-104338380D02*
X45013714Y-103338380D01*
X45394666Y-103338380D01*
X45489904Y-103386000D01*
X45537523Y-103433619D01*
X45585142Y-103528857D01*
X45585142Y-103671714D01*
X45537523Y-103766952D01*
X45489904Y-103814571D01*
X45394666Y-103862190D01*
X45013714Y-103862190D01*
X46537523Y-104338380D02*
X45966095Y-104338380D01*
X46251809Y-104338380D02*
X46251809Y-103338380D01*
X46156571Y-103481238D01*
X46061333Y-103576476D01*
X45966095Y-103624095D01*
X47394666Y-103671714D02*
X47394666Y-104338380D01*
X47156571Y-103290761D02*
X46918476Y-104005047D01*
X47537523Y-104005047D01*
X38258761Y-191301619D02*
X38163523Y-191254000D01*
X38068285Y-191158761D01*
X37925428Y-191015904D01*
X37830190Y-190968285D01*
X37734952Y-190968285D01*
X37782571Y-191206380D02*
X37687333Y-191158761D01*
X37592095Y-191063523D01*
X37544476Y-190873047D01*
X37544476Y-190539714D01*
X37592095Y-190349238D01*
X37687333Y-190254000D01*
X37782571Y-190206380D01*
X37973047Y-190206380D01*
X38068285Y-190254000D01*
X38163523Y-190349238D01*
X38211142Y-190539714D01*
X38211142Y-190873047D01*
X38163523Y-191063523D01*
X38068285Y-191158761D01*
X37973047Y-191206380D01*
X37782571Y-191206380D01*
X39163523Y-191206380D02*
X38592095Y-191206380D01*
X38877809Y-191206380D02*
X38877809Y-190206380D01*
X38782571Y-190349238D01*
X38687333Y-190444476D01*
X38592095Y-190492095D01*
X29837142Y-127706380D02*
X29503809Y-127230190D01*
X29265714Y-127706380D02*
X29265714Y-126706380D01*
X29646666Y-126706380D01*
X29741904Y-126754000D01*
X29789523Y-126801619D01*
X29837142Y-126896857D01*
X29837142Y-127039714D01*
X29789523Y-127134952D01*
X29741904Y-127182571D01*
X29646666Y-127230190D01*
X29265714Y-127230190D01*
X30789523Y-127706380D02*
X30218095Y-127706380D01*
X30503809Y-127706380D02*
X30503809Y-126706380D01*
X30408571Y-126849238D01*
X30313333Y-126944476D01*
X30218095Y-126992095D01*
X31265714Y-127706380D02*
X31456190Y-127706380D01*
X31551428Y-127658761D01*
X31599047Y-127611142D01*
X31694285Y-127468285D01*
X31741904Y-127277809D01*
X31741904Y-126896857D01*
X31694285Y-126801619D01*
X31646666Y-126754000D01*
X31551428Y-126706380D01*
X31360952Y-126706380D01*
X31265714Y-126754000D01*
X31218095Y-126801619D01*
X31170476Y-126896857D01*
X31170476Y-127134952D01*
X31218095Y-127230190D01*
X31265714Y-127277809D01*
X31360952Y-127325428D01*
X31551428Y-127325428D01*
X31646666Y-127277809D01*
X31694285Y-127230190D01*
X31741904Y-127134952D01*
X57904142Y-174950380D02*
X57570809Y-174474190D01*
X57332714Y-174950380D02*
X57332714Y-173950380D01*
X57713666Y-173950380D01*
X57808904Y-173998000D01*
X57856523Y-174045619D01*
X57904142Y-174140857D01*
X57904142Y-174283714D01*
X57856523Y-174378952D01*
X57808904Y-174426571D01*
X57713666Y-174474190D01*
X57332714Y-174474190D01*
X58285095Y-174045619D02*
X58332714Y-173998000D01*
X58427952Y-173950380D01*
X58666047Y-173950380D01*
X58761285Y-173998000D01*
X58808904Y-174045619D01*
X58856523Y-174140857D01*
X58856523Y-174236095D01*
X58808904Y-174378952D01*
X58237476Y-174950380D01*
X58856523Y-174950380D01*
X59808904Y-174950380D02*
X59237476Y-174950380D01*
X59523190Y-174950380D02*
X59523190Y-173950380D01*
X59427952Y-174093238D01*
X59332714Y-174188476D01*
X59237476Y-174236095D01*
X48347333Y-116308142D02*
X48299714Y-116355761D01*
X48156857Y-116403380D01*
X48061619Y-116403380D01*
X47918761Y-116355761D01*
X47823523Y-116260523D01*
X47775904Y-116165285D01*
X47728285Y-115974809D01*
X47728285Y-115831952D01*
X47775904Y-115641476D01*
X47823523Y-115546238D01*
X47918761Y-115451000D01*
X48061619Y-115403380D01*
X48156857Y-115403380D01*
X48299714Y-115451000D01*
X48347333Y-115498619D01*
X48823523Y-116403380D02*
X49014000Y-116403380D01*
X49109238Y-116355761D01*
X49156857Y-116308142D01*
X49252095Y-116165285D01*
X49299714Y-115974809D01*
X49299714Y-115593857D01*
X49252095Y-115498619D01*
X49204476Y-115451000D01*
X49109238Y-115403380D01*
X48918761Y-115403380D01*
X48823523Y-115451000D01*
X48775904Y-115498619D01*
X48728285Y-115593857D01*
X48728285Y-115831952D01*
X48775904Y-115927190D01*
X48823523Y-115974809D01*
X48918761Y-116022428D01*
X49109238Y-116022428D01*
X49204476Y-115974809D01*
X49252095Y-115927190D01*
X49299714Y-115831952D01*
X36060142Y-173397142D02*
X36012523Y-173444761D01*
X35869666Y-173492380D01*
X35774428Y-173492380D01*
X35631571Y-173444761D01*
X35536333Y-173349523D01*
X35488714Y-173254285D01*
X35441095Y-173063809D01*
X35441095Y-172920952D01*
X35488714Y-172730476D01*
X35536333Y-172635238D01*
X35631571Y-172540000D01*
X35774428Y-172492380D01*
X35869666Y-172492380D01*
X36012523Y-172540000D01*
X36060142Y-172587619D01*
X37012523Y-173492380D02*
X36441095Y-173492380D01*
X36726809Y-173492380D02*
X36726809Y-172492380D01*
X36631571Y-172635238D01*
X36536333Y-172730476D01*
X36441095Y-172778095D01*
X37964904Y-173492380D02*
X37393476Y-173492380D01*
X37679190Y-173492380D02*
X37679190Y-172492380D01*
X37583952Y-172635238D01*
X37488714Y-172730476D01*
X37393476Y-172778095D01*
X50157142Y-104338380D02*
X49823809Y-103862190D01*
X49585714Y-104338380D02*
X49585714Y-103338380D01*
X49966666Y-103338380D01*
X50061904Y-103386000D01*
X50109523Y-103433619D01*
X50157142Y-103528857D01*
X50157142Y-103671714D01*
X50109523Y-103766952D01*
X50061904Y-103814571D01*
X49966666Y-103862190D01*
X49585714Y-103862190D01*
X50538095Y-103433619D02*
X50585714Y-103386000D01*
X50680952Y-103338380D01*
X50919047Y-103338380D01*
X51014285Y-103386000D01*
X51061904Y-103433619D01*
X51109523Y-103528857D01*
X51109523Y-103624095D01*
X51061904Y-103766952D01*
X50490476Y-104338380D01*
X51109523Y-104338380D01*
X51442857Y-103338380D02*
X52061904Y-103338380D01*
X51728571Y-103719333D01*
X51871428Y-103719333D01*
X51966666Y-103766952D01*
X52014285Y-103814571D01*
X52061904Y-103909809D01*
X52061904Y-104147904D01*
X52014285Y-104243142D01*
X51966666Y-104290761D01*
X51871428Y-104338380D01*
X51585714Y-104338380D01*
X51490476Y-104290761D01*
X51442857Y-104243142D01*
X38092142Y-157042380D02*
X37758809Y-156566190D01*
X37520714Y-157042380D02*
X37520714Y-156042380D01*
X37901666Y-156042380D01*
X37996904Y-156090000D01*
X38044523Y-156137619D01*
X38092142Y-156232857D01*
X38092142Y-156375714D01*
X38044523Y-156470952D01*
X37996904Y-156518571D01*
X37901666Y-156566190D01*
X37520714Y-156566190D01*
X38473095Y-156137619D02*
X38520714Y-156090000D01*
X38615952Y-156042380D01*
X38854047Y-156042380D01*
X38949285Y-156090000D01*
X38996904Y-156137619D01*
X39044523Y-156232857D01*
X39044523Y-156328095D01*
X38996904Y-156470952D01*
X38425476Y-157042380D01*
X39044523Y-157042380D01*
X39663571Y-156042380D02*
X39758809Y-156042380D01*
X39854047Y-156090000D01*
X39901666Y-156137619D01*
X39949285Y-156232857D01*
X39996904Y-156423333D01*
X39996904Y-156661428D01*
X39949285Y-156851904D01*
X39901666Y-156947142D01*
X39854047Y-156994761D01*
X39758809Y-157042380D01*
X39663571Y-157042380D01*
X39568333Y-156994761D01*
X39520714Y-156947142D01*
X39473095Y-156851904D01*
X39425476Y-156661428D01*
X39425476Y-156423333D01*
X39473095Y-156232857D01*
X39520714Y-156137619D01*
X39568333Y-156090000D01*
X39663571Y-156042380D01*
X62126904Y-151201380D02*
X62126904Y-150201380D01*
X62365000Y-150201380D01*
X62507857Y-150249000D01*
X62603095Y-150344238D01*
X62650714Y-150439476D01*
X62698333Y-150629952D01*
X62698333Y-150772809D01*
X62650714Y-150963285D01*
X62603095Y-151058523D01*
X62507857Y-151153761D01*
X62365000Y-151201380D01*
X62126904Y-151201380D01*
X63269761Y-150629952D02*
X63174523Y-150582333D01*
X63126904Y-150534714D01*
X63079285Y-150439476D01*
X63079285Y-150391857D01*
X63126904Y-150296619D01*
X63174523Y-150249000D01*
X63269761Y-150201380D01*
X63460238Y-150201380D01*
X63555476Y-150249000D01*
X63603095Y-150296619D01*
X63650714Y-150391857D01*
X63650714Y-150439476D01*
X63603095Y-150534714D01*
X63555476Y-150582333D01*
X63460238Y-150629952D01*
X63269761Y-150629952D01*
X63174523Y-150677571D01*
X63126904Y-150725190D01*
X63079285Y-150820428D01*
X63079285Y-151010904D01*
X63126904Y-151106142D01*
X63174523Y-151153761D01*
X63269761Y-151201380D01*
X63460238Y-151201380D01*
X63555476Y-151153761D01*
X63603095Y-151106142D01*
X63650714Y-151010904D01*
X63650714Y-150820428D01*
X63603095Y-150725190D01*
X63555476Y-150677571D01*
X63460238Y-150629952D01*
X46696333Y-185491380D02*
X46363000Y-185015190D01*
X46124904Y-185491380D02*
X46124904Y-184491380D01*
X46505857Y-184491380D01*
X46601095Y-184539000D01*
X46648714Y-184586619D01*
X46696333Y-184681857D01*
X46696333Y-184824714D01*
X46648714Y-184919952D01*
X46601095Y-184967571D01*
X46505857Y-185015190D01*
X46124904Y-185015190D01*
X47553476Y-184824714D02*
X47553476Y-185491380D01*
X47315380Y-184443761D02*
X47077285Y-185158047D01*
X47696333Y-185158047D01*
X40727333Y-127611142D02*
X40679714Y-127658761D01*
X40536857Y-127706380D01*
X40441619Y-127706380D01*
X40298761Y-127658761D01*
X40203523Y-127563523D01*
X40155904Y-127468285D01*
X40108285Y-127277809D01*
X40108285Y-127134952D01*
X40155904Y-126944476D01*
X40203523Y-126849238D01*
X40298761Y-126754000D01*
X40441619Y-126706380D01*
X40536857Y-126706380D01*
X40679714Y-126754000D01*
X40727333Y-126801619D01*
X41060666Y-126706380D02*
X41727333Y-126706380D01*
X41298761Y-127706380D01*
D14*
X46381936Y-171096000D02*
X46836064Y-171096000D01*
X46381936Y-172566000D02*
X46836064Y-172566000D01*
X51589000Y-179858936D02*
X51589000Y-180313064D01*
X53059000Y-179858936D02*
X53059000Y-180313064D01*
X36314748Y-166978000D02*
X36837252Y-166978000D01*
X36314748Y-165508000D02*
X36837252Y-165508000D01*
X37338000Y-168239000D02*
X38138000Y-168239000D01*
X37338000Y-171359000D02*
X38138000Y-171359000D01*
X37338000Y-171359000D02*
X36538000Y-171359000D01*
X37338000Y-168239000D02*
X35538000Y-168239000D01*
X47797750Y-120379752D02*
X47797750Y-119857248D01*
X49267750Y-120379752D02*
X49267750Y-119857248D01*
X48641000Y-137909000D02*
X46691000Y-137909000D01*
X48641000Y-148029000D02*
X46691000Y-148029000D01*
X48641000Y-148029000D02*
X52091000Y-148029000D01*
X48641000Y-137909000D02*
X50591000Y-137909000D01*
X51681748Y-135376000D02*
X52204252Y-135376000D01*
X51681748Y-136846000D02*
X52204252Y-136846000D01*
X63092064Y-171477000D02*
X62637936Y-171477000D01*
X63092064Y-172947000D02*
X62637936Y-172947000D01*
X56107000Y-113511064D02*
X56107000Y-113056936D01*
X54637000Y-113511064D02*
X54637000Y-113056936D01*
D15*
X68787640Y-187045600D02*
X69428360Y-187045600D01*
X74980800Y-183794400D02*
X73787640Y-183794400D01*
X71287640Y-187045600D02*
X71928360Y-187045600D01*
X73787640Y-187045600D02*
X74980800Y-187045600D01*
X71928360Y-183794400D02*
X71287640Y-183794400D01*
X65735200Y-183794400D02*
X65735200Y-187045600D01*
X65735200Y-187045600D02*
X66928360Y-187045600D01*
X69428360Y-183794400D02*
X68787640Y-183794400D01*
X74980800Y-187045600D02*
X74980800Y-183794400D01*
X66928360Y-183794400D02*
X65735200Y-183794400D01*
D14*
X55398936Y-146117000D02*
X55853064Y-146117000D01*
X55398936Y-144647000D02*
X55853064Y-144647000D01*
D15*
X33375600Y-187502800D02*
X33375600Y-186309640D01*
X33375600Y-181950360D02*
X33375600Y-181309640D01*
X30124400Y-181309640D02*
X30124400Y-181950360D01*
X33375600Y-178257200D02*
X30124400Y-178257200D01*
X30124400Y-183809640D02*
X30124400Y-184450360D01*
X30124400Y-186309640D02*
X30124400Y-187502800D01*
X30124400Y-178257200D02*
X30124400Y-179450360D01*
X30124400Y-187502800D02*
X33375600Y-187502800D01*
X33375600Y-184450360D02*
X33375600Y-183809640D01*
X33375600Y-179450360D02*
X33375600Y-178257200D01*
D14*
X59216000Y-161361000D02*
X59216000Y-159441000D01*
X59216000Y-159441000D02*
X56531000Y-159441000D01*
X56531000Y-161361000D02*
X59216000Y-161361000D01*
X48641000Y-124066000D02*
X50591000Y-124066000D01*
X48641000Y-124066000D02*
X46691000Y-124066000D01*
X48641000Y-134186000D02*
X46691000Y-134186000D01*
X48641000Y-134186000D02*
X52091000Y-134186000D01*
X54637000Y-106653064D02*
X54637000Y-106198936D01*
X56107000Y-106653064D02*
X56107000Y-106198936D01*
D15*
X30124400Y-139399640D02*
X30124400Y-140040360D01*
X33375600Y-136347200D02*
X30124400Y-136347200D01*
X30124400Y-136347200D02*
X30124400Y-137540360D01*
X30124400Y-145592800D02*
X33375600Y-145592800D01*
X30124400Y-144399640D02*
X30124400Y-145592800D01*
X33375600Y-140040360D02*
X33375600Y-139399640D01*
X30124400Y-141899640D02*
X30124400Y-142540360D01*
X33375600Y-142540360D02*
X33375600Y-141899640D01*
X33375600Y-145592800D02*
X33375600Y-144399640D01*
X33375600Y-137540360D02*
X33375600Y-136347200D01*
D14*
X42317936Y-171096000D02*
X42772064Y-171096000D01*
X42317936Y-172566000D02*
X42772064Y-172566000D01*
X27927300Y-170120187D02*
X27927300Y-172017813D01*
X33794700Y-172017813D02*
X33794700Y-170120187D01*
X64550000Y-139390000D02*
X64550000Y-137470000D01*
X64550000Y-137470000D02*
X61865000Y-137470000D01*
X61865000Y-139390000D02*
X64550000Y-139390000D01*
X45493000Y-113511064D02*
X45493000Y-113056936D01*
X46963000Y-113511064D02*
X46963000Y-113056936D01*
X46981750Y-120345564D02*
X46981750Y-119891436D01*
X45511750Y-120345564D02*
X45511750Y-119891436D01*
X32839300Y-166878000D02*
X33505500Y-166878000D01*
X33502600Y-166878000D02*
X33502600Y-164134800D01*
X33502600Y-164134800D02*
X32791400Y-164134800D01*
X32988800Y-164134800D02*
X29088800Y-164134800D01*
X32988800Y-166878000D02*
X29088800Y-166878000D01*
X40420000Y-151440000D02*
X37735000Y-151440000D01*
X37735000Y-153360000D02*
X40420000Y-153360000D01*
X40420000Y-153360000D02*
X40420000Y-151440000D01*
X41429000Y-167740064D02*
X41429000Y-167285936D01*
X42899000Y-167740064D02*
X42899000Y-167285936D01*
X48260000Y-178461400D02*
X45516800Y-178461400D01*
X48260000Y-179124700D02*
X48260000Y-178458500D01*
X48260000Y-178975200D02*
X48260000Y-182875200D01*
X45516800Y-178461400D02*
X45516800Y-179172600D01*
X45516800Y-178975200D02*
X45516800Y-182875200D01*
X36803064Y-164438000D02*
X36348936Y-164438000D01*
X36803064Y-162968000D02*
X36348936Y-162968000D01*
X47598000Y-176284252D02*
X47598000Y-175761748D01*
X46128000Y-176284252D02*
X46128000Y-175761748D01*
X58774064Y-179678000D02*
X58319936Y-179678000D01*
X58774064Y-178208000D02*
X58319936Y-178208000D01*
X58797564Y-182472000D02*
X58343436Y-182472000D01*
X58797564Y-181002000D02*
X58343436Y-181002000D01*
X62637936Y-154205000D02*
X63092064Y-154205000D01*
X62637936Y-155675000D02*
X63092064Y-155675000D01*
X53821000Y-106653064D02*
X53821000Y-106198936D01*
X52351000Y-106653064D02*
X52351000Y-106198936D01*
X34009064Y-130402000D02*
X33554936Y-130402000D01*
X34009064Y-128932000D02*
X33554936Y-128932000D01*
X52351000Y-113545252D02*
X52351000Y-113022748D01*
X53821000Y-113545252D02*
X53821000Y-113022748D01*
X38962064Y-141705000D02*
X38507936Y-141705000D01*
X38962064Y-140235000D02*
X38507936Y-140235000D01*
D15*
X33375600Y-151510360D02*
X33375600Y-150317200D01*
X30124400Y-153369640D02*
X30124400Y-154010360D01*
X33375600Y-159562800D02*
X33375600Y-158369640D01*
X30124400Y-158369640D02*
X30124400Y-159562800D01*
X33375600Y-156510360D02*
X33375600Y-155869640D01*
X33375600Y-150317200D02*
X30124400Y-150317200D01*
X30124400Y-159562800D02*
X33375600Y-159562800D01*
X33375600Y-154010360D02*
X33375600Y-153369640D01*
X30124400Y-155869640D02*
X30124400Y-156510360D01*
X30124400Y-150317200D02*
X30124400Y-151510360D01*
X71475600Y-159562800D02*
X71475600Y-158369640D01*
X68224400Y-153369640D02*
X68224400Y-154010360D01*
X68224400Y-158369640D02*
X68224400Y-159562800D01*
X71475600Y-151510360D02*
X71475600Y-150317200D01*
X71475600Y-156510360D02*
X71475600Y-155869640D01*
X68224400Y-155869640D02*
X68224400Y-156510360D01*
X71475600Y-154010360D02*
X71475600Y-153369640D01*
X71475600Y-150317200D02*
X68224400Y-150317200D01*
X68224400Y-159562800D02*
X71475600Y-159562800D01*
X68224400Y-150317200D02*
X68224400Y-151510360D01*
D14*
X40420000Y-137470000D02*
X37735000Y-137470000D01*
X40420000Y-139390000D02*
X40420000Y-137470000D01*
X37735000Y-139390000D02*
X40420000Y-139390000D01*
X39143000Y-164819064D02*
X39143000Y-164364936D01*
X40613000Y-164819064D02*
X40613000Y-164364936D01*
X42223813Y-177788300D02*
X40326187Y-177788300D01*
X40326187Y-183655700D02*
X42223813Y-183655700D01*
X50318936Y-174979000D02*
X50773064Y-174979000D01*
X50318936Y-173509000D02*
X50773064Y-173509000D01*
X44032000Y-118920500D02*
X44032000Y-103400500D01*
X26072000Y-103400500D02*
X26072000Y-118920500D01*
X44032000Y-118920500D02*
X26072000Y-118920500D01*
X44032000Y-103400500D02*
X26072000Y-103400500D01*
D15*
X71475600Y-142540360D02*
X71475600Y-141899640D01*
X71475600Y-140040360D02*
X71475600Y-139399640D01*
X68224400Y-136347200D02*
X68224400Y-137540360D01*
X68224400Y-144399640D02*
X68224400Y-145592800D01*
X68224400Y-139399640D02*
X68224400Y-140040360D01*
X68224400Y-141899640D02*
X68224400Y-142540360D01*
X68224400Y-145592800D02*
X71475600Y-145592800D01*
X71475600Y-136347200D02*
X68224400Y-136347200D01*
X71475600Y-137540360D02*
X71475600Y-136347200D01*
X71475600Y-145592800D02*
X71475600Y-144399640D01*
D14*
X58319936Y-186282000D02*
X58774064Y-186282000D01*
X58319936Y-184812000D02*
X58774064Y-184812000D01*
D15*
X52425600Y-164511360D02*
X52425600Y-163870640D01*
X49174400Y-166370640D02*
X49174400Y-167563800D01*
X52425600Y-167563800D02*
X52425600Y-166370640D01*
X49174400Y-158318200D02*
X49174400Y-159511360D01*
X49174400Y-163870640D02*
X49174400Y-164511360D01*
X52425600Y-158318200D02*
X49174400Y-158318200D01*
X49174400Y-161370640D02*
X49174400Y-162011360D01*
X52425600Y-162011360D02*
X52425600Y-161370640D01*
X52425600Y-159511360D02*
X52425600Y-158318200D01*
X49174400Y-167563800D02*
X52425600Y-167563800D01*
D14*
X37711748Y-128932000D02*
X38234252Y-128932000D01*
X37711748Y-130402000D02*
X38234252Y-130402000D01*
X51681748Y-149219000D02*
X52204252Y-149219000D01*
X51681748Y-150689000D02*
X52204252Y-150689000D01*
X42545000Y-173574000D02*
X43345000Y-173574000D01*
X42545000Y-176694000D02*
X41745000Y-176694000D01*
X42545000Y-173574000D02*
X41745000Y-173574000D01*
X42545000Y-176694000D02*
X44345000Y-176694000D01*
X55364748Y-142234000D02*
X55887252Y-142234000D01*
X55364748Y-143704000D02*
X55887252Y-143704000D01*
X49249000Y-106653064D02*
X49249000Y-106198936D01*
X47779000Y-106653064D02*
X47779000Y-106198936D01*
X50318936Y-177519000D02*
X50773064Y-177519000D01*
X50318936Y-176049000D02*
X50773064Y-176049000D01*
X57758064Y-162079000D02*
X57303936Y-162079000D01*
X57758064Y-163549000D02*
X57303936Y-163549000D01*
X64550000Y-170759000D02*
X64550000Y-168839000D01*
X61865000Y-170759000D02*
X64550000Y-170759000D01*
X64550000Y-168839000D02*
X61865000Y-168839000D01*
X44484000Y-187650000D02*
X44484000Y-185730000D01*
X44484000Y-185730000D02*
X41799000Y-185730000D01*
X41799000Y-187650000D02*
X44484000Y-187650000D01*
X57568000Y-103456500D02*
X75528000Y-103456500D01*
X57568000Y-118976500D02*
X75528000Y-118976500D01*
X57568000Y-103456500D02*
X57568000Y-118976500D01*
X75528000Y-118976500D02*
X75528000Y-103456500D01*
X49049000Y-179858936D02*
X49049000Y-180313064D01*
X50519000Y-179858936D02*
X50519000Y-180313064D01*
D15*
X68224400Y-175641640D02*
X68224400Y-176834800D01*
X68224400Y-173141640D02*
X68224400Y-173782360D01*
X71475600Y-167589200D02*
X68224400Y-167589200D01*
X71475600Y-171282360D02*
X71475600Y-170641640D01*
X68224400Y-176834800D02*
X71475600Y-176834800D01*
X71475600Y-176834800D02*
X71475600Y-175641640D01*
X68224400Y-170641640D02*
X68224400Y-171282360D01*
X68224400Y-167589200D02*
X68224400Y-168782360D01*
X71475600Y-168782360D02*
X71475600Y-167589200D01*
X71475600Y-173782360D02*
X71475600Y-173141640D01*
D14*
X62637936Y-140235000D02*
X63092064Y-140235000D01*
X62637936Y-141705000D02*
X63092064Y-141705000D01*
X45493000Y-106653064D02*
X45493000Y-106198936D01*
X46963000Y-106653064D02*
X46963000Y-106198936D01*
X38354000Y-186654000D02*
X39004000Y-186654000D01*
X38354000Y-186654000D02*
X37704000Y-186654000D01*
X38354000Y-189774000D02*
X37704000Y-189774000D01*
X38354000Y-189774000D02*
X40029000Y-189774000D01*
X34009064Y-126519000D02*
X33554936Y-126519000D01*
X34009064Y-127989000D02*
X33554936Y-127989000D01*
X58774064Y-175541000D02*
X58319936Y-175541000D01*
X58774064Y-177011000D02*
X58319936Y-177011000D01*
X49249000Y-113545252D02*
X49249000Y-113022748D01*
X47779000Y-113545252D02*
X47779000Y-113022748D01*
X37438000Y-175775252D02*
X37438000Y-175252748D01*
X35968000Y-175775252D02*
X35968000Y-175252748D01*
X50065000Y-106653064D02*
X50065000Y-106198936D01*
X51535000Y-106653064D02*
X51535000Y-106198936D01*
X38962064Y-155675000D02*
X38507936Y-155675000D01*
X38962064Y-154205000D02*
X38507936Y-154205000D01*
X61865000Y-153360000D02*
X64550000Y-153360000D01*
X64550000Y-153360000D02*
X64550000Y-151440000D01*
X64550000Y-151440000D02*
X61865000Y-151440000D01*
X47090064Y-185955000D02*
X46635936Y-185955000D01*
X47090064Y-187425000D02*
X46635936Y-187425000D01*
X37711748Y-127989000D02*
X38234252Y-127989000D01*
X37711748Y-126519000D02*
X38234252Y-126519000D01*
M02*
