G04 #@! TF.GenerationSoftware,KiCad,Pcbnew,6.0.10-86aedd382b~118~ubuntu18.04.1*
G04 #@! TF.CreationDate,2024-08-26T14:05:47-06:00*
G04 #@! TF.ProjectId,mss-debug,6d73732d-6465-4627-9567-2e6b69636164,rev?*
G04 #@! TF.SameCoordinates,Original*
G04 #@! TF.FileFunction,Copper,L2,Bot*
G04 #@! TF.FilePolarity,Positive*
%FSLAX46Y46*%
G04 Gerber Fmt 4.6, Leading zero omitted, Abs format (unit mm)*
G04 Created by KiCad (PCBNEW 6.0.10-86aedd382b~118~ubuntu18.04.1) date 2024-08-26 14:05:47*
%MOMM*%
%LPD*%
G01*
G04 APERTURE LIST*
G04 #@! TA.AperFunction,ComponentPad*
%ADD10R,1.500000X1.500000*%
G04 #@! TD*
G04 #@! TA.AperFunction,ComponentPad*
%ADD11C,1.500000*%
G04 #@! TD*
G04 #@! TA.AperFunction,ComponentPad*
%ADD12R,3.000000X3.000000*%
G04 #@! TD*
G04 #@! TA.AperFunction,ComponentPad*
%ADD13C,3.000000*%
G04 #@! TD*
G04 #@! TA.AperFunction,ViaPad*
%ADD14C,0.609600*%
G04 #@! TD*
G04 #@! TA.AperFunction,Conductor*
%ADD15C,0.508000*%
G04 #@! TD*
G04 #@! TA.AperFunction,Conductor*
%ADD16C,0.635000*%
G04 #@! TD*
G04 #@! TA.AperFunction,Conductor*
%ADD17C,0.254000*%
G04 #@! TD*
G04 APERTURE END LIST*
D10*
X40152000Y-106715500D03*
D11*
X42692000Y-107985500D03*
X40152000Y-109255500D03*
X42692000Y-110525500D03*
X40152000Y-111795500D03*
X42692000Y-113065500D03*
X40152000Y-114335500D03*
X42692000Y-115605500D03*
D10*
X61448000Y-115661500D03*
D11*
X58908000Y-114391500D03*
X61448000Y-113121500D03*
X58908000Y-111851500D03*
X61448000Y-110581500D03*
X58908000Y-109311500D03*
X61448000Y-108041500D03*
X58908000Y-106771500D03*
D12*
X63500000Y-187960000D03*
D13*
X50800000Y-187960000D03*
D14*
X32385000Y-154432000D03*
X42546000Y-175134000D03*
X69215000Y-154432000D03*
X53848000Y-186563000D03*
X32385000Y-141478000D03*
X52959000Y-134587000D03*
X50038000Y-185293000D03*
X37719000Y-169799000D03*
X38100000Y-174625000D03*
X56515000Y-141478000D03*
X69215000Y-155448000D03*
X42799000Y-124587000D03*
X31115000Y-155448000D03*
X55118000Y-187960000D03*
X40259000Y-188341000D03*
X69215000Y-141478000D03*
X39243000Y-188341000D03*
X55118000Y-186563000D03*
X68961000Y-172720000D03*
X69215000Y-140462000D03*
X40289500Y-127985500D03*
X54356000Y-149954000D03*
X52959000Y-138524000D03*
X52959000Y-124681000D03*
X51308000Y-185293000D03*
X31115000Y-140462000D03*
X32385000Y-140462000D03*
X45212000Y-176911000D03*
X35306000Y-174625000D03*
X70485000Y-154432000D03*
X40289500Y-128874500D03*
X48768000Y-185293000D03*
X47752000Y-138524000D03*
X52959000Y-137381000D03*
X70485000Y-140462000D03*
X70485000Y-155448000D03*
X45212000Y-176022000D03*
X53848000Y-187960000D03*
X54864000Y-124681000D03*
X45974000Y-162433000D03*
X31115000Y-141478000D03*
X53848000Y-189230000D03*
X37465000Y-167640000D03*
X47752000Y-144874000D03*
X36576000Y-167640000D03*
X53975000Y-124681000D03*
X52578000Y-185293000D03*
X68961000Y-171704000D03*
X68707000Y-113157000D03*
X35560000Y-167640000D03*
X67818000Y-113157000D03*
X55118000Y-185293000D03*
X66929000Y-113157000D03*
X56388000Y-164211000D03*
X66040000Y-113157000D03*
X44069000Y-124587000D03*
X41656000Y-124587000D03*
X55499000Y-162814000D03*
X32385000Y-155448000D03*
X34671000Y-169799000D03*
X44831000Y-163449000D03*
X55118000Y-189230000D03*
X70485000Y-141478000D03*
X53848000Y-185293000D03*
X31115000Y-154432000D03*
X45212000Y-175134000D03*
X28067000Y-190373000D03*
X27241500Y-189547500D03*
X57634500Y-180363500D03*
X28575000Y-127381000D03*
X27305000Y-151511000D03*
X28575000Y-128270000D03*
X27305000Y-150368000D03*
X47498000Y-158750000D03*
X42418000Y-120142000D03*
X59055000Y-158750000D03*
X54102000Y-158750000D03*
X48641000Y-158750000D03*
X58166000Y-158750000D03*
X74422000Y-160020000D03*
X41021000Y-120142000D03*
X74422000Y-159004000D03*
X52959000Y-158750000D03*
X75438000Y-146431000D03*
X75438000Y-145415000D03*
X73787000Y-190627000D03*
X62865000Y-146177000D03*
X73533000Y-113411000D03*
X73533000Y-112522000D03*
X72517000Y-190627000D03*
X36957000Y-171831000D03*
X39878000Y-171323000D03*
X72390000Y-167894000D03*
X70993000Y-167894000D03*
X69342000Y-175514000D03*
X53467000Y-144874000D03*
X52611000Y-144874000D03*
X72771000Y-184912000D03*
X73787000Y-184912000D03*
X52578000Y-146144000D03*
X67437000Y-184785000D03*
X53467000Y-146144000D03*
X68326000Y-184785000D03*
D15*
X51689000Y-119126000D02*
X55118000Y-115697000D01*
X56677500Y-110581500D02*
X61448000Y-110581500D01*
X55118000Y-112141000D02*
X56677500Y-110581500D01*
X55118000Y-115697000D02*
X55118000Y-112141000D01*
X38989000Y-119126000D02*
X51689000Y-119126000D01*
X38064500Y-111795500D02*
X37211000Y-112649000D01*
X37211000Y-112649000D02*
X37211000Y-117348000D01*
X37211000Y-117348000D02*
X38989000Y-119126000D01*
X40152000Y-111795500D02*
X38064500Y-111795500D01*
X57634500Y-189888500D02*
X56642000Y-190881000D01*
X56642000Y-190881000D02*
X28575000Y-190881000D01*
X57634500Y-180363500D02*
X57634500Y-189888500D01*
X28575000Y-190881000D02*
X27178000Y-189484000D01*
X29908500Y-107886500D02*
X35623500Y-107886500D01*
X36794500Y-106715500D02*
X40152000Y-106715500D01*
X61448000Y-115661500D02*
X61122500Y-115661500D01*
X35623500Y-107886500D02*
X36794500Y-106715500D01*
X32131000Y-123190000D02*
X28956000Y-120015000D01*
X28956000Y-108839000D02*
X29908500Y-107886500D01*
X61122500Y-115661500D02*
X53594000Y-123190000D01*
X53594000Y-123190000D02*
X32131000Y-123190000D01*
X28956000Y-120015000D02*
X28956000Y-108839000D01*
X30734000Y-108839000D02*
X36626800Y-108839000D01*
X29972000Y-109601000D02*
X30734000Y-108839000D01*
X27305000Y-129540000D02*
X28575000Y-128270000D01*
X53213000Y-122174000D02*
X32512000Y-122174000D01*
X32512000Y-122174000D02*
X29972000Y-119634000D01*
X58908000Y-116479000D02*
X53213000Y-122174000D01*
X29972000Y-119634000D02*
X29972000Y-109601000D01*
D16*
X28575000Y-128270000D02*
X28575000Y-127381000D01*
D15*
X58908000Y-114391500D02*
X58908000Y-116479000D01*
X36626800Y-108839000D02*
X37480300Y-107985500D01*
X27305000Y-151511000D02*
X27305000Y-129540000D01*
X37480300Y-107985500D02*
X42692000Y-107985500D01*
X31750000Y-109855000D02*
X37312600Y-109855000D01*
X30988000Y-119253000D02*
X30988000Y-110617000D01*
X52705000Y-121158000D02*
X32893000Y-121158000D01*
X37912100Y-109255500D02*
X40152000Y-109255500D01*
X37312600Y-109855000D02*
X37912100Y-109255500D01*
X57947500Y-113121500D02*
X57277000Y-113792000D01*
X57277000Y-116586000D02*
X52705000Y-121158000D01*
X57277000Y-113792000D02*
X57277000Y-116586000D01*
X32893000Y-121158000D02*
X30988000Y-119253000D01*
X30988000Y-110617000D02*
X31750000Y-109855000D01*
X61448000Y-113121500D02*
X57947500Y-113121500D01*
X58166000Y-158750000D02*
X59055000Y-158750000D01*
X57312500Y-111851500D02*
X58908000Y-111851500D01*
X74422000Y-160020000D02*
X74422000Y-111887000D01*
X42692000Y-110525500D02*
X37937500Y-110525500D01*
X38608000Y-120142000D02*
X52197000Y-120142000D01*
X70485000Y-110998000D02*
X73533000Y-110998000D01*
X36322000Y-117856000D02*
X38608000Y-120142000D01*
X56134000Y-116205000D02*
X56134000Y-113030000D01*
X58908000Y-111851500D02*
X69631500Y-111851500D01*
X69631500Y-111851500D02*
X70485000Y-110998000D01*
X73533000Y-110998000D02*
X74422000Y-111887000D01*
X54102000Y-158750000D02*
X47498000Y-158750000D01*
X56134000Y-113030000D02*
X57312500Y-111851500D01*
X54102000Y-158750000D02*
X58166000Y-158750000D01*
X52197000Y-120142000D02*
X56134000Y-116205000D01*
X37937500Y-110525500D02*
X36322000Y-112141000D01*
X36322000Y-112141000D02*
X36322000Y-117856000D01*
X54229000Y-115189000D02*
X54229000Y-110490000D01*
X42692000Y-113065500D02*
X38826500Y-113065500D01*
X73878500Y-109311500D02*
X75311000Y-110744000D01*
X58908000Y-109311500D02*
X73878500Y-109311500D01*
X51308000Y-118110000D02*
X54229000Y-115189000D01*
X38826500Y-113065500D02*
X38100000Y-113792000D01*
X55407500Y-109311500D02*
X58908000Y-109311500D01*
X75311000Y-145288000D02*
X75438000Y-145415000D01*
X75311000Y-110744000D02*
X75311000Y-145288000D01*
X38100000Y-116459000D02*
X39751000Y-118110000D01*
X54229000Y-110490000D02*
X55407500Y-109311500D01*
X75438000Y-145415000D02*
X75438000Y-146431000D01*
X39751000Y-118110000D02*
X51308000Y-118110000D01*
X38100000Y-113792000D02*
X38100000Y-116459000D01*
X61448000Y-108041500D02*
X53883500Y-108041500D01*
X53213000Y-114808000D02*
X50927000Y-117094000D01*
X53883500Y-108041500D02*
X53213000Y-108712000D01*
X40152000Y-116479000D02*
X40152000Y-114335500D01*
X50927000Y-117094000D02*
X40767000Y-117094000D01*
X40767000Y-117094000D02*
X40152000Y-116479000D01*
X53213000Y-108712000D02*
X53213000Y-114808000D01*
X73787000Y-190627000D02*
X72517000Y-190627000D01*
X62865000Y-146177000D02*
X73533000Y-146177000D01*
X53248500Y-106771500D02*
X52197000Y-107823000D01*
X52197000Y-114427000D02*
X51018500Y-115605500D01*
X73787000Y-190627000D02*
X75311000Y-189103000D01*
X73533000Y-112522000D02*
X73533000Y-113411000D01*
X52197000Y-107823000D02*
X52197000Y-114427000D01*
X75311000Y-164592000D02*
X73533000Y-162814000D01*
X51018500Y-115605500D02*
X42692000Y-115605500D01*
X73533000Y-146177000D02*
X73533000Y-162814000D01*
X73533000Y-113411000D02*
X73533000Y-146177000D01*
X75311000Y-189103000D02*
X75311000Y-164592000D01*
X58908000Y-106771500D02*
X53248500Y-106771500D01*
D17*
X36957000Y-171831000D02*
X39370000Y-171831000D01*
X39370000Y-171831000D02*
X39878000Y-171323000D01*
D15*
X70993000Y-167894000D02*
X70358000Y-168529000D01*
X70358000Y-168529000D02*
X70358000Y-173482000D01*
X69342000Y-175514000D02*
X69342000Y-174498000D01*
X70993000Y-167894000D02*
X72390000Y-167894000D01*
X70358000Y-173482000D02*
X69342000Y-174498000D01*
X72644000Y-148082000D02*
X72644000Y-163322000D01*
X60292000Y-144874000D02*
X62484000Y-147066000D01*
X52611000Y-144874000D02*
X53467000Y-144874000D01*
X74422000Y-184404000D02*
X73914000Y-184912000D01*
X74422000Y-165100000D02*
X74422000Y-184404000D01*
X62484000Y-147066000D02*
X71628000Y-147066000D01*
X53467000Y-144874000D02*
X60292000Y-144874000D01*
X71628000Y-147066000D02*
X72644000Y-148082000D01*
X73787000Y-184912000D02*
X72771000Y-184912000D01*
X73914000Y-184912000D02*
X73787000Y-184912000D01*
X72644000Y-163322000D02*
X74422000Y-165100000D01*
X70358000Y-184785000D02*
X68326000Y-184785000D01*
X71755000Y-148336000D02*
X71755000Y-163830000D01*
X60419000Y-146144000D02*
X62103000Y-147828000D01*
X71247000Y-147828000D02*
X71755000Y-148336000D01*
X73533000Y-183134000D02*
X72898000Y-183769000D01*
X72898000Y-183769000D02*
X71374000Y-183769000D01*
X71755000Y-163830000D02*
X73533000Y-165608000D01*
X52578000Y-146144000D02*
X60419000Y-146144000D01*
X73533000Y-165608000D02*
X73533000Y-183134000D01*
X71374000Y-183769000D02*
X70358000Y-184785000D01*
X67437000Y-184785000D02*
X68326000Y-184785000D01*
X62103000Y-147828000D02*
X71247000Y-147828000D01*
G04 #@! TA.AperFunction,Conductor*
G36*
X32089246Y-123698167D02*
G01*
X32091386Y-123698500D01*
X32106906Y-123698500D01*
X32116243Y-123698846D01*
X32165941Y-123702539D01*
X32174720Y-123700665D01*
X32182978Y-123700102D01*
X32198161Y-123698500D01*
X53522928Y-123698500D01*
X53535058Y-123699855D01*
X53535097Y-123699373D01*
X53544044Y-123700093D01*
X53552800Y-123702074D01*
X53606508Y-123698742D01*
X53614310Y-123698500D01*
X53630513Y-123698500D01*
X53632841Y-123698167D01*
X53637533Y-123698000D01*
X73024500Y-123698000D01*
X73024500Y-145542500D01*
X73004498Y-145610621D01*
X72950842Y-145657114D01*
X72898500Y-145668500D01*
X63123958Y-145668500D01*
X63075740Y-145658909D01*
X63018636Y-145635256D01*
X63011007Y-145632096D01*
X63002823Y-145631019D01*
X63002821Y-145631018D01*
X62884931Y-145615498D01*
X62865000Y-145612874D01*
X62845069Y-145615498D01*
X62727179Y-145631018D01*
X62727177Y-145631019D01*
X62718993Y-145632096D01*
X62582937Y-145688453D01*
X62466103Y-145778103D01*
X62376453Y-145894937D01*
X62373296Y-145902559D01*
X62373293Y-145902564D01*
X62347747Y-145964238D01*
X62303198Y-146019519D01*
X62235835Y-146041940D01*
X62167044Y-146024382D01*
X62142243Y-146005115D01*
X60701823Y-144564696D01*
X60694200Y-144555156D01*
X60693832Y-144555470D01*
X60688014Y-144548634D01*
X60683224Y-144541042D01*
X60642875Y-144505407D01*
X60637188Y-144500061D01*
X60625745Y-144488618D01*
X60617370Y-144482341D01*
X60609541Y-144475967D01*
X60574049Y-144444622D01*
X60565926Y-144440808D01*
X60563438Y-144439174D01*
X60548477Y-144430186D01*
X60545892Y-144428771D01*
X60538705Y-144423384D01*
X60494357Y-144406759D01*
X60485040Y-144402832D01*
X60450326Y-144386534D01*
X60442200Y-144382719D01*
X60433331Y-144381338D01*
X60430498Y-144380472D01*
X60413611Y-144376042D01*
X60410726Y-144375408D01*
X60402316Y-144372255D01*
X60373158Y-144370088D01*
X60355094Y-144368746D01*
X60345048Y-144367592D01*
X60336425Y-144366249D01*
X60336422Y-144366249D01*
X60331614Y-144365500D01*
X60316094Y-144365500D01*
X60306757Y-144365154D01*
X60289854Y-144363898D01*
X60257059Y-144361461D01*
X60248280Y-144363335D01*
X60240022Y-144363898D01*
X60224839Y-144365500D01*
X53725958Y-144365500D01*
X53677740Y-144355909D01*
X53620636Y-144332256D01*
X53613007Y-144329096D01*
X53604823Y-144328019D01*
X53604821Y-144328018D01*
X53475188Y-144310952D01*
X53467000Y-144309874D01*
X53458812Y-144310952D01*
X53329179Y-144328018D01*
X53329177Y-144328019D01*
X53320993Y-144329096D01*
X53313364Y-144332256D01*
X53256260Y-144355909D01*
X53208042Y-144365500D01*
X52869958Y-144365500D01*
X52821740Y-144355909D01*
X52764636Y-144332256D01*
X52757007Y-144329096D01*
X52748823Y-144328019D01*
X52748821Y-144328018D01*
X52619188Y-144310952D01*
X52611000Y-144309874D01*
X52602812Y-144310952D01*
X52473179Y-144328018D01*
X52473177Y-144328019D01*
X52464993Y-144329096D01*
X52328937Y-144385453D01*
X52212103Y-144475103D01*
X52122453Y-144591937D01*
X52066096Y-144727993D01*
X52046874Y-144874000D01*
X52047952Y-144882188D01*
X52063825Y-145002754D01*
X52066096Y-145020007D01*
X52122453Y-145156063D01*
X52212103Y-145272897D01*
X52328937Y-145362547D01*
X52336559Y-145365704D01*
X52336564Y-145365707D01*
X52384968Y-145385756D01*
X52440249Y-145430304D01*
X52462670Y-145497667D01*
X52445112Y-145566459D01*
X52393150Y-145614837D01*
X52384969Y-145618573D01*
X52303568Y-145652291D01*
X52303561Y-145652295D01*
X52295937Y-145655453D01*
X52179103Y-145745103D01*
X52089453Y-145861937D01*
X52033096Y-145997993D01*
X52032019Y-146006177D01*
X52032018Y-146006179D01*
X52027310Y-146041940D01*
X52013874Y-146144000D01*
X52033096Y-146290007D01*
X52089453Y-146426063D01*
X52179103Y-146542897D01*
X52295937Y-146632547D01*
X52431993Y-146688904D01*
X52440177Y-146689981D01*
X52440179Y-146689982D01*
X52569812Y-146707048D01*
X52578000Y-146708126D01*
X52586188Y-146707048D01*
X52715821Y-146689982D01*
X52715823Y-146689981D01*
X52724007Y-146688904D01*
X52732225Y-146685500D01*
X52788740Y-146662091D01*
X52836958Y-146652500D01*
X53208042Y-146652500D01*
X53256260Y-146662091D01*
X53312775Y-146685500D01*
X53320993Y-146688904D01*
X53329177Y-146689981D01*
X53329179Y-146689982D01*
X53458812Y-146707048D01*
X53467000Y-146708126D01*
X53475188Y-146707048D01*
X53604821Y-146689982D01*
X53604823Y-146689981D01*
X53613007Y-146688904D01*
X53621225Y-146685500D01*
X53677740Y-146662091D01*
X53725958Y-146652500D01*
X60156183Y-146652500D01*
X60224304Y-146672502D01*
X60245278Y-146689405D01*
X61693180Y-148137308D01*
X61700800Y-148146845D01*
X61701169Y-148146531D01*
X61706984Y-148153364D01*
X61711776Y-148160958D01*
X61752116Y-148196585D01*
X61757803Y-148201931D01*
X61769255Y-148213383D01*
X61772846Y-148216074D01*
X61772848Y-148216076D01*
X61777630Y-148219660D01*
X61785473Y-148226045D01*
X61820951Y-148257378D01*
X61829078Y-148261194D01*
X61831534Y-148262807D01*
X61846537Y-148271823D01*
X61849115Y-148273234D01*
X61856296Y-148278616D01*
X61900633Y-148295237D01*
X61909948Y-148299162D01*
X61952800Y-148319281D01*
X61961675Y-148320663D01*
X61964502Y-148321527D01*
X61981379Y-148325955D01*
X61984272Y-148326591D01*
X61992685Y-148329745D01*
X62039925Y-148333256D01*
X62049944Y-148334407D01*
X62058580Y-148335752D01*
X62058584Y-148335752D01*
X62063386Y-148336500D01*
X62078910Y-148336500D01*
X62088248Y-148336847D01*
X62128990Y-148339875D01*
X62128991Y-148339875D01*
X62137941Y-148340540D01*
X62146718Y-148338666D01*
X62154969Y-148338104D01*
X62170166Y-148336500D01*
X70984182Y-148336500D01*
X71052303Y-148356502D01*
X71073278Y-148373405D01*
X71209596Y-148509724D01*
X71243621Y-148572036D01*
X71246500Y-148598819D01*
X71246500Y-163758928D01*
X71245145Y-163771058D01*
X71245627Y-163771097D01*
X71244907Y-163780044D01*
X71242926Y-163788800D01*
X71243482Y-163797760D01*
X71246258Y-163842508D01*
X71246500Y-163850310D01*
X71246500Y-163866513D01*
X71247136Y-163870953D01*
X71247984Y-163876878D01*
X71249013Y-163886928D01*
X71251945Y-163934177D01*
X71254994Y-163942623D01*
X71255593Y-163945514D01*
X71259822Y-163962480D01*
X71260648Y-163965305D01*
X71261920Y-163974187D01*
X71281522Y-164017298D01*
X71285327Y-164026647D01*
X71301404Y-164071181D01*
X71306699Y-164078429D01*
X71308080Y-164081027D01*
X71316915Y-164096145D01*
X71318494Y-164098614D01*
X71322208Y-164106782D01*
X71328064Y-164113578D01*
X71353115Y-164142652D01*
X71359401Y-164150569D01*
X71364548Y-164157615D01*
X71364553Y-164157620D01*
X71367425Y-164161552D01*
X71378400Y-164172527D01*
X71384758Y-164179374D01*
X71417287Y-164217127D01*
X71424822Y-164222011D01*
X71431066Y-164227458D01*
X71442931Y-164237058D01*
X72987595Y-165781723D01*
X73021621Y-165844035D01*
X73024500Y-165870818D01*
X73024500Y-167430963D01*
X73004498Y-167499084D01*
X72950842Y-167545577D01*
X72880568Y-167555681D01*
X72815988Y-167526187D01*
X72798539Y-167507668D01*
X72793925Y-167501655D01*
X72793923Y-167501653D01*
X72788897Y-167495103D01*
X72672063Y-167405453D01*
X72536007Y-167349096D01*
X72527823Y-167348019D01*
X72527821Y-167348018D01*
X72398188Y-167330952D01*
X72390000Y-167329874D01*
X72381812Y-167330952D01*
X72252179Y-167348018D01*
X72252177Y-167348019D01*
X72243993Y-167349096D01*
X72236364Y-167352256D01*
X72179260Y-167375909D01*
X72131042Y-167385500D01*
X71251958Y-167385500D01*
X71203740Y-167375909D01*
X71146636Y-167352256D01*
X71139007Y-167349096D01*
X71130823Y-167348019D01*
X71130821Y-167348018D01*
X71001188Y-167330952D01*
X70993000Y-167329874D01*
X70984812Y-167330952D01*
X70855179Y-167348018D01*
X70855177Y-167348019D01*
X70846993Y-167349096D01*
X70710937Y-167405453D01*
X70594103Y-167495103D01*
X70504453Y-167611937D01*
X70501295Y-167619562D01*
X70477638Y-167676673D01*
X70450324Y-167717549D01*
X70048696Y-168119177D01*
X70039156Y-168126800D01*
X70039470Y-168127168D01*
X70032634Y-168132986D01*
X70025042Y-168137776D01*
X70019100Y-168144504D01*
X69989407Y-168178125D01*
X69984061Y-168183812D01*
X69972618Y-168195255D01*
X69966978Y-168202780D01*
X69966341Y-168203630D01*
X69959967Y-168211459D01*
X69928622Y-168246951D01*
X69924808Y-168255074D01*
X69923174Y-168257562D01*
X69914186Y-168272523D01*
X69912771Y-168275108D01*
X69907384Y-168282295D01*
X69890759Y-168326642D01*
X69886833Y-168335958D01*
X69866719Y-168378800D01*
X69865338Y-168387669D01*
X69864472Y-168390502D01*
X69860042Y-168407389D01*
X69859408Y-168410274D01*
X69856255Y-168418684D01*
X69854673Y-168439982D01*
X69852746Y-168465906D01*
X69851592Y-168475952D01*
X69849500Y-168489386D01*
X69849500Y-168504906D01*
X69849154Y-168514243D01*
X69845461Y-168563941D01*
X69847335Y-168572720D01*
X69847898Y-168580978D01*
X69849500Y-168596161D01*
X69849500Y-173219183D01*
X69829498Y-173287304D01*
X69812595Y-173308278D01*
X69032696Y-174088177D01*
X69023156Y-174095800D01*
X69023470Y-174096168D01*
X69016634Y-174101986D01*
X69009042Y-174106776D01*
X69003100Y-174113504D01*
X68973407Y-174147125D01*
X68968061Y-174152812D01*
X68956618Y-174164255D01*
X68950978Y-174171780D01*
X68950341Y-174172630D01*
X68943967Y-174180459D01*
X68912622Y-174215951D01*
X68908808Y-174224074D01*
X68907174Y-174226562D01*
X68898186Y-174241523D01*
X68896771Y-174244108D01*
X68891384Y-174251295D01*
X68888233Y-174259701D01*
X68874759Y-174295642D01*
X68870833Y-174304958D01*
X68850719Y-174347800D01*
X68849338Y-174356669D01*
X68848472Y-174359502D01*
X68844042Y-174376389D01*
X68843408Y-174379274D01*
X68840255Y-174387684D01*
X68839590Y-174396639D01*
X68836746Y-174434906D01*
X68835592Y-174444952D01*
X68833500Y-174458386D01*
X68833500Y-174473906D01*
X68833154Y-174483243D01*
X68829461Y-174532941D01*
X68831335Y-174541720D01*
X68831898Y-174549978D01*
X68833500Y-174565161D01*
X68833500Y-175255042D01*
X68823909Y-175303260D01*
X68800256Y-175360364D01*
X68797096Y-175367993D01*
X68777874Y-175514000D01*
X68797096Y-175660007D01*
X68853453Y-175796063D01*
X68943103Y-175912897D01*
X69059937Y-176002547D01*
X69195993Y-176058904D01*
X69204177Y-176059981D01*
X69204179Y-176059982D01*
X69333812Y-176077048D01*
X69342000Y-176078126D01*
X69350188Y-176077048D01*
X69479821Y-176059982D01*
X69479823Y-176059981D01*
X69488007Y-176058904D01*
X69624063Y-176002547D01*
X69740897Y-175912897D01*
X69830547Y-175796063D01*
X69886904Y-175660007D01*
X69906126Y-175514000D01*
X69886904Y-175367993D01*
X69883744Y-175360364D01*
X69860091Y-175303260D01*
X69850500Y-175255042D01*
X69850500Y-174760817D01*
X69870502Y-174692696D01*
X69887405Y-174671722D01*
X70667304Y-173891823D01*
X70676844Y-173884200D01*
X70676530Y-173883832D01*
X70683366Y-173878014D01*
X70690958Y-173873224D01*
X70726593Y-173832875D01*
X70731939Y-173827188D01*
X70743382Y-173815745D01*
X70749659Y-173807370D01*
X70756033Y-173799541D01*
X70787378Y-173764049D01*
X70791192Y-173755926D01*
X70792826Y-173753438D01*
X70801814Y-173738477D01*
X70803229Y-173735892D01*
X70808616Y-173728705D01*
X70825241Y-173684357D01*
X70829168Y-173675040D01*
X70845466Y-173640326D01*
X70849281Y-173632200D01*
X70850662Y-173623331D01*
X70851528Y-173620498D01*
X70855958Y-173603611D01*
X70856592Y-173600726D01*
X70859745Y-173592316D01*
X70863254Y-173545094D01*
X70864408Y-173535048D01*
X70865751Y-173526425D01*
X70865751Y-173526422D01*
X70866500Y-173521614D01*
X70866500Y-173506094D01*
X70866846Y-173496757D01*
X70869874Y-173456007D01*
X70870539Y-173447059D01*
X70868665Y-173438280D01*
X70868102Y-173430022D01*
X70866500Y-173414839D01*
X70866500Y-168791817D01*
X70886502Y-168723696D01*
X70903405Y-168702722D01*
X71166722Y-168439405D01*
X71229034Y-168405379D01*
X71255817Y-168402500D01*
X72131042Y-168402500D01*
X72179260Y-168412091D01*
X72216797Y-168427639D01*
X72243993Y-168438904D01*
X72252177Y-168439981D01*
X72252179Y-168439982D01*
X72381812Y-168457048D01*
X72390000Y-168458126D01*
X72398188Y-168457048D01*
X72527821Y-168439982D01*
X72527823Y-168439981D01*
X72536007Y-168438904D01*
X72672063Y-168382547D01*
X72788897Y-168292897D01*
X72793925Y-168286345D01*
X72798539Y-168280332D01*
X72855877Y-168238465D01*
X72926748Y-168234244D01*
X72988651Y-168269009D01*
X73021931Y-168331723D01*
X73024500Y-168357037D01*
X73024500Y-182871183D01*
X73004498Y-182939304D01*
X72987595Y-182960278D01*
X72724278Y-183223595D01*
X72661966Y-183257621D01*
X72635183Y-183260500D01*
X71445072Y-183260500D01*
X71432942Y-183259145D01*
X71432903Y-183259627D01*
X71423956Y-183258907D01*
X71415200Y-183256926D01*
X71371663Y-183259627D01*
X71361492Y-183260258D01*
X71353690Y-183260500D01*
X71337487Y-183260500D01*
X71328571Y-183261777D01*
X71327122Y-183261984D01*
X71317072Y-183263013D01*
X71279215Y-183265362D01*
X71269823Y-183265945D01*
X71261377Y-183268994D01*
X71258486Y-183269593D01*
X71241520Y-183273822D01*
X71238695Y-183274648D01*
X71229813Y-183275920D01*
X71186702Y-183295522D01*
X71177353Y-183299327D01*
X71132819Y-183315404D01*
X71125571Y-183320699D01*
X71122973Y-183322080D01*
X71107855Y-183330915D01*
X71105386Y-183332494D01*
X71097218Y-183336208D01*
X71090422Y-183342064D01*
X71061348Y-183367115D01*
X71053431Y-183373401D01*
X71046385Y-183378548D01*
X71046380Y-183378553D01*
X71042448Y-183381425D01*
X71031473Y-183392400D01*
X71024626Y-183398758D01*
X70986873Y-183431287D01*
X70981989Y-183438822D01*
X70976542Y-183445066D01*
X70966942Y-183456931D01*
X70184278Y-184239595D01*
X70121966Y-184273621D01*
X70095183Y-184276500D01*
X68584958Y-184276500D01*
X68536740Y-184266909D01*
X68479636Y-184243256D01*
X68472007Y-184240096D01*
X68463823Y-184239019D01*
X68463821Y-184239018D01*
X68334188Y-184221952D01*
X68326000Y-184220874D01*
X68317812Y-184221952D01*
X68188179Y-184239018D01*
X68188177Y-184239019D01*
X68179993Y-184240096D01*
X68172364Y-184243256D01*
X68115260Y-184266909D01*
X68067042Y-184276500D01*
X67695958Y-184276500D01*
X67647740Y-184266909D01*
X67590636Y-184243256D01*
X67583007Y-184240096D01*
X67574823Y-184239019D01*
X67574821Y-184239018D01*
X67445188Y-184221952D01*
X67437000Y-184220874D01*
X67428812Y-184221952D01*
X67299179Y-184239018D01*
X67299177Y-184239019D01*
X67290993Y-184240096D01*
X67154937Y-184296453D01*
X67038103Y-184386103D01*
X66948453Y-184502937D01*
X66892096Y-184638993D01*
X66872874Y-184785000D01*
X66873952Y-184793188D01*
X66890672Y-184920188D01*
X66892096Y-184931007D01*
X66948453Y-185067063D01*
X67038103Y-185183897D01*
X67154937Y-185273547D01*
X67290993Y-185329904D01*
X67299177Y-185330981D01*
X67299179Y-185330982D01*
X67428812Y-185348048D01*
X67437000Y-185349126D01*
X67445188Y-185348048D01*
X67574821Y-185330982D01*
X67574823Y-185330981D01*
X67583007Y-185329904D01*
X67616760Y-185315923D01*
X67647740Y-185303091D01*
X67695958Y-185293500D01*
X68067042Y-185293500D01*
X68115260Y-185303091D01*
X68146240Y-185315923D01*
X68179993Y-185329904D01*
X68188177Y-185330981D01*
X68188179Y-185330982D01*
X68317812Y-185348048D01*
X68326000Y-185349126D01*
X68334188Y-185348048D01*
X68463821Y-185330982D01*
X68463823Y-185330981D01*
X68472007Y-185329904D01*
X68505760Y-185315923D01*
X68536740Y-185303091D01*
X68584958Y-185293500D01*
X70286928Y-185293500D01*
X70299058Y-185294855D01*
X70299097Y-185294373D01*
X70308044Y-185295093D01*
X70316800Y-185297074D01*
X70370508Y-185293742D01*
X70378310Y-185293500D01*
X70394513Y-185293500D01*
X70403429Y-185292223D01*
X70404878Y-185292016D01*
X70414928Y-185290987D01*
X70453216Y-185288611D01*
X70462177Y-185288055D01*
X70470623Y-185285006D01*
X70473514Y-185284407D01*
X70490480Y-185280178D01*
X70493305Y-185279352D01*
X70502187Y-185278080D01*
X70545298Y-185258478D01*
X70554649Y-185254672D01*
X70590735Y-185241645D01*
X70599181Y-185238596D01*
X70606429Y-185233301D01*
X70609027Y-185231920D01*
X70624145Y-185223085D01*
X70626614Y-185221506D01*
X70634782Y-185217792D01*
X70670653Y-185186884D01*
X70678569Y-185180599D01*
X70685615Y-185175452D01*
X70685620Y-185175447D01*
X70689552Y-185172575D01*
X70700527Y-185161600D01*
X70707375Y-185155242D01*
X70738323Y-185128576D01*
X70738324Y-185128575D01*
X70745127Y-185122713D01*
X70750011Y-185115178D01*
X70755458Y-185108934D01*
X70765058Y-185097069D01*
X71547722Y-184314405D01*
X71610034Y-184280379D01*
X71636817Y-184277500D01*
X72307963Y-184277500D01*
X72376084Y-184297502D01*
X72422577Y-184351158D01*
X72432681Y-184421432D01*
X72403187Y-184486012D01*
X72384668Y-184503461D01*
X72378655Y-184508075D01*
X72378653Y-184508077D01*
X72372103Y-184513103D01*
X72282453Y-184629937D01*
X72226096Y-184765993D01*
X72225019Y-184774177D01*
X72225018Y-184774179D01*
X72221110Y-184803865D01*
X72206874Y-184912000D01*
X72207952Y-184920188D01*
X72223440Y-185037830D01*
X72226096Y-185058007D01*
X72282453Y-185194063D01*
X72372103Y-185310897D01*
X72488937Y-185400547D01*
X72624993Y-185456904D01*
X72633177Y-185457981D01*
X72633179Y-185457982D01*
X72762812Y-185475048D01*
X72771000Y-185476126D01*
X72779188Y-185475048D01*
X72908821Y-185457982D01*
X72908823Y-185457981D01*
X72917007Y-185456904D01*
X72924636Y-185453744D01*
X72981740Y-185430091D01*
X73029958Y-185420500D01*
X73528042Y-185420500D01*
X73576260Y-185430091D01*
X73633364Y-185453744D01*
X73640993Y-185456904D01*
X73649177Y-185457981D01*
X73649179Y-185457982D01*
X73778812Y-185475048D01*
X73787000Y-185476126D01*
X73795188Y-185475048D01*
X73924819Y-185457982D01*
X73933007Y-185456904D01*
X74058084Y-185405095D01*
X74058267Y-185405537D01*
X74059018Y-185405104D01*
X74058878Y-185404766D01*
X74069063Y-185400547D01*
X74069241Y-185400976D01*
X74070607Y-185400132D01*
X74070645Y-185400121D01*
X74070379Y-185399537D01*
X74070381Y-185399536D01*
X74101294Y-185385480D01*
X74110635Y-185381677D01*
X74155181Y-185365596D01*
X74162429Y-185360301D01*
X74165027Y-185358920D01*
X74180145Y-185350085D01*
X74182614Y-185348506D01*
X74190782Y-185344792D01*
X74226653Y-185313884D01*
X74234569Y-185307599D01*
X74241615Y-185302452D01*
X74241620Y-185302447D01*
X74245552Y-185299575D01*
X74256527Y-185288600D01*
X74263375Y-185282242D01*
X74294323Y-185255576D01*
X74294324Y-185255575D01*
X74301127Y-185249713D01*
X74306011Y-185242178D01*
X74311451Y-185235942D01*
X74321056Y-185224071D01*
X74587405Y-184957723D01*
X74649717Y-184923698D01*
X74720533Y-184928763D01*
X74777368Y-184971310D01*
X74802179Y-185037830D01*
X74802500Y-185046819D01*
X74802500Y-188840182D01*
X74782498Y-188908303D01*
X74765595Y-188929277D01*
X73613278Y-190081595D01*
X73550966Y-190115620D01*
X73524183Y-190118500D01*
X72775958Y-190118500D01*
X72727740Y-190108909D01*
X72670636Y-190085256D01*
X72663007Y-190082096D01*
X72654823Y-190081019D01*
X72654821Y-190081018D01*
X72525188Y-190063952D01*
X72517000Y-190062874D01*
X72508812Y-190063952D01*
X72379179Y-190081018D01*
X72379177Y-190081019D01*
X72370993Y-190082096D01*
X72234937Y-190138453D01*
X72118103Y-190228103D01*
X72028453Y-190344937D01*
X71972096Y-190480993D01*
X71952874Y-190627000D01*
X71972096Y-190773007D01*
X72028453Y-190909063D01*
X72118103Y-191025897D01*
X72124653Y-191030923D01*
X72131319Y-191036038D01*
X72173186Y-191093375D01*
X72177408Y-191164246D01*
X72142644Y-191226149D01*
X72079931Y-191259431D01*
X72054615Y-191262000D01*
X57284317Y-191262000D01*
X57216196Y-191241998D01*
X57169703Y-191188342D01*
X57159599Y-191118068D01*
X57189093Y-191053488D01*
X57195222Y-191046905D01*
X57943804Y-190298323D01*
X57953344Y-190290700D01*
X57953030Y-190290332D01*
X57959866Y-190284514D01*
X57967458Y-190279724D01*
X58003093Y-190239375D01*
X58008439Y-190233688D01*
X58019882Y-190222245D01*
X58026159Y-190213870D01*
X58032533Y-190206041D01*
X58063878Y-190170549D01*
X58067692Y-190162426D01*
X58069326Y-190159938D01*
X58078314Y-190144977D01*
X58079729Y-190142392D01*
X58085116Y-190135205D01*
X58101741Y-190090857D01*
X58105668Y-190081540D01*
X58121966Y-190046826D01*
X58125781Y-190038700D01*
X58127162Y-190029831D01*
X58128028Y-190026998D01*
X58132458Y-190010111D01*
X58133092Y-190007226D01*
X58136245Y-189998816D01*
X58139754Y-189951594D01*
X58140908Y-189941548D01*
X58142251Y-189932925D01*
X58142251Y-189932922D01*
X58143000Y-189928114D01*
X58143000Y-189912594D01*
X58143346Y-189903257D01*
X58146374Y-189862507D01*
X58147039Y-189853559D01*
X58145165Y-189844780D01*
X58144602Y-189836522D01*
X58143000Y-189821339D01*
X58143000Y-186434933D01*
X61745500Y-186434933D01*
X61745501Y-189485066D01*
X61760266Y-189559301D01*
X61767161Y-189569620D01*
X61767162Y-189569622D01*
X61785203Y-189596622D01*
X61816516Y-189643484D01*
X61900699Y-189699734D01*
X61974933Y-189714500D01*
X63499753Y-189714500D01*
X65025066Y-189714499D01*
X65060818Y-189707388D01*
X65087126Y-189702156D01*
X65087128Y-189702155D01*
X65099301Y-189699734D01*
X65109621Y-189692839D01*
X65109622Y-189692838D01*
X65173168Y-189650377D01*
X65183484Y-189643484D01*
X65239734Y-189559301D01*
X65254500Y-189485067D01*
X65254499Y-186434934D01*
X65247388Y-186399182D01*
X65242156Y-186372874D01*
X65242155Y-186372872D01*
X65239734Y-186360699D01*
X65183484Y-186276516D01*
X65099301Y-186220266D01*
X65025067Y-186205500D01*
X63500247Y-186205500D01*
X61974934Y-186205501D01*
X61939182Y-186212612D01*
X61912874Y-186217844D01*
X61912872Y-186217845D01*
X61900699Y-186220266D01*
X61890379Y-186227161D01*
X61890378Y-186227162D01*
X61829985Y-186267516D01*
X61816516Y-186276516D01*
X61760266Y-186360699D01*
X61745500Y-186434933D01*
X58143000Y-186434933D01*
X58143000Y-180622458D01*
X58152591Y-180574240D01*
X58176244Y-180517136D01*
X58179404Y-180509507D01*
X58198626Y-180363500D01*
X58179404Y-180217493D01*
X58123047Y-180081437D01*
X58033397Y-179964603D01*
X57916563Y-179874953D01*
X57780507Y-179818596D01*
X57772323Y-179817519D01*
X57772321Y-179817518D01*
X57642688Y-179800452D01*
X57634500Y-179799374D01*
X57626312Y-179800452D01*
X57496679Y-179817518D01*
X57496677Y-179817519D01*
X57488493Y-179818596D01*
X57352437Y-179874953D01*
X57235603Y-179964603D01*
X57145953Y-180081437D01*
X57089596Y-180217493D01*
X57070374Y-180363500D01*
X57089596Y-180509507D01*
X57092756Y-180517136D01*
X57116409Y-180574240D01*
X57126000Y-180622458D01*
X57126000Y-189625683D01*
X57105998Y-189693804D01*
X57089095Y-189714778D01*
X56468278Y-190335595D01*
X56405966Y-190369621D01*
X56379183Y-190372500D01*
X28837819Y-190372500D01*
X28769698Y-190352498D01*
X28748724Y-190335596D01*
X28609674Y-190196547D01*
X28582360Y-190155669D01*
X28573883Y-190135205D01*
X28555547Y-190090937D01*
X28465897Y-189974103D01*
X28349063Y-189884453D01*
X28284328Y-189857639D01*
X28243452Y-189830325D01*
X27962781Y-189549654D01*
X49575618Y-189549654D01*
X49582673Y-189559627D01*
X49613679Y-189585551D01*
X49620598Y-189590579D01*
X49845272Y-189731515D01*
X49852807Y-189735556D01*
X50094520Y-189844694D01*
X50102551Y-189847680D01*
X50356832Y-189923002D01*
X50365184Y-189924869D01*
X50627340Y-189964984D01*
X50635874Y-189965700D01*
X50901045Y-189969867D01*
X50909596Y-189969418D01*
X51172883Y-189937557D01*
X51181284Y-189935955D01*
X51437824Y-189868653D01*
X51445926Y-189865926D01*
X51690949Y-189764434D01*
X51698617Y-189760628D01*
X51927598Y-189626822D01*
X51934679Y-189622009D01*
X52014655Y-189559301D01*
X52023125Y-189547442D01*
X52016608Y-189535818D01*
X50812812Y-188332022D01*
X50798868Y-188324408D01*
X50797035Y-188324539D01*
X50790420Y-188328790D01*
X49582910Y-189536300D01*
X49575618Y-189549654D01*
X27962781Y-189549654D01*
X27784176Y-189371049D01*
X27756862Y-189330173D01*
X27744627Y-189300636D01*
X27730047Y-189265437D01*
X27640397Y-189148603D01*
X27523563Y-189058953D01*
X27387507Y-189002596D01*
X27379323Y-189001519D01*
X27379321Y-189001518D01*
X27351781Y-188997893D01*
X27332541Y-188995360D01*
X27304767Y-188988422D01*
X27288316Y-188982255D01*
X27143059Y-188971461D01*
X27134285Y-188973334D01*
X27134283Y-188973334D01*
X27009387Y-188999994D01*
X27009384Y-188999995D01*
X27000610Y-189001868D01*
X26992715Y-189006128D01*
X26992712Y-189006129D01*
X26926394Y-189041913D01*
X26872422Y-189071035D01*
X26866039Y-189077341D01*
X26775183Y-189167093D01*
X26775181Y-189167095D01*
X26768799Y-189173400D01*
X26764443Y-189181243D01*
X26764441Y-189181245D01*
X26724474Y-189253200D01*
X26698072Y-189300733D01*
X26696090Y-189309493D01*
X26678994Y-189385049D01*
X26665926Y-189442800D01*
X26666482Y-189451760D01*
X26673154Y-189559301D01*
X26674945Y-189588177D01*
X26677992Y-189596618D01*
X26677993Y-189596622D01*
X26682568Y-189609295D01*
X26688976Y-189635630D01*
X26696596Y-189693507D01*
X26699755Y-189701132D01*
X26699755Y-189701134D01*
X26714334Y-189736329D01*
X26752953Y-189829563D01*
X26842603Y-189946397D01*
X26959437Y-190036047D01*
X27020447Y-190061318D01*
X27024173Y-190062862D01*
X27065049Y-190090176D01*
X27524324Y-190549451D01*
X27551638Y-190590327D01*
X27578453Y-190655063D01*
X27668103Y-190771897D01*
X27784937Y-190861547D01*
X27845947Y-190886818D01*
X27849673Y-190888362D01*
X27890549Y-190915676D01*
X28021778Y-191046905D01*
X28055804Y-191109217D01*
X28050739Y-191180032D01*
X28008192Y-191236868D01*
X27941672Y-191261679D01*
X27932683Y-191262000D01*
X26034000Y-191262000D01*
X25965879Y-191241998D01*
X25919386Y-191188342D01*
X25908000Y-191136000D01*
X25908000Y-187943204D01*
X48787665Y-187943204D01*
X48802932Y-188207969D01*
X48804005Y-188216470D01*
X48855065Y-188476722D01*
X48857276Y-188484974D01*
X48943184Y-188735894D01*
X48946499Y-188743779D01*
X49065664Y-188980713D01*
X49070020Y-188988079D01*
X49199347Y-189176250D01*
X49209601Y-189184594D01*
X49223342Y-189177448D01*
X50427978Y-187972812D01*
X50434356Y-187961132D01*
X51164408Y-187961132D01*
X51164539Y-187962965D01*
X51168790Y-187969580D01*
X52375730Y-189176520D01*
X52387939Y-189183187D01*
X52399439Y-189174497D01*
X52496831Y-189041913D01*
X52501418Y-189034685D01*
X52627962Y-188801621D01*
X52631530Y-188793827D01*
X52725271Y-188545750D01*
X52727748Y-188537544D01*
X52786954Y-188279038D01*
X52788294Y-188270577D01*
X52812031Y-188004616D01*
X52812277Y-187999677D01*
X52812666Y-187962485D01*
X52812523Y-187957519D01*
X52794362Y-187691123D01*
X52793201Y-187682649D01*
X52739419Y-187422944D01*
X52737120Y-187414709D01*
X52648588Y-187164705D01*
X52645191Y-187156854D01*
X52523550Y-186921178D01*
X52519122Y-186913866D01*
X52400031Y-186744417D01*
X52389509Y-186736037D01*
X52376121Y-186743089D01*
X51172022Y-187947188D01*
X51164408Y-187961132D01*
X50434356Y-187961132D01*
X50435592Y-187958868D01*
X50435461Y-187957035D01*
X50431210Y-187950420D01*
X49223814Y-186743024D01*
X49211804Y-186736466D01*
X49200064Y-186745434D01*
X49091935Y-186895911D01*
X49087418Y-186903196D01*
X48963325Y-187137567D01*
X48959839Y-187145395D01*
X48868700Y-187394446D01*
X48866311Y-187402670D01*
X48809812Y-187661795D01*
X48808563Y-187670250D01*
X48787754Y-187934653D01*
X48787665Y-187943204D01*
X25908000Y-187943204D01*
X25908000Y-186372500D01*
X49576584Y-186372500D01*
X49582980Y-186383770D01*
X50787188Y-187587978D01*
X50801132Y-187595592D01*
X50802965Y-187595461D01*
X50809580Y-187591210D01*
X52016604Y-186384186D01*
X52023795Y-186371017D01*
X52016473Y-186360780D01*
X51969233Y-186322115D01*
X51962261Y-186317160D01*
X51736122Y-186178582D01*
X51728552Y-186174624D01*
X51485704Y-186068022D01*
X51477644Y-186065120D01*
X51222592Y-185992467D01*
X51214214Y-185990685D01*
X50951656Y-185953318D01*
X50943111Y-185952691D01*
X50677908Y-185951302D01*
X50669374Y-185951839D01*
X50406433Y-185986456D01*
X50398035Y-185988149D01*
X50142238Y-186058127D01*
X50134143Y-186060946D01*
X49890199Y-186164997D01*
X49882577Y-186168881D01*
X49655013Y-186305075D01*
X49647981Y-186309962D01*
X49585053Y-186360377D01*
X49576584Y-186372500D01*
X25908000Y-186372500D01*
X25908000Y-171831000D01*
X36392874Y-171831000D01*
X36412096Y-171977007D01*
X36468453Y-172113063D01*
X36558103Y-172229897D01*
X36674937Y-172319547D01*
X36810993Y-172375904D01*
X36819177Y-172376981D01*
X36819179Y-172376982D01*
X36948812Y-172394048D01*
X36957000Y-172395126D01*
X36965188Y-172394048D01*
X37094821Y-172376982D01*
X37094823Y-172376981D01*
X37103007Y-172375904D01*
X37239063Y-172319547D01*
X37344638Y-172238536D01*
X37410856Y-172212937D01*
X37421340Y-172212500D01*
X39315865Y-172212500D01*
X39340164Y-172215086D01*
X39341602Y-172215154D01*
X39351780Y-172217345D01*
X39385341Y-172213373D01*
X39391320Y-172213021D01*
X39391312Y-172212928D01*
X39396490Y-172212500D01*
X39401692Y-172212500D01*
X39420846Y-172209312D01*
X39426704Y-172208478D01*
X39443318Y-172206512D01*
X39467567Y-172203642D01*
X39467568Y-172203642D01*
X39477907Y-172202418D01*
X39486206Y-172198433D01*
X39495283Y-172196922D01*
X39540651Y-172172442D01*
X39545914Y-172169761D01*
X39585250Y-172150873D01*
X39585254Y-172150870D01*
X39592398Y-172147440D01*
X39596692Y-172143830D01*
X39598624Y-172141898D01*
X39600573Y-172140111D01*
X39600626Y-172140082D01*
X39600745Y-172140212D01*
X39601313Y-172139711D01*
X39607057Y-172136612D01*
X39643854Y-172096805D01*
X39647284Y-172093239D01*
X39819423Y-171921100D01*
X39881735Y-171887074D01*
X39892063Y-171885275D01*
X39962776Y-171875965D01*
X40015821Y-171868982D01*
X40015823Y-171868981D01*
X40024007Y-171867904D01*
X40160063Y-171811547D01*
X40276897Y-171721897D01*
X40366547Y-171605063D01*
X40422904Y-171469007D01*
X40427763Y-171432103D01*
X40441048Y-171331188D01*
X40442126Y-171323000D01*
X40422904Y-171176993D01*
X40366547Y-171040937D01*
X40276897Y-170924103D01*
X40160063Y-170834453D01*
X40024007Y-170778096D01*
X40015823Y-170777019D01*
X40015821Y-170777018D01*
X39886188Y-170759952D01*
X39878000Y-170758874D01*
X39869812Y-170759952D01*
X39740179Y-170777018D01*
X39740177Y-170777019D01*
X39731993Y-170778096D01*
X39595937Y-170834453D01*
X39479103Y-170924103D01*
X39389453Y-171040937D01*
X39333096Y-171176993D01*
X39318733Y-171286096D01*
X39315727Y-171308928D01*
X39287005Y-171373855D01*
X39279900Y-171381577D01*
X39248882Y-171412595D01*
X39186570Y-171446621D01*
X39159787Y-171449500D01*
X37421340Y-171449500D01*
X37353219Y-171429498D01*
X37344650Y-171423473D01*
X37239063Y-171342453D01*
X37103007Y-171286096D01*
X37094823Y-171285019D01*
X37094821Y-171285018D01*
X36965188Y-171267952D01*
X36957000Y-171266874D01*
X36948812Y-171267952D01*
X36819179Y-171285018D01*
X36819177Y-171285019D01*
X36810993Y-171286096D01*
X36674937Y-171342453D01*
X36558103Y-171432103D01*
X36468453Y-171548937D01*
X36412096Y-171684993D01*
X36411019Y-171693177D01*
X36411018Y-171693179D01*
X36406576Y-171726923D01*
X36392874Y-171831000D01*
X25908000Y-171831000D01*
X25908000Y-158750000D01*
X46933874Y-158750000D01*
X46953096Y-158896007D01*
X47009453Y-159032063D01*
X47099103Y-159148897D01*
X47215937Y-159238547D01*
X47351993Y-159294904D01*
X47360177Y-159295981D01*
X47360179Y-159295982D01*
X47489812Y-159313048D01*
X47498000Y-159314126D01*
X47506188Y-159313048D01*
X47635821Y-159295982D01*
X47635823Y-159295981D01*
X47644007Y-159294904D01*
X47651636Y-159291744D01*
X47708740Y-159268091D01*
X47756958Y-159258500D01*
X48382042Y-159258500D01*
X48430260Y-159268091D01*
X48487364Y-159291744D01*
X48494993Y-159294904D01*
X48503177Y-159295981D01*
X48503179Y-159295982D01*
X48632812Y-159313048D01*
X48641000Y-159314126D01*
X48649188Y-159313048D01*
X48778821Y-159295982D01*
X48778823Y-159295981D01*
X48787007Y-159294904D01*
X48794636Y-159291744D01*
X48851740Y-159268091D01*
X48899958Y-159258500D01*
X52700042Y-159258500D01*
X52748260Y-159268091D01*
X52805364Y-159291744D01*
X52812993Y-159294904D01*
X52821177Y-159295981D01*
X52821179Y-159295982D01*
X52950812Y-159313048D01*
X52959000Y-159314126D01*
X52967188Y-159313048D01*
X53096821Y-159295982D01*
X53096823Y-159295981D01*
X53105007Y-159294904D01*
X53112636Y-159291744D01*
X53169740Y-159268091D01*
X53217958Y-159258500D01*
X53843042Y-159258500D01*
X53891260Y-159268091D01*
X53948364Y-159291744D01*
X53955993Y-159294904D01*
X53964177Y-159295981D01*
X53964179Y-159295982D01*
X54093812Y-159313048D01*
X54102000Y-159314126D01*
X54110188Y-159313048D01*
X54239821Y-159295982D01*
X54239823Y-159295981D01*
X54248007Y-159294904D01*
X54255636Y-159291744D01*
X54312740Y-159268091D01*
X54360958Y-159258500D01*
X57907042Y-159258500D01*
X57955260Y-159268091D01*
X58012364Y-159291744D01*
X58019993Y-159294904D01*
X58028177Y-159295981D01*
X58028179Y-159295982D01*
X58157812Y-159313048D01*
X58166000Y-159314126D01*
X58174188Y-159313048D01*
X58303821Y-159295982D01*
X58303823Y-159295981D01*
X58312007Y-159294904D01*
X58319636Y-159291744D01*
X58376740Y-159268091D01*
X58424958Y-159258500D01*
X58796042Y-159258500D01*
X58844260Y-159268091D01*
X58901364Y-159291744D01*
X58908993Y-159294904D01*
X58917177Y-159295981D01*
X58917179Y-159295982D01*
X59046812Y-159313048D01*
X59055000Y-159314126D01*
X59063188Y-159313048D01*
X59192821Y-159295982D01*
X59192823Y-159295981D01*
X59201007Y-159294904D01*
X59337063Y-159238547D01*
X59453897Y-159148897D01*
X59543547Y-159032063D01*
X59599904Y-158896007D01*
X59619126Y-158750000D01*
X59599904Y-158603993D01*
X59543547Y-158467937D01*
X59453897Y-158351103D01*
X59337063Y-158261453D01*
X59201007Y-158205096D01*
X59192823Y-158204019D01*
X59192821Y-158204018D01*
X59063188Y-158186952D01*
X59055000Y-158185874D01*
X59046812Y-158186952D01*
X58917179Y-158204018D01*
X58917177Y-158204019D01*
X58908993Y-158205096D01*
X58901364Y-158208256D01*
X58844260Y-158231909D01*
X58796042Y-158241500D01*
X58424958Y-158241500D01*
X58376740Y-158231909D01*
X58319636Y-158208256D01*
X58312007Y-158205096D01*
X58303823Y-158204019D01*
X58303821Y-158204018D01*
X58174188Y-158186952D01*
X58166000Y-158185874D01*
X58157812Y-158186952D01*
X58028179Y-158204018D01*
X58028177Y-158204019D01*
X58019993Y-158205096D01*
X58012364Y-158208256D01*
X57955260Y-158231909D01*
X57907042Y-158241500D01*
X54360958Y-158241500D01*
X54312740Y-158231909D01*
X54255636Y-158208256D01*
X54248007Y-158205096D01*
X54239823Y-158204019D01*
X54239821Y-158204018D01*
X54110188Y-158186952D01*
X54102000Y-158185874D01*
X54093812Y-158186952D01*
X53964179Y-158204018D01*
X53964177Y-158204019D01*
X53955993Y-158205096D01*
X53948364Y-158208256D01*
X53891260Y-158231909D01*
X53843042Y-158241500D01*
X53217958Y-158241500D01*
X53169740Y-158231909D01*
X53112636Y-158208256D01*
X53105007Y-158205096D01*
X53096823Y-158204019D01*
X53096821Y-158204018D01*
X52967188Y-158186952D01*
X52959000Y-158185874D01*
X52950812Y-158186952D01*
X52821179Y-158204018D01*
X52821177Y-158204019D01*
X52812993Y-158205096D01*
X52805364Y-158208256D01*
X52748260Y-158231909D01*
X52700042Y-158241500D01*
X48899958Y-158241500D01*
X48851740Y-158231909D01*
X48794636Y-158208256D01*
X48787007Y-158205096D01*
X48778823Y-158204019D01*
X48778821Y-158204018D01*
X48649188Y-158186952D01*
X48641000Y-158185874D01*
X48632812Y-158186952D01*
X48503179Y-158204018D01*
X48503177Y-158204019D01*
X48494993Y-158205096D01*
X48487364Y-158208256D01*
X48430260Y-158231909D01*
X48382042Y-158241500D01*
X47756958Y-158241500D01*
X47708740Y-158231909D01*
X47651636Y-158208256D01*
X47644007Y-158205096D01*
X47635823Y-158204019D01*
X47635821Y-158204018D01*
X47506188Y-158186952D01*
X47498000Y-158185874D01*
X47489812Y-158186952D01*
X47360179Y-158204018D01*
X47360177Y-158204019D01*
X47351993Y-158205096D01*
X47215937Y-158261453D01*
X47099103Y-158351103D01*
X47009453Y-158467937D01*
X46953096Y-158603993D01*
X46933874Y-158750000D01*
X25908000Y-158750000D01*
X25908000Y-151511000D01*
X26740874Y-151511000D01*
X26760096Y-151657007D01*
X26816453Y-151793063D01*
X26906103Y-151909897D01*
X27022937Y-151999547D01*
X27158993Y-152055904D01*
X27167177Y-152056981D01*
X27167179Y-152056982D01*
X27296812Y-152074048D01*
X27305000Y-152075126D01*
X27313188Y-152074048D01*
X27442821Y-152056982D01*
X27442823Y-152056981D01*
X27451007Y-152055904D01*
X27587063Y-151999547D01*
X27703897Y-151909897D01*
X27793547Y-151793063D01*
X27849904Y-151657007D01*
X27869126Y-151511000D01*
X27849904Y-151364993D01*
X27846744Y-151357364D01*
X27823091Y-151300260D01*
X27813500Y-151252042D01*
X27813500Y-150626958D01*
X27823091Y-150578740D01*
X27846744Y-150521636D01*
X27849904Y-150514007D01*
X27869126Y-150368000D01*
X27849904Y-150221993D01*
X27846744Y-150214364D01*
X27823091Y-150157260D01*
X27813500Y-150109042D01*
X27813500Y-129802817D01*
X27833502Y-129734696D01*
X27850405Y-129713722D01*
X28727985Y-128836142D01*
X28768862Y-128808828D01*
X28797882Y-128796807D01*
X28863468Y-128769641D01*
X28982955Y-128677955D01*
X29074641Y-128558468D01*
X29132277Y-128419322D01*
X29147000Y-128307492D01*
X29147000Y-127343508D01*
X29132277Y-127231678D01*
X29074641Y-127092532D01*
X28982955Y-126973045D01*
X28863468Y-126881359D01*
X28724322Y-126823723D01*
X28575000Y-126804064D01*
X28425678Y-126823723D01*
X28286532Y-126881359D01*
X28167045Y-126973045D01*
X28075359Y-127092532D01*
X28017723Y-127231678D01*
X28003000Y-127343508D01*
X28003000Y-128070682D01*
X27982998Y-128138803D01*
X27966100Y-128159772D01*
X26995692Y-129130181D01*
X26986157Y-129137800D01*
X26986470Y-129138168D01*
X26979634Y-129143986D01*
X26972042Y-129148776D01*
X26966100Y-129155504D01*
X26936407Y-129189125D01*
X26931061Y-129194812D01*
X26919618Y-129206255D01*
X26913978Y-129213780D01*
X26913341Y-129214630D01*
X26906967Y-129222459D01*
X26875622Y-129257951D01*
X26871808Y-129266074D01*
X26870174Y-129268562D01*
X26861186Y-129283523D01*
X26859771Y-129286108D01*
X26854384Y-129293295D01*
X26851233Y-129301701D01*
X26837759Y-129337642D01*
X26833833Y-129346958D01*
X26813719Y-129389800D01*
X26812338Y-129398669D01*
X26811472Y-129401502D01*
X26807042Y-129418389D01*
X26806408Y-129421274D01*
X26803255Y-129429684D01*
X26802590Y-129438639D01*
X26799746Y-129476906D01*
X26798592Y-129486952D01*
X26796500Y-129500386D01*
X26796500Y-129515906D01*
X26796154Y-129525243D01*
X26792461Y-129574941D01*
X26794335Y-129583720D01*
X26794898Y-129591978D01*
X26796500Y-129607161D01*
X26796500Y-150109042D01*
X26786909Y-150157260D01*
X26763256Y-150214364D01*
X26760096Y-150221993D01*
X26740874Y-150368000D01*
X26760096Y-150514007D01*
X26763256Y-150521636D01*
X26786909Y-150578740D01*
X26796500Y-150626958D01*
X26796500Y-151252042D01*
X26786909Y-151300260D01*
X26763256Y-151357364D01*
X26760096Y-151364993D01*
X26740874Y-151511000D01*
X25908000Y-151511000D01*
X25908000Y-123824000D01*
X25928002Y-123755879D01*
X25981658Y-123709386D01*
X26034000Y-123698000D01*
X32084924Y-123698000D01*
X32089246Y-123698167D01*
G37*
G04 #@! TD.AperFunction*
G04 #@! TA.AperFunction,Conductor*
G36*
X73338304Y-111526502D02*
G01*
X73359278Y-111543405D01*
X73565072Y-111749199D01*
X73599098Y-111811511D01*
X73594033Y-111882326D01*
X73551486Y-111939162D01*
X73492423Y-111963216D01*
X73395179Y-111976018D01*
X73395177Y-111976019D01*
X73386993Y-111977096D01*
X73250937Y-112033453D01*
X73134103Y-112123103D01*
X73044453Y-112239937D01*
X72988096Y-112375993D01*
X72987019Y-112384177D01*
X72987018Y-112384179D01*
X72973613Y-112486000D01*
X72968874Y-112522000D01*
X72988096Y-112668007D01*
X72991256Y-112675636D01*
X73014909Y-112732740D01*
X73024500Y-112780958D01*
X73024500Y-113152042D01*
X73014909Y-113200260D01*
X72991256Y-113257364D01*
X72988096Y-113264993D01*
X72968874Y-113411000D01*
X72988096Y-113557007D01*
X72991256Y-113564636D01*
X73014909Y-113621740D01*
X73024500Y-113669958D01*
X73024500Y-125857000D01*
X62611000Y-125857000D01*
X62611000Y-116973686D01*
X65939018Y-116973686D01*
X65964579Y-117241600D01*
X66028547Y-117503018D01*
X66129583Y-117752463D01*
X66265569Y-117984710D01*
X66433658Y-118194895D01*
X66630327Y-118378613D01*
X66851457Y-118532016D01*
X67092416Y-118651891D01*
X67096750Y-118653312D01*
X67096753Y-118653313D01*
X67343823Y-118734307D01*
X67343829Y-118734308D01*
X67348156Y-118735727D01*
X67352647Y-118736507D01*
X67352648Y-118736507D01*
X67609538Y-118781111D01*
X67609546Y-118781112D01*
X67613319Y-118781767D01*
X67617156Y-118781958D01*
X67696777Y-118785922D01*
X67696785Y-118785922D01*
X67698348Y-118786000D01*
X67866374Y-118786000D01*
X67868642Y-118785835D01*
X67868654Y-118785835D01*
X67999457Y-118776344D01*
X68066425Y-118771485D01*
X68070880Y-118770501D01*
X68070883Y-118770501D01*
X68324770Y-118714447D01*
X68324772Y-118714446D01*
X68329226Y-118713463D01*
X68580900Y-118618113D01*
X68816172Y-118487431D01*
X68962842Y-118375496D01*
X69026491Y-118326921D01*
X69026495Y-118326917D01*
X69030116Y-118324154D01*
X69218249Y-118131703D01*
X69325242Y-117984710D01*
X69373942Y-117917804D01*
X69373947Y-117917797D01*
X69376630Y-117914110D01*
X69501941Y-117675933D01*
X69591557Y-117422162D01*
X69616688Y-117294656D01*
X69642720Y-117162583D01*
X69642721Y-117162577D01*
X69643601Y-117158111D01*
X69652782Y-116973686D01*
X69656755Y-116893883D01*
X69656755Y-116893877D01*
X69656982Y-116889314D01*
X69631421Y-116621400D01*
X69567453Y-116359982D01*
X69466417Y-116110537D01*
X69330431Y-115878290D01*
X69162342Y-115668105D01*
X68965673Y-115484387D01*
X68744543Y-115330984D01*
X68503584Y-115211109D01*
X68499250Y-115209688D01*
X68499247Y-115209687D01*
X68252177Y-115128693D01*
X68252171Y-115128692D01*
X68247844Y-115127273D01*
X68243352Y-115126493D01*
X67986462Y-115081889D01*
X67986454Y-115081888D01*
X67982681Y-115081233D01*
X67972718Y-115080737D01*
X67899223Y-115077078D01*
X67899215Y-115077078D01*
X67897652Y-115077000D01*
X67729626Y-115077000D01*
X67727358Y-115077165D01*
X67727346Y-115077165D01*
X67596543Y-115086656D01*
X67529575Y-115091515D01*
X67525120Y-115092499D01*
X67525117Y-115092499D01*
X67271230Y-115148553D01*
X67271228Y-115148554D01*
X67266774Y-115149537D01*
X67015100Y-115244887D01*
X66779828Y-115375569D01*
X66776196Y-115378341D01*
X66569509Y-115536079D01*
X66569505Y-115536083D01*
X66565884Y-115538846D01*
X66377751Y-115731297D01*
X66375066Y-115734986D01*
X66222058Y-115945196D01*
X66222053Y-115945203D01*
X66219370Y-115948890D01*
X66094059Y-116187067D01*
X66004443Y-116440838D01*
X66003560Y-116445320D01*
X65968855Y-116621400D01*
X65952399Y-116704889D01*
X65952172Y-116709442D01*
X65952172Y-116709445D01*
X65942991Y-116893883D01*
X65939018Y-116973686D01*
X62611000Y-116973686D01*
X62611000Y-112486000D01*
X62631002Y-112417879D01*
X62684658Y-112371386D01*
X62737000Y-112360000D01*
X69560428Y-112360000D01*
X69572558Y-112361355D01*
X69572597Y-112360873D01*
X69581544Y-112361593D01*
X69590300Y-112363574D01*
X69644008Y-112360242D01*
X69651810Y-112360000D01*
X69668013Y-112360000D01*
X69676929Y-112358723D01*
X69678378Y-112358516D01*
X69688428Y-112357487D01*
X69726716Y-112355111D01*
X69735677Y-112354555D01*
X69744123Y-112351506D01*
X69747014Y-112350907D01*
X69763980Y-112346678D01*
X69766805Y-112345852D01*
X69775687Y-112344580D01*
X69818798Y-112324978D01*
X69828149Y-112321172D01*
X69864235Y-112308145D01*
X69872681Y-112305096D01*
X69879929Y-112299801D01*
X69882527Y-112298420D01*
X69897645Y-112289585D01*
X69900114Y-112288006D01*
X69908282Y-112284292D01*
X69944153Y-112253384D01*
X69952069Y-112247099D01*
X69959115Y-112241952D01*
X69959120Y-112241947D01*
X69963052Y-112239075D01*
X69974027Y-112228100D01*
X69980875Y-112221742D01*
X70011823Y-112195076D01*
X70011824Y-112195075D01*
X70018627Y-112189213D01*
X70023511Y-112181678D01*
X70028958Y-112175434D01*
X70038558Y-112163569D01*
X70658722Y-111543405D01*
X70721034Y-111509379D01*
X70747817Y-111506500D01*
X73270183Y-111506500D01*
X73338304Y-111526502D01*
G37*
G04 #@! TD.AperFunction*
M02*
