M48
INCH,TZ
T1C0.0120
T2C0.0299
T3C0.0433
%
G90
G05
T1
X10725Y-74625
X10750Y-59200
X10750Y-59650
X11050Y-74950
X11250Y-50150
X11250Y-50500
X12250Y-55300
X12250Y-55700
X12250Y-60800
X12250Y-61200
X12750Y-55300
X12750Y-55700
X12750Y-60800
X12750Y-61200
X13650Y-66850
X13900Y-68750
X14000Y-66000
X14400Y-66000
X14550Y-67650
X14750Y-66000
X14850Y-66850
X15000Y-68750
X15450Y-74150
X15700Y-67450
X15850Y-74150
X15862Y-50388
X15862Y-50738
X16150Y-47300
X16400Y-49050
X16700Y-47300
X16750Y-68950
X16850Y-49050
X17350Y-49050
X17650Y-64350
X17800Y-68950
X17800Y-69300
X17800Y-69650
X18100Y-63950
X18700Y-62500
X18800Y-54537
X18800Y-57037
X19150Y-62500
X19200Y-72950
X19700Y-72950
X20200Y-72950
X20700Y-57537
X20700Y-72950
X20713Y-57037
X20850Y-49087
X20850Y-52987
X20850Y-54087
X20850Y-54537
X20850Y-62500
X21050Y-57037
X21050Y-57537
X21200Y-72950
X21200Y-73450
X21200Y-74000
X21200Y-74500
X21250Y-49087
X21300Y-62500
X21400Y-59037
X21600Y-49087
X21700Y-72950
X21700Y-73450
X21700Y-74000
X21700Y-74500
X21850Y-64100
X22200Y-64650
X22250Y-55700
X22691Y-71009
X22900Y-62500
X23250Y-62500
X24750Y-57550
X26000Y-44550
X26350Y-44550
X26550Y-72750
X26700Y-44550
X26900Y-72750
X27050Y-44550
X27150Y-67600
X27150Y-68000
X27250Y-55300
X27250Y-55700
X27250Y-60800
X27250Y-61200
X27300Y-69100
X27750Y-55300
X27750Y-55700
X27750Y-60800
X27750Y-61200
X27950Y-66100
X28500Y-66100
X28550Y-75050
X28650Y-72800
X28950Y-44300
X28950Y-44650
X29050Y-72800
X29050Y-75050
X29300Y-62600
X29300Y-63000
X29700Y-57250
X29700Y-57650
T2
X15808Y-42014
X15808Y-43014
X15808Y-44014
X15808Y-45014
X16808Y-42514
X16808Y-43514
X16808Y-44514
X16808Y-45514
X23192Y-42036
X23192Y-43036
X23192Y-44036
X23192Y-45036
X24192Y-42536
X24192Y-43536
X24192Y-44536
X24192Y-45536
T3
X20000Y-74000
X25000Y-74000
T0
M30
