G04 #@! TF.GenerationSoftware,KiCad,Pcbnew,6.0.10-86aedd382b~118~ubuntu18.04.1*
G04 #@! TF.CreationDate,2024-08-26T14:05:47-06:00*
G04 #@! TF.ProjectId,mss-debug,6d73732d-6465-4627-9567-2e6b69636164,rev?*
G04 #@! TF.SameCoordinates,Original*
G04 #@! TF.FileFunction,Paste,Top*
G04 #@! TF.FilePolarity,Positive*
%FSLAX46Y46*%
G04 Gerber Fmt 4.6, Leading zero omitted, Abs format (unit mm)*
G04 Created by KiCad (PCBNEW 6.0.10-86aedd382b~118~ubuntu18.04.1) date 2024-08-26 14:05:47*
%MOMM*%
%LPD*%
G01*
G04 APERTURE LIST*
%ADD10R,1.193800X2.489200*%
%ADD11R,2.489200X1.193800*%
%ADD12R,5.562600X2.108200*%
%ADD13R,1.400000X1.900000*%
%ADD14R,1.900000X1.400000*%
%ADD15R,2.108200X5.562600*%
G04 APERTURE END LIST*
G36*
G01*
X45184000Y-172281000D02*
X45184000Y-171381000D01*
G75*
G02*
X45434000Y-171131000I250000J0D01*
G01*
X45959000Y-171131000D01*
G75*
G02*
X46209000Y-171381000I0J-250000D01*
G01*
X46209000Y-172281000D01*
G75*
G02*
X45959000Y-172531000I-250000J0D01*
G01*
X45434000Y-172531000D01*
G75*
G02*
X45184000Y-172281000I0J250000D01*
G01*
G37*
G36*
G01*
X47009000Y-172281000D02*
X47009000Y-171381000D01*
G75*
G02*
X47259000Y-171131000I250000J0D01*
G01*
X47784000Y-171131000D01*
G75*
G02*
X48034000Y-171381000I0J-250000D01*
G01*
X48034000Y-172281000D01*
G75*
G02*
X47784000Y-172531000I-250000J0D01*
G01*
X47259000Y-172531000D01*
G75*
G02*
X47009000Y-172281000I0J250000D01*
G01*
G37*
G36*
G01*
X51874000Y-178661000D02*
X52774000Y-178661000D01*
G75*
G02*
X53024000Y-178911000I0J-250000D01*
G01*
X53024000Y-179436000D01*
G75*
G02*
X52774000Y-179686000I-250000J0D01*
G01*
X51874000Y-179686000D01*
G75*
G02*
X51624000Y-179436000I0J250000D01*
G01*
X51624000Y-178911000D01*
G75*
G02*
X51874000Y-178661000I250000J0D01*
G01*
G37*
G36*
G01*
X51874000Y-180486000D02*
X52774000Y-180486000D01*
G75*
G02*
X53024000Y-180736000I0J-250000D01*
G01*
X53024000Y-181261000D01*
G75*
G02*
X52774000Y-181511000I-250000J0D01*
G01*
X51874000Y-181511000D01*
G75*
G02*
X51624000Y-181261000I0J250000D01*
G01*
X51624000Y-180736000D01*
G75*
G02*
X51874000Y-180486000I250000J0D01*
G01*
G37*
G36*
G01*
X35126000Y-166718000D02*
X35126000Y-165768000D01*
G75*
G02*
X35376000Y-165518000I250000J0D01*
G01*
X35876000Y-165518000D01*
G75*
G02*
X36126000Y-165768000I0J-250000D01*
G01*
X36126000Y-166718000D01*
G75*
G02*
X35876000Y-166968000I-250000J0D01*
G01*
X35376000Y-166968000D01*
G75*
G02*
X35126000Y-166718000I0J250000D01*
G01*
G37*
G36*
G01*
X37026000Y-166718000D02*
X37026000Y-165768000D01*
G75*
G02*
X37276000Y-165518000I250000J0D01*
G01*
X37776000Y-165518000D01*
G75*
G02*
X38026000Y-165768000I0J-250000D01*
G01*
X38026000Y-166718000D01*
G75*
G02*
X37776000Y-166968000I-250000J0D01*
G01*
X37276000Y-166968000D01*
G75*
G02*
X37026000Y-166718000I0J250000D01*
G01*
G37*
G36*
G01*
X35538000Y-168999000D02*
X35538000Y-168699000D01*
G75*
G02*
X35688000Y-168549000I150000J0D01*
G01*
X36713000Y-168549000D01*
G75*
G02*
X36863000Y-168699000I0J-150000D01*
G01*
X36863000Y-168999000D01*
G75*
G02*
X36713000Y-169149000I-150000J0D01*
G01*
X35688000Y-169149000D01*
G75*
G02*
X35538000Y-168999000I0J150000D01*
G01*
G37*
G36*
G01*
X35538000Y-169949000D02*
X35538000Y-169649000D01*
G75*
G02*
X35688000Y-169499000I150000J0D01*
G01*
X36713000Y-169499000D01*
G75*
G02*
X36863000Y-169649000I0J-150000D01*
G01*
X36863000Y-169949000D01*
G75*
G02*
X36713000Y-170099000I-150000J0D01*
G01*
X35688000Y-170099000D01*
G75*
G02*
X35538000Y-169949000I0J150000D01*
G01*
G37*
G36*
G01*
X35538000Y-170899000D02*
X35538000Y-170599000D01*
G75*
G02*
X35688000Y-170449000I150000J0D01*
G01*
X36713000Y-170449000D01*
G75*
G02*
X36863000Y-170599000I0J-150000D01*
G01*
X36863000Y-170899000D01*
G75*
G02*
X36713000Y-171049000I-150000J0D01*
G01*
X35688000Y-171049000D01*
G75*
G02*
X35538000Y-170899000I0J150000D01*
G01*
G37*
G36*
G01*
X37813000Y-170899000D02*
X37813000Y-170599000D01*
G75*
G02*
X37963000Y-170449000I150000J0D01*
G01*
X38988000Y-170449000D01*
G75*
G02*
X39138000Y-170599000I0J-150000D01*
G01*
X39138000Y-170899000D01*
G75*
G02*
X38988000Y-171049000I-150000J0D01*
G01*
X37963000Y-171049000D01*
G75*
G02*
X37813000Y-170899000I0J150000D01*
G01*
G37*
G36*
G01*
X37813000Y-168999000D02*
X37813000Y-168699000D01*
G75*
G02*
X37963000Y-168549000I150000J0D01*
G01*
X38988000Y-168549000D01*
G75*
G02*
X39138000Y-168699000I0J-150000D01*
G01*
X39138000Y-168999000D01*
G75*
G02*
X38988000Y-169149000I-150000J0D01*
G01*
X37963000Y-169149000D01*
G75*
G02*
X37813000Y-168999000I0J150000D01*
G01*
G37*
G36*
G01*
X49007750Y-121568500D02*
X48057750Y-121568500D01*
G75*
G02*
X47807750Y-121318500I0J250000D01*
G01*
X47807750Y-120818500D01*
G75*
G02*
X48057750Y-120568500I250000J0D01*
G01*
X49007750Y-120568500D01*
G75*
G02*
X49257750Y-120818500I0J-250000D01*
G01*
X49257750Y-121318500D01*
G75*
G02*
X49007750Y-121568500I-250000J0D01*
G01*
G37*
G36*
G01*
X49007750Y-119668500D02*
X48057750Y-119668500D01*
G75*
G02*
X47807750Y-119418500I0J250000D01*
G01*
X47807750Y-118918500D01*
G75*
G02*
X48057750Y-118668500I250000J0D01*
G01*
X49007750Y-118668500D01*
G75*
G02*
X49257750Y-118918500I0J-250000D01*
G01*
X49257750Y-119418500D01*
G75*
G02*
X49007750Y-119668500I-250000J0D01*
G01*
G37*
G36*
G01*
X52091000Y-147264000D02*
X52091000Y-147564000D01*
G75*
G02*
X51941000Y-147714000I-150000J0D01*
G01*
X50491000Y-147714000D01*
G75*
G02*
X50341000Y-147564000I0J150000D01*
G01*
X50341000Y-147264000D01*
G75*
G02*
X50491000Y-147114000I150000J0D01*
G01*
X51941000Y-147114000D01*
G75*
G02*
X52091000Y-147264000I0J-150000D01*
G01*
G37*
G36*
G01*
X52091000Y-145994000D02*
X52091000Y-146294000D01*
G75*
G02*
X51941000Y-146444000I-150000J0D01*
G01*
X50491000Y-146444000D01*
G75*
G02*
X50341000Y-146294000I0J150000D01*
G01*
X50341000Y-145994000D01*
G75*
G02*
X50491000Y-145844000I150000J0D01*
G01*
X51941000Y-145844000D01*
G75*
G02*
X52091000Y-145994000I0J-150000D01*
G01*
G37*
G36*
G01*
X52091000Y-144724000D02*
X52091000Y-145024000D01*
G75*
G02*
X51941000Y-145174000I-150000J0D01*
G01*
X50491000Y-145174000D01*
G75*
G02*
X50341000Y-145024000I0J150000D01*
G01*
X50341000Y-144724000D01*
G75*
G02*
X50491000Y-144574000I150000J0D01*
G01*
X51941000Y-144574000D01*
G75*
G02*
X52091000Y-144724000I0J-150000D01*
G01*
G37*
G36*
G01*
X52091000Y-143454000D02*
X52091000Y-143754000D01*
G75*
G02*
X51941000Y-143904000I-150000J0D01*
G01*
X50491000Y-143904000D01*
G75*
G02*
X50341000Y-143754000I0J150000D01*
G01*
X50341000Y-143454000D01*
G75*
G02*
X50491000Y-143304000I150000J0D01*
G01*
X51941000Y-143304000D01*
G75*
G02*
X52091000Y-143454000I0J-150000D01*
G01*
G37*
G36*
G01*
X52091000Y-142184000D02*
X52091000Y-142484000D01*
G75*
G02*
X51941000Y-142634000I-150000J0D01*
G01*
X50491000Y-142634000D01*
G75*
G02*
X50341000Y-142484000I0J150000D01*
G01*
X50341000Y-142184000D01*
G75*
G02*
X50491000Y-142034000I150000J0D01*
G01*
X51941000Y-142034000D01*
G75*
G02*
X52091000Y-142184000I0J-150000D01*
G01*
G37*
G36*
G01*
X52091000Y-140914000D02*
X52091000Y-141214000D01*
G75*
G02*
X51941000Y-141364000I-150000J0D01*
G01*
X50491000Y-141364000D01*
G75*
G02*
X50341000Y-141214000I0J150000D01*
G01*
X50341000Y-140914000D01*
G75*
G02*
X50491000Y-140764000I150000J0D01*
G01*
X51941000Y-140764000D01*
G75*
G02*
X52091000Y-140914000I0J-150000D01*
G01*
G37*
G36*
G01*
X52091000Y-139644000D02*
X52091000Y-139944000D01*
G75*
G02*
X51941000Y-140094000I-150000J0D01*
G01*
X50491000Y-140094000D01*
G75*
G02*
X50341000Y-139944000I0J150000D01*
G01*
X50341000Y-139644000D01*
G75*
G02*
X50491000Y-139494000I150000J0D01*
G01*
X51941000Y-139494000D01*
G75*
G02*
X52091000Y-139644000I0J-150000D01*
G01*
G37*
G36*
G01*
X52091000Y-138374000D02*
X52091000Y-138674000D01*
G75*
G02*
X51941000Y-138824000I-150000J0D01*
G01*
X50491000Y-138824000D01*
G75*
G02*
X50341000Y-138674000I0J150000D01*
G01*
X50341000Y-138374000D01*
G75*
G02*
X50491000Y-138224000I150000J0D01*
G01*
X51941000Y-138224000D01*
G75*
G02*
X52091000Y-138374000I0J-150000D01*
G01*
G37*
G36*
G01*
X46941000Y-138374000D02*
X46941000Y-138674000D01*
G75*
G02*
X46791000Y-138824000I-150000J0D01*
G01*
X45341000Y-138824000D01*
G75*
G02*
X45191000Y-138674000I0J150000D01*
G01*
X45191000Y-138374000D01*
G75*
G02*
X45341000Y-138224000I150000J0D01*
G01*
X46791000Y-138224000D01*
G75*
G02*
X46941000Y-138374000I0J-150000D01*
G01*
G37*
G36*
G01*
X46941000Y-139644000D02*
X46941000Y-139944000D01*
G75*
G02*
X46791000Y-140094000I-150000J0D01*
G01*
X45341000Y-140094000D01*
G75*
G02*
X45191000Y-139944000I0J150000D01*
G01*
X45191000Y-139644000D01*
G75*
G02*
X45341000Y-139494000I150000J0D01*
G01*
X46791000Y-139494000D01*
G75*
G02*
X46941000Y-139644000I0J-150000D01*
G01*
G37*
G36*
G01*
X46941000Y-140914000D02*
X46941000Y-141214000D01*
G75*
G02*
X46791000Y-141364000I-150000J0D01*
G01*
X45341000Y-141364000D01*
G75*
G02*
X45191000Y-141214000I0J150000D01*
G01*
X45191000Y-140914000D01*
G75*
G02*
X45341000Y-140764000I150000J0D01*
G01*
X46791000Y-140764000D01*
G75*
G02*
X46941000Y-140914000I0J-150000D01*
G01*
G37*
G36*
G01*
X46941000Y-142184000D02*
X46941000Y-142484000D01*
G75*
G02*
X46791000Y-142634000I-150000J0D01*
G01*
X45341000Y-142634000D01*
G75*
G02*
X45191000Y-142484000I0J150000D01*
G01*
X45191000Y-142184000D01*
G75*
G02*
X45341000Y-142034000I150000J0D01*
G01*
X46791000Y-142034000D01*
G75*
G02*
X46941000Y-142184000I0J-150000D01*
G01*
G37*
G36*
G01*
X46941000Y-143454000D02*
X46941000Y-143754000D01*
G75*
G02*
X46791000Y-143904000I-150000J0D01*
G01*
X45341000Y-143904000D01*
G75*
G02*
X45191000Y-143754000I0J150000D01*
G01*
X45191000Y-143454000D01*
G75*
G02*
X45341000Y-143304000I150000J0D01*
G01*
X46791000Y-143304000D01*
G75*
G02*
X46941000Y-143454000I0J-150000D01*
G01*
G37*
G36*
G01*
X46941000Y-144724000D02*
X46941000Y-145024000D01*
G75*
G02*
X46791000Y-145174000I-150000J0D01*
G01*
X45341000Y-145174000D01*
G75*
G02*
X45191000Y-145024000I0J150000D01*
G01*
X45191000Y-144724000D01*
G75*
G02*
X45341000Y-144574000I150000J0D01*
G01*
X46791000Y-144574000D01*
G75*
G02*
X46941000Y-144724000I0J-150000D01*
G01*
G37*
G36*
G01*
X46941000Y-145994000D02*
X46941000Y-146294000D01*
G75*
G02*
X46791000Y-146444000I-150000J0D01*
G01*
X45341000Y-146444000D01*
G75*
G02*
X45191000Y-146294000I0J150000D01*
G01*
X45191000Y-145994000D01*
G75*
G02*
X45341000Y-145844000I150000J0D01*
G01*
X46791000Y-145844000D01*
G75*
G02*
X46941000Y-145994000I0J-150000D01*
G01*
G37*
G36*
G01*
X46941000Y-147264000D02*
X46941000Y-147564000D01*
G75*
G02*
X46791000Y-147714000I-150000J0D01*
G01*
X45341000Y-147714000D01*
G75*
G02*
X45191000Y-147564000I0J150000D01*
G01*
X45191000Y-147264000D01*
G75*
G02*
X45341000Y-147114000I150000J0D01*
G01*
X46791000Y-147114000D01*
G75*
G02*
X46941000Y-147264000I0J-150000D01*
G01*
G37*
G36*
G01*
X50493000Y-136586000D02*
X50493000Y-135636000D01*
G75*
G02*
X50743000Y-135386000I250000J0D01*
G01*
X51243000Y-135386000D01*
G75*
G02*
X51493000Y-135636000I0J-250000D01*
G01*
X51493000Y-136586000D01*
G75*
G02*
X51243000Y-136836000I-250000J0D01*
G01*
X50743000Y-136836000D01*
G75*
G02*
X50493000Y-136586000I0J250000D01*
G01*
G37*
G36*
G01*
X52393000Y-136586000D02*
X52393000Y-135636000D01*
G75*
G02*
X52643000Y-135386000I250000J0D01*
G01*
X53143000Y-135386000D01*
G75*
G02*
X53393000Y-135636000I0J-250000D01*
G01*
X53393000Y-136586000D01*
G75*
G02*
X53143000Y-136836000I-250000J0D01*
G01*
X52643000Y-136836000D01*
G75*
G02*
X52393000Y-136586000I0J250000D01*
G01*
G37*
G36*
G01*
X64290000Y-171762000D02*
X64290000Y-172662000D01*
G75*
G02*
X64040000Y-172912000I-250000J0D01*
G01*
X63515000Y-172912000D01*
G75*
G02*
X63265000Y-172662000I0J250000D01*
G01*
X63265000Y-171762000D01*
G75*
G02*
X63515000Y-171512000I250000J0D01*
G01*
X64040000Y-171512000D01*
G75*
G02*
X64290000Y-171762000I0J-250000D01*
G01*
G37*
G36*
G01*
X62465000Y-171762000D02*
X62465000Y-172662000D01*
G75*
G02*
X62215000Y-172912000I-250000J0D01*
G01*
X61690000Y-172912000D01*
G75*
G02*
X61440000Y-172662000I0J250000D01*
G01*
X61440000Y-171762000D01*
G75*
G02*
X61690000Y-171512000I250000J0D01*
G01*
X62215000Y-171512000D01*
G75*
G02*
X62465000Y-171762000I0J-250000D01*
G01*
G37*
G36*
G01*
X55822000Y-114709000D02*
X54922000Y-114709000D01*
G75*
G02*
X54672000Y-114459000I0J250000D01*
G01*
X54672000Y-113934000D01*
G75*
G02*
X54922000Y-113684000I250000J0D01*
G01*
X55822000Y-113684000D01*
G75*
G02*
X56072000Y-113934000I0J-250000D01*
G01*
X56072000Y-114459000D01*
G75*
G02*
X55822000Y-114709000I-250000J0D01*
G01*
G37*
G36*
G01*
X55822000Y-112884000D02*
X54922000Y-112884000D01*
G75*
G02*
X54672000Y-112634000I0J250000D01*
G01*
X54672000Y-112109000D01*
G75*
G02*
X54922000Y-111859000I250000J0D01*
G01*
X55822000Y-111859000D01*
G75*
G02*
X56072000Y-112109000I0J-250000D01*
G01*
X56072000Y-112634000D01*
G75*
G02*
X55822000Y-112884000I-250000J0D01*
G01*
G37*
D10*
X72858000Y-182664100D03*
X70358000Y-182664100D03*
X67858000Y-182664100D03*
X72858000Y-188175900D03*
X70358000Y-188175900D03*
X67858000Y-188175900D03*
G36*
G01*
X54201000Y-145832000D02*
X54201000Y-144932000D01*
G75*
G02*
X54451000Y-144682000I250000J0D01*
G01*
X54976000Y-144682000D01*
G75*
G02*
X55226000Y-144932000I0J-250000D01*
G01*
X55226000Y-145832000D01*
G75*
G02*
X54976000Y-146082000I-250000J0D01*
G01*
X54451000Y-146082000D01*
G75*
G02*
X54201000Y-145832000I0J250000D01*
G01*
G37*
G36*
G01*
X56026000Y-145832000D02*
X56026000Y-144932000D01*
G75*
G02*
X56276000Y-144682000I250000J0D01*
G01*
X56801000Y-144682000D01*
G75*
G02*
X57051000Y-144932000I0J-250000D01*
G01*
X57051000Y-145832000D01*
G75*
G02*
X56801000Y-146082000I-250000J0D01*
G01*
X56276000Y-146082000D01*
G75*
G02*
X56026000Y-145832000I0J250000D01*
G01*
G37*
D11*
X28994100Y-180380000D03*
X28994100Y-182880000D03*
X28994100Y-185380000D03*
X34505900Y-180380000D03*
X34505900Y-182880000D03*
X34505900Y-185380000D03*
G36*
G01*
X58956000Y-159944750D02*
X58956000Y-160857250D01*
G75*
G02*
X58712250Y-161101000I-243750J0D01*
G01*
X58224750Y-161101000D01*
G75*
G02*
X57981000Y-160857250I0J243750D01*
G01*
X57981000Y-159944750D01*
G75*
G02*
X58224750Y-159701000I243750J0D01*
G01*
X58712250Y-159701000D01*
G75*
G02*
X58956000Y-159944750I0J-243750D01*
G01*
G37*
G36*
G01*
X57081000Y-159944750D02*
X57081000Y-160857250D01*
G75*
G02*
X56837250Y-161101000I-243750J0D01*
G01*
X56349750Y-161101000D01*
G75*
G02*
X56106000Y-160857250I0J243750D01*
G01*
X56106000Y-159944750D01*
G75*
G02*
X56349750Y-159701000I243750J0D01*
G01*
X56837250Y-159701000D01*
G75*
G02*
X57081000Y-159944750I0J-243750D01*
G01*
G37*
G36*
G01*
X52091000Y-133421000D02*
X52091000Y-133721000D01*
G75*
G02*
X51941000Y-133871000I-150000J0D01*
G01*
X50491000Y-133871000D01*
G75*
G02*
X50341000Y-133721000I0J150000D01*
G01*
X50341000Y-133421000D01*
G75*
G02*
X50491000Y-133271000I150000J0D01*
G01*
X51941000Y-133271000D01*
G75*
G02*
X52091000Y-133421000I0J-150000D01*
G01*
G37*
G36*
G01*
X52091000Y-132151000D02*
X52091000Y-132451000D01*
G75*
G02*
X51941000Y-132601000I-150000J0D01*
G01*
X50491000Y-132601000D01*
G75*
G02*
X50341000Y-132451000I0J150000D01*
G01*
X50341000Y-132151000D01*
G75*
G02*
X50491000Y-132001000I150000J0D01*
G01*
X51941000Y-132001000D01*
G75*
G02*
X52091000Y-132151000I0J-150000D01*
G01*
G37*
G36*
G01*
X52091000Y-130881000D02*
X52091000Y-131181000D01*
G75*
G02*
X51941000Y-131331000I-150000J0D01*
G01*
X50491000Y-131331000D01*
G75*
G02*
X50341000Y-131181000I0J150000D01*
G01*
X50341000Y-130881000D01*
G75*
G02*
X50491000Y-130731000I150000J0D01*
G01*
X51941000Y-130731000D01*
G75*
G02*
X52091000Y-130881000I0J-150000D01*
G01*
G37*
G36*
G01*
X52091000Y-129611000D02*
X52091000Y-129911000D01*
G75*
G02*
X51941000Y-130061000I-150000J0D01*
G01*
X50491000Y-130061000D01*
G75*
G02*
X50341000Y-129911000I0J150000D01*
G01*
X50341000Y-129611000D01*
G75*
G02*
X50491000Y-129461000I150000J0D01*
G01*
X51941000Y-129461000D01*
G75*
G02*
X52091000Y-129611000I0J-150000D01*
G01*
G37*
G36*
G01*
X52091000Y-128341000D02*
X52091000Y-128641000D01*
G75*
G02*
X51941000Y-128791000I-150000J0D01*
G01*
X50491000Y-128791000D01*
G75*
G02*
X50341000Y-128641000I0J150000D01*
G01*
X50341000Y-128341000D01*
G75*
G02*
X50491000Y-128191000I150000J0D01*
G01*
X51941000Y-128191000D01*
G75*
G02*
X52091000Y-128341000I0J-150000D01*
G01*
G37*
G36*
G01*
X52091000Y-127071000D02*
X52091000Y-127371000D01*
G75*
G02*
X51941000Y-127521000I-150000J0D01*
G01*
X50491000Y-127521000D01*
G75*
G02*
X50341000Y-127371000I0J150000D01*
G01*
X50341000Y-127071000D01*
G75*
G02*
X50491000Y-126921000I150000J0D01*
G01*
X51941000Y-126921000D01*
G75*
G02*
X52091000Y-127071000I0J-150000D01*
G01*
G37*
G36*
G01*
X52091000Y-125801000D02*
X52091000Y-126101000D01*
G75*
G02*
X51941000Y-126251000I-150000J0D01*
G01*
X50491000Y-126251000D01*
G75*
G02*
X50341000Y-126101000I0J150000D01*
G01*
X50341000Y-125801000D01*
G75*
G02*
X50491000Y-125651000I150000J0D01*
G01*
X51941000Y-125651000D01*
G75*
G02*
X52091000Y-125801000I0J-150000D01*
G01*
G37*
G36*
G01*
X52091000Y-124531000D02*
X52091000Y-124831000D01*
G75*
G02*
X51941000Y-124981000I-150000J0D01*
G01*
X50491000Y-124981000D01*
G75*
G02*
X50341000Y-124831000I0J150000D01*
G01*
X50341000Y-124531000D01*
G75*
G02*
X50491000Y-124381000I150000J0D01*
G01*
X51941000Y-124381000D01*
G75*
G02*
X52091000Y-124531000I0J-150000D01*
G01*
G37*
G36*
G01*
X46941000Y-124531000D02*
X46941000Y-124831000D01*
G75*
G02*
X46791000Y-124981000I-150000J0D01*
G01*
X45341000Y-124981000D01*
G75*
G02*
X45191000Y-124831000I0J150000D01*
G01*
X45191000Y-124531000D01*
G75*
G02*
X45341000Y-124381000I150000J0D01*
G01*
X46791000Y-124381000D01*
G75*
G02*
X46941000Y-124531000I0J-150000D01*
G01*
G37*
G36*
G01*
X46941000Y-125801000D02*
X46941000Y-126101000D01*
G75*
G02*
X46791000Y-126251000I-150000J0D01*
G01*
X45341000Y-126251000D01*
G75*
G02*
X45191000Y-126101000I0J150000D01*
G01*
X45191000Y-125801000D01*
G75*
G02*
X45341000Y-125651000I150000J0D01*
G01*
X46791000Y-125651000D01*
G75*
G02*
X46941000Y-125801000I0J-150000D01*
G01*
G37*
G36*
G01*
X46941000Y-127071000D02*
X46941000Y-127371000D01*
G75*
G02*
X46791000Y-127521000I-150000J0D01*
G01*
X45341000Y-127521000D01*
G75*
G02*
X45191000Y-127371000I0J150000D01*
G01*
X45191000Y-127071000D01*
G75*
G02*
X45341000Y-126921000I150000J0D01*
G01*
X46791000Y-126921000D01*
G75*
G02*
X46941000Y-127071000I0J-150000D01*
G01*
G37*
G36*
G01*
X46941000Y-128341000D02*
X46941000Y-128641000D01*
G75*
G02*
X46791000Y-128791000I-150000J0D01*
G01*
X45341000Y-128791000D01*
G75*
G02*
X45191000Y-128641000I0J150000D01*
G01*
X45191000Y-128341000D01*
G75*
G02*
X45341000Y-128191000I150000J0D01*
G01*
X46791000Y-128191000D01*
G75*
G02*
X46941000Y-128341000I0J-150000D01*
G01*
G37*
G36*
G01*
X46941000Y-129611000D02*
X46941000Y-129911000D01*
G75*
G02*
X46791000Y-130061000I-150000J0D01*
G01*
X45341000Y-130061000D01*
G75*
G02*
X45191000Y-129911000I0J150000D01*
G01*
X45191000Y-129611000D01*
G75*
G02*
X45341000Y-129461000I150000J0D01*
G01*
X46791000Y-129461000D01*
G75*
G02*
X46941000Y-129611000I0J-150000D01*
G01*
G37*
G36*
G01*
X46941000Y-130881000D02*
X46941000Y-131181000D01*
G75*
G02*
X46791000Y-131331000I-150000J0D01*
G01*
X45341000Y-131331000D01*
G75*
G02*
X45191000Y-131181000I0J150000D01*
G01*
X45191000Y-130881000D01*
G75*
G02*
X45341000Y-130731000I150000J0D01*
G01*
X46791000Y-130731000D01*
G75*
G02*
X46941000Y-130881000I0J-150000D01*
G01*
G37*
G36*
G01*
X46941000Y-132151000D02*
X46941000Y-132451000D01*
G75*
G02*
X46791000Y-132601000I-150000J0D01*
G01*
X45341000Y-132601000D01*
G75*
G02*
X45191000Y-132451000I0J150000D01*
G01*
X45191000Y-132151000D01*
G75*
G02*
X45341000Y-132001000I150000J0D01*
G01*
X46791000Y-132001000D01*
G75*
G02*
X46941000Y-132151000I0J-150000D01*
G01*
G37*
G36*
G01*
X46941000Y-133421000D02*
X46941000Y-133721000D01*
G75*
G02*
X46791000Y-133871000I-150000J0D01*
G01*
X45341000Y-133871000D01*
G75*
G02*
X45191000Y-133721000I0J150000D01*
G01*
X45191000Y-133421000D01*
G75*
G02*
X45341000Y-133271000I150000J0D01*
G01*
X46791000Y-133271000D01*
G75*
G02*
X46941000Y-133421000I0J-150000D01*
G01*
G37*
G36*
G01*
X55822000Y-107851000D02*
X54922000Y-107851000D01*
G75*
G02*
X54672000Y-107601000I0J250000D01*
G01*
X54672000Y-107076000D01*
G75*
G02*
X54922000Y-106826000I250000J0D01*
G01*
X55822000Y-106826000D01*
G75*
G02*
X56072000Y-107076000I0J-250000D01*
G01*
X56072000Y-107601000D01*
G75*
G02*
X55822000Y-107851000I-250000J0D01*
G01*
G37*
G36*
G01*
X55822000Y-106026000D02*
X54922000Y-106026000D01*
G75*
G02*
X54672000Y-105776000I0J250000D01*
G01*
X54672000Y-105251000D01*
G75*
G02*
X54922000Y-105001000I250000J0D01*
G01*
X55822000Y-105001000D01*
G75*
G02*
X56072000Y-105251000I0J-250000D01*
G01*
X56072000Y-105776000D01*
G75*
G02*
X55822000Y-106026000I-250000J0D01*
G01*
G37*
X28994100Y-138470000D03*
X28994100Y-140970000D03*
X28994100Y-143470000D03*
X34505900Y-138470000D03*
X34505900Y-140970000D03*
X34505900Y-143470000D03*
G36*
G01*
X41120000Y-172281000D02*
X41120000Y-171381000D01*
G75*
G02*
X41370000Y-171131000I250000J0D01*
G01*
X41895000Y-171131000D01*
G75*
G02*
X42145000Y-171381000I0J-250000D01*
G01*
X42145000Y-172281000D01*
G75*
G02*
X41895000Y-172531000I-250000J0D01*
G01*
X41370000Y-172531000D01*
G75*
G02*
X41120000Y-172281000I0J250000D01*
G01*
G37*
G36*
G01*
X42945000Y-172281000D02*
X42945000Y-171381000D01*
G75*
G02*
X43195000Y-171131000I250000J0D01*
G01*
X43720000Y-171131000D01*
G75*
G02*
X43970000Y-171381000I0J-250000D01*
G01*
X43970000Y-172281000D01*
G75*
G02*
X43720000Y-172531000I-250000J0D01*
G01*
X43195000Y-172531000D01*
G75*
G02*
X42945000Y-172281000I0J250000D01*
G01*
G37*
D12*
X30861000Y-173367700D03*
X30861000Y-168770300D03*
G36*
G01*
X64290000Y-137973750D02*
X64290000Y-138886250D01*
G75*
G02*
X64046250Y-139130000I-243750J0D01*
G01*
X63558750Y-139130000D01*
G75*
G02*
X63315000Y-138886250I0J243750D01*
G01*
X63315000Y-137973750D01*
G75*
G02*
X63558750Y-137730000I243750J0D01*
G01*
X64046250Y-137730000D01*
G75*
G02*
X64290000Y-137973750I0J-243750D01*
G01*
G37*
G36*
G01*
X62415000Y-137973750D02*
X62415000Y-138886250D01*
G75*
G02*
X62171250Y-139130000I-243750J0D01*
G01*
X61683750Y-139130000D01*
G75*
G02*
X61440000Y-138886250I0J243750D01*
G01*
X61440000Y-137973750D01*
G75*
G02*
X61683750Y-137730000I243750J0D01*
G01*
X62171250Y-137730000D01*
G75*
G02*
X62415000Y-137973750I0J-243750D01*
G01*
G37*
G36*
G01*
X46678000Y-114709000D02*
X45778000Y-114709000D01*
G75*
G02*
X45528000Y-114459000I0J250000D01*
G01*
X45528000Y-113934000D01*
G75*
G02*
X45778000Y-113684000I250000J0D01*
G01*
X46678000Y-113684000D01*
G75*
G02*
X46928000Y-113934000I0J-250000D01*
G01*
X46928000Y-114459000D01*
G75*
G02*
X46678000Y-114709000I-250000J0D01*
G01*
G37*
G36*
G01*
X46678000Y-112884000D02*
X45778000Y-112884000D01*
G75*
G02*
X45528000Y-112634000I0J250000D01*
G01*
X45528000Y-112109000D01*
G75*
G02*
X45778000Y-111859000I250000J0D01*
G01*
X46678000Y-111859000D01*
G75*
G02*
X46928000Y-112109000I0J-250000D01*
G01*
X46928000Y-112634000D01*
G75*
G02*
X46678000Y-112884000I-250000J0D01*
G01*
G37*
G36*
G01*
X46696750Y-121543500D02*
X45796750Y-121543500D01*
G75*
G02*
X45546750Y-121293500I0J250000D01*
G01*
X45546750Y-120768500D01*
G75*
G02*
X45796750Y-120518500I250000J0D01*
G01*
X46696750Y-120518500D01*
G75*
G02*
X46946750Y-120768500I0J-250000D01*
G01*
X46946750Y-121293500D01*
G75*
G02*
X46696750Y-121543500I-250000J0D01*
G01*
G37*
G36*
G01*
X46696750Y-119718500D02*
X45796750Y-119718500D01*
G75*
G02*
X45546750Y-119468500I0J250000D01*
G01*
X45546750Y-118943500D01*
G75*
G02*
X45796750Y-118693500I250000J0D01*
G01*
X46696750Y-118693500D01*
G75*
G02*
X46946750Y-118943500I0J-250000D01*
G01*
X46946750Y-119468500D01*
G75*
G02*
X46696750Y-119718500I-250000J0D01*
G01*
G37*
D13*
X32384000Y-165481000D03*
X29084000Y-165481000D03*
G36*
G01*
X40160000Y-151943750D02*
X40160000Y-152856250D01*
G75*
G02*
X39916250Y-153100000I-243750J0D01*
G01*
X39428750Y-153100000D01*
G75*
G02*
X39185000Y-152856250I0J243750D01*
G01*
X39185000Y-151943750D01*
G75*
G02*
X39428750Y-151700000I243750J0D01*
G01*
X39916250Y-151700000D01*
G75*
G02*
X40160000Y-151943750I0J-243750D01*
G01*
G37*
G36*
G01*
X38285000Y-151943750D02*
X38285000Y-152856250D01*
G75*
G02*
X38041250Y-153100000I-243750J0D01*
G01*
X37553750Y-153100000D01*
G75*
G02*
X37310000Y-152856250I0J243750D01*
G01*
X37310000Y-151943750D01*
G75*
G02*
X37553750Y-151700000I243750J0D01*
G01*
X38041250Y-151700000D01*
G75*
G02*
X38285000Y-151943750I0J-243750D01*
G01*
G37*
G36*
G01*
X42614000Y-168938000D02*
X41714000Y-168938000D01*
G75*
G02*
X41464000Y-168688000I0J250000D01*
G01*
X41464000Y-168163000D01*
G75*
G02*
X41714000Y-167913000I250000J0D01*
G01*
X42614000Y-167913000D01*
G75*
G02*
X42864000Y-168163000I0J-250000D01*
G01*
X42864000Y-168688000D01*
G75*
G02*
X42614000Y-168938000I-250000J0D01*
G01*
G37*
G36*
G01*
X42614000Y-167113000D02*
X41714000Y-167113000D01*
G75*
G02*
X41464000Y-166863000I0J250000D01*
G01*
X41464000Y-166338000D01*
G75*
G02*
X41714000Y-166088000I250000J0D01*
G01*
X42614000Y-166088000D01*
G75*
G02*
X42864000Y-166338000I0J-250000D01*
G01*
X42864000Y-166863000D01*
G75*
G02*
X42614000Y-167113000I-250000J0D01*
G01*
G37*
D14*
X46863000Y-179580000D03*
X46863000Y-182880000D03*
G36*
G01*
X38001000Y-163253000D02*
X38001000Y-164153000D01*
G75*
G02*
X37751000Y-164403000I-250000J0D01*
G01*
X37226000Y-164403000D01*
G75*
G02*
X36976000Y-164153000I0J250000D01*
G01*
X36976000Y-163253000D01*
G75*
G02*
X37226000Y-163003000I250000J0D01*
G01*
X37751000Y-163003000D01*
G75*
G02*
X38001000Y-163253000I0J-250000D01*
G01*
G37*
G36*
G01*
X36176000Y-163253000D02*
X36176000Y-164153000D01*
G75*
G02*
X35926000Y-164403000I-250000J0D01*
G01*
X35401000Y-164403000D01*
G75*
G02*
X35151000Y-164153000I0J250000D01*
G01*
X35151000Y-163253000D01*
G75*
G02*
X35401000Y-163003000I250000J0D01*
G01*
X35926000Y-163003000D01*
G75*
G02*
X36176000Y-163253000I0J-250000D01*
G01*
G37*
G36*
G01*
X47338000Y-177473000D02*
X46388000Y-177473000D01*
G75*
G02*
X46138000Y-177223000I0J250000D01*
G01*
X46138000Y-176723000D01*
G75*
G02*
X46388000Y-176473000I250000J0D01*
G01*
X47338000Y-176473000D01*
G75*
G02*
X47588000Y-176723000I0J-250000D01*
G01*
X47588000Y-177223000D01*
G75*
G02*
X47338000Y-177473000I-250000J0D01*
G01*
G37*
G36*
G01*
X47338000Y-175573000D02*
X46388000Y-175573000D01*
G75*
G02*
X46138000Y-175323000I0J250000D01*
G01*
X46138000Y-174823000D01*
G75*
G02*
X46388000Y-174573000I250000J0D01*
G01*
X47338000Y-174573000D01*
G75*
G02*
X47588000Y-174823000I0J-250000D01*
G01*
X47588000Y-175323000D01*
G75*
G02*
X47338000Y-175573000I-250000J0D01*
G01*
G37*
G36*
G01*
X59972000Y-178493000D02*
X59972000Y-179393000D01*
G75*
G02*
X59722000Y-179643000I-250000J0D01*
G01*
X59197000Y-179643000D01*
G75*
G02*
X58947000Y-179393000I0J250000D01*
G01*
X58947000Y-178493000D01*
G75*
G02*
X59197000Y-178243000I250000J0D01*
G01*
X59722000Y-178243000D01*
G75*
G02*
X59972000Y-178493000I0J-250000D01*
G01*
G37*
G36*
G01*
X58147000Y-178493000D02*
X58147000Y-179393000D01*
G75*
G02*
X57897000Y-179643000I-250000J0D01*
G01*
X57372000Y-179643000D01*
G75*
G02*
X57122000Y-179393000I0J250000D01*
G01*
X57122000Y-178493000D01*
G75*
G02*
X57372000Y-178243000I250000J0D01*
G01*
X57897000Y-178243000D01*
G75*
G02*
X58147000Y-178493000I0J-250000D01*
G01*
G37*
G36*
G01*
X59995500Y-181287000D02*
X59995500Y-182187000D01*
G75*
G02*
X59745500Y-182437000I-250000J0D01*
G01*
X59220500Y-182437000D01*
G75*
G02*
X58970500Y-182187000I0J250000D01*
G01*
X58970500Y-181287000D01*
G75*
G02*
X59220500Y-181037000I250000J0D01*
G01*
X59745500Y-181037000D01*
G75*
G02*
X59995500Y-181287000I0J-250000D01*
G01*
G37*
G36*
G01*
X58170500Y-181287000D02*
X58170500Y-182187000D01*
G75*
G02*
X57920500Y-182437000I-250000J0D01*
G01*
X57395500Y-182437000D01*
G75*
G02*
X57145500Y-182187000I0J250000D01*
G01*
X57145500Y-181287000D01*
G75*
G02*
X57395500Y-181037000I250000J0D01*
G01*
X57920500Y-181037000D01*
G75*
G02*
X58170500Y-181287000I0J-250000D01*
G01*
G37*
G36*
G01*
X61440000Y-155390000D02*
X61440000Y-154490000D01*
G75*
G02*
X61690000Y-154240000I250000J0D01*
G01*
X62215000Y-154240000D01*
G75*
G02*
X62465000Y-154490000I0J-250000D01*
G01*
X62465000Y-155390000D01*
G75*
G02*
X62215000Y-155640000I-250000J0D01*
G01*
X61690000Y-155640000D01*
G75*
G02*
X61440000Y-155390000I0J250000D01*
G01*
G37*
G36*
G01*
X63265000Y-155390000D02*
X63265000Y-154490000D01*
G75*
G02*
X63515000Y-154240000I250000J0D01*
G01*
X64040000Y-154240000D01*
G75*
G02*
X64290000Y-154490000I0J-250000D01*
G01*
X64290000Y-155390000D01*
G75*
G02*
X64040000Y-155640000I-250000J0D01*
G01*
X63515000Y-155640000D01*
G75*
G02*
X63265000Y-155390000I0J250000D01*
G01*
G37*
G36*
G01*
X53536000Y-107851000D02*
X52636000Y-107851000D01*
G75*
G02*
X52386000Y-107601000I0J250000D01*
G01*
X52386000Y-107076000D01*
G75*
G02*
X52636000Y-106826000I250000J0D01*
G01*
X53536000Y-106826000D01*
G75*
G02*
X53786000Y-107076000I0J-250000D01*
G01*
X53786000Y-107601000D01*
G75*
G02*
X53536000Y-107851000I-250000J0D01*
G01*
G37*
G36*
G01*
X53536000Y-106026000D02*
X52636000Y-106026000D01*
G75*
G02*
X52386000Y-105776000I0J250000D01*
G01*
X52386000Y-105251000D01*
G75*
G02*
X52636000Y-105001000I250000J0D01*
G01*
X53536000Y-105001000D01*
G75*
G02*
X53786000Y-105251000I0J-250000D01*
G01*
X53786000Y-105776000D01*
G75*
G02*
X53536000Y-106026000I-250000J0D01*
G01*
G37*
G36*
G01*
X35207000Y-129217000D02*
X35207000Y-130117000D01*
G75*
G02*
X34957000Y-130367000I-250000J0D01*
G01*
X34432000Y-130367000D01*
G75*
G02*
X34182000Y-130117000I0J250000D01*
G01*
X34182000Y-129217000D01*
G75*
G02*
X34432000Y-128967000I250000J0D01*
G01*
X34957000Y-128967000D01*
G75*
G02*
X35207000Y-129217000I0J-250000D01*
G01*
G37*
G36*
G01*
X33382000Y-129217000D02*
X33382000Y-130117000D01*
G75*
G02*
X33132000Y-130367000I-250000J0D01*
G01*
X32607000Y-130367000D01*
G75*
G02*
X32357000Y-130117000I0J250000D01*
G01*
X32357000Y-129217000D01*
G75*
G02*
X32607000Y-128967000I250000J0D01*
G01*
X33132000Y-128967000D01*
G75*
G02*
X33382000Y-129217000I0J-250000D01*
G01*
G37*
G36*
G01*
X53561000Y-114734000D02*
X52611000Y-114734000D01*
G75*
G02*
X52361000Y-114484000I0J250000D01*
G01*
X52361000Y-113984000D01*
G75*
G02*
X52611000Y-113734000I250000J0D01*
G01*
X53561000Y-113734000D01*
G75*
G02*
X53811000Y-113984000I0J-250000D01*
G01*
X53811000Y-114484000D01*
G75*
G02*
X53561000Y-114734000I-250000J0D01*
G01*
G37*
G36*
G01*
X53561000Y-112834000D02*
X52611000Y-112834000D01*
G75*
G02*
X52361000Y-112584000I0J250000D01*
G01*
X52361000Y-112084000D01*
G75*
G02*
X52611000Y-111834000I250000J0D01*
G01*
X53561000Y-111834000D01*
G75*
G02*
X53811000Y-112084000I0J-250000D01*
G01*
X53811000Y-112584000D01*
G75*
G02*
X53561000Y-112834000I-250000J0D01*
G01*
G37*
G36*
G01*
X40160000Y-140520000D02*
X40160000Y-141420000D01*
G75*
G02*
X39910000Y-141670000I-250000J0D01*
G01*
X39385000Y-141670000D01*
G75*
G02*
X39135000Y-141420000I0J250000D01*
G01*
X39135000Y-140520000D01*
G75*
G02*
X39385000Y-140270000I250000J0D01*
G01*
X39910000Y-140270000D01*
G75*
G02*
X40160000Y-140520000I0J-250000D01*
G01*
G37*
G36*
G01*
X38335000Y-140520000D02*
X38335000Y-141420000D01*
G75*
G02*
X38085000Y-141670000I-250000J0D01*
G01*
X37560000Y-141670000D01*
G75*
G02*
X37310000Y-141420000I0J250000D01*
G01*
X37310000Y-140520000D01*
G75*
G02*
X37560000Y-140270000I250000J0D01*
G01*
X38085000Y-140270000D01*
G75*
G02*
X38335000Y-140520000I0J-250000D01*
G01*
G37*
D11*
X28994100Y-152440000D03*
X28994100Y-154940000D03*
X28994100Y-157440000D03*
X34505900Y-152440000D03*
X34505900Y-154940000D03*
X34505900Y-157440000D03*
X67094100Y-152440000D03*
X67094100Y-154940000D03*
X67094100Y-157440000D03*
X72605900Y-152440000D03*
X72605900Y-154940000D03*
X72605900Y-157440000D03*
G36*
G01*
X40160000Y-137973750D02*
X40160000Y-138886250D01*
G75*
G02*
X39916250Y-139130000I-243750J0D01*
G01*
X39428750Y-139130000D01*
G75*
G02*
X39185000Y-138886250I0J243750D01*
G01*
X39185000Y-137973750D01*
G75*
G02*
X39428750Y-137730000I243750J0D01*
G01*
X39916250Y-137730000D01*
G75*
G02*
X40160000Y-137973750I0J-243750D01*
G01*
G37*
G36*
G01*
X38285000Y-137973750D02*
X38285000Y-138886250D01*
G75*
G02*
X38041250Y-139130000I-243750J0D01*
G01*
X37553750Y-139130000D01*
G75*
G02*
X37310000Y-138886250I0J243750D01*
G01*
X37310000Y-137973750D01*
G75*
G02*
X37553750Y-137730000I243750J0D01*
G01*
X38041250Y-137730000D01*
G75*
G02*
X38285000Y-137973750I0J-243750D01*
G01*
G37*
G36*
G01*
X40328000Y-166017000D02*
X39428000Y-166017000D01*
G75*
G02*
X39178000Y-165767000I0J250000D01*
G01*
X39178000Y-165242000D01*
G75*
G02*
X39428000Y-164992000I250000J0D01*
G01*
X40328000Y-164992000D01*
G75*
G02*
X40578000Y-165242000I0J-250000D01*
G01*
X40578000Y-165767000D01*
G75*
G02*
X40328000Y-166017000I-250000J0D01*
G01*
G37*
G36*
G01*
X40328000Y-164192000D02*
X39428000Y-164192000D01*
G75*
G02*
X39178000Y-163942000I0J250000D01*
G01*
X39178000Y-163417000D01*
G75*
G02*
X39428000Y-163167000I250000J0D01*
G01*
X40328000Y-163167000D01*
G75*
G02*
X40578000Y-163417000I0J-250000D01*
G01*
X40578000Y-163942000D01*
G75*
G02*
X40328000Y-164192000I-250000J0D01*
G01*
G37*
D15*
X38976300Y-180722000D03*
X43573700Y-180722000D03*
G36*
G01*
X49121000Y-174694000D02*
X49121000Y-173794000D01*
G75*
G02*
X49371000Y-173544000I250000J0D01*
G01*
X49896000Y-173544000D01*
G75*
G02*
X50146000Y-173794000I0J-250000D01*
G01*
X50146000Y-174694000D01*
G75*
G02*
X49896000Y-174944000I-250000J0D01*
G01*
X49371000Y-174944000D01*
G75*
G02*
X49121000Y-174694000I0J250000D01*
G01*
G37*
G36*
G01*
X50946000Y-174694000D02*
X50946000Y-173794000D01*
G75*
G02*
X51196000Y-173544000I250000J0D01*
G01*
X51721000Y-173544000D01*
G75*
G02*
X51971000Y-173794000I0J-250000D01*
G01*
X51971000Y-174694000D01*
G75*
G02*
X51721000Y-174944000I-250000J0D01*
G01*
X51196000Y-174944000D01*
G75*
G02*
X50946000Y-174694000I0J250000D01*
G01*
G37*
D11*
X67094100Y-138470000D03*
X67094100Y-140970000D03*
X67094100Y-143470000D03*
X72605900Y-138470000D03*
X72605900Y-140970000D03*
X72605900Y-143470000D03*
G36*
G01*
X57122000Y-185997000D02*
X57122000Y-185097000D01*
G75*
G02*
X57372000Y-184847000I250000J0D01*
G01*
X57897000Y-184847000D01*
G75*
G02*
X58147000Y-185097000I0J-250000D01*
G01*
X58147000Y-185997000D01*
G75*
G02*
X57897000Y-186247000I-250000J0D01*
G01*
X57372000Y-186247000D01*
G75*
G02*
X57122000Y-185997000I0J250000D01*
G01*
G37*
G36*
G01*
X58947000Y-185997000D02*
X58947000Y-185097000D01*
G75*
G02*
X59197000Y-184847000I250000J0D01*
G01*
X59722000Y-184847000D01*
G75*
G02*
X59972000Y-185097000I0J-250000D01*
G01*
X59972000Y-185997000D01*
G75*
G02*
X59722000Y-186247000I-250000J0D01*
G01*
X59197000Y-186247000D01*
G75*
G02*
X58947000Y-185997000I0J250000D01*
G01*
G37*
X48044100Y-160441000D03*
X48044100Y-162941000D03*
X48044100Y-165441000D03*
X53555900Y-160441000D03*
X53555900Y-162941000D03*
X53555900Y-165441000D03*
G36*
G01*
X36523000Y-130142000D02*
X36523000Y-129192000D01*
G75*
G02*
X36773000Y-128942000I250000J0D01*
G01*
X37273000Y-128942000D01*
G75*
G02*
X37523000Y-129192000I0J-250000D01*
G01*
X37523000Y-130142000D01*
G75*
G02*
X37273000Y-130392000I-250000J0D01*
G01*
X36773000Y-130392000D01*
G75*
G02*
X36523000Y-130142000I0J250000D01*
G01*
G37*
G36*
G01*
X38423000Y-130142000D02*
X38423000Y-129192000D01*
G75*
G02*
X38673000Y-128942000I250000J0D01*
G01*
X39173000Y-128942000D01*
G75*
G02*
X39423000Y-129192000I0J-250000D01*
G01*
X39423000Y-130142000D01*
G75*
G02*
X39173000Y-130392000I-250000J0D01*
G01*
X38673000Y-130392000D01*
G75*
G02*
X38423000Y-130142000I0J250000D01*
G01*
G37*
G36*
G01*
X50493000Y-150429000D02*
X50493000Y-149479000D01*
G75*
G02*
X50743000Y-149229000I250000J0D01*
G01*
X51243000Y-149229000D01*
G75*
G02*
X51493000Y-149479000I0J-250000D01*
G01*
X51493000Y-150429000D01*
G75*
G02*
X51243000Y-150679000I-250000J0D01*
G01*
X50743000Y-150679000D01*
G75*
G02*
X50493000Y-150429000I0J250000D01*
G01*
G37*
G36*
G01*
X52393000Y-150429000D02*
X52393000Y-149479000D01*
G75*
G02*
X52643000Y-149229000I250000J0D01*
G01*
X53143000Y-149229000D01*
G75*
G02*
X53393000Y-149479000I0J-250000D01*
G01*
X53393000Y-150429000D01*
G75*
G02*
X53143000Y-150679000I-250000J0D01*
G01*
X52643000Y-150679000D01*
G75*
G02*
X52393000Y-150429000I0J250000D01*
G01*
G37*
G36*
G01*
X44345000Y-175934000D02*
X44345000Y-176234000D01*
G75*
G02*
X44195000Y-176384000I-150000J0D01*
G01*
X43170000Y-176384000D01*
G75*
G02*
X43020000Y-176234000I0J150000D01*
G01*
X43020000Y-175934000D01*
G75*
G02*
X43170000Y-175784000I150000J0D01*
G01*
X44195000Y-175784000D01*
G75*
G02*
X44345000Y-175934000I0J-150000D01*
G01*
G37*
G36*
G01*
X44345000Y-174984000D02*
X44345000Y-175284000D01*
G75*
G02*
X44195000Y-175434000I-150000J0D01*
G01*
X43170000Y-175434000D01*
G75*
G02*
X43020000Y-175284000I0J150000D01*
G01*
X43020000Y-174984000D01*
G75*
G02*
X43170000Y-174834000I150000J0D01*
G01*
X44195000Y-174834000D01*
G75*
G02*
X44345000Y-174984000I0J-150000D01*
G01*
G37*
G36*
G01*
X44345000Y-174034000D02*
X44345000Y-174334000D01*
G75*
G02*
X44195000Y-174484000I-150000J0D01*
G01*
X43170000Y-174484000D01*
G75*
G02*
X43020000Y-174334000I0J150000D01*
G01*
X43020000Y-174034000D01*
G75*
G02*
X43170000Y-173884000I150000J0D01*
G01*
X44195000Y-173884000D01*
G75*
G02*
X44345000Y-174034000I0J-150000D01*
G01*
G37*
G36*
G01*
X42070000Y-174034000D02*
X42070000Y-174334000D01*
G75*
G02*
X41920000Y-174484000I-150000J0D01*
G01*
X40895000Y-174484000D01*
G75*
G02*
X40745000Y-174334000I0J150000D01*
G01*
X40745000Y-174034000D01*
G75*
G02*
X40895000Y-173884000I150000J0D01*
G01*
X41920000Y-173884000D01*
G75*
G02*
X42070000Y-174034000I0J-150000D01*
G01*
G37*
G36*
G01*
X42070000Y-175934000D02*
X42070000Y-176234000D01*
G75*
G02*
X41920000Y-176384000I-150000J0D01*
G01*
X40895000Y-176384000D01*
G75*
G02*
X40745000Y-176234000I0J150000D01*
G01*
X40745000Y-175934000D01*
G75*
G02*
X40895000Y-175784000I150000J0D01*
G01*
X41920000Y-175784000D01*
G75*
G02*
X42070000Y-175934000I0J-150000D01*
G01*
G37*
G36*
G01*
X54176000Y-143444000D02*
X54176000Y-142494000D01*
G75*
G02*
X54426000Y-142244000I250000J0D01*
G01*
X54926000Y-142244000D01*
G75*
G02*
X55176000Y-142494000I0J-250000D01*
G01*
X55176000Y-143444000D01*
G75*
G02*
X54926000Y-143694000I-250000J0D01*
G01*
X54426000Y-143694000D01*
G75*
G02*
X54176000Y-143444000I0J250000D01*
G01*
G37*
G36*
G01*
X56076000Y-143444000D02*
X56076000Y-142494000D01*
G75*
G02*
X56326000Y-142244000I250000J0D01*
G01*
X56826000Y-142244000D01*
G75*
G02*
X57076000Y-142494000I0J-250000D01*
G01*
X57076000Y-143444000D01*
G75*
G02*
X56826000Y-143694000I-250000J0D01*
G01*
X56326000Y-143694000D01*
G75*
G02*
X56076000Y-143444000I0J250000D01*
G01*
G37*
G36*
G01*
X48964000Y-107851000D02*
X48064000Y-107851000D01*
G75*
G02*
X47814000Y-107601000I0J250000D01*
G01*
X47814000Y-107076000D01*
G75*
G02*
X48064000Y-106826000I250000J0D01*
G01*
X48964000Y-106826000D01*
G75*
G02*
X49214000Y-107076000I0J-250000D01*
G01*
X49214000Y-107601000D01*
G75*
G02*
X48964000Y-107851000I-250000J0D01*
G01*
G37*
G36*
G01*
X48964000Y-106026000D02*
X48064000Y-106026000D01*
G75*
G02*
X47814000Y-105776000I0J250000D01*
G01*
X47814000Y-105251000D01*
G75*
G02*
X48064000Y-105001000I250000J0D01*
G01*
X48964000Y-105001000D01*
G75*
G02*
X49214000Y-105251000I0J-250000D01*
G01*
X49214000Y-105776000D01*
G75*
G02*
X48964000Y-106026000I-250000J0D01*
G01*
G37*
G36*
G01*
X49121000Y-177234000D02*
X49121000Y-176334000D01*
G75*
G02*
X49371000Y-176084000I250000J0D01*
G01*
X49896000Y-176084000D01*
G75*
G02*
X50146000Y-176334000I0J-250000D01*
G01*
X50146000Y-177234000D01*
G75*
G02*
X49896000Y-177484000I-250000J0D01*
G01*
X49371000Y-177484000D01*
G75*
G02*
X49121000Y-177234000I0J250000D01*
G01*
G37*
G36*
G01*
X50946000Y-177234000D02*
X50946000Y-176334000D01*
G75*
G02*
X51196000Y-176084000I250000J0D01*
G01*
X51721000Y-176084000D01*
G75*
G02*
X51971000Y-176334000I0J-250000D01*
G01*
X51971000Y-177234000D01*
G75*
G02*
X51721000Y-177484000I-250000J0D01*
G01*
X51196000Y-177484000D01*
G75*
G02*
X50946000Y-177234000I0J250000D01*
G01*
G37*
G36*
G01*
X58956000Y-162364000D02*
X58956000Y-163264000D01*
G75*
G02*
X58706000Y-163514000I-250000J0D01*
G01*
X58181000Y-163514000D01*
G75*
G02*
X57931000Y-163264000I0J250000D01*
G01*
X57931000Y-162364000D01*
G75*
G02*
X58181000Y-162114000I250000J0D01*
G01*
X58706000Y-162114000D01*
G75*
G02*
X58956000Y-162364000I0J-250000D01*
G01*
G37*
G36*
G01*
X57131000Y-162364000D02*
X57131000Y-163264000D01*
G75*
G02*
X56881000Y-163514000I-250000J0D01*
G01*
X56356000Y-163514000D01*
G75*
G02*
X56106000Y-163264000I0J250000D01*
G01*
X56106000Y-162364000D01*
G75*
G02*
X56356000Y-162114000I250000J0D01*
G01*
X56881000Y-162114000D01*
G75*
G02*
X57131000Y-162364000I0J-250000D01*
G01*
G37*
G36*
G01*
X64290000Y-169342750D02*
X64290000Y-170255250D01*
G75*
G02*
X64046250Y-170499000I-243750J0D01*
G01*
X63558750Y-170499000D01*
G75*
G02*
X63315000Y-170255250I0J243750D01*
G01*
X63315000Y-169342750D01*
G75*
G02*
X63558750Y-169099000I243750J0D01*
G01*
X64046250Y-169099000D01*
G75*
G02*
X64290000Y-169342750I0J-243750D01*
G01*
G37*
G36*
G01*
X62415000Y-169342750D02*
X62415000Y-170255250D01*
G75*
G02*
X62171250Y-170499000I-243750J0D01*
G01*
X61683750Y-170499000D01*
G75*
G02*
X61440000Y-170255250I0J243750D01*
G01*
X61440000Y-169342750D01*
G75*
G02*
X61683750Y-169099000I243750J0D01*
G01*
X62171250Y-169099000D01*
G75*
G02*
X62415000Y-169342750I0J-243750D01*
G01*
G37*
G36*
G01*
X44224000Y-186233750D02*
X44224000Y-187146250D01*
G75*
G02*
X43980250Y-187390000I-243750J0D01*
G01*
X43492750Y-187390000D01*
G75*
G02*
X43249000Y-187146250I0J243750D01*
G01*
X43249000Y-186233750D01*
G75*
G02*
X43492750Y-185990000I243750J0D01*
G01*
X43980250Y-185990000D01*
G75*
G02*
X44224000Y-186233750I0J-243750D01*
G01*
G37*
G36*
G01*
X42349000Y-186233750D02*
X42349000Y-187146250D01*
G75*
G02*
X42105250Y-187390000I-243750J0D01*
G01*
X41617750Y-187390000D01*
G75*
G02*
X41374000Y-187146250I0J243750D01*
G01*
X41374000Y-186233750D01*
G75*
G02*
X41617750Y-185990000I243750J0D01*
G01*
X42105250Y-185990000D01*
G75*
G02*
X42349000Y-186233750I0J-243750D01*
G01*
G37*
G36*
G01*
X49334000Y-178661000D02*
X50234000Y-178661000D01*
G75*
G02*
X50484000Y-178911000I0J-250000D01*
G01*
X50484000Y-179436000D01*
G75*
G02*
X50234000Y-179686000I-250000J0D01*
G01*
X49334000Y-179686000D01*
G75*
G02*
X49084000Y-179436000I0J250000D01*
G01*
X49084000Y-178911000D01*
G75*
G02*
X49334000Y-178661000I250000J0D01*
G01*
G37*
G36*
G01*
X49334000Y-180486000D02*
X50234000Y-180486000D01*
G75*
G02*
X50484000Y-180736000I0J-250000D01*
G01*
X50484000Y-181261000D01*
G75*
G02*
X50234000Y-181511000I-250000J0D01*
G01*
X49334000Y-181511000D01*
G75*
G02*
X49084000Y-181261000I0J250000D01*
G01*
X49084000Y-180736000D01*
G75*
G02*
X49334000Y-180486000I250000J0D01*
G01*
G37*
X67094100Y-169712000D03*
X67094100Y-172212000D03*
X67094100Y-174712000D03*
X72605900Y-169712000D03*
X72605900Y-172212000D03*
X72605900Y-174712000D03*
G36*
G01*
X61440000Y-141420000D02*
X61440000Y-140520000D01*
G75*
G02*
X61690000Y-140270000I250000J0D01*
G01*
X62215000Y-140270000D01*
G75*
G02*
X62465000Y-140520000I0J-250000D01*
G01*
X62465000Y-141420000D01*
G75*
G02*
X62215000Y-141670000I-250000J0D01*
G01*
X61690000Y-141670000D01*
G75*
G02*
X61440000Y-141420000I0J250000D01*
G01*
G37*
G36*
G01*
X63265000Y-141420000D02*
X63265000Y-140520000D01*
G75*
G02*
X63515000Y-140270000I250000J0D01*
G01*
X64040000Y-140270000D01*
G75*
G02*
X64290000Y-140520000I0J-250000D01*
G01*
X64290000Y-141420000D01*
G75*
G02*
X64040000Y-141670000I-250000J0D01*
G01*
X63515000Y-141670000D01*
G75*
G02*
X63265000Y-141420000I0J250000D01*
G01*
G37*
G36*
G01*
X46678000Y-107851000D02*
X45778000Y-107851000D01*
G75*
G02*
X45528000Y-107601000I0J250000D01*
G01*
X45528000Y-107076000D01*
G75*
G02*
X45778000Y-106826000I250000J0D01*
G01*
X46678000Y-106826000D01*
G75*
G02*
X46928000Y-107076000I0J-250000D01*
G01*
X46928000Y-107601000D01*
G75*
G02*
X46678000Y-107851000I-250000J0D01*
G01*
G37*
G36*
G01*
X46678000Y-106026000D02*
X45778000Y-106026000D01*
G75*
G02*
X45528000Y-105776000I0J250000D01*
G01*
X45528000Y-105251000D01*
G75*
G02*
X45778000Y-105001000I250000J0D01*
G01*
X46678000Y-105001000D01*
G75*
G02*
X46928000Y-105251000I0J-250000D01*
G01*
X46928000Y-105776000D01*
G75*
G02*
X46678000Y-106026000I-250000J0D01*
G01*
G37*
G36*
G01*
X40029000Y-189014000D02*
X40029000Y-189314000D01*
G75*
G02*
X39879000Y-189464000I-150000J0D01*
G01*
X38704000Y-189464000D01*
G75*
G02*
X38554000Y-189314000I0J150000D01*
G01*
X38554000Y-189014000D01*
G75*
G02*
X38704000Y-188864000I150000J0D01*
G01*
X39879000Y-188864000D01*
G75*
G02*
X40029000Y-189014000I0J-150000D01*
G01*
G37*
G36*
G01*
X40029000Y-187114000D02*
X40029000Y-187414000D01*
G75*
G02*
X39879000Y-187564000I-150000J0D01*
G01*
X38704000Y-187564000D01*
G75*
G02*
X38554000Y-187414000I0J150000D01*
G01*
X38554000Y-187114000D01*
G75*
G02*
X38704000Y-186964000I150000J0D01*
G01*
X39879000Y-186964000D01*
G75*
G02*
X40029000Y-187114000I0J-150000D01*
G01*
G37*
G36*
G01*
X38154000Y-188064000D02*
X38154000Y-188364000D01*
G75*
G02*
X38004000Y-188514000I-150000J0D01*
G01*
X36829000Y-188514000D01*
G75*
G02*
X36679000Y-188364000I0J150000D01*
G01*
X36679000Y-188064000D01*
G75*
G02*
X36829000Y-187914000I150000J0D01*
G01*
X38004000Y-187914000D01*
G75*
G02*
X38154000Y-188064000I0J-150000D01*
G01*
G37*
G36*
G01*
X35207000Y-126804000D02*
X35207000Y-127704000D01*
G75*
G02*
X34957000Y-127954000I-250000J0D01*
G01*
X34432000Y-127954000D01*
G75*
G02*
X34182000Y-127704000I0J250000D01*
G01*
X34182000Y-126804000D01*
G75*
G02*
X34432000Y-126554000I250000J0D01*
G01*
X34957000Y-126554000D01*
G75*
G02*
X35207000Y-126804000I0J-250000D01*
G01*
G37*
G36*
G01*
X33382000Y-126804000D02*
X33382000Y-127704000D01*
G75*
G02*
X33132000Y-127954000I-250000J0D01*
G01*
X32607000Y-127954000D01*
G75*
G02*
X32357000Y-127704000I0J250000D01*
G01*
X32357000Y-126804000D01*
G75*
G02*
X32607000Y-126554000I250000J0D01*
G01*
X33132000Y-126554000D01*
G75*
G02*
X33382000Y-126804000I0J-250000D01*
G01*
G37*
G36*
G01*
X59972000Y-175826000D02*
X59972000Y-176726000D01*
G75*
G02*
X59722000Y-176976000I-250000J0D01*
G01*
X59197000Y-176976000D01*
G75*
G02*
X58947000Y-176726000I0J250000D01*
G01*
X58947000Y-175826000D01*
G75*
G02*
X59197000Y-175576000I250000J0D01*
G01*
X59722000Y-175576000D01*
G75*
G02*
X59972000Y-175826000I0J-250000D01*
G01*
G37*
G36*
G01*
X58147000Y-175826000D02*
X58147000Y-176726000D01*
G75*
G02*
X57897000Y-176976000I-250000J0D01*
G01*
X57372000Y-176976000D01*
G75*
G02*
X57122000Y-176726000I0J250000D01*
G01*
X57122000Y-175826000D01*
G75*
G02*
X57372000Y-175576000I250000J0D01*
G01*
X57897000Y-175576000D01*
G75*
G02*
X58147000Y-175826000I0J-250000D01*
G01*
G37*
G36*
G01*
X48989000Y-114734000D02*
X48039000Y-114734000D01*
G75*
G02*
X47789000Y-114484000I0J250000D01*
G01*
X47789000Y-113984000D01*
G75*
G02*
X48039000Y-113734000I250000J0D01*
G01*
X48989000Y-113734000D01*
G75*
G02*
X49239000Y-113984000I0J-250000D01*
G01*
X49239000Y-114484000D01*
G75*
G02*
X48989000Y-114734000I-250000J0D01*
G01*
G37*
G36*
G01*
X48989000Y-112834000D02*
X48039000Y-112834000D01*
G75*
G02*
X47789000Y-112584000I0J250000D01*
G01*
X47789000Y-112084000D01*
G75*
G02*
X48039000Y-111834000I250000J0D01*
G01*
X48989000Y-111834000D01*
G75*
G02*
X49239000Y-112084000I0J-250000D01*
G01*
X49239000Y-112584000D01*
G75*
G02*
X48989000Y-112834000I-250000J0D01*
G01*
G37*
G36*
G01*
X37178000Y-176964000D02*
X36228000Y-176964000D01*
G75*
G02*
X35978000Y-176714000I0J250000D01*
G01*
X35978000Y-176214000D01*
G75*
G02*
X36228000Y-175964000I250000J0D01*
G01*
X37178000Y-175964000D01*
G75*
G02*
X37428000Y-176214000I0J-250000D01*
G01*
X37428000Y-176714000D01*
G75*
G02*
X37178000Y-176964000I-250000J0D01*
G01*
G37*
G36*
G01*
X37178000Y-175064000D02*
X36228000Y-175064000D01*
G75*
G02*
X35978000Y-174814000I0J250000D01*
G01*
X35978000Y-174314000D01*
G75*
G02*
X36228000Y-174064000I250000J0D01*
G01*
X37178000Y-174064000D01*
G75*
G02*
X37428000Y-174314000I0J-250000D01*
G01*
X37428000Y-174814000D01*
G75*
G02*
X37178000Y-175064000I-250000J0D01*
G01*
G37*
G36*
G01*
X51250000Y-107851000D02*
X50350000Y-107851000D01*
G75*
G02*
X50100000Y-107601000I0J250000D01*
G01*
X50100000Y-107076000D01*
G75*
G02*
X50350000Y-106826000I250000J0D01*
G01*
X51250000Y-106826000D01*
G75*
G02*
X51500000Y-107076000I0J-250000D01*
G01*
X51500000Y-107601000D01*
G75*
G02*
X51250000Y-107851000I-250000J0D01*
G01*
G37*
G36*
G01*
X51250000Y-106026000D02*
X50350000Y-106026000D01*
G75*
G02*
X50100000Y-105776000I0J250000D01*
G01*
X50100000Y-105251000D01*
G75*
G02*
X50350000Y-105001000I250000J0D01*
G01*
X51250000Y-105001000D01*
G75*
G02*
X51500000Y-105251000I0J-250000D01*
G01*
X51500000Y-105776000D01*
G75*
G02*
X51250000Y-106026000I-250000J0D01*
G01*
G37*
G36*
G01*
X40160000Y-154490000D02*
X40160000Y-155390000D01*
G75*
G02*
X39910000Y-155640000I-250000J0D01*
G01*
X39385000Y-155640000D01*
G75*
G02*
X39135000Y-155390000I0J250000D01*
G01*
X39135000Y-154490000D01*
G75*
G02*
X39385000Y-154240000I250000J0D01*
G01*
X39910000Y-154240000D01*
G75*
G02*
X40160000Y-154490000I0J-250000D01*
G01*
G37*
G36*
G01*
X38335000Y-154490000D02*
X38335000Y-155390000D01*
G75*
G02*
X38085000Y-155640000I-250000J0D01*
G01*
X37560000Y-155640000D01*
G75*
G02*
X37310000Y-155390000I0J250000D01*
G01*
X37310000Y-154490000D01*
G75*
G02*
X37560000Y-154240000I250000J0D01*
G01*
X38085000Y-154240000D01*
G75*
G02*
X38335000Y-154490000I0J-250000D01*
G01*
G37*
G36*
G01*
X64290000Y-151943750D02*
X64290000Y-152856250D01*
G75*
G02*
X64046250Y-153100000I-243750J0D01*
G01*
X63558750Y-153100000D01*
G75*
G02*
X63315000Y-152856250I0J243750D01*
G01*
X63315000Y-151943750D01*
G75*
G02*
X63558750Y-151700000I243750J0D01*
G01*
X64046250Y-151700000D01*
G75*
G02*
X64290000Y-151943750I0J-243750D01*
G01*
G37*
G36*
G01*
X62415000Y-151943750D02*
X62415000Y-152856250D01*
G75*
G02*
X62171250Y-153100000I-243750J0D01*
G01*
X61683750Y-153100000D01*
G75*
G02*
X61440000Y-152856250I0J243750D01*
G01*
X61440000Y-151943750D01*
G75*
G02*
X61683750Y-151700000I243750J0D01*
G01*
X62171250Y-151700000D01*
G75*
G02*
X62415000Y-151943750I0J-243750D01*
G01*
G37*
G36*
G01*
X48288000Y-186240000D02*
X48288000Y-187140000D01*
G75*
G02*
X48038000Y-187390000I-250000J0D01*
G01*
X47513000Y-187390000D01*
G75*
G02*
X47263000Y-187140000I0J250000D01*
G01*
X47263000Y-186240000D01*
G75*
G02*
X47513000Y-185990000I250000J0D01*
G01*
X48038000Y-185990000D01*
G75*
G02*
X48288000Y-186240000I0J-250000D01*
G01*
G37*
G36*
G01*
X46463000Y-186240000D02*
X46463000Y-187140000D01*
G75*
G02*
X46213000Y-187390000I-250000J0D01*
G01*
X45688000Y-187390000D01*
G75*
G02*
X45438000Y-187140000I0J250000D01*
G01*
X45438000Y-186240000D01*
G75*
G02*
X45688000Y-185990000I250000J0D01*
G01*
X46213000Y-185990000D01*
G75*
G02*
X46463000Y-186240000I0J-250000D01*
G01*
G37*
G36*
G01*
X36523000Y-127729000D02*
X36523000Y-126779000D01*
G75*
G02*
X36773000Y-126529000I250000J0D01*
G01*
X37273000Y-126529000D01*
G75*
G02*
X37523000Y-126779000I0J-250000D01*
G01*
X37523000Y-127729000D01*
G75*
G02*
X37273000Y-127979000I-250000J0D01*
G01*
X36773000Y-127979000D01*
G75*
G02*
X36523000Y-127729000I0J250000D01*
G01*
G37*
G36*
G01*
X38423000Y-127729000D02*
X38423000Y-126779000D01*
G75*
G02*
X38673000Y-126529000I250000J0D01*
G01*
X39173000Y-126529000D01*
G75*
G02*
X39423000Y-126779000I0J-250000D01*
G01*
X39423000Y-127729000D01*
G75*
G02*
X39173000Y-127979000I-250000J0D01*
G01*
X38673000Y-127979000D01*
G75*
G02*
X38423000Y-127729000I0J250000D01*
G01*
G37*
M02*
