G04 start of page 3 for group 1 idx 1 *
G04 Title: (unknown), solder *
G04 Creator: pcb 20140316 *
G04 CreationDate: Wed 08 Jun 2016 07:53:43 PM GMT UTC *
G04 For: ndholmes *
G04 Format: Gerber/RS-274X *
G04 PCB-Dimensions (mil): 1900.00 3250.00 *
G04 PCB-Coordinate-Origin: lower left *
%MOIN*%
%FSLAX25Y25*%
%LNBOTTOM*%
%ADD41C,0.0480*%
%ADD40C,0.1280*%
%ADD39C,0.0300*%
%ADD38C,0.0200*%
%ADD37C,0.0800*%
%ADD36C,0.1440*%
%ADD35C,0.0700*%
%ADD34C,0.0100*%
%ADD33C,0.0400*%
%ADD32C,0.0250*%
%ADD31C,0.0001*%
G54D31*G36*
X56495Y289307D02*X56647Y289271D01*
X57000Y289250D01*
X59985D01*
X60016Y289191D01*
X60064Y289128D01*
X60120Y289073D01*
X60184Y289028D01*
X60255Y288993D01*
X60330Y288970D01*
X60408Y288959D01*
X60487Y288960D01*
X60564Y288973D01*
X60639Y288999D01*
X60708Y289035D01*
X60771Y289083D01*
X60826Y289139D01*
X60870Y289204D01*
X60895Y289250D01*
X63431D01*
X63348Y289153D01*
X62978Y288549D01*
X62707Y287895D01*
X62542Y287206D01*
X62486Y286500D01*
X62542Y285794D01*
X62707Y285105D01*
X62978Y284451D01*
X63348Y283847D01*
X63431Y283750D01*
X60899D01*
X60652Y284153D01*
X60192Y284692D01*
X59653Y285152D01*
X59049Y285522D01*
X58395Y285793D01*
X57706Y285958D01*
X57000Y286014D01*
X56495Y285974D01*
Y287027D01*
X56599Y287013D01*
X57000Y286996D01*
X57401Y287013D01*
X57800Y287067D01*
X58191Y287156D01*
X58574Y287279D01*
X58944Y287436D01*
X59298Y287626D01*
X59363Y287671D01*
X59420Y287726D01*
X59468Y287790D01*
X59504Y287860D01*
X59530Y287935D01*
X59544Y288013D01*
X59545Y288092D01*
X59533Y288171D01*
X59510Y288246D01*
X59475Y288317D01*
X59429Y288382D01*
X59374Y288439D01*
X59311Y288487D01*
X59241Y288524D01*
X59166Y288549D01*
X59088Y288563D01*
X59008Y288564D01*
X58930Y288552D01*
X58854Y288529D01*
X58784Y288493D01*
X58510Y288343D01*
X58223Y288221D01*
X57926Y288125D01*
X57621Y288056D01*
X57312Y288014D01*
X57000Y288000D01*
X56688Y288014D01*
X56495Y288040D01*
Y289307D01*
G37*
G36*
Y297026D02*X57000Y296986D01*
X57706Y297042D01*
X58395Y297207D01*
X59049Y297478D01*
X59653Y297848D01*
X60192Y298308D01*
X60652Y298847D01*
X60899Y299250D01*
X63431D01*
X63348Y299153D01*
X62978Y298549D01*
X62707Y297895D01*
X62542Y297206D01*
X62486Y296500D01*
X62542Y295794D01*
X62707Y295105D01*
X62978Y294451D01*
X63348Y293847D01*
X63431Y293750D01*
X60900D01*
X60874Y293798D01*
X60829Y293863D01*
X60774Y293920D01*
X60710Y293968D01*
X60640Y294004D01*
X60565Y294030D01*
X60487Y294044D01*
X60408Y294045D01*
X60329Y294033D01*
X60254Y294010D01*
X60183Y293975D01*
X60118Y293929D01*
X60061Y293874D01*
X60013Y293811D01*
X59981Y293750D01*
X57000D01*
X56647Y293729D01*
X56495Y293693D01*
Y294960D01*
X56688Y294986D01*
X57000Y295000D01*
X57312Y294986D01*
X57621Y294944D01*
X57926Y294875D01*
X58223Y294779D01*
X58510Y294657D01*
X58786Y294510D01*
X58855Y294474D01*
X58931Y294451D01*
X59009Y294440D01*
X59087Y294441D01*
X59165Y294454D01*
X59239Y294480D01*
X59309Y294516D01*
X59372Y294564D01*
X59427Y294620D01*
X59472Y294684D01*
X59507Y294755D01*
X59530Y294830D01*
X59541Y294908D01*
X59540Y294987D01*
X59527Y295064D01*
X59501Y295139D01*
X59465Y295208D01*
X59417Y295271D01*
X59361Y295326D01*
X59296Y295370D01*
X58944Y295564D01*
X58574Y295721D01*
X58191Y295844D01*
X57800Y295933D01*
X57401Y295987D01*
X57000Y296004D01*
X56599Y295987D01*
X56495Y295973D01*
Y297026D01*
G37*
G36*
X145000Y323000D02*X152985D01*
X152184Y322316D01*
X151346Y321335D01*
X150671Y320234D01*
X150177Y319042D01*
X149876Y317787D01*
X149775Y316500D01*
X149876Y315213D01*
X150177Y313958D01*
X150671Y312766D01*
X151346Y311665D01*
X152184Y310684D01*
X153165Y309846D01*
X154266Y309171D01*
X155458Y308677D01*
X156713Y308376D01*
X158000Y308275D01*
X159287Y308376D01*
X160542Y308677D01*
X161734Y309171D01*
X162835Y309846D01*
X163816Y310684D01*
X164654Y311665D01*
X165329Y312766D01*
X165823Y313958D01*
X166124Y315213D01*
X166200Y316500D01*
X166124Y317787D01*
X165823Y319042D01*
X165329Y320234D01*
X164654Y321335D01*
X163816Y322316D01*
X163015Y323000D01*
X188000D01*
Y2000D01*
X145000D01*
Y19007D01*
X149235Y19014D01*
X149465Y19069D01*
X149683Y19159D01*
X149884Y19283D01*
X150064Y19436D01*
X150217Y19616D01*
X150341Y19817D01*
X150431Y20035D01*
X150486Y20265D01*
X150500Y20500D01*
X150486Y28735D01*
X150431Y28965D01*
X150341Y29183D01*
X150217Y29384D01*
X150064Y29564D01*
X149884Y29717D01*
X149683Y29841D01*
X149465Y29931D01*
X149235Y29986D01*
X149000Y30000D01*
X145000Y29993D01*
Y231818D01*
X157250Y219568D01*
Y198088D01*
X157243Y198000D01*
X157271Y197647D01*
X157354Y197303D01*
X157489Y196975D01*
X157674Y196673D01*
X157674Y196673D01*
X157904Y196404D01*
X157971Y196347D01*
X164750Y189568D01*
Y158932D01*
X157471Y151653D01*
X157404Y151596D01*
X157174Y151327D01*
X156989Y151025D01*
X156854Y150697D01*
X156771Y150353D01*
X156771Y150353D01*
X156743Y150000D01*
X156750Y149912D01*
Y130485D01*
X156565Y130269D01*
X156319Y129866D01*
X156138Y129430D01*
X156028Y128971D01*
X155991Y128500D01*
X156028Y128029D01*
X156138Y127570D01*
X156319Y127134D01*
X156565Y126731D01*
X156872Y126372D01*
X157231Y126065D01*
X157634Y125819D01*
X158070Y125638D01*
X158529Y125528D01*
X159000Y125491D01*
X159471Y125528D01*
X159930Y125638D01*
X160366Y125819D01*
X160769Y126065D01*
X161128Y126372D01*
X161435Y126731D01*
X161681Y127134D01*
X161862Y127570D01*
X161972Y128029D01*
X162000Y128500D01*
X161972Y128971D01*
X161862Y129430D01*
X161681Y129866D01*
X161435Y130269D01*
X161250Y130485D01*
Y149068D01*
X168529Y156347D01*
X168596Y156404D01*
X168750Y156585D01*
Y155432D01*
X165813Y152494D01*
X165529Y152472D01*
X165070Y152362D01*
X164634Y152181D01*
X164231Y151935D01*
X163872Y151628D01*
X163565Y151269D01*
X163319Y150866D01*
X163138Y150430D01*
X163028Y149971D01*
X162991Y149500D01*
X163028Y149029D01*
X163138Y148570D01*
X163319Y148134D01*
X163565Y147731D01*
X163872Y147372D01*
X164231Y147065D01*
X164634Y146819D01*
X165070Y146638D01*
X165529Y146528D01*
X166000Y146491D01*
X166471Y146528D01*
X166930Y146638D01*
X167366Y146819D01*
X167769Y147065D01*
X168128Y147372D01*
X168435Y147731D01*
X168681Y148134D01*
X168862Y148570D01*
X168972Y149029D01*
X168989Y149307D01*
X172529Y152847D01*
X172596Y152904D01*
X172826Y153173D01*
X172826Y153173D01*
X173011Y153475D01*
X173146Y153803D01*
X173229Y154147D01*
X173250Y154412D01*
Y100932D01*
X165813Y93494D01*
X165529Y93472D01*
X165070Y93362D01*
X164634Y93181D01*
X164231Y92935D01*
X163872Y92628D01*
X163565Y92269D01*
X163319Y91866D01*
X163138Y91430D01*
X163028Y90971D01*
X162991Y90500D01*
X163028Y90029D01*
X163138Y89570D01*
X163319Y89134D01*
X163565Y88731D01*
X163872Y88372D01*
X164231Y88065D01*
X164634Y87819D01*
X165070Y87638D01*
X165529Y87528D01*
X166000Y87491D01*
X166471Y87528D01*
X166930Y87638D01*
X167366Y87819D01*
X167769Y88065D01*
X168128Y88372D01*
X168435Y88731D01*
X168681Y89134D01*
X168862Y89570D01*
X168972Y90029D01*
X168989Y90307D01*
X177029Y98347D01*
X177096Y98404D01*
X177326Y98673D01*
X177326Y98673D01*
X177511Y98975D01*
X177646Y99303D01*
X177729Y99647D01*
X177757Y100000D01*
X177750Y100088D01*
Y225412D01*
X177757Y225500D01*
X177729Y225853D01*
X177646Y226197D01*
X177607Y226293D01*
X177511Y226525D01*
X177396Y226712D01*
X177326Y226827D01*
X177326Y226827D01*
X177096Y227096D01*
X177029Y227153D01*
X171250Y232932D01*
Y277412D01*
X171257Y277500D01*
X171229Y277853D01*
X171229Y277853D01*
X171146Y278197D01*
X171011Y278525D01*
X170826Y278827D01*
X170596Y279096D01*
X170529Y279153D01*
X145000Y304682D01*
Y323000D01*
G37*
G36*
Y2000D02*X99000D01*
Y21636D01*
X99004Y21635D01*
X99119Y21607D01*
X99237Y21598D01*
X99355Y21608D01*
X99469Y21635D01*
X99578Y21681D01*
X99679Y21743D01*
X99769Y21819D01*
X99845Y21909D01*
X99905Y22011D01*
X100122Y22480D01*
X100289Y22969D01*
X100409Y23472D01*
X100482Y23984D01*
X100506Y24500D01*
X100482Y25016D01*
X100409Y25528D01*
X100289Y26031D01*
X100122Y26520D01*
X99910Y26992D01*
X99849Y27093D01*
X99772Y27184D01*
X99682Y27261D01*
X99580Y27323D01*
X99471Y27369D01*
X99355Y27397D01*
X99237Y27406D01*
X99119Y27397D01*
X99003Y27370D01*
X99000Y27368D01*
Y232257D01*
X116000Y215257D01*
Y208000D01*
X115972Y208471D01*
X115862Y208930D01*
X115681Y209366D01*
X115435Y209769D01*
X115128Y210128D01*
X114769Y210435D01*
X114366Y210681D01*
X113930Y210862D01*
X113471Y210972D01*
X113000Y211009D01*
X112529Y210972D01*
X112070Y210862D01*
X111634Y210681D01*
X111231Y210435D01*
X110872Y210128D01*
X110565Y209769D01*
X110401Y209500D01*
X109559D01*
X109500Y209505D01*
X109265Y209486D01*
X109035Y209431D01*
X108817Y209341D01*
X108616Y209217D01*
X108615Y209217D01*
X108436Y209064D01*
X108398Y209019D01*
X104981Y205602D01*
X104936Y205564D01*
X104783Y205384D01*
X104659Y205183D01*
X104569Y204965D01*
X104514Y204735D01*
X104514Y204735D01*
X104495Y204500D01*
X104500Y204441D01*
Y184599D01*
X104231Y184435D01*
X103872Y184128D01*
X103565Y183769D01*
X103319Y183366D01*
X103138Y182930D01*
X103028Y182471D01*
X102991Y182000D01*
X103028Y181529D01*
X103138Y181070D01*
X103319Y180634D01*
X103565Y180231D01*
X103872Y179872D01*
X104231Y179565D01*
X104634Y179319D01*
X105070Y179138D01*
X105529Y179028D01*
X106000Y178991D01*
X106471Y179028D01*
X106930Y179138D01*
X107366Y179319D01*
X107769Y179565D01*
X108128Y179872D01*
X108435Y180231D01*
X108681Y180634D01*
X108862Y181070D01*
X108972Y181529D01*
X109000Y182000D01*
X108972Y182471D01*
X108862Y182930D01*
X108681Y183366D01*
X108435Y183769D01*
X108128Y184128D01*
X107769Y184435D01*
X107500Y184599D01*
Y203879D01*
X110121Y206500D01*
X110401D01*
X110565Y206231D01*
X110872Y205872D01*
X111231Y205565D01*
X111634Y205319D01*
X112070Y205138D01*
X112529Y205028D01*
X113000Y204991D01*
X113471Y205028D01*
X113930Y205138D01*
X114366Y205319D01*
X114769Y205565D01*
X115128Y205872D01*
X115435Y206231D01*
X115681Y206634D01*
X115862Y207070D01*
X115972Y207529D01*
X116000Y208000D01*
Y114118D01*
X115991Y114000D01*
X116000Y113882D01*
Y107118D01*
X115991Y107000D01*
X116028Y106529D01*
X116138Y106070D01*
X116319Y105634D01*
X116565Y105231D01*
X116872Y104872D01*
X117231Y104565D01*
X117634Y104319D01*
X118070Y104138D01*
X118529Y104028D01*
X119000Y103991D01*
X119471Y104028D01*
X119930Y104138D01*
X120366Y104319D01*
X120769Y104565D01*
X121128Y104872D01*
X121435Y105231D01*
X121681Y105634D01*
X121862Y106070D01*
X121972Y106529D01*
X122000Y107000D01*
Y216382D01*
X122009Y216500D01*
X121972Y216971D01*
X121972Y216971D01*
X121862Y217430D01*
X121681Y217866D01*
X121435Y218269D01*
X121128Y218628D01*
X121038Y218704D01*
X99000Y240743D01*
Y274050D01*
X106000D01*
X106384Y274073D01*
X106759Y274163D01*
X107116Y274310D01*
X107445Y274512D01*
X107738Y274762D01*
X107988Y275055D01*
X108190Y275384D01*
X108277Y275595D01*
X111905Y279223D01*
X112116Y279310D01*
X112445Y279512D01*
X112738Y279762D01*
X112750Y279777D01*
Y265088D01*
X112743Y265000D01*
X112771Y264647D01*
Y264647D01*
X112854Y264303D01*
X112989Y263975D01*
X113059Y263861D01*
X113174Y263673D01*
X113174Y263673D01*
X113404Y263404D01*
X113471Y263347D01*
X145000Y231818D01*
Y29993D01*
X140765Y29986D01*
X140535Y29931D01*
X140317Y29841D01*
X140116Y29717D01*
X139936Y29564D01*
X139783Y29384D01*
X139659Y29183D01*
X139569Y28965D01*
X139514Y28735D01*
X139500Y28500D01*
X139514Y20265D01*
X139569Y20035D01*
X139659Y19817D01*
X139783Y19616D01*
X139936Y19436D01*
X140116Y19283D01*
X140317Y19159D01*
X140535Y19069D01*
X140765Y19014D01*
X141000Y19000D01*
X145000Y19007D01*
Y2000D01*
G37*
G36*
X99000Y323000D02*X145000D01*
Y304682D01*
X141250Y308432D01*
Y312912D01*
X141257Y313000D01*
X141229Y313353D01*
X141229Y313353D01*
X141146Y313697D01*
X141011Y314025D01*
X140826Y314327D01*
X140596Y314596D01*
X140529Y314653D01*
X139153Y316029D01*
X139096Y316096D01*
X138827Y316326D01*
X138525Y316511D01*
X138197Y316646D01*
X137853Y316729D01*
X137853Y316729D01*
X137500Y316757D01*
X137412Y316750D01*
X132088D01*
X132000Y316757D01*
X131647Y316729D01*
X131303Y316646D01*
X130975Y316511D01*
X130673Y316326D01*
X130673Y316326D01*
X130404Y316096D01*
X130347Y316029D01*
X128068Y313750D01*
X126899D01*
X126652Y314153D01*
X126192Y314692D01*
X125653Y315152D01*
X125049Y315522D01*
X124395Y315793D01*
X123706Y315958D01*
X123000Y316014D01*
X122294Y315958D01*
X121605Y315793D01*
X120951Y315522D01*
X120347Y315152D01*
X119808Y314692D01*
X119348Y314153D01*
X119101Y313750D01*
X114088D01*
X114000Y313757D01*
X113647Y313729D01*
X113303Y313646D01*
X112975Y313511D01*
X112673Y313326D01*
X112673Y313326D01*
X112404Y313096D01*
X112347Y313029D01*
X110095Y310777D01*
X109884Y310690D01*
X109555Y310488D01*
X109262Y310238D01*
X109012Y309945D01*
X108810Y309616D01*
X108663Y309259D01*
X108573Y308884D01*
X108550Y308500D01*
Y308021D01*
X108539Y308048D01*
X108259Y308505D01*
X107912Y308912D01*
X107505Y309259D01*
X107048Y309539D01*
X106554Y309744D01*
X106034Y309868D01*
X105500Y309910D01*
X104966Y309868D01*
X104446Y309744D01*
X103952Y309539D01*
X103495Y309259D01*
X103088Y308912D01*
X102741Y308505D01*
X102461Y308048D01*
X102256Y307554D01*
X102132Y307034D01*
X102090Y306500D01*
X102132Y305966D01*
X102256Y305446D01*
X102461Y304952D01*
X102741Y304495D01*
X103050Y304133D01*
Y303694D01*
X102769Y303935D01*
X102366Y304181D01*
X101930Y304362D01*
X101471Y304472D01*
X101000Y304509D01*
X100529Y304472D01*
X100070Y304362D01*
X99634Y304181D01*
X99231Y303935D01*
X99000Y303737D01*
Y323000D01*
G37*
G36*
X95002Y274050D02*X99000D01*
Y240743D01*
X98204Y241538D01*
X98128Y241628D01*
X97769Y241935D01*
X97366Y242181D01*
X96930Y242362D01*
X96471Y242472D01*
X96000Y242509D01*
X95882Y242500D01*
X95002D01*
Y274050D01*
G37*
G36*
X99000Y2000D02*X95002D01*
Y18994D01*
X95516Y19018D01*
X96028Y19091D01*
X96531Y19211D01*
X97020Y19378D01*
X97492Y19590D01*
X97593Y19651D01*
X97684Y19728D01*
X97761Y19818D01*
X97823Y19920D01*
X97869Y20029D01*
X97897Y20145D01*
X97906Y20263D01*
X97897Y20381D01*
X97870Y20497D01*
X97824Y20607D01*
X97762Y20708D01*
X97686Y20798D01*
X97595Y20876D01*
X97494Y20938D01*
X97385Y20984D01*
X97269Y21011D01*
X97151Y21021D01*
X97032Y21012D01*
X96917Y20984D01*
X96808Y20937D01*
X96468Y20779D01*
X96112Y20658D01*
X95747Y20570D01*
X95375Y20518D01*
X95002Y20500D01*
Y28500D01*
X95375Y28482D01*
X95747Y28430D01*
X96112Y28342D01*
X96468Y28221D01*
X96810Y28067D01*
X96918Y28020D01*
X97033Y27993D01*
X97151Y27983D01*
X97268Y27993D01*
X97383Y28021D01*
X97492Y28066D01*
X97593Y28128D01*
X97682Y28205D01*
X97759Y28295D01*
X97820Y28395D01*
X97865Y28504D01*
X97893Y28619D01*
X97902Y28737D01*
X97892Y28855D01*
X97865Y28969D01*
X97819Y29078D01*
X97757Y29179D01*
X97681Y29269D01*
X97591Y29345D01*
X97489Y29405D01*
X97020Y29622D01*
X96531Y29789D01*
X96028Y29909D01*
X95516Y29982D01*
X95002Y30006D01*
Y236255D01*
X99000Y232257D01*
Y27368D01*
X98893Y27324D01*
X98792Y27262D01*
X98702Y27186D01*
X98624Y27095D01*
X98562Y26994D01*
X98516Y26885D01*
X98489Y26769D01*
X98479Y26651D01*
X98488Y26532D01*
X98516Y26417D01*
X98563Y26308D01*
X98721Y25968D01*
X98842Y25612D01*
X98930Y25247D01*
X98982Y24875D01*
X99000Y24500D01*
X98982Y24125D01*
X98930Y23753D01*
X98842Y23388D01*
X98721Y23032D01*
X98567Y22690D01*
X98520Y22582D01*
X98493Y22467D01*
X98483Y22349D01*
X98493Y22232D01*
X98521Y22117D01*
X98566Y22008D01*
X98628Y21907D01*
X98705Y21818D01*
X98795Y21741D01*
X98895Y21680D01*
X99000Y21636D01*
Y2000D01*
G37*
G36*
X90507Y274050D02*X95002D01*
Y242500D01*
X90507D01*
Y274050D01*
G37*
G36*
X95002Y2000D02*X90507D01*
Y21640D01*
X90529Y21631D01*
X90645Y21603D01*
X90763Y21594D01*
X90881Y21603D01*
X90997Y21630D01*
X91107Y21676D01*
X91208Y21738D01*
X91298Y21814D01*
X91376Y21905D01*
X91438Y22006D01*
X91484Y22115D01*
X91511Y22231D01*
X91521Y22349D01*
X91512Y22468D01*
X91484Y22583D01*
X91437Y22692D01*
X91279Y23032D01*
X91158Y23388D01*
X91070Y23753D01*
X91018Y24125D01*
X91000Y24500D01*
X91018Y24875D01*
X91070Y25247D01*
X91158Y25612D01*
X91279Y25968D01*
X91433Y26310D01*
X91480Y26418D01*
X91507Y26533D01*
X91517Y26651D01*
X91507Y26768D01*
X91479Y26883D01*
X91434Y26992D01*
X91372Y27093D01*
X91295Y27182D01*
X91205Y27259D01*
X91105Y27320D01*
X90996Y27365D01*
X90881Y27393D01*
X90763Y27402D01*
X90645Y27392D01*
X90531Y27365D01*
X90507Y27355D01*
Y236500D01*
X94757D01*
X95002Y236255D01*
Y30006D01*
X95000Y30006D01*
X94484Y29982D01*
X93972Y29909D01*
X93469Y29789D01*
X92980Y29622D01*
X92508Y29410D01*
X92407Y29349D01*
X92316Y29272D01*
X92239Y29182D01*
X92177Y29080D01*
X92131Y28971D01*
X92103Y28855D01*
X92094Y28737D01*
X92103Y28619D01*
X92130Y28503D01*
X92176Y28393D01*
X92238Y28292D01*
X92314Y28202D01*
X92405Y28124D01*
X92506Y28062D01*
X92615Y28016D01*
X92731Y27989D01*
X92849Y27979D01*
X92968Y27988D01*
X93083Y28016D01*
X93192Y28063D01*
X93532Y28221D01*
X93888Y28342D01*
X94253Y28430D01*
X94625Y28482D01*
X95000Y28500D01*
X95002Y28500D01*
Y20500D01*
X95000Y20500D01*
X94625Y20518D01*
X94253Y20570D01*
X93888Y20658D01*
X93532Y20779D01*
X93190Y20933D01*
X93082Y20980D01*
X92967Y21007D01*
X92849Y21017D01*
X92732Y21007D01*
X92617Y20979D01*
X92508Y20934D01*
X92407Y20872D01*
X92318Y20795D01*
X92241Y20705D01*
X92180Y20605D01*
X92135Y20496D01*
X92107Y20381D01*
X92098Y20263D01*
X92108Y20145D01*
X92135Y20031D01*
X92181Y19922D01*
X92243Y19821D01*
X92319Y19731D01*
X92409Y19655D01*
X92511Y19595D01*
X92980Y19378D01*
X93469Y19211D01*
X93972Y19091D01*
X94484Y19018D01*
X95000Y18994D01*
X95002Y18994D01*
Y2000D01*
G37*
G36*
X90507D02*X56495D01*
Y193991D01*
X56500Y193991D01*
X56971Y194028D01*
X57430Y194138D01*
X57866Y194319D01*
X58269Y194565D01*
X58628Y194872D01*
X58935Y195231D01*
X59181Y195634D01*
X59362Y196070D01*
X59472Y196529D01*
X59500Y197000D01*
X59472Y197471D01*
X59362Y197930D01*
X59181Y198366D01*
X58935Y198769D01*
X58628Y199128D01*
X58269Y199435D01*
X58000Y199599D01*
Y215901D01*
X58269Y216065D01*
X58628Y216372D01*
X58935Y216731D01*
X59181Y217134D01*
X59362Y217570D01*
X59472Y218029D01*
X59500Y218500D01*
X59472Y218971D01*
X59362Y219430D01*
X59181Y219866D01*
X58935Y220269D01*
X58628Y220628D01*
X58269Y220935D01*
X57866Y221181D01*
X57430Y221362D01*
X56971Y221472D01*
X56500Y221509D01*
X56495Y221509D01*
Y277026D01*
X57000Y276986D01*
X57706Y277042D01*
X58395Y277207D01*
X59049Y277478D01*
X59653Y277848D01*
X60192Y278308D01*
X60652Y278847D01*
X60899Y279250D01*
X63431D01*
X63348Y279153D01*
X62978Y278549D01*
X62707Y277895D01*
X62542Y277206D01*
X62486Y276500D01*
X62542Y275794D01*
X62707Y275105D01*
X62978Y274451D01*
X63348Y273847D01*
X63808Y273308D01*
X64347Y272848D01*
X64951Y272478D01*
X65605Y272207D01*
X66294Y272042D01*
X67000Y271986D01*
X67706Y272042D01*
X68395Y272207D01*
X69049Y272478D01*
X69653Y272848D01*
X70192Y273308D01*
X70652Y273847D01*
X70776Y274050D01*
X90507D01*
Y242500D01*
X84118D01*
X84000Y242509D01*
X83882Y242500D01*
X79118D01*
X79000Y242509D01*
X78529Y242472D01*
X78070Y242362D01*
X77634Y242181D01*
X77231Y241935D01*
X76872Y241628D01*
X76565Y241269D01*
X76319Y240866D01*
X76138Y240430D01*
X76028Y239971D01*
X75991Y239500D01*
X76028Y239029D01*
X76138Y238570D01*
X76319Y238134D01*
X76565Y237731D01*
X76872Y237372D01*
X77231Y237065D01*
X77634Y236819D01*
X78070Y236638D01*
X78529Y236528D01*
X79000Y236491D01*
X79118Y236500D01*
X83882D01*
X84000Y236491D01*
X84118Y236500D01*
X90507D01*
Y27355D01*
X90422Y27319D01*
X90321Y27257D01*
X90231Y27181D01*
X90155Y27091D01*
X90095Y26989D01*
X89878Y26520D01*
X89711Y26031D01*
X89591Y25528D01*
X89518Y25016D01*
X89494Y24500D01*
X89518Y23984D01*
X89591Y23472D01*
X89711Y22969D01*
X89878Y22480D01*
X90090Y22008D01*
X90151Y21907D01*
X90228Y21816D01*
X90318Y21739D01*
X90420Y21677D01*
X90507Y21640D01*
Y2000D01*
G37*
G36*
X56495Y323000D02*X99000D01*
Y303737D01*
X98872Y303628D01*
X98565Y303269D01*
X98319Y302866D01*
X98138Y302430D01*
X98028Y301971D01*
X97991Y301500D01*
X98028Y301029D01*
X98138Y300570D01*
X98319Y300134D01*
X98565Y299731D01*
X98750Y299515D01*
Y298485D01*
X98628Y298628D01*
X98269Y298935D01*
X97866Y299181D01*
X97430Y299362D01*
X96971Y299472D01*
X96500Y299509D01*
X96029Y299472D01*
X95570Y299362D01*
X95134Y299181D01*
X94731Y298935D01*
X94372Y298628D01*
X94065Y298269D01*
X93819Y297866D01*
X93638Y297430D01*
X93528Y296971D01*
X93491Y296500D01*
X93528Y296029D01*
X93638Y295570D01*
X93819Y295134D01*
X94065Y294731D01*
X94250Y294515D01*
Y293932D01*
X94068Y293750D01*
X90700D01*
X90866Y293819D01*
X91269Y294065D01*
X91628Y294372D01*
X91935Y294731D01*
X92181Y295134D01*
X92362Y295570D01*
X92472Y296029D01*
X92500Y296500D01*
X92472Y296971D01*
X92362Y297430D01*
X92181Y297866D01*
X91935Y298269D01*
X91628Y298628D01*
X91269Y298935D01*
X90866Y299181D01*
X90430Y299362D01*
X89971Y299472D01*
X89500Y299509D01*
X89029Y299472D01*
X88570Y299362D01*
X88134Y299181D01*
X87731Y298935D01*
X87515Y298750D01*
X86200D01*
X86366Y298819D01*
X86769Y299065D01*
X87128Y299372D01*
X87435Y299731D01*
X87681Y300134D01*
X87862Y300570D01*
X87972Y301029D01*
X88000Y301500D01*
X87972Y301971D01*
X87862Y302430D01*
X87681Y302866D01*
X87435Y303269D01*
X87128Y303628D01*
X86769Y303935D01*
X86366Y304181D01*
X85930Y304362D01*
X85471Y304472D01*
X85000Y304509D01*
X84529Y304472D01*
X84070Y304362D01*
X83634Y304181D01*
X83231Y303935D01*
X83015Y303750D01*
X81700D01*
X81866Y303819D01*
X82269Y304065D01*
X82628Y304372D01*
X82935Y304731D01*
X83181Y305134D01*
X83362Y305570D01*
X83472Y306029D01*
X83500Y306500D01*
X83472Y306971D01*
X83362Y307430D01*
X83181Y307866D01*
X82935Y308269D01*
X82628Y308628D01*
X82269Y308935D01*
X81866Y309181D01*
X81430Y309362D01*
X80971Y309472D01*
X80500Y309509D01*
X80029Y309472D01*
X79570Y309362D01*
X79134Y309181D01*
X78731Y308935D01*
X78515Y308750D01*
X77200D01*
X77366Y308819D01*
X77769Y309065D01*
X78128Y309372D01*
X78435Y309731D01*
X78681Y310134D01*
X78862Y310570D01*
X78972Y311029D01*
X79000Y311500D01*
X78972Y311971D01*
X78862Y312430D01*
X78681Y312866D01*
X78435Y313269D01*
X78128Y313628D01*
X77769Y313935D01*
X77366Y314181D01*
X76930Y314362D01*
X76471Y314472D01*
X76000Y314509D01*
X75529Y314472D01*
X75070Y314362D01*
X74634Y314181D01*
X74231Y313935D01*
X74015Y313750D01*
X70500D01*
X70147Y313729D01*
X69803Y313646D01*
X69475Y313511D01*
X69173Y313326D01*
X68904Y313096D01*
X68822Y313000D01*
X65178D01*
X65096Y313096D01*
X64827Y313326D01*
X64525Y313511D01*
X64197Y313646D01*
X63853Y313729D01*
X63500Y313750D01*
X60899D01*
X60652Y314153D01*
X60192Y314692D01*
X59653Y315152D01*
X59049Y315522D01*
X58395Y315793D01*
X57706Y315958D01*
X57000Y316014D01*
X56495Y315974D01*
Y323000D01*
G37*
G36*
X53280Y278959D02*X53348Y278847D01*
X53808Y278308D01*
X54347Y277848D01*
X54951Y277478D01*
X55605Y277207D01*
X56294Y277042D01*
X56495Y277026D01*
Y221509D01*
X56029Y221472D01*
X55570Y221362D01*
X55134Y221181D01*
X54731Y220935D01*
X54372Y220628D01*
X54065Y220269D01*
X53819Y219866D01*
X53638Y219430D01*
X53528Y218971D01*
X53491Y218500D01*
X53528Y218029D01*
X53638Y217570D01*
X53819Y217134D01*
X54065Y216731D01*
X54372Y216372D01*
X54731Y216065D01*
X55000Y215901D01*
Y199599D01*
X54731Y199435D01*
X54372Y199128D01*
X54065Y198769D01*
X53819Y198366D01*
X53638Y197930D01*
X53528Y197471D01*
X53491Y197000D01*
X53528Y196529D01*
X53638Y196070D01*
X53819Y195634D01*
X54065Y195231D01*
X54372Y194872D01*
X54731Y194565D01*
X55134Y194319D01*
X55570Y194138D01*
X56029Y194028D01*
X56495Y193991D01*
Y2000D01*
X53280D01*
Y278959D01*
G37*
G36*
Y298959D02*X53348Y298847D01*
X53808Y298308D01*
X54347Y297848D01*
X54951Y297478D01*
X55605Y297207D01*
X56294Y297042D01*
X56495Y297026D01*
Y295973D01*
X56200Y295933D01*
X55809Y295844D01*
X55426Y295721D01*
X55056Y295564D01*
X54702Y295374D01*
X54637Y295329D01*
X54580Y295274D01*
X54532Y295210D01*
X54496Y295140D01*
X54470Y295065D01*
X54456Y294987D01*
X54455Y294908D01*
X54467Y294829D01*
X54490Y294754D01*
X54525Y294683D01*
X54571Y294618D01*
X54626Y294561D01*
X54689Y294513D01*
X54759Y294476D01*
X54834Y294451D01*
X54912Y294437D01*
X54992Y294436D01*
X55070Y294448D01*
X55146Y294471D01*
X55216Y294507D01*
X55490Y294657D01*
X55777Y294779D01*
X56074Y294875D01*
X56379Y294944D01*
X56495Y294960D01*
Y293693D01*
X56303Y293646D01*
X55975Y293511D01*
X55673Y293326D01*
X55404Y293096D01*
X55174Y292827D01*
X54989Y292525D01*
X54854Y292197D01*
X54771Y291853D01*
X54743Y291500D01*
X54771Y291147D01*
X54854Y290803D01*
X54989Y290475D01*
X55174Y290173D01*
X55404Y289904D01*
X55673Y289674D01*
X55975Y289489D01*
X56303Y289354D01*
X56495Y289307D01*
Y288040D01*
X56379Y288056D01*
X56074Y288125D01*
X55777Y288221D01*
X55490Y288343D01*
X55214Y288490D01*
X55145Y288526D01*
X55069Y288549D01*
X54991Y288560D01*
X54913Y288559D01*
X54835Y288546D01*
X54761Y288520D01*
X54691Y288484D01*
X54628Y288436D01*
X54573Y288380D01*
X54528Y288316D01*
X54493Y288245D01*
X54470Y288170D01*
X54459Y288092D01*
X54460Y288013D01*
X54473Y287936D01*
X54499Y287861D01*
X54535Y287792D01*
X54583Y287729D01*
X54639Y287674D01*
X54704Y287630D01*
X55056Y287436D01*
X55426Y287279D01*
X55809Y287156D01*
X56200Y287067D01*
X56495Y287027D01*
Y285974D01*
X56294Y285958D01*
X55605Y285793D01*
X54951Y285522D01*
X54347Y285152D01*
X53808Y284692D01*
X53348Y284153D01*
X53280Y284041D01*
Y289040D01*
X53290Y289032D01*
X53360Y288996D01*
X53435Y288970D01*
X53513Y288956D01*
X53592Y288955D01*
X53671Y288967D01*
X53746Y288990D01*
X53817Y289025D01*
X53882Y289071D01*
X53939Y289126D01*
X53987Y289189D01*
X54024Y289259D01*
X54049Y289334D01*
X54063Y289412D01*
X54064Y289492D01*
X54052Y289570D01*
X54029Y289646D01*
X53993Y289716D01*
X53843Y289990D01*
X53721Y290277D01*
X53625Y290574D01*
X53556Y290879D01*
X53514Y291188D01*
X53500Y291500D01*
X53514Y291812D01*
X53556Y292121D01*
X53625Y292426D01*
X53721Y292723D01*
X53843Y293010D01*
X53990Y293286D01*
X54026Y293355D01*
X54049Y293431D01*
X54060Y293509D01*
X54059Y293587D01*
X54046Y293665D01*
X54020Y293739D01*
X53984Y293809D01*
X53936Y293872D01*
X53880Y293927D01*
X53816Y293972D01*
X53745Y294007D01*
X53670Y294030D01*
X53592Y294041D01*
X53513Y294040D01*
X53436Y294027D01*
X53361Y294001D01*
X53292Y293965D01*
X53280Y293956D01*
Y298959D01*
G37*
G36*
Y304267D02*X53353Y304271D01*
X53473Y304300D01*
X53348Y304153D01*
X53280Y304041D01*
Y304267D01*
G37*
G36*
Y308959D02*X53348Y308847D01*
X53473Y308700D01*
X53353Y308729D01*
X53280Y308733D01*
Y308959D01*
G37*
G36*
Y323000D02*X56495D01*
Y315974D01*
X56294Y315958D01*
X55605Y315793D01*
X54951Y315522D01*
X54347Y315152D01*
X53808Y314692D01*
X53348Y314153D01*
X53280Y314041D01*
Y323000D01*
G37*
G36*
X31987Y303250D02*X41912D01*
X42000Y303243D01*
X42353Y303271D01*
X42353Y303271D01*
X42697Y303354D01*
X43025Y303489D01*
X43327Y303674D01*
X43596Y303904D01*
X43653Y303971D01*
X43932Y304250D01*
X53000D01*
X53280Y304267D01*
Y304041D01*
X52978Y303549D01*
X52707Y302895D01*
X52542Y302206D01*
X52486Y301500D01*
X52542Y300794D01*
X52707Y300105D01*
X52978Y299451D01*
X53280Y298959D01*
Y293956D01*
X53229Y293917D01*
X53174Y293861D01*
X53130Y293796D01*
X52936Y293444D01*
X52779Y293074D01*
X52656Y292691D01*
X52567Y292300D01*
X52513Y291901D01*
X52496Y291500D01*
X52513Y291099D01*
X52567Y290700D01*
X52656Y290309D01*
X52779Y289926D01*
X52936Y289556D01*
X53126Y289202D01*
X53171Y289137D01*
X53226Y289080D01*
X53280Y289040D01*
Y284041D01*
X52978Y283549D01*
X52707Y282895D01*
X52542Y282206D01*
X52486Y281500D01*
X52542Y280794D01*
X52707Y280105D01*
X52978Y279451D01*
X53280Y278959D01*
Y2000D01*
X31987D01*
Y263276D01*
X32000Y263275D01*
X33287Y263376D01*
X34542Y263677D01*
X35734Y264171D01*
X36835Y264846D01*
X37816Y265684D01*
X38654Y266665D01*
X39329Y267766D01*
X39823Y268958D01*
X40124Y270213D01*
X40200Y271500D01*
X40124Y272787D01*
X39823Y274042D01*
X39329Y275234D01*
X38654Y276335D01*
X37816Y277316D01*
X36835Y278154D01*
X35734Y278829D01*
X34542Y279323D01*
X33287Y279624D01*
X32000Y279725D01*
X31987Y279724D01*
Y303250D01*
G37*
G36*
Y308276D02*X32000Y308275D01*
X33287Y308376D01*
X34542Y308677D01*
X35734Y309171D01*
X36835Y309846D01*
X37816Y310684D01*
X38654Y311665D01*
X39329Y312766D01*
X39823Y313958D01*
X40124Y315213D01*
X40200Y316500D01*
X40124Y317787D01*
X39823Y319042D01*
X39329Y320234D01*
X38654Y321335D01*
X37816Y322316D01*
X37015Y323000D01*
X53280D01*
Y314041D01*
X52978Y313549D01*
X52707Y312895D01*
X52542Y312206D01*
X52486Y311500D01*
X52542Y310794D01*
X52707Y310105D01*
X52978Y309451D01*
X53280Y308959D01*
Y308733D01*
X53000Y308750D01*
X43088D01*
X43000Y308757D01*
X42647Y308729D01*
X42303Y308646D01*
X41975Y308511D01*
X41673Y308326D01*
X41673Y308326D01*
X41404Y308096D01*
X41347Y308029D01*
X41068Y307750D01*
X31987D01*
Y308276D01*
G37*
G36*
X2000Y2000D02*Y11828D01*
X5722Y8106D01*
X5729Y8088D01*
X5984Y7672D01*
X6301Y7301D01*
X6672Y6984D01*
X7088Y6729D01*
X7106Y6722D01*
X9222Y4606D01*
X9229Y4588D01*
X9484Y4172D01*
X9801Y3801D01*
X10172Y3484D01*
X10588Y3229D01*
X11039Y3043D01*
X11514Y2929D01*
X12000Y2890D01*
X12486Y2929D01*
X12961Y3043D01*
X13412Y3229D01*
X13828Y3484D01*
X14199Y3801D01*
X14516Y4172D01*
X14771Y4588D01*
X14957Y5039D01*
X15071Y5514D01*
X15100Y6000D01*
X15071Y6486D01*
X14957Y6961D01*
X14771Y7412D01*
X14516Y7828D01*
X14199Y8199D01*
X13828Y8516D01*
X13412Y8771D01*
X13394Y8778D01*
X11278Y10894D01*
X11271Y10912D01*
X11016Y11328D01*
X10699Y11699D01*
X10328Y12016D01*
X9912Y12271D01*
X9894Y12278D01*
X6445Y15727D01*
X6458Y15748D01*
X6623Y16148D01*
X6725Y16568D01*
X6750Y17000D01*
Y93000D01*
X6725Y93432D01*
X6650Y93742D01*
Y113337D01*
X13157Y119843D01*
X13475Y120202D01*
X13726Y120611D01*
X13910Y121055D01*
X14022Y121521D01*
X14059Y122000D01*
X14022Y122479D01*
X13910Y122945D01*
X13726Y123389D01*
X13475Y123798D01*
X13163Y124163D01*
X12798Y124475D01*
X12389Y124726D01*
X11945Y124910D01*
X11479Y125022D01*
X11000Y125059D01*
X10521Y125022D01*
X10055Y124910D01*
X9611Y124726D01*
X9202Y124475D01*
X8843Y124157D01*
X2000Y117313D01*
Y323000D01*
X26985D01*
X26184Y322316D01*
X25346Y321335D01*
X24671Y320234D01*
X24177Y319042D01*
X23876Y317787D01*
X23775Y316500D01*
X23876Y315213D01*
X24177Y313958D01*
X24671Y312766D01*
X25346Y311665D01*
X26184Y310684D01*
X27165Y309846D01*
X28266Y309171D01*
X29458Y308677D01*
X30713Y308376D01*
X31987Y308276D01*
Y307750D01*
X17088D01*
X17000Y307757D01*
X16647Y307729D01*
X16303Y307646D01*
X15975Y307511D01*
X15673Y307326D01*
X15673Y307326D01*
X15404Y307096D01*
X15347Y307029D01*
X9971Y301653D01*
X9904Y301596D01*
X9674Y301327D01*
X9489Y301025D01*
X9354Y300697D01*
X9271Y300353D01*
X9271Y300353D01*
X9243Y300000D01*
X9250Y299912D01*
Y163088D01*
X9243Y163000D01*
X9271Y162647D01*
Y162647D01*
X9354Y162303D01*
X9489Y161975D01*
X9559Y161861D01*
X9674Y161673D01*
X9674Y161673D01*
X9904Y161404D01*
X9971Y161347D01*
X22052Y149266D01*
X22071Y149029D01*
X22181Y148570D01*
X22362Y148134D01*
X22608Y147731D01*
X22915Y147372D01*
X23274Y147065D01*
X23677Y146819D01*
X24113Y146638D01*
X24572Y146528D01*
X25043Y146491D01*
X25514Y146528D01*
X25973Y146638D01*
X26409Y146819D01*
X26812Y147065D01*
X27171Y147372D01*
X27478Y147731D01*
X27724Y148134D01*
X27905Y148570D01*
X28015Y149029D01*
X28043Y149500D01*
X28015Y149971D01*
X27905Y150430D01*
X27724Y150866D01*
X27478Y151269D01*
X27171Y151628D01*
X26812Y151935D01*
X26409Y152181D01*
X25973Y152362D01*
X25514Y152472D01*
X25184Y152498D01*
X13750Y163932D01*
Y299068D01*
X17932Y303250D01*
X31987D01*
Y279724D01*
X30713Y279624D01*
X29458Y279323D01*
X28266Y278829D01*
X27165Y278154D01*
X26184Y277316D01*
X25346Y276335D01*
X24671Y275234D01*
X24177Y274042D01*
X23876Y272787D01*
X23775Y271500D01*
X23876Y270213D01*
X24177Y268958D01*
X24671Y267766D01*
X25346Y266665D01*
X26184Y265684D01*
X27165Y264846D01*
X28266Y264171D01*
X29458Y263677D01*
X30713Y263376D01*
X31987Y263276D01*
Y2000D01*
X2000D01*
G37*
G54D32*X118000Y291500D02*X115000Y288500D01*
Y265000D01*
G54D33*X96000Y239500D02*X119000Y216500D01*
G54D32*X76000Y311500D02*X70500D01*
G54D34*X63500Y301500D02*X72000D01*
G54D32*X85000D02*X70500D01*
X89500Y296500D02*X67000D01*
X80500Y306500D02*X60500D01*
X57000Y311500D02*X63500D01*
G54D34*X71000D01*
G54D32*X57000Y301500D02*X63500D01*
G54D34*X60500Y306500D02*X52000D01*
G54D32*X57000Y291500D02*X63500D01*
X57000Y281500D02*X63500D01*
G54D34*X62500D02*X73000D01*
X62500Y291500D02*X73000D01*
G54D32*X71000D02*X95000D01*
X99000Y286500D02*X67000D01*
X103000Y281500D02*X71000D01*
X67000Y276500D02*X106000D01*
X109500Y280000D01*
X111000Y281500D02*X108000Y278500D01*
G54D33*X79000Y239500D02*X96000D01*
G54D32*X53000Y306500D02*X43000D01*
X42000Y305500D01*
X17000D01*
X11500Y300000D01*
Y163000D01*
X25000Y149500D01*
G54D34*X56500Y197000D02*Y218500D01*
G54D32*X4000Y17000D02*Y93000D01*
Y92500D02*Y115000D01*
X11000Y122000D01*
X4000Y21000D02*Y14000D01*
X12000Y6000D01*
X166000Y202500D02*Y220500D01*
X171000Y224000D02*Y154500D01*
X166000Y149500D01*
X175500Y100000D02*X166000Y90500D01*
X167000Y190500D02*Y158000D01*
X169000Y232000D02*X175500Y225500D01*
X159500Y220500D02*Y198000D01*
X167000Y190500D01*
Y158000D02*X159000Y150000D01*
Y128500D01*
X175500Y225500D02*Y100000D01*
G54D34*X106000Y182000D02*Y204500D01*
X109500Y208000D01*
X113000D01*
G54D33*X119000Y216500D02*Y107000D01*
G54D32*X166000Y220500D02*X142500Y244000D01*
X146500Y248500D02*X171000Y224000D01*
X115000Y265000D02*X159500Y220500D01*
X142500Y244000D02*Y283500D01*
X139500Y286500D01*
X133000D01*
X137000Y301500D02*X146500Y292000D01*
Y248500D01*
X150000Y296500D02*X169000Y277500D01*
Y232000D01*
X139000Y307500D02*X150500Y296000D01*
X95000Y291500D02*X96500Y293000D01*
Y296500D01*
X101000Y301500D02*Y288500D01*
X99000Y286500D01*
X105500Y306500D02*Y284000D01*
X103000Y281500D01*
X118000Y311500D02*X123000D01*
X119000D02*X114000D01*
X111000Y308500D01*
Y281500D01*
G54D34*X128000Y301500D02*X137000D01*
G54D32*X123000Y291500D02*X118000D01*
X123000Y301500D02*X129000D01*
X123500Y311500D02*X129000D01*
X132000Y314500D01*
X137500D01*
X139000Y313000D01*
Y307500D01*
G54D35*X133000Y276500D03*
X123000Y281500D03*
X133000Y286500D03*
X123000Y291500D03*
X133000Y296500D03*
X123000Y301500D03*
X133000Y306500D03*
X123000Y311500D03*
G54D36*X158000Y271500D03*
Y316500D03*
G54D31*G36*
X141000Y28500D02*Y20500D01*
X149000D01*
Y28500D01*
X141000D01*
G37*
G54D37*X95000Y24500D03*
G54D35*X67000Y296500D03*
X57000Y291500D03*
X67000Y286500D03*
X57000Y281500D03*
Y311500D03*
X67000Y306500D03*
X57000Y301500D03*
X67000Y276500D03*
G54D36*X32000Y316500D03*
Y271500D03*
G54D33*X25043Y149500D03*
X11000Y122000D03*
X12000Y6000D03*
X8500Y9500D03*
X42500Y70500D03*
Y65500D03*
X65000Y55000D03*
Y49500D03*
X59500D03*
X35000Y89500D03*
X40000D03*
Y94500D03*
X35000D03*
X34500Y100000D03*
X25000Y159500D03*
X22000Y212500D03*
X28000D03*
X44000Y159000D03*
X56500Y218500D03*
Y197000D03*
X89500Y296500D03*
X96500D03*
X101000Y301500D03*
X105500Y306500D03*
X76000Y311500D03*
X85000Y301500D03*
X80500Y306500D03*
X166000Y202500D03*
X113000Y208000D03*
X106000Y182000D03*
X185000Y212500D03*
X82500Y193000D03*
X79000Y239500D03*
X84000D03*
X80500Y261000D03*
X85500D03*
X87500Y193000D03*
X153000Y218000D03*
X155500Y165500D03*
X149500D03*
X166000Y149500D03*
X159000Y128500D03*
X166000Y90500D03*
X83500Y131500D03*
X89500D03*
X119000Y114000D03*
Y107000D03*
X65000Y60500D03*
X98000Y81000D03*
Y71000D03*
Y76000D03*
Y86000D03*
X106000Y29500D03*
X112000D03*
X118000D03*
X106000Y21500D03*
X112000D03*
X118000D03*
X123500Y29500D03*
X129500D03*
X123500Y21500D03*
X129500D03*
G54D38*G54D39*G54D40*G54D41*G54D39*G54D40*M02*
