G04 start of page 12 for group -3984 idx -3984 *
G04 Title: (unknown), fab *
G04 Creator: pcb 20140316 *
G04 CreationDate: Wed 08 Jun 2016 07:53:43 PM GMT UTC *
G04 For: ndholmes *
G04 Format: Gerber/RS-274X *
G04 PCB-Dimensions (mil): 1900.00 3250.00 *
G04 PCB-Coordinate-Origin: lower left *
%MOIN*%
%FSLAX25Y25*%
%LNFAB*%
%ADD80C,0.0100*%
%ADD79C,0.0060*%
%ADD78R,0.0080X0.0080*%
G54D78*X31200Y316500D02*G75*G03X32800Y316500I800J0D01*G01*
G75*G03X31200Y316500I-800J0D01*G01*
Y271500D02*G75*G03X32800Y271500I800J0D01*G01*
G75*G03X31200Y271500I-800J0D01*G01*
X157200D02*G75*G03X158800Y271500I800J0D01*G01*
G75*G03X157200Y271500I-800J0D01*G01*
Y316500D02*G75*G03X158800Y316500I800J0D01*G01*
G75*G03X157200Y316500I-800J0D01*G01*
X14200Y336250D02*G75*G03X15800Y336250I800J0D01*G01*
G75*G03X14200Y336250I-800J0D01*G01*
G54D79*X135000Y338500D02*Y337750D01*
X136500Y336250D01*
X138000Y337750D01*
Y338500D02*Y337750D01*
X136500Y336250D02*Y332500D01*
X139800Y335500D02*X142050D01*
X139800Y332500D02*X142800D01*
X139800Y338500D02*Y332500D01*
Y338500D02*X142800D01*
X147600D02*X148350Y337750D01*
X145350Y338500D02*X147600D01*
X144600Y337750D02*X145350Y338500D01*
X144600Y337750D02*Y336250D01*
X145350Y335500D01*
X147600D01*
X148350Y334750D01*
Y333250D01*
X147600Y332500D02*X148350Y333250D01*
X145350Y332500D02*X147600D01*
X144600Y333250D02*X145350Y332500D01*
X98000Y335500D02*X101000Y338500D01*
X98000Y335500D02*X101750D01*
X101000Y338500D02*Y332500D01*
X45000Y333250D02*X45750Y332500D01*
X45000Y337750D02*Y333250D01*
Y337750D02*X45750Y338500D01*
X47250D01*
X48000Y337750D01*
Y333250D01*
X47250Y332500D02*X48000Y333250D01*
X45750Y332500D02*X47250D01*
X45000Y334000D02*X48000Y337000D01*
X49800Y332500D02*X50550D01*
X53100D02*X54600D01*
X53850Y338500D02*Y332500D01*
X52350Y337000D02*X53850Y338500D01*
X56400Y337750D02*X57150Y338500D01*
X59400D01*
X60150Y337750D01*
Y336250D01*
X56400Y332500D02*X60150Y336250D01*
X56400Y332500D02*X60150D01*
X61950Y333250D02*X62700Y332500D01*
X61950Y334750D02*Y333250D01*
Y334750D02*X62700Y335500D01*
X64200D01*
X64950Y334750D01*
Y333250D01*
X64200Y332500D02*X64950Y333250D01*
X62700Y332500D02*X64200D01*
X61950Y336250D02*X62700Y335500D01*
X61950Y337750D02*Y336250D01*
Y337750D02*X62700Y338500D01*
X64200D01*
X64950Y337750D01*
Y336250D01*
X64200Y335500D02*X64950Y336250D01*
X143800Y25700D02*X146200Y23300D01*
X143800D02*X146200Y25700D01*
X93800D02*X96200Y23300D01*
X93800D02*X96200Y25700D01*
X13800Y352450D02*X16200Y350050D01*
X13800D02*X16200Y352450D01*
X135000Y353500D02*Y352750D01*
X136500Y351250D01*
X138000Y352750D01*
Y353500D02*Y352750D01*
X136500Y351250D02*Y347500D01*
X139800Y350500D02*X142050D01*
X139800Y347500D02*X142800D01*
X139800Y353500D02*Y347500D01*
Y353500D02*X142800D01*
X147600D02*X148350Y352750D01*
X145350Y353500D02*X147600D01*
X144600Y352750D02*X145350Y353500D01*
X144600Y352750D02*Y351250D01*
X145350Y350500D01*
X147600D01*
X148350Y349750D01*
Y348250D01*
X147600Y347500D02*X148350Y348250D01*
X145350Y347500D02*X147600D01*
X144600Y348250D02*X145350Y347500D01*
X98000Y352750D02*X98750Y353500D01*
X101000D01*
X101750Y352750D01*
Y351250D01*
X98000Y347500D02*X101750Y351250D01*
X98000Y347500D02*X101750D01*
X45000Y348250D02*X45750Y347500D01*
X45000Y352750D02*Y348250D01*
Y352750D02*X45750Y353500D01*
X47250D01*
X48000Y352750D01*
Y348250D01*
X47250Y347500D02*X48000Y348250D01*
X45750Y347500D02*X47250D01*
X45000Y349000D02*X48000Y352000D01*
X49800Y347500D02*X50550D01*
X52350Y348250D02*X53100Y347500D01*
X52350Y352750D02*Y348250D01*
Y352750D02*X53100Y353500D01*
X54600D01*
X55350Y352750D01*
Y348250D01*
X54600Y347500D02*X55350Y348250D01*
X53100Y347500D02*X54600D01*
X52350Y349000D02*X55350Y352000D01*
X57150Y350500D02*X60150Y353500D01*
X57150Y350500D02*X60900D01*
X60150Y353500D02*Y347500D01*
X62700Y348250D02*X63450Y347500D01*
X62700Y349750D02*Y348250D01*
Y349750D02*X63450Y350500D01*
X64950D01*
X65700Y349750D01*
Y348250D01*
X64950Y347500D02*X65700Y348250D01*
X63450Y347500D02*X64950D01*
X62700Y351250D02*X63450Y350500D01*
X62700Y352750D02*Y351250D01*
Y352750D02*X63450Y353500D01*
X64950D01*
X65700Y352750D01*
Y351250D01*
X64950Y350500D02*X65700Y351250D01*
X57000Y313100D02*Y309900D01*
X55400Y311500D02*X58600D01*
X67000Y308100D02*Y304900D01*
X65400Y306500D02*X68600D01*
X57000Y303100D02*Y299900D01*
X55400Y301500D02*X58600D01*
X67000Y298100D02*Y294900D01*
X65400Y296500D02*X68600D01*
X57000Y293100D02*Y289900D01*
X55400Y291500D02*X58600D01*
X67000Y288100D02*Y284900D01*
X65400Y286500D02*X68600D01*
X57000Y283100D02*Y279900D01*
X55400Y281500D02*X58600D01*
X67000Y278100D02*Y274900D01*
X65400Y276500D02*X68600D01*
X133000Y278100D02*Y274900D01*
X131400Y276500D02*X134600D01*
X123000Y283100D02*Y279900D01*
X121400Y281500D02*X124600D01*
X133000Y288100D02*Y284900D01*
X131400Y286500D02*X134600D01*
X123000Y293100D02*Y289900D01*
X121400Y291500D02*X124600D01*
X133000Y298100D02*Y294900D01*
X131400Y296500D02*X134600D01*
X123000Y303100D02*Y299900D01*
X121400Y301500D02*X124600D01*
X133000Y308100D02*Y304900D01*
X131400Y306500D02*X134600D01*
X123000Y313100D02*Y309900D01*
X121400Y311500D02*X124600D01*
X15000Y367850D02*Y364650D01*
X13400Y366250D02*X16600D01*
X135000Y368500D02*Y367750D01*
X136500Y366250D01*
X138000Y367750D01*
Y368500D02*Y367750D01*
X136500Y366250D02*Y362500D01*
X139800Y365500D02*X142050D01*
X139800Y362500D02*X142800D01*
X139800Y368500D02*Y362500D01*
Y368500D02*X142800D01*
X147600D02*X148350Y367750D01*
X145350Y368500D02*X147600D01*
X144600Y367750D02*X145350Y368500D01*
X144600Y367750D02*Y366250D01*
X145350Y365500D01*
X147600D01*
X148350Y364750D01*
Y363250D01*
X147600Y362500D02*X148350Y363250D01*
X145350Y362500D02*X147600D01*
X144600Y363250D02*X145350Y362500D01*
X98750D02*X100250D01*
X99500Y368500D02*Y362500D01*
X98000Y367000D02*X99500Y368500D01*
X104300D02*X105050Y367750D01*
X102800Y368500D02*X104300D01*
X102050Y367750D02*X102800Y368500D01*
X102050Y367750D02*Y363250D01*
X102800Y362500D01*
X104300Y365500D02*X105050Y364750D01*
X102050Y365500D02*X104300D01*
X102800Y362500D02*X104300D01*
X105050Y363250D01*
Y364750D02*Y363250D01*
X45000D02*X45750Y362500D01*
X45000Y367750D02*Y363250D01*
Y367750D02*X45750Y368500D01*
X47250D01*
X48000Y367750D01*
Y363250D01*
X47250Y362500D02*X48000Y363250D01*
X45750Y362500D02*X47250D01*
X45000Y364000D02*X48000Y367000D01*
X49800Y362500D02*X50550D01*
X52350Y363250D02*X53100Y362500D01*
X52350Y367750D02*Y363250D01*
Y367750D02*X53100Y368500D01*
X54600D01*
X55350Y367750D01*
Y363250D01*
X54600Y362500D02*X55350Y363250D01*
X53100Y362500D02*X54600D01*
X52350Y364000D02*X55350Y367000D01*
X57150Y367750D02*X57900Y368500D01*
X59400D01*
X60150Y367750D01*
Y363250D01*
X59400Y362500D02*X60150Y363250D01*
X57900Y362500D02*X59400D01*
X57150Y363250D02*X57900Y362500D01*
Y365500D02*X60150D01*
X61950Y363250D02*X62700Y362500D01*
X61950Y367750D02*Y363250D01*
Y367750D02*X62700Y368500D01*
X64200D01*
X64950Y367750D01*
Y363250D01*
X64200Y362500D02*X64950Y363250D01*
X62700Y362500D02*X64200D01*
X61950Y364000D02*X64950Y367000D01*
X76000Y311500D02*Y309900D01*
Y311500D02*X77387Y312300D01*
X76000Y311500D02*X74613Y312300D01*
X85000Y301500D02*Y299900D01*
Y301500D02*X86387Y302300D01*
X85000Y301500D02*X83613Y302300D01*
X89500Y296500D02*Y294900D01*
Y296500D02*X90887Y297300D01*
X89500Y296500D02*X88113Y297300D01*
X80500Y306500D02*Y304900D01*
Y306500D02*X81887Y307300D01*
X80500Y306500D02*X79113Y307300D01*
X96500Y296500D02*Y294900D01*
Y296500D02*X97887Y297300D01*
X96500Y296500D02*X95113Y297300D01*
X101000Y301500D02*Y299900D01*
Y301500D02*X102387Y302300D01*
X101000Y301500D02*X99613Y302300D01*
X105500Y306500D02*Y304900D01*
Y306500D02*X106887Y307300D01*
X105500Y306500D02*X104113Y307300D01*
X25043Y149500D02*Y147900D01*
Y149500D02*X26430Y150300D01*
X25043Y149500D02*X23656Y150300D01*
X166000Y202500D02*Y200900D01*
Y202500D02*X167387Y203300D01*
X166000Y202500D02*X164613Y203300D01*
X166000Y149500D02*Y147900D01*
Y149500D02*X167387Y150300D01*
X166000Y149500D02*X164613Y150300D01*
X166000Y90500D02*Y88900D01*
Y90500D02*X167387Y91300D01*
X166000Y90500D02*X164613Y91300D01*
X159000Y128500D02*Y126900D01*
Y128500D02*X160387Y129300D01*
X159000Y128500D02*X157613Y129300D01*
X113000Y208000D02*Y206400D01*
Y208000D02*X114387Y208800D01*
X113000Y208000D02*X111613Y208800D01*
X106000Y182000D02*Y180400D01*
Y182000D02*X107387Y182800D01*
X106000Y182000D02*X104613Y182800D01*
X42500Y70500D02*Y68900D01*
Y70500D02*X43887Y71300D01*
X42500Y70500D02*X41113Y71300D01*
X42500Y65500D02*Y63900D01*
Y65500D02*X43887Y66300D01*
X42500Y65500D02*X41113Y66300D01*
X35000Y89500D02*Y87900D01*
Y89500D02*X36387Y90300D01*
X35000Y89500D02*X33613Y90300D01*
X40000Y89500D02*Y87900D01*
Y89500D02*X41387Y90300D01*
X40000Y89500D02*X38613Y90300D01*
X40000Y94500D02*Y92900D01*
Y94500D02*X41387Y95300D01*
X40000Y94500D02*X38613Y95300D01*
X35000Y94500D02*Y92900D01*
Y94500D02*X36387Y95300D01*
X35000Y94500D02*X33613Y95300D01*
X65000Y60500D02*Y58900D01*
Y60500D02*X66387Y61300D01*
X65000Y60500D02*X63613Y61300D01*
X65000Y55000D02*Y53400D01*
Y55000D02*X66387Y55800D01*
X65000Y55000D02*X63613Y55800D01*
X65000Y49500D02*Y47900D01*
Y49500D02*X66387Y50300D01*
X65000Y49500D02*X63613Y50300D01*
X59500Y49500D02*Y47900D01*
Y49500D02*X60887Y50300D01*
X59500Y49500D02*X58113Y50300D01*
X98000Y81000D02*Y79400D01*
Y81000D02*X99387Y81800D01*
X98000Y81000D02*X96613Y81800D01*
X98000Y71000D02*Y69400D01*
Y71000D02*X99387Y71800D01*
X98000Y71000D02*X96613Y71800D01*
X34500Y100000D02*Y98400D01*
Y100000D02*X35887Y100800D01*
X34500Y100000D02*X33113Y100800D01*
X98000Y76000D02*Y74400D01*
Y76000D02*X99387Y76800D01*
X98000Y76000D02*X96613Y76800D01*
X98000Y86000D02*Y84400D01*
Y86000D02*X99387Y86800D01*
X98000Y86000D02*X96613Y86800D01*
X25000Y159500D02*Y157900D01*
Y159500D02*X26387Y160300D01*
X25000Y159500D02*X23613Y160300D01*
X44000Y159000D02*Y157400D01*
Y159000D02*X45387Y159800D01*
X44000Y159000D02*X42613Y159800D01*
X83500Y131500D02*Y129900D01*
Y131500D02*X84887Y132300D01*
X83500Y131500D02*X82113Y132300D01*
X89500Y131500D02*Y129900D01*
Y131500D02*X90887Y132300D01*
X89500Y131500D02*X88113Y132300D01*
X82500Y193000D02*Y191400D01*
Y193000D02*X83887Y193800D01*
X82500Y193000D02*X81113Y193800D01*
X87500Y193000D02*Y191400D01*
Y193000D02*X88887Y193800D01*
X87500Y193000D02*X86113Y193800D01*
X22000Y212500D02*Y210900D01*
Y212500D02*X23387Y213300D01*
X22000Y212500D02*X20613Y213300D01*
X28000Y212500D02*Y210900D01*
Y212500D02*X29387Y213300D01*
X28000Y212500D02*X26613Y213300D01*
X153000Y218000D02*Y216400D01*
Y218000D02*X154387Y218800D01*
X153000Y218000D02*X151613Y218800D01*
X155500Y165500D02*Y163900D01*
Y165500D02*X156887Y166300D01*
X155500Y165500D02*X154113Y166300D01*
X79000Y239500D02*Y237900D01*
Y239500D02*X80387Y240300D01*
X79000Y239500D02*X77613Y240300D01*
X84000Y239500D02*Y237900D01*
Y239500D02*X85387Y240300D01*
X84000Y239500D02*X82613Y240300D01*
X80500Y261000D02*Y259400D01*
Y261000D02*X81887Y261800D01*
X80500Y261000D02*X79113Y261800D01*
X85500Y261000D02*Y259400D01*
Y261000D02*X86887Y261800D01*
X85500Y261000D02*X84113Y261800D01*
X119000Y114000D02*Y112400D01*
Y114000D02*X120387Y114800D01*
X119000Y114000D02*X117613Y114800D01*
X119000Y107000D02*Y105400D01*
Y107000D02*X120387Y107800D01*
X119000Y107000D02*X117613Y107800D01*
X56500Y218500D02*Y216900D01*
Y218500D02*X57887Y219300D01*
X56500Y218500D02*X55113Y219300D01*
X56500Y197000D02*Y195400D01*
Y197000D02*X57887Y197800D01*
X56500Y197000D02*X55113Y197800D01*
X11000Y122000D02*Y120400D01*
Y122000D02*X12387Y122800D01*
X11000Y122000D02*X9613Y122800D01*
X12000Y6000D02*Y4400D01*
Y6000D02*X13387Y6800D01*
X12000Y6000D02*X10613Y6800D01*
X8500Y9500D02*Y7900D01*
Y9500D02*X9887Y10300D01*
X8500Y9500D02*X7113Y10300D01*
X106000Y29500D02*Y27900D01*
Y29500D02*X107387Y30300D01*
X106000Y29500D02*X104613Y30300D01*
X112000Y29500D02*Y27900D01*
Y29500D02*X113387Y30300D01*
X112000Y29500D02*X110613Y30300D01*
X118000Y29500D02*Y27900D01*
Y29500D02*X119387Y30300D01*
X118000Y29500D02*X116613Y30300D01*
X106000Y21500D02*Y19900D01*
Y21500D02*X107387Y22300D01*
X106000Y21500D02*X104613Y22300D01*
X112000Y21500D02*Y19900D01*
Y21500D02*X113387Y22300D01*
X112000Y21500D02*X110613Y22300D01*
X118000Y21500D02*Y19900D01*
Y21500D02*X119387Y22300D01*
X118000Y21500D02*X116613Y22300D01*
X123500Y29500D02*Y27900D01*
Y29500D02*X124887Y30300D01*
X123500Y29500D02*X122113Y30300D01*
X129500Y29500D02*Y27900D01*
Y29500D02*X130887Y30300D01*
X129500Y29500D02*X128113Y30300D01*
X123500Y21500D02*Y19900D01*
Y21500D02*X124887Y22300D01*
X123500Y21500D02*X122113Y22300D01*
X129500Y21500D02*Y19900D01*
Y21500D02*X130887Y22300D01*
X129500Y21500D02*X128113Y22300D01*
X149500Y165500D02*Y163900D01*
Y165500D02*X150887Y166300D01*
X149500Y165500D02*X148113Y166300D01*
X185000Y212500D02*Y210900D01*
Y212500D02*X186387Y213300D01*
X185000Y212500D02*X183613Y213300D01*
X15000Y381250D02*Y379650D01*
Y381250D02*X16387Y382050D01*
X15000Y381250D02*X13613Y382050D01*
X135000Y383500D02*Y382750D01*
X136500Y381250D01*
X138000Y382750D01*
Y383500D02*Y382750D01*
X136500Y381250D02*Y377500D01*
X139800Y380500D02*X142050D01*
X139800Y377500D02*X142800D01*
X139800Y383500D02*Y377500D01*
Y383500D02*X142800D01*
X147600D02*X148350Y382750D01*
X145350Y383500D02*X147600D01*
X144600Y382750D02*X145350Y383500D01*
X144600Y382750D02*Y381250D01*
X145350Y380500D01*
X147600D01*
X148350Y379750D01*
Y378250D01*
X147600Y377500D02*X148350Y378250D01*
X145350Y377500D02*X147600D01*
X144600Y378250D02*X145350Y377500D01*
X100250Y383500D02*X101000Y382750D01*
X98750Y383500D02*X100250D01*
X98000Y382750D02*X98750Y383500D01*
X98000Y382750D02*Y378250D01*
X98750Y377500D01*
X100250Y380500D02*X101000Y379750D01*
X98000Y380500D02*X100250D01*
X98750Y377500D02*X100250D01*
X101000Y378250D01*
Y379750D02*Y378250D01*
X102800Y382750D02*X103550Y383500D01*
X105800D01*
X106550Y382750D01*
Y381250D01*
X102800Y377500D02*X106550Y381250D01*
X102800Y377500D02*X106550D01*
X45000Y378250D02*X45750Y377500D01*
X45000Y382750D02*Y378250D01*
Y382750D02*X45750Y383500D01*
X47250D01*
X48000Y382750D01*
Y378250D01*
X47250Y377500D02*X48000Y378250D01*
X45750Y377500D02*X47250D01*
X45000Y379000D02*X48000Y382000D01*
X49800Y377500D02*X50550D01*
X52350Y378250D02*X53100Y377500D01*
X52350Y382750D02*Y378250D01*
Y382750D02*X53100Y383500D01*
X54600D01*
X55350Y382750D01*
Y378250D01*
X54600Y377500D02*X55350Y378250D01*
X53100Y377500D02*X54600D01*
X52350Y379000D02*X55350Y382000D01*
X57150Y382750D02*X57900Y383500D01*
X60150D01*
X60900Y382750D01*
Y381250D01*
X57150Y377500D02*X60900Y381250D01*
X57150Y377500D02*X60900D01*
X62700Y378250D02*X63450Y377500D01*
X62700Y382750D02*Y378250D01*
Y382750D02*X63450Y383500D01*
X64950D01*
X65700Y382750D01*
Y378250D01*
X64950Y377500D02*X65700Y378250D01*
X63450Y377500D02*X64950D01*
X62700Y379000D02*X65700Y382000D01*
X3000Y398500D02*X3750Y397750D01*
X750Y398500D02*X3000D01*
X0Y397750D02*X750Y398500D01*
X0Y397750D02*Y396250D01*
X750Y395500D01*
X3000D01*
X3750Y394750D01*
Y393250D01*
X3000Y392500D02*X3750Y393250D01*
X750Y392500D02*X3000D01*
X0Y393250D02*X750Y392500D01*
X5550Y395500D02*Y393250D01*
X6300Y392500D01*
X8550Y395500D02*Y391000D01*
X7800Y390250D02*X8550Y391000D01*
X6300Y390250D02*X7800D01*
X5550Y391000D02*X6300Y390250D01*
Y392500D02*X7800D01*
X8550Y393250D01*
X11100Y394750D02*Y392500D01*
Y394750D02*X11850Y395500D01*
X12600D01*
X13350Y394750D01*
Y392500D01*
Y394750D02*X14100Y395500D01*
X14850D01*
X15600Y394750D01*
Y392500D01*
X10350Y395500D02*X11100Y394750D01*
X17400Y398500D02*Y392500D01*
Y393250D02*X18150Y392500D01*
X19650D01*
X20400Y393250D01*
Y394750D02*Y393250D01*
X19650Y395500D02*X20400Y394750D01*
X18150Y395500D02*X19650D01*
X17400Y394750D02*X18150Y395500D01*
X22200Y394750D02*Y393250D01*
Y394750D02*X22950Y395500D01*
X24450D01*
X25200Y394750D01*
Y393250D01*
X24450Y392500D02*X25200Y393250D01*
X22950Y392500D02*X24450D01*
X22200Y393250D02*X22950Y392500D01*
X27000Y398500D02*Y393250D01*
X27750Y392500D01*
X0Y389250D02*X29250D01*
X41750Y398500D02*Y392500D01*
X44000Y398500D02*X44750Y397750D01*
Y393250D01*
X44000Y392500D02*X44750Y393250D01*
X41000Y392500D02*X44000D01*
X41000Y398500D02*X44000D01*
X46550Y397000D02*Y396250D01*
Y394750D02*Y392500D01*
X50300Y395500D02*X51050Y394750D01*
X48800Y395500D02*X50300D01*
X48050Y394750D02*X48800Y395500D01*
X48050Y394750D02*Y393250D01*
X48800Y392500D01*
X51050Y395500D02*Y393250D01*
X51800Y392500D01*
X48800D02*X50300D01*
X51050Y393250D01*
X54350Y394750D02*Y392500D01*
Y394750D02*X55100Y395500D01*
X55850D01*
X56600Y394750D01*
Y392500D01*
Y394750D02*X57350Y395500D01*
X58100D01*
X58850Y394750D01*
Y392500D01*
X53600Y395500D02*X54350Y394750D01*
X60650Y392500D02*X61400D01*
X65900Y393250D02*X66650Y392500D01*
X65900Y397750D02*X66650Y398500D01*
X65900Y397750D02*Y393250D01*
X68450Y398500D02*X69950D01*
X69200D02*Y392500D01*
X68450D02*X69950D01*
X72500Y394750D02*Y392500D01*
Y394750D02*X73250Y395500D01*
X74000D01*
X74750Y394750D01*
Y392500D01*
X71750Y395500D02*X72500Y394750D01*
X77300Y395500D02*X79550D01*
X76550Y394750D02*X77300Y395500D01*
X76550Y394750D02*Y393250D01*
X77300Y392500D01*
X79550D01*
X81350Y398500D02*Y392500D01*
Y394750D02*X82100Y395500D01*
X83600D01*
X84350Y394750D01*
Y392500D01*
X86150Y398500D02*X86900Y397750D01*
Y393250D01*
X86150Y392500D02*X86900Y393250D01*
X41000Y389250D02*X88700D01*
X95750Y392500D02*X98000D01*
X95000Y393250D02*X95750Y392500D01*
X95000Y397750D02*Y393250D01*
Y397750D02*X95750Y398500D01*
X98000D01*
X99800Y394750D02*Y393250D01*
Y394750D02*X100550Y395500D01*
X102050D01*
X102800Y394750D01*
Y393250D01*
X102050Y392500D02*X102800Y393250D01*
X100550Y392500D02*X102050D01*
X99800Y393250D02*X100550Y392500D01*
X104600Y395500D02*Y393250D01*
X105350Y392500D01*
X106850D01*
X107600Y393250D01*
Y395500D02*Y393250D01*
X110150Y394750D02*Y392500D01*
Y394750D02*X110900Y395500D01*
X111650D01*
X112400Y394750D01*
Y392500D01*
X109400Y395500D02*X110150Y394750D01*
X114950Y398500D02*Y393250D01*
X115700Y392500D01*
X114200Y396250D02*X115700D01*
X95000Y389250D02*X117200D01*
X130750Y398500D02*Y392500D01*
X130000Y398500D02*X133000D01*
X133750Y397750D01*
Y396250D01*
X133000Y395500D02*X133750Y396250D01*
X130750Y395500D02*X133000D01*
X135550Y398500D02*Y393250D01*
X136300Y392500D01*
X140050Y395500D02*X140800Y394750D01*
X138550Y395500D02*X140050D01*
X137800Y394750D02*X138550Y395500D01*
X137800Y394750D02*Y393250D01*
X138550Y392500D01*
X140800Y395500D02*Y393250D01*
X141550Y392500D01*
X138550D02*X140050D01*
X140800Y393250D01*
X144100Y398500D02*Y393250D01*
X144850Y392500D01*
X143350Y396250D02*X144850D01*
X147100Y392500D02*X149350D01*
X146350Y393250D02*X147100Y392500D01*
X146350Y394750D02*Y393250D01*
Y394750D02*X147100Y395500D01*
X148600D01*
X149350Y394750D01*
X146350Y394000D02*X149350D01*
Y394750D02*Y394000D01*
X154150Y398500D02*Y392500D01*
X153400D02*X154150Y393250D01*
X151900Y392500D02*X153400D01*
X151150Y393250D02*X151900Y392500D01*
X151150Y394750D02*Y393250D01*
Y394750D02*X151900Y395500D01*
X153400D01*
X154150Y394750D01*
X157450Y395500D02*Y394750D01*
Y393250D02*Y392500D01*
X155950Y397750D02*Y397000D01*
Y397750D02*X156700Y398500D01*
X158200D01*
X158950Y397750D01*
Y397000D01*
X157450Y395500D02*X158950Y397000D01*
X130000Y389250D02*X160750D01*
X0Y413500D02*X3000D01*
X1500D02*Y407500D01*
X4800Y413500D02*Y407500D01*
Y409750D02*X5550Y410500D01*
X7050D01*
X7800Y409750D01*
Y407500D01*
X10350D02*X12600D01*
X9600Y408250D02*X10350Y407500D01*
X9600Y409750D02*Y408250D01*
Y409750D02*X10350Y410500D01*
X11850D01*
X12600Y409750D01*
X9600Y409000D02*X12600D01*
Y409750D02*Y409000D01*
X15150Y409750D02*Y407500D01*
Y409750D02*X15900Y410500D01*
X17400D01*
X14400D02*X15150Y409750D01*
X19950Y407500D02*X22200D01*
X19200Y408250D02*X19950Y407500D01*
X19200Y409750D02*Y408250D01*
Y409750D02*X19950Y410500D01*
X21450D01*
X22200Y409750D01*
X19200Y409000D02*X22200D01*
Y409750D02*Y409000D01*
X28950Y410500D02*X29700Y409750D01*
X27450Y410500D02*X28950D01*
X26700Y409750D02*X27450Y410500D01*
X26700Y409750D02*Y408250D01*
X27450Y407500D01*
X29700Y410500D02*Y408250D01*
X30450Y407500D01*
X27450D02*X28950D01*
X29700Y408250D01*
X33000Y409750D02*Y407500D01*
Y409750D02*X33750Y410500D01*
X35250D01*
X32250D02*X33000Y409750D01*
X37800Y407500D02*X40050D01*
X37050Y408250D02*X37800Y407500D01*
X37050Y409750D02*Y408250D01*
Y409750D02*X37800Y410500D01*
X39300D01*
X40050Y409750D01*
X37050Y409000D02*X40050D01*
Y409750D02*Y409000D01*
X44550Y410500D02*X47550Y413500D01*
X44550Y410500D02*X48300D01*
X47550Y413500D02*Y407500D01*
X55800Y413500D02*Y407500D01*
X55050D02*X55800Y408250D01*
X53550Y407500D02*X55050D01*
X52800Y408250D02*X53550Y407500D01*
X52800Y409750D02*Y408250D01*
Y409750D02*X53550Y410500D01*
X55050D01*
X55800Y409750D01*
X57600Y412000D02*Y411250D01*
Y409750D02*Y407500D01*
X59850Y412750D02*Y407500D01*
Y412750D02*X60600Y413500D01*
X61350D01*
X59100Y410500D02*X60600D01*
X63600Y412750D02*Y407500D01*
Y412750D02*X64350Y413500D01*
X65100D01*
X62850Y410500D02*X64350D01*
X67350Y407500D02*X69600D01*
X66600Y408250D02*X67350Y407500D01*
X66600Y409750D02*Y408250D01*
Y409750D02*X67350Y410500D01*
X68850D01*
X69600Y409750D01*
X66600Y409000D02*X69600D01*
Y409750D02*Y409000D01*
X72150Y409750D02*Y407500D01*
Y409750D02*X72900Y410500D01*
X74400D01*
X71400D02*X72150Y409750D01*
X76950Y407500D02*X79200D01*
X76200Y408250D02*X76950Y407500D01*
X76200Y409750D02*Y408250D01*
Y409750D02*X76950Y410500D01*
X78450D01*
X79200Y409750D01*
X76200Y409000D02*X79200D01*
Y409750D02*Y409000D01*
X81750Y409750D02*Y407500D01*
Y409750D02*X82500Y410500D01*
X83250D01*
X84000Y409750D01*
Y407500D01*
X81000Y410500D02*X81750Y409750D01*
X86550Y413500D02*Y408250D01*
X87300Y407500D01*
X85800Y411250D02*X87300D01*
X94500Y413500D02*Y407500D01*
X93750D02*X94500Y408250D01*
X92250Y407500D02*X93750D01*
X91500Y408250D02*X92250Y407500D01*
X91500Y409750D02*Y408250D01*
Y409750D02*X92250Y410500D01*
X93750D01*
X94500Y409750D01*
X97050D02*Y407500D01*
Y409750D02*X97800Y410500D01*
X99300D01*
X96300D02*X97050Y409750D01*
X101100Y412000D02*Y411250D01*
Y409750D02*Y407500D01*
X102600Y413500D02*Y408250D01*
X103350Y407500D01*
X104850Y413500D02*Y408250D01*
X105600Y407500D01*
X110550D02*X112800D01*
X113550Y408250D01*
X112800Y409000D02*X113550Y408250D01*
X110550Y409000D02*X112800D01*
X109800Y409750D02*X110550Y409000D01*
X109800Y409750D02*X110550Y410500D01*
X112800D01*
X113550Y409750D01*
X109800Y408250D02*X110550Y407500D01*
X115350Y412000D02*Y411250D01*
Y409750D02*Y407500D01*
X116850Y410500D02*X119850D01*
X116850Y407500D02*X119850Y410500D01*
X116850Y407500D02*X119850D01*
X122400D02*X124650D01*
X121650Y408250D02*X122400Y407500D01*
X121650Y409750D02*Y408250D01*
Y409750D02*X122400Y410500D01*
X123900D01*
X124650Y409750D01*
X121650Y409000D02*X124650D01*
Y409750D02*Y409000D01*
X127200Y407500D02*X129450D01*
X130200Y408250D01*
X129450Y409000D02*X130200Y408250D01*
X127200Y409000D02*X129450D01*
X126450Y409750D02*X127200Y409000D01*
X126450Y409750D02*X127200Y410500D01*
X129450D01*
X130200Y409750D01*
X126450Y408250D02*X127200Y407500D01*
X134700Y410500D02*Y408250D01*
X135450Y407500D01*
X136950D01*
X137700Y408250D01*
Y410500D02*Y408250D01*
X140250Y407500D02*X142500D01*
X143250Y408250D01*
X142500Y409000D02*X143250Y408250D01*
X140250Y409000D02*X142500D01*
X139500Y409750D02*X140250Y409000D01*
X139500Y409750D02*X140250Y410500D01*
X142500D01*
X143250Y409750D01*
X139500Y408250D02*X140250Y407500D01*
X145800D02*X148050D01*
X145050Y408250D02*X145800Y407500D01*
X145050Y409750D02*Y408250D01*
Y409750D02*X145800Y410500D01*
X147300D01*
X148050Y409750D01*
X145050Y409000D02*X148050D01*
Y409750D02*Y409000D01*
X152850Y413500D02*Y407500D01*
X152100D02*X152850Y408250D01*
X150600Y407500D02*X152100D01*
X149850Y408250D02*X150600Y407500D01*
X149850Y409750D02*Y408250D01*
Y409750D02*X150600Y410500D01*
X152100D01*
X152850Y409750D01*
X157350Y412000D02*Y411250D01*
Y409750D02*Y407500D01*
X159600Y409750D02*Y407500D01*
Y409750D02*X160350Y410500D01*
X161100D01*
X161850Y409750D01*
Y407500D01*
X158850Y410500D02*X159600Y409750D01*
X167100Y413500D02*Y408250D01*
X167850Y407500D01*
X166350Y411250D02*X167850D01*
X169350Y413500D02*Y407500D01*
Y409750D02*X170100Y410500D01*
X171600D01*
X172350Y409750D01*
Y407500D01*
X174150Y412000D02*Y411250D01*
Y409750D02*Y407500D01*
X176400D02*X178650D01*
X179400Y408250D01*
X178650Y409000D02*X179400Y408250D01*
X176400Y409000D02*X178650D01*
X175650Y409750D02*X176400Y409000D01*
X175650Y409750D02*X176400Y410500D01*
X178650D01*
X179400Y409750D01*
X175650Y408250D02*X176400Y407500D01*
X183900Y413500D02*Y408250D01*
X184650Y407500D01*
X188400Y410500D02*X189150Y409750D01*
X186900Y410500D02*X188400D01*
X186150Y409750D02*X186900Y410500D01*
X186150Y409750D02*Y408250D01*
X186900Y407500D01*
X189150Y410500D02*Y408250D01*
X189900Y407500D01*
X186900D02*X188400D01*
X189150Y408250D01*
X191700Y410500D02*Y408250D01*
X192450Y407500D01*
X194700Y410500D02*Y406000D01*
X193950Y405250D02*X194700Y406000D01*
X192450Y405250D02*X193950D01*
X191700Y406000D02*X192450Y405250D01*
Y407500D02*X193950D01*
X194700Y408250D01*
X196500Y409750D02*Y408250D01*
Y409750D02*X197250Y410500D01*
X198750D01*
X199500Y409750D01*
Y408250D01*
X198750Y407500D02*X199500Y408250D01*
X197250Y407500D02*X198750D01*
X196500Y408250D02*X197250Y407500D01*
X201300Y410500D02*Y408250D01*
X202050Y407500D01*
X203550D01*
X204300Y408250D01*
Y410500D02*Y408250D01*
X206850Y413500D02*Y408250D01*
X207600Y407500D01*
X206100Y411250D02*X207600D01*
X209100Y406000D02*X210600Y407500D01*
X215100Y408250D02*X215850Y407500D01*
X215100Y409750D02*Y408250D01*
Y409750D02*X215850Y410500D01*
X217350D01*
X218100Y409750D01*
Y408250D01*
X217350Y407500D02*X218100Y408250D01*
X215850Y407500D02*X217350D01*
X215100Y411250D02*X215850Y410500D01*
X215100Y412750D02*Y411250D01*
Y412750D02*X215850Y413500D01*
X217350D01*
X218100Y412750D01*
Y411250D01*
X217350Y410500D02*X218100Y411250D01*
X219900Y410500D02*X222900Y413500D01*
X219900Y410500D02*X223650D01*
X222900Y413500D02*Y407500D01*
X228150Y413500D02*Y407500D01*
Y409750D02*X228900Y410500D01*
X230400D01*
X231150Y409750D01*
Y407500D01*
X232950Y409750D02*Y408250D01*
Y409750D02*X233700Y410500D01*
X235200D01*
X235950Y409750D01*
Y408250D01*
X235200Y407500D02*X235950Y408250D01*
X233700Y407500D02*X235200D01*
X232950Y408250D02*X233700Y407500D01*
X237750Y413500D02*Y408250D01*
X238500Y407500D01*
X240750D02*X243000D01*
X240000Y408250D02*X240750Y407500D01*
X240000Y409750D02*Y408250D01*
Y409750D02*X240750Y410500D01*
X242250D01*
X243000Y409750D01*
X240000Y409000D02*X243000D01*
Y409750D02*Y409000D01*
X245550Y407500D02*X247800D01*
X248550Y408250D01*
X247800Y409000D02*X248550Y408250D01*
X245550Y409000D02*X247800D01*
X244800Y409750D02*X245550Y409000D01*
X244800Y409750D02*X245550Y410500D01*
X247800D01*
X248550Y409750D01*
X244800Y408250D02*X245550Y407500D01*
X253800Y413500D02*Y408250D01*
X254550Y407500D01*
X253050Y411250D02*X254550D01*
X256050Y409750D02*Y408250D01*
Y409750D02*X256800Y410500D01*
X258300D01*
X259050Y409750D01*
Y408250D01*
X258300Y407500D02*X259050Y408250D01*
X256800Y407500D02*X258300D01*
X256050Y408250D02*X256800Y407500D01*
X261600Y413500D02*Y408250D01*
X262350Y407500D01*
X260850Y411250D02*X262350D01*
X266100Y410500D02*X266850Y409750D01*
X264600Y410500D02*X266100D01*
X263850Y409750D02*X264600Y410500D01*
X263850Y409750D02*Y408250D01*
X264600Y407500D01*
X266850Y410500D02*Y408250D01*
X267600Y407500D01*
X264600D02*X266100D01*
X266850Y408250D01*
X269400Y413500D02*Y408250D01*
X270150Y407500D01*
G54D80*X0Y325000D02*X190000D01*
Y0D01*
X0D01*
Y325000D01*
G54D79*X8675Y-9500D02*X11675D01*
X12425Y-8750D01*
Y-7250D02*Y-8750D01*
X11675Y-6500D02*X12425Y-7250D01*
X9425Y-6500D02*X11675D01*
X9425Y-3500D02*Y-9500D01*
X8675Y-3500D02*X11675D01*
X12425Y-4250D01*
Y-5750D01*
X11675Y-6500D02*X12425Y-5750D01*
X14225Y-7250D02*Y-8750D01*
Y-7250D02*X14975Y-6500D01*
X16475D01*
X17225Y-7250D01*
Y-8750D01*
X16475Y-9500D02*X17225Y-8750D01*
X14975Y-9500D02*X16475D01*
X14225Y-8750D02*X14975Y-9500D01*
X21275Y-6500D02*X22025Y-7250D01*
X19775Y-6500D02*X21275D01*
X19025Y-7250D02*X19775Y-6500D01*
X19025Y-7250D02*Y-8750D01*
X19775Y-9500D01*
X22025Y-6500D02*Y-8750D01*
X22775Y-9500D01*
X19775D02*X21275D01*
X22025Y-8750D01*
X25325Y-7250D02*Y-9500D01*
Y-7250D02*X26075Y-6500D01*
X27575D01*
X24575D02*X25325Y-7250D01*
X32375Y-3500D02*Y-9500D01*
X31625D02*X32375Y-8750D01*
X30125Y-9500D02*X31625D01*
X29375Y-8750D02*X30125Y-9500D01*
X29375Y-7250D02*Y-8750D01*
Y-7250D02*X30125Y-6500D01*
X31625D01*
X32375Y-7250D01*
X36875D02*Y-8750D01*
Y-7250D02*X37625Y-6500D01*
X39125D01*
X39875Y-7250D01*
Y-8750D01*
X39125Y-9500D02*X39875Y-8750D01*
X37625Y-9500D02*X39125D01*
X36875Y-8750D02*X37625Y-9500D01*
X41675Y-6500D02*Y-8750D01*
X42425Y-9500D01*
X43925D01*
X44675Y-8750D01*
Y-6500D02*Y-8750D01*
X47225Y-3500D02*Y-8750D01*
X47975Y-9500D01*
X46475Y-5750D02*X47975D01*
X49475Y-3500D02*Y-8750D01*
X50225Y-9500D01*
X51725Y-5000D02*Y-5750D01*
Y-7250D02*Y-9500D01*
X53975Y-7250D02*Y-9500D01*
Y-7250D02*X54725Y-6500D01*
X55475D01*
X56225Y-7250D01*
Y-9500D01*
X53225Y-6500D02*X53975Y-7250D01*
X58775Y-9500D02*X61025D01*
X58025Y-8750D02*X58775Y-9500D01*
X58025Y-7250D02*Y-8750D01*
Y-7250D02*X58775Y-6500D01*
X60275D01*
X61025Y-7250D01*
X58025Y-8000D02*X61025D01*
Y-7250D02*Y-8000D01*
X65525Y-5000D02*Y-5750D01*
Y-7250D02*Y-9500D01*
X67775D02*X70025D01*
X70775Y-8750D01*
X70025Y-8000D02*X70775Y-8750D01*
X67775Y-8000D02*X70025D01*
X67025Y-7250D02*X67775Y-8000D01*
X67025Y-7250D02*X67775Y-6500D01*
X70025D01*
X70775Y-7250D01*
X67025Y-8750D02*X67775Y-9500D01*
X76025Y-3500D02*Y-8750D01*
X76775Y-9500D01*
X75275Y-5750D02*X76775D01*
X78275Y-3500D02*Y-9500D01*
Y-7250D02*X79025Y-6500D01*
X80525D01*
X81275Y-7250D01*
Y-9500D01*
X83825D02*X86075D01*
X83075Y-8750D02*X83825Y-9500D01*
X83075Y-7250D02*Y-8750D01*
Y-7250D02*X83825Y-6500D01*
X85325D01*
X86075Y-7250D01*
X83075Y-8000D02*X86075D01*
Y-7250D02*Y-8000D01*
X91325Y-6500D02*X93575D01*
X90575Y-7250D02*X91325Y-6500D01*
X90575Y-7250D02*Y-8750D01*
X91325Y-9500D01*
X93575D01*
X96125D02*X98375D01*
X95375Y-8750D02*X96125Y-9500D01*
X95375Y-7250D02*Y-8750D01*
Y-7250D02*X96125Y-6500D01*
X97625D01*
X98375Y-7250D01*
X95375Y-8000D02*X98375D01*
Y-7250D02*Y-8000D01*
X100925Y-7250D02*Y-9500D01*
Y-7250D02*X101675Y-6500D01*
X102425D01*
X103175Y-7250D01*
Y-9500D01*
X100175Y-6500D02*X100925Y-7250D01*
X105725Y-3500D02*Y-8750D01*
X106475Y-9500D01*
X104975Y-5750D02*X106475D01*
X108725Y-9500D02*X110975D01*
X107975Y-8750D02*X108725Y-9500D01*
X107975Y-7250D02*Y-8750D01*
Y-7250D02*X108725Y-6500D01*
X110225D01*
X110975Y-7250D01*
X107975Y-8000D02*X110975D01*
Y-7250D02*Y-8000D01*
X113525Y-7250D02*Y-9500D01*
Y-7250D02*X114275Y-6500D01*
X115775D01*
X112775D02*X113525Y-7250D01*
X117575Y-3500D02*Y-8750D01*
X118325Y-9500D01*
X119825Y-5000D02*Y-5750D01*
Y-7250D02*Y-9500D01*
X122075Y-7250D02*Y-9500D01*
Y-7250D02*X122825Y-6500D01*
X123575D01*
X124325Y-7250D01*
Y-9500D01*
X121325Y-6500D02*X122075Y-7250D01*
X126875Y-9500D02*X129125D01*
X126125Y-8750D02*X126875Y-9500D01*
X126125Y-7250D02*Y-8750D01*
Y-7250D02*X126875Y-6500D01*
X128375D01*
X129125Y-7250D01*
X126125Y-8000D02*X129125D01*
Y-7250D02*Y-8000D01*
X133625Y-7250D02*Y-8750D01*
Y-7250D02*X134375Y-6500D01*
X135875D01*
X136625Y-7250D01*
Y-8750D01*
X135875Y-9500D02*X136625Y-8750D01*
X134375Y-9500D02*X135875D01*
X133625Y-8750D02*X134375Y-9500D01*
X139175Y-4250D02*Y-9500D01*
Y-4250D02*X139925Y-3500D01*
X140675D01*
X138425Y-6500D02*X139925D01*
X145625Y-3500D02*Y-8750D01*
X146375Y-9500D01*
X144875Y-5750D02*X146375D01*
X147875Y-3500D02*Y-9500D01*
Y-7250D02*X148625Y-6500D01*
X150125D01*
X150875Y-7250D01*
Y-9500D01*
X152675Y-5000D02*Y-5750D01*
Y-7250D02*Y-9500D01*
X154925D02*X157175D01*
X157925Y-8750D01*
X157175Y-8000D02*X157925Y-8750D01*
X154925Y-8000D02*X157175D01*
X154175Y-7250D02*X154925Y-8000D01*
X154175Y-7250D02*X154925Y-6500D01*
X157175D01*
X157925Y-7250D01*
X154175Y-8750D02*X154925Y-9500D01*
X163175Y-7250D02*Y-11750D01*
X162425Y-6500D02*X163175Y-7250D01*
X163925Y-6500D01*
X165425D01*
X166175Y-7250D01*
Y-8750D01*
X165425Y-9500D02*X166175Y-8750D01*
X163925Y-9500D02*X165425D01*
X163175Y-8750D02*X163925Y-9500D01*
X170225Y-6500D02*X170975Y-7250D01*
X168725Y-6500D02*X170225D01*
X167975Y-7250D02*X168725Y-6500D01*
X167975Y-7250D02*Y-8750D01*
X168725Y-9500D01*
X170975Y-6500D02*Y-8750D01*
X171725Y-9500D01*
X168725D02*X170225D01*
X170975Y-8750D01*
X174275Y-3500D02*Y-8750D01*
X175025Y-9500D01*
X173525Y-5750D02*X175025D01*
X176525Y-3500D02*Y-9500D01*
Y-7250D02*X177275Y-6500D01*
X178775D01*
X179525Y-7250D01*
Y-9500D01*
X200750Y353500D02*Y347500D01*
X203000Y353500D02*X203750Y352750D01*
Y348250D01*
X203000Y347500D02*X203750Y348250D01*
X200000Y347500D02*X203000D01*
X200000Y353500D02*X203000D01*
X207800Y350500D02*X208550Y349750D01*
X206300Y350500D02*X207800D01*
X205550Y349750D02*X206300Y350500D01*
X205550Y349750D02*Y348250D01*
X206300Y347500D01*
X208550Y350500D02*Y348250D01*
X209300Y347500D01*
X206300D02*X207800D01*
X208550Y348250D01*
X211850Y353500D02*Y348250D01*
X212600Y347500D01*
X211100Y351250D02*X212600D01*
X214850Y347500D02*X217100D01*
X214100Y348250D02*X214850Y347500D01*
X214100Y349750D02*Y348250D01*
Y349750D02*X214850Y350500D01*
X216350D01*
X217100Y349750D01*
X214100Y349000D02*X217100D01*
Y349750D02*Y349000D01*
X218900Y351250D02*X219650D01*
X218900Y349750D02*X219650D01*
X224150Y353500D02*Y347500D01*
X226400Y349750D01*
X228650Y347500D01*
Y353500D02*Y347500D01*
X231200D02*X233450D01*
X230450Y348250D02*X231200Y347500D01*
X230450Y349750D02*Y348250D01*
Y349750D02*X231200Y350500D01*
X232700D01*
X233450Y349750D01*
X230450Y349000D02*X233450D01*
Y349750D02*Y349000D01*
X238250Y353500D02*Y347500D01*
X237500D02*X238250Y348250D01*
X236000Y347500D02*X237500D01*
X235250Y348250D02*X236000Y347500D01*
X235250Y349750D02*Y348250D01*
Y349750D02*X236000Y350500D01*
X237500D01*
X238250Y349750D01*
X242750Y348250D02*X243500Y347500D01*
X242750Y352750D02*Y348250D01*
Y352750D02*X243500Y353500D01*
X245000D01*
X245750Y352750D01*
Y348250D01*
X245000Y347500D02*X245750Y348250D01*
X243500Y347500D02*X245000D01*
X242750Y349000D02*X245750Y352000D01*
X247550Y348250D02*X248300Y347500D01*
X247550Y349750D02*Y348250D01*
Y349750D02*X248300Y350500D01*
X249800D01*
X250550Y349750D01*
Y348250D01*
X249800Y347500D02*X250550Y348250D01*
X248300Y347500D02*X249800D01*
X247550Y351250D02*X248300Y350500D01*
X247550Y352750D02*Y351250D01*
Y352750D02*X248300Y353500D01*
X249800D01*
X250550Y352750D01*
Y351250D01*
X249800Y350500D02*X250550Y351250D01*
X255050Y353500D02*X257300D01*
Y348250D01*
X256550Y347500D02*X257300Y348250D01*
X255800Y347500D02*X256550D01*
X255050Y348250D02*X255800Y347500D01*
X259100Y350500D02*Y348250D01*
X259850Y347500D01*
X261350D01*
X262100Y348250D01*
Y350500D02*Y348250D01*
X264650Y349750D02*Y347500D01*
Y349750D02*X265400Y350500D01*
X266150D01*
X266900Y349750D01*
Y347500D01*
X263900Y350500D02*X264650Y349750D01*
X271400Y352750D02*X272150Y353500D01*
X274400D01*
X275150Y352750D01*
Y351250D01*
X271400Y347500D02*X275150Y351250D01*
X271400Y347500D02*X275150D01*
X276950Y348250D02*X277700Y347500D01*
X276950Y352750D02*Y348250D01*
Y352750D02*X277700Y353500D01*
X279200D01*
X279950Y352750D01*
Y348250D01*
X279200Y347500D02*X279950Y348250D01*
X277700Y347500D02*X279200D01*
X276950Y349000D02*X279950Y352000D01*
X282500Y347500D02*X284000D01*
X283250Y353500D02*Y347500D01*
X281750Y352000D02*X283250Y353500D01*
X288050D02*X288800Y352750D01*
X286550Y353500D02*X288050D01*
X285800Y352750D02*X286550Y353500D01*
X285800Y352750D02*Y348250D01*
X286550Y347500D01*
X288050Y350500D02*X288800Y349750D01*
X285800Y350500D02*X288050D01*
X286550Y347500D02*X288050D01*
X288800Y348250D01*
Y349750D02*Y348250D01*
X293300D02*X294050Y347500D01*
X293300Y352750D02*Y348250D01*
Y352750D02*X294050Y353500D01*
X295550D01*
X296300Y352750D01*
Y348250D01*
X295550Y347500D02*X296300Y348250D01*
X294050Y347500D02*X295550D01*
X293300Y349000D02*X296300Y352000D01*
X298100Y347500D02*X301850Y351250D01*
Y353500D02*Y351250D01*
X298100Y353500D02*X301850D01*
X303650Y351250D02*X304400D01*
X303650Y349750D02*X304400D01*
X306200Y353500D02*X309200D01*
X306200D02*Y350500D01*
X306950Y351250D01*
X308450D01*
X309200Y350500D01*
Y348250D01*
X308450Y347500D02*X309200Y348250D01*
X306950Y347500D02*X308450D01*
X306200Y348250D02*X306950Y347500D01*
X311000Y352750D02*X311750Y353500D01*
X313250D01*
X314000Y352750D01*
Y348250D01*
X313250Y347500D02*X314000Y348250D01*
X311750Y347500D02*X313250D01*
X311000Y348250D02*X311750Y347500D01*
Y350500D02*X314000D01*
X315800Y351250D02*X316550D01*
X315800Y349750D02*X316550D01*
X318350Y350500D02*X321350Y353500D01*
X318350Y350500D02*X322100D01*
X321350Y353500D02*Y347500D01*
X323900Y352750D02*X324650Y353500D01*
X326150D01*
X326900Y352750D01*
Y348250D01*
X326150Y347500D02*X326900Y348250D01*
X324650Y347500D02*X326150D01*
X323900Y348250D02*X324650Y347500D01*
Y350500D02*X326900D01*
X332150Y353500D02*Y347500D01*
X331400Y353500D02*X334400D01*
X335150Y352750D01*
Y351250D01*
X334400Y350500D02*X335150Y351250D01*
X332150Y350500D02*X334400D01*
X336950Y353500D02*Y347500D01*
Y353500D02*X339200Y351250D01*
X341450Y353500D01*
Y347500D01*
X348950Y353500D02*X349700Y352750D01*
X346700Y353500D02*X348950D01*
X345950Y352750D02*X346700Y353500D01*
X345950Y352750D02*Y348250D01*
X346700Y347500D01*
X348950D01*
X349700Y348250D01*
Y349750D02*Y348250D01*
X348950Y350500D02*X349700Y349750D01*
X347450Y350500D02*X348950D01*
X351500Y353500D02*Y347500D01*
Y353500D02*X353750Y351250D01*
X356000Y353500D01*
Y347500D01*
X357800Y353500D02*X360800D01*
X359300D02*Y347500D01*
X365300Y353500D02*Y348250D01*
X366050Y347500D01*
X367550D01*
X368300Y348250D01*
Y353500D02*Y348250D01*
X370100Y353500D02*X373100D01*
X371600D02*Y347500D01*
X375650D02*X377900D01*
X374900Y348250D02*X375650Y347500D01*
X374900Y352750D02*Y348250D01*
Y352750D02*X375650Y353500D01*
X377900D01*
X200000Y367750D02*Y362500D01*
Y367750D02*X200750Y368500D01*
X203000D01*
X203750Y367750D01*
Y362500D01*
X200000Y365500D02*X203750D01*
X205550D02*Y363250D01*
X206300Y362500D01*
X207800D01*
X208550Y363250D01*
Y365500D02*Y363250D01*
X211100Y368500D02*Y363250D01*
X211850Y362500D01*
X210350Y366250D02*X211850D01*
X213350Y368500D02*Y362500D01*
Y364750D02*X214100Y365500D01*
X215600D01*
X216350Y364750D01*
Y362500D01*
X218150Y364750D02*Y363250D01*
Y364750D02*X218900Y365500D01*
X220400D01*
X221150Y364750D01*
Y363250D01*
X220400Y362500D02*X221150Y363250D01*
X218900Y362500D02*X220400D01*
X218150Y363250D02*X218900Y362500D01*
X223700Y364750D02*Y362500D01*
Y364750D02*X224450Y365500D01*
X225950D01*
X222950D02*X223700Y364750D01*
X227750Y366250D02*X228500D01*
X227750Y364750D02*X228500D01*
X233000Y368500D02*Y362500D01*
Y368500D02*Y367750D01*
X236750Y364000D01*
Y368500D02*Y362500D01*
X240800Y365500D02*X241550Y364750D01*
X239300Y365500D02*X240800D01*
X238550Y364750D02*X239300Y365500D01*
X238550Y364750D02*Y363250D01*
X239300Y362500D01*
X241550Y365500D02*Y363250D01*
X242300Y362500D01*
X239300D02*X240800D01*
X241550Y363250D01*
X244850Y368500D02*Y363250D01*
X245600Y362500D01*
X244100Y366250D02*X245600D01*
X247100Y368500D02*Y362500D01*
Y364750D02*X247850Y365500D01*
X249350D01*
X250100Y364750D01*
Y362500D01*
X254150Y365500D02*X254900Y364750D01*
X252650Y365500D02*X254150D01*
X251900Y364750D02*X252650Y365500D01*
X251900Y364750D02*Y363250D01*
X252650Y362500D01*
X254900Y365500D02*Y363250D01*
X255650Y362500D01*
X252650D02*X254150D01*
X254900Y363250D01*
X258200Y364750D02*Y362500D01*
Y364750D02*X258950Y365500D01*
X259700D01*
X260450Y364750D01*
Y362500D01*
X257450Y365500D02*X258200Y364750D01*
X265700Y368500D02*Y362500D01*
X267950Y368500D02*X268700Y367750D01*
Y363250D01*
X267950Y362500D02*X268700Y363250D01*
X264950Y362500D02*X267950D01*
X264950Y368500D02*X267950D01*
X270500Y362500D02*X271250D01*
X275750Y368500D02*Y362500D01*
X279500Y368500D02*Y362500D01*
X275750Y365500D02*X279500D01*
X281300Y364750D02*Y363250D01*
Y364750D02*X282050Y365500D01*
X283550D01*
X284300Y364750D01*
Y363250D01*
X283550Y362500D02*X284300Y363250D01*
X282050Y362500D02*X283550D01*
X281300Y363250D02*X282050Y362500D01*
X286100Y368500D02*Y363250D01*
X286850Y362500D01*
X289100Y364750D02*Y362500D01*
Y364750D02*X289850Y365500D01*
X290600D01*
X291350Y364750D01*
Y362500D01*
Y364750D02*X292100Y365500D01*
X292850D01*
X293600Y364750D01*
Y362500D01*
X288350Y365500D02*X289100Y364750D01*
X296150Y362500D02*X298400D01*
X295400Y363250D02*X296150Y362500D01*
X295400Y364750D02*Y363250D01*
Y364750D02*X296150Y365500D01*
X297650D01*
X298400Y364750D01*
X295400Y364000D02*X298400D01*
Y364750D02*Y364000D01*
X300950Y362500D02*X303200D01*
X303950Y363250D01*
X303200Y364000D02*X303950Y363250D01*
X300950Y364000D02*X303200D01*
X300200Y364750D02*X300950Y364000D01*
X300200Y364750D02*X300950Y365500D01*
X303200D01*
X303950Y364750D01*
X300200Y363250D02*X300950Y362500D01*
X200000Y383500D02*X203000D01*
X201500D02*Y377500D01*
X204800Y382000D02*Y381250D01*
Y379750D02*Y377500D01*
X207050Y383500D02*Y378250D01*
X207800Y377500D01*
X206300Y381250D02*X207800D01*
X209300Y383500D02*Y378250D01*
X210050Y377500D01*
X212300D02*X214550D01*
X211550Y378250D02*X212300Y377500D01*
X211550Y379750D02*Y378250D01*
Y379750D02*X212300Y380500D01*
X213800D01*
X214550Y379750D01*
X211550Y379000D02*X214550D01*
Y379750D02*Y379000D01*
X216350Y381250D02*X217100D01*
X216350Y379750D02*X217100D01*
X221600Y378250D02*X222350Y377500D01*
X221600Y382750D02*X222350Y383500D01*
X221600Y382750D02*Y378250D01*
X224150Y380500D02*Y378250D01*
X224900Y377500D01*
X226400D01*
X227150Y378250D01*
Y380500D02*Y378250D01*
X229700Y379750D02*Y377500D01*
Y379750D02*X230450Y380500D01*
X231200D01*
X231950Y379750D01*
Y377500D01*
X228950Y380500D02*X229700Y379750D01*
X233750Y383500D02*Y377500D01*
Y379750D02*X236000Y377500D01*
X233750Y379750D02*X235250Y381250D01*
X238550Y379750D02*Y377500D01*
Y379750D02*X239300Y380500D01*
X240050D01*
X240800Y379750D01*
Y377500D01*
X237800Y380500D02*X238550Y379750D01*
X242600D02*Y378250D01*
Y379750D02*X243350Y380500D01*
X244850D01*
X245600Y379750D01*
Y378250D01*
X244850Y377500D02*X245600Y378250D01*
X243350Y377500D02*X244850D01*
X242600Y378250D02*X243350Y377500D01*
X247400Y380500D02*Y378250D01*
X248150Y377500D01*
X248900D01*
X249650Y378250D01*
Y380500D02*Y378250D01*
X250400Y377500D01*
X251150D01*
X251900Y378250D01*
Y380500D02*Y378250D01*
X254450Y379750D02*Y377500D01*
Y379750D02*X255200Y380500D01*
X255950D01*
X256700Y379750D01*
Y377500D01*
X253700Y380500D02*X254450Y379750D01*
X258500Y383500D02*X259250Y382750D01*
Y378250D01*
X258500Y377500D02*X259250Y378250D01*
X263750Y380500D02*X266750D01*
X271250Y383500D02*Y377500D01*
Y383500D02*X274250D01*
X271250Y380500D02*X273500D01*
X278300D02*X279050Y379750D01*
X276800Y380500D02*X278300D01*
X276050Y379750D02*X276800Y380500D01*
X276050Y379750D02*Y378250D01*
X276800Y377500D01*
X279050Y380500D02*Y378250D01*
X279800Y377500D01*
X276800D02*X278300D01*
X279050Y378250D01*
X281600Y383500D02*Y377500D01*
Y378250D02*X282350Y377500D01*
X283850D01*
X284600Y378250D01*
Y379750D02*Y378250D01*
X283850Y380500D02*X284600Y379750D01*
X282350Y380500D02*X283850D01*
X281600Y379750D02*X282350Y380500D01*
X287150Y379750D02*Y377500D01*
Y379750D02*X287900Y380500D01*
X289400D01*
X286400D02*X287150Y379750D01*
X291200Y382000D02*Y381250D01*
Y379750D02*Y377500D01*
X293450Y380500D02*X295700D01*
X292700Y379750D02*X293450Y380500D01*
X292700Y379750D02*Y378250D01*
X293450Y377500D01*
X295700D01*
X299750Y380500D02*X300500Y379750D01*
X298250Y380500D02*X299750D01*
X297500Y379750D02*X298250Y380500D01*
X297500Y379750D02*Y378250D01*
X298250Y377500D01*
X300500Y380500D02*Y378250D01*
X301250Y377500D01*
X298250D02*X299750D01*
X300500Y378250D01*
X303800Y383500D02*Y378250D01*
X304550Y377500D01*
X303050Y381250D02*X304550D01*
X306050Y382000D02*Y381250D01*
Y379750D02*Y377500D01*
X307550Y379750D02*Y378250D01*
Y379750D02*X308300Y380500D01*
X309800D01*
X310550Y379750D01*
Y378250D01*
X309800Y377500D02*X310550Y378250D01*
X308300Y377500D02*X309800D01*
X307550Y378250D02*X308300Y377500D01*
X313100Y379750D02*Y377500D01*
Y379750D02*X313850Y380500D01*
X314600D01*
X315350Y379750D01*
Y377500D01*
X312350Y380500D02*X313100Y379750D01*
X320600Y383500D02*Y377500D01*
X322850Y383500D02*X323600Y382750D01*
Y378250D01*
X322850Y377500D02*X323600Y378250D01*
X319850Y377500D02*X322850D01*
X319850Y383500D02*X322850D01*
X326150Y379750D02*Y377500D01*
Y379750D02*X326900Y380500D01*
X328400D01*
X325400D02*X326150Y379750D01*
X332450Y380500D02*X333200Y379750D01*
X330950Y380500D02*X332450D01*
X330200Y379750D02*X330950Y380500D01*
X330200Y379750D02*Y378250D01*
X330950Y377500D01*
X333200Y380500D02*Y378250D01*
X333950Y377500D01*
X330950D02*X332450D01*
X333200Y378250D01*
X335750Y380500D02*Y378250D01*
X336500Y377500D01*
X337250D01*
X338000Y378250D01*
Y380500D02*Y378250D01*
X338750Y377500D01*
X339500D01*
X340250Y378250D01*
Y380500D02*Y378250D01*
X342050Y382000D02*Y381250D01*
Y379750D02*Y377500D01*
X344300Y379750D02*Y377500D01*
Y379750D02*X345050Y380500D01*
X345800D01*
X346550Y379750D01*
Y377500D01*
X343550Y380500D02*X344300Y379750D01*
X350600Y380500D02*X351350Y379750D01*
X349100Y380500D02*X350600D01*
X348350Y379750D02*X349100Y380500D01*
X348350Y379750D02*Y378250D01*
X349100Y377500D01*
X350600D01*
X351350Y378250D01*
X348350Y376000D02*X349100Y375250D01*
X350600D01*
X351350Y376000D01*
Y380500D02*Y376000D01*
M02*
