G04 start of page 10 for group -4015 idx -4015 *
G04 Title: (unknown), toppaste *
G04 Creator: pcb 20140316 *
G04 CreationDate: Wed 08 Jun 2016 07:53:43 PM GMT UTC *
G04 For: ndholmes *
G04 Format: Gerber/RS-274X *
G04 PCB-Dimensions (mil): 1900.00 3250.00 *
G04 PCB-Coordinate-Origin: lower left *
%MOIN*%
%FSLAX25Y25*%
%LNTOPPASTE*%
%ADD77R,0.0360X0.0360*%
%ADD76R,0.0200X0.0200*%
%ADD75C,0.0001*%
%ADD74R,0.0230X0.0230*%
%ADD73R,0.0340X0.0340*%
%ADD72R,0.0470X0.0470*%
%ADD71R,0.0167X0.0167*%
%ADD70R,0.0512X0.0512*%
%ADD69R,0.0240X0.0240*%
G54D69*X56575Y67200D02*X58175D01*
X56575Y75000D02*X58175D01*
X48375D02*X49975D01*
X48375Y71100D02*X49975D01*
X48375Y67200D02*X49975D01*
X81500Y79800D02*X83100D01*
X81500Y72000D02*X83100D01*
X89700D02*X91300D01*
X89700Y75900D02*X91300D01*
X89700Y79800D02*X91300D01*
G54D70*X96107Y182086D02*X96893D01*
X96107Y175000D02*X96893D01*
X40607Y100457D02*X41393D01*
X40607Y107543D02*X41393D01*
X106414Y86393D02*Y85607D01*
X113500Y86393D02*Y85607D01*
X49457Y212393D02*Y211607D01*
X56543Y212393D02*Y211607D01*
X143043Y100893D02*Y100107D01*
X135957Y100893D02*Y100107D01*
X143000Y159893D02*Y159107D01*
X135914Y159893D02*Y159107D01*
X143000Y212393D02*Y211607D01*
X135914Y212393D02*Y211607D01*
X169457Y65393D02*Y64607D01*
X176543Y65393D02*Y64607D01*
G54D71*X103000Y263131D02*Y261261D01*
X99851Y263131D02*Y261261D01*
X96701Y263131D02*Y261261D01*
X93552Y263131D02*Y261261D01*
Y256435D02*Y254565D01*
X96701Y256435D02*Y254565D01*
X99851Y256435D02*Y254565D01*
X103000Y256435D02*Y254565D01*
G54D72*X7100Y23700D02*X12250D01*
X7100Y33500D02*X12250D01*
X7100Y43300D02*X12250D01*
X28750Y23700D02*X33900D01*
X28750Y33500D02*X33900D01*
X28750Y43300D02*X33900D01*
G54D70*X28543Y107893D02*Y107107D01*
X21457Y107893D02*Y107107D01*
Y92393D02*Y91607D01*
X28543Y92393D02*Y91607D01*
G54D73*X51887Y21687D02*X52487D01*
X51887Y29487D02*X52487D01*
X43687Y25587D02*X44287D01*
G54D70*X52457Y55893D02*Y55107D01*
X59543Y55893D02*Y55107D01*
X116607Y77043D02*X117393D01*
X116607Y69957D02*X117393D01*
X105607Y69914D02*X106393D01*
X105607Y77000D02*X106393D01*
G54D74*X75800Y63700D02*Y42300D01*
X81400D01*
X75800Y63700D02*X81400D01*
X97200D02*Y42300D01*
X91600D02*X97200D01*
X91600Y63700D02*X97200D01*
G54D75*G36*
X76950Y49044D02*X82544Y43450D01*
X80423Y41329D01*
X74829Y46923D01*
X76950Y49044D01*
G37*
G36*
X74829Y59077D02*X80423Y64671D01*
X82544Y62550D01*
X76950Y56956D01*
X74829Y59077D01*
G37*
G36*
X90456Y43450D02*X96050Y49044D01*
X98171Y46923D01*
X92577Y41329D01*
X90456Y43450D01*
G37*
G36*
X92577Y64671D02*X98171Y59077D01*
X96050Y56956D01*
X90456Y62550D01*
X92577Y64671D01*
G37*
G36*
X75150Y45250D02*Y41650D01*
X78750D01*
Y45250D01*
X75150D01*
G37*
G36*
Y64350D02*Y60750D01*
X78750D01*
Y64350D01*
X75150D01*
G37*
G36*
X94250Y45250D02*Y41650D01*
X97850D01*
Y45250D01*
X94250D01*
G37*
G36*
Y64350D02*Y60750D01*
X97850D01*
Y64350D01*
X94250D01*
G37*
G54D70*X83607Y245957D02*X84393D01*
X83607Y253043D02*X84393D01*
G54D72*X152600Y192700D02*X157750D01*
X152600Y202500D02*X157750D01*
X152600Y212300D02*X157750D01*
X174250Y192700D02*X179400D01*
X174250Y202500D02*X179400D01*
X174250Y212300D02*X179400D01*
X152600Y80700D02*X157750D01*
X152600Y90500D02*X157750D01*
X152600Y100300D02*X157750D01*
X174250Y80700D02*X179400D01*
X174250Y90500D02*X179400D01*
X174250Y100300D02*X179400D01*
X11600Y192700D02*X16750D01*
X11600Y202500D02*X16750D01*
X11600Y212300D02*X16750D01*
X33250Y192700D02*X38400D01*
X33250Y202500D02*X38400D01*
X33250Y212300D02*X38400D01*
G54D70*X49457Y159893D02*Y159107D01*
X56543Y159893D02*Y159107D01*
G54D72*X11643Y139700D02*X16793D01*
X11643Y149500D02*X16793D01*
X11643Y159300D02*X16793D01*
X33293Y139700D02*X38443D01*
X33293Y149500D02*X38443D01*
X33293Y159300D02*X38443D01*
X152600Y139700D02*X157750D01*
X152600Y149500D02*X157750D01*
X152600Y159300D02*X157750D01*
X174250Y139700D02*X179400D01*
X174250Y149500D02*X179400D01*
X174250Y159300D02*X179400D01*
G54D71*X84276Y313087D02*Y311217D01*
X87425Y313087D02*Y311217D01*
X90575Y313087D02*Y311217D01*
X93724Y313087D02*Y311217D01*
Y319783D02*Y317913D01*
X90575Y319783D02*Y317913D01*
X87425Y319783D02*Y317913D01*
X84276Y319783D02*Y317913D01*
X111224Y319783D02*Y317913D01*
X108075Y319783D02*Y317913D01*
X104925Y319783D02*Y317913D01*
X101776Y319783D02*Y317913D01*
Y313087D02*Y311217D01*
X104925Y313087D02*Y311217D01*
X108075Y313087D02*Y311217D01*
X111224Y313087D02*Y311217D01*
X111776Y176087D02*Y174217D01*
X114925Y176087D02*Y174217D01*
X118075Y176087D02*Y174217D01*
X121224Y176087D02*Y174217D01*
Y182783D02*Y180913D01*
X118075Y182783D02*Y180913D01*
X114925Y182783D02*Y180913D01*
X111776Y182783D02*Y180913D01*
X70776Y176087D02*Y174217D01*
X73925Y176087D02*Y174217D01*
X77075Y176087D02*Y174217D01*
X80224Y176087D02*Y174217D01*
Y182783D02*Y180913D01*
X77075Y182783D02*Y180913D01*
X73925Y182783D02*Y180913D01*
X70776Y182783D02*Y180913D01*
G54D76*X81750Y233500D02*X88250D01*
X81750Y228500D02*X88250D01*
X81750Y223500D02*X88250D01*
X81750Y218500D02*X88250D01*
X81750Y213500D02*X88250D01*
X81750Y208500D02*X88250D01*
X81750Y203500D02*X88250D01*
X81750Y198500D02*X88250D01*
X102250D02*X108750D01*
X102250Y203500D02*X108750D01*
X102250Y208500D02*X108750D01*
X102250Y213500D02*X108750D01*
X102250Y218500D02*X108750D01*
X102250Y223500D02*X108750D01*
X102250Y228500D02*X108750D01*
X102250Y233500D02*X108750D01*
G54D72*X73100Y111700D02*X78250D01*
X73100Y121500D02*X78250D01*
X73100Y131300D02*X78250D01*
X94750Y111700D02*X99900D01*
X94750Y121500D02*X99900D01*
X94750Y131300D02*X99900D01*
G54D70*X109457Y131893D02*Y131107D01*
X116543Y131893D02*Y131107D01*
G54D74*X11113Y60487D02*X32513D01*
Y66087D02*Y60487D01*
X11113Y66087D02*Y60487D01*
Y81887D02*X32513D01*
Y76287D01*
X11113Y81887D02*Y76287D01*
G54D75*G36*
X25769Y61637D02*X31363Y67231D01*
X33485Y65110D01*
X27890Y59515D01*
X25769Y61637D01*
G37*
G36*
X12263Y67231D02*X17858Y61637D01*
X15736Y59515D01*
X10142Y65110D01*
X12263Y67231D01*
G37*
G36*
X27890Y82858D02*X33485Y77264D01*
X31363Y75142D01*
X25769Y80737D01*
X27890Y82858D01*
G37*
G36*
X10142Y77264D02*X15736Y82858D01*
X17858Y80737D01*
X12263Y75142D01*
X10142Y77264D01*
G37*
G36*
X29563Y63437D02*Y59837D01*
X33163D01*
Y63437D01*
X29563D01*
G37*
G36*
X10463D02*Y59837D01*
X14063D01*
Y63437D01*
X10463D01*
G37*
G36*
X29563Y82537D02*Y78937D01*
X33163D01*
Y82537D01*
X29563D01*
G37*
G36*
X10463D02*Y78937D01*
X14063D01*
Y82537D01*
X10463D01*
G37*
G54D70*X70043Y31393D02*Y30607D01*
X62957Y31393D02*Y30607D01*
X85543Y31393D02*Y30607D01*
X78457Y31393D02*Y30607D01*
G54D77*X10400Y92500D02*X11600D01*
X10400Y105400D02*X11600D01*
X106900Y44000D02*X108100D01*
X106900Y56900D02*X108100D01*
M02*
