G04 start of page 8 for group -4079 idx -4079 *
G04 Title: (unknown), topsilk *
G04 Creator: pcb 20140316 *
G04 CreationDate: Wed 08 Jun 2016 07:53:43 PM GMT UTC *
G04 For: ndholmes *
G04 Format: Gerber/RS-274X *
G04 PCB-Dimensions (mil): 1900.00 3250.00 *
G04 PCB-Coordinate-Origin: lower left *
%MOIN*%
%FSLAX25Y25*%
%LNTOPSILK*%
%ADD66C,0.0200*%
%ADD65C,0.0083*%
%ADD64C,0.0084*%
%ADD63C,0.0080*%
%ADD62C,0.0100*%
G54D62*X1500Y179000D02*X64500D01*
X124500D02*X187500D01*
X67500Y158000D02*X124500D01*
X122500Y125000D02*X187500D01*
X67500Y158000D02*Y143000D01*
X124500Y158000D02*Y133500D01*
X119500Y237000D02*X183500D01*
X189500Y500D02*Y324500D01*
X500D02*Y500D01*
X189500D01*
X4500Y237500D02*X68500D01*
X65500Y240500D01*
X68500Y237500D02*X65500Y234500D01*
X4500Y254500D02*X68500D01*
X65500Y257500D01*
X68500Y254500D02*X65500Y251500D01*
X119500Y254000D02*X183500D01*
X189500Y324500D02*X500D01*
X122500Y257000D02*X119500Y254000D01*
X122500Y251000D02*X119500Y254000D01*
X122500Y234000D02*X119500Y237000D01*
X122500Y240000D02*X119500Y237000D01*
G54D63*X57543Y152000D02*X59543D01*
X58543Y153000D02*Y151000D01*
X117543Y124500D02*X119543D01*
X118543Y125500D02*Y123500D01*
X76500Y154500D02*Y150500D01*
X78500D01*
X79700Y154000D02*Y151000D01*
Y154000D02*X80200Y154500D01*
X81200D01*
X81700Y154000D01*
Y151000D01*
X81200Y150500D02*X81700Y151000D01*
X80200Y150500D02*X81200D01*
X79700Y151000D02*X80200Y150500D01*
X83400D02*X84900D01*
X82900Y151000D02*X83400Y150500D01*
X82900Y154000D02*Y151000D01*
Y154000D02*X83400Y154500D01*
X84900D01*
X86100Y154000D02*Y150500D01*
Y154000D02*X86600Y154500D01*
X88100D01*
X88600Y154000D01*
Y150500D01*
X86100Y152500D02*X88600D01*
X89800Y154500D02*Y150500D01*
X91800D01*
X94800D02*X96800D01*
X97300Y151000D01*
Y152000D02*Y151000D01*
X96800Y152500D02*X97300Y152000D01*
X95300Y152500D02*X96800D01*
X95300Y154500D02*Y150500D01*
X94800Y154500D02*X96800D01*
X97300Y154000D01*
Y153000D01*
X96800Y152500D02*X97300Y153000D01*
X98500Y154500D02*Y150500D01*
X100500D01*
X101700Y154000D02*Y151000D01*
Y154000D02*X102200Y154500D01*
X103200D01*
X103700Y154000D01*
Y151000D01*
X103200Y150500D02*X103700Y151000D01*
X102200Y150500D02*X103200D01*
X101700Y151000D02*X102200Y150500D01*
X105400D02*X106900D01*
X104900Y151000D02*X105400Y150500D01*
X104900Y154000D02*Y151000D01*
Y154000D02*X105400Y154500D01*
X106900D01*
X108100D02*Y150500D01*
Y152500D02*X110100Y154500D01*
X108100Y152500D02*X110100Y150500D01*
X79000Y147000D02*Y144000D01*
Y147000D02*X79500Y147500D01*
X80500D01*
X81000Y147000D01*
Y144000D01*
X80500Y143500D02*X81000Y144000D01*
X79500Y143500D02*X80500D01*
X79000Y144000D02*X79500Y143500D01*
X82700D02*X84200D01*
X82200Y144000D02*X82700Y143500D01*
X82200Y147000D02*Y144000D01*
Y147000D02*X82700Y147500D01*
X84200D01*
X85900Y143500D02*X87400D01*
X85400Y144000D02*X85900Y143500D01*
X85400Y147000D02*Y144000D01*
Y147000D02*X85900Y147500D01*
X87400D01*
X88600D02*Y144000D01*
X89100Y143500D01*
X90100D01*
X90600Y144000D01*
Y147500D02*Y144000D01*
X92300Y147500D02*Y143500D01*
X91800Y147500D02*X93800D01*
X94300Y147000D01*
Y146000D01*
X93800Y145500D02*X94300Y146000D01*
X92300Y145500D02*X93800D01*
X95500Y147000D02*Y143500D01*
Y147000D02*X96000Y147500D01*
X97500D01*
X98000Y147000D01*
Y143500D01*
X95500Y145500D02*X98000D01*
X99200Y147500D02*Y143500D01*
Y147500D02*Y147000D01*
X101700Y144500D01*
Y147500D02*Y143500D01*
X103400D02*X104900D01*
X102900Y144000D02*X103400Y143500D01*
X102900Y147000D02*Y144000D01*
Y147000D02*X103400Y147500D01*
X104900D01*
X106100D02*Y147000D01*
X107100Y146000D01*
X108100Y147000D01*
Y147500D02*Y147000D01*
X107100Y146000D02*Y143500D01*
X5543Y174500D02*Y171000D01*
Y174500D02*X6043Y175000D01*
X7543D01*
X8043Y174500D01*
Y171000D01*
X5543Y173000D02*X8043D01*
X9743Y175000D02*Y171000D01*
X9243Y175000D02*X11243D01*
X11743Y174500D01*
Y173500D01*
X11243Y173000D02*X11743Y173500D01*
X9743Y173000D02*X11243D01*
X13443Y175000D02*Y171000D01*
X12943Y175000D02*X14943D01*
X15443Y174500D01*
Y173500D01*
X14943Y173000D02*X15443Y173500D01*
X13443Y173000D02*X14943D01*
X16643Y175000D02*X18643D01*
X19143Y174500D01*
Y173500D01*
X18643Y173000D02*X19143Y173500D01*
X17143Y173000D02*X18643D01*
X17143Y175000D02*Y171000D01*
Y173000D02*X19143Y171000D01*
X20343Y174500D02*Y171500D01*
Y174500D02*X20843Y175000D01*
X21843D01*
X22343Y174500D01*
Y171500D01*
X21843Y171000D02*X22343Y171500D01*
X20843Y171000D02*X21843D01*
X20343Y171500D02*X20843Y171000D01*
X23543Y174500D02*Y171000D01*
Y174500D02*X24043Y175000D01*
X25543D01*
X26043Y174500D01*
Y171000D01*
X23543Y173000D02*X26043D01*
X27743Y171000D02*X29243D01*
X27243Y171500D02*X27743Y171000D01*
X27243Y174500D02*Y171500D01*
Y174500D02*X27743Y175000D01*
X29243D01*
X30443D02*Y171000D01*
X32943Y175000D02*Y171000D01*
X30443Y173000D02*X32943D01*
X35943Y175000D02*X36943D01*
X36443D02*Y171000D01*
X35943D02*X36943D01*
X38143Y175000D02*Y171000D01*
Y175000D02*Y174500D01*
X40643Y172000D01*
Y175000D02*Y171000D01*
X5000Y51000D02*Y48000D01*
Y51000D02*X5500Y51500D01*
X6500D01*
X7000Y51000D01*
Y48000D01*
X6500Y47500D02*X7000Y48000D01*
X5500Y47500D02*X6500D01*
X5000Y48000D02*X5500Y47500D01*
X8200Y51500D02*Y47500D01*
Y51500D02*Y51000D01*
X10700Y48500D01*
Y51500D02*Y47500D01*
X3000Y18000D02*Y15000D01*
Y18000D02*X3500Y18500D01*
X4500D01*
X5000Y18000D01*
Y15000D01*
X4500Y14500D02*X5000Y15000D01*
X3500Y14500D02*X4500D01*
X3000Y15000D02*X3500Y14500D01*
X6200Y18500D02*Y14500D01*
Y18500D02*X8200D01*
X6200Y16500D02*X7700D01*
X9400Y18500D02*Y14500D01*
Y18500D02*X11400D01*
X9400Y16500D02*X10900D01*
X30500Y51000D02*Y48000D01*
Y51000D02*X31000Y51500D01*
X32000D01*
X32500Y51000D01*
Y48000D01*
X32000Y47500D02*X32500Y48000D01*
X31000Y47500D02*X32000D01*
X30500Y48000D02*X31000Y47500D01*
X33700Y51500D02*Y47500D01*
Y51500D02*Y51000D01*
X36200Y48500D01*
Y51500D02*Y47500D01*
X30000Y18500D02*Y15500D01*
Y18500D02*X30500Y19000D01*
X31500D01*
X32000Y18500D01*
Y15500D01*
X31500Y15000D02*X32000Y15500D01*
X30500Y15000D02*X31500D01*
X30000Y15500D02*X30500Y15000D01*
X33200Y19000D02*Y15000D01*
Y19000D02*X35200D01*
X33200Y17000D02*X34700D01*
X36400Y19000D02*Y15000D01*
Y19000D02*X38400D01*
X36400Y17000D02*X37900D01*
X144500Y174500D02*Y171000D01*
Y174500D02*X145000Y175000D01*
X146500D01*
X147000Y174500D01*
Y171000D01*
X144500Y173000D02*X147000D01*
X148700Y175000D02*Y171000D01*
X148200Y175000D02*X150200D01*
X150700Y174500D01*
Y173500D01*
X150200Y173000D02*X150700Y173500D01*
X148700Y173000D02*X150200D01*
X152400Y175000D02*Y171000D01*
X151900Y175000D02*X153900D01*
X154400Y174500D01*
Y173500D01*
X153900Y173000D02*X154400Y173500D01*
X152400Y173000D02*X153900D01*
X155600Y175000D02*X157600D01*
X158100Y174500D01*
Y173500D01*
X157600Y173000D02*X158100Y173500D01*
X156100Y173000D02*X157600D01*
X156100Y175000D02*Y171000D01*
Y173000D02*X158100Y171000D01*
X159300Y174500D02*Y171500D01*
Y174500D02*X159800Y175000D01*
X160800D01*
X161300Y174500D01*
Y171500D01*
X160800Y171000D02*X161300Y171500D01*
X159800Y171000D02*X160800D01*
X159300Y171500D02*X159800Y171000D01*
X162500Y174500D02*Y171000D01*
Y174500D02*X163000Y175000D01*
X164500D01*
X165000Y174500D01*
Y171000D01*
X162500Y173000D02*X165000D01*
X166700Y171000D02*X168200D01*
X166200Y171500D02*X166700Y171000D01*
X166200Y174500D02*Y171500D01*
Y174500D02*X166700Y175000D01*
X168200D01*
X169400D02*Y171000D01*
X171900Y175000D02*Y171000D01*
X169400Y173000D02*X171900D01*
X174900Y174500D02*Y171500D01*
Y174500D02*X175400Y175000D01*
X176400D01*
X176900Y174500D01*
Y171500D01*
X176400Y171000D02*X176900Y171500D01*
X175400Y171000D02*X176400D01*
X174900Y171500D02*X175400Y171000D01*
X178100Y175000D02*Y171500D01*
X178600Y171000D01*
X179600D01*
X180100Y171500D01*
Y175000D02*Y171500D01*
X181300Y175000D02*X183300D01*
X182300D02*Y171000D01*
X137500Y121500D02*Y117500D01*
X139000Y121500D02*X139500Y121000D01*
Y118000D01*
X139000Y117500D02*X139500Y118000D01*
X137000Y117500D02*X139000D01*
X137000Y121500D02*X139000D01*
X140700D02*X141700D01*
X141200D02*Y117500D01*
X140700D02*X141700D01*
X142900Y121500D02*Y118500D01*
X143900Y117500D01*
X144900Y118500D01*
Y121500D02*Y118500D01*
X146100Y119500D02*X147600D01*
X146100Y117500D02*X148100D01*
X146100Y121500D02*Y117500D01*
Y121500D02*X148100D01*
X149300D02*X151300D01*
X151800Y121000D01*
Y120000D01*
X151300Y119500D02*X151800Y120000D01*
X149800Y119500D02*X151300D01*
X149800Y121500D02*Y117500D01*
Y119500D02*X151800Y117500D01*
X155000Y121500D02*X155500Y121000D01*
X153500Y121500D02*X155000D01*
X153000Y121000D02*X153500Y121500D01*
X153000Y121000D02*Y118000D01*
X153500Y117500D01*
X155000D01*
X155500Y118000D01*
Y119000D02*Y118000D01*
X155000Y119500D02*X155500Y119000D01*
X154000Y119500D02*X155000D01*
X156700Y121500D02*X157700D01*
X157200D02*Y117500D01*
X156700D02*X157700D01*
X158900Y121500D02*Y117500D01*
Y121500D02*Y121000D01*
X161400Y118500D01*
Y121500D02*Y117500D01*
X164600Y121500D02*X165100Y121000D01*
X163100Y121500D02*X164600D01*
X162600Y121000D02*X163100Y121500D01*
X162600Y121000D02*Y118000D01*
X163100Y117500D01*
X164600D01*
X165100Y118000D01*
Y119000D02*Y118000D01*
X164600Y119500D02*X165100Y119000D01*
X163600Y119500D02*X164600D01*
X134500Y205000D02*X136500D01*
X135500Y206000D02*Y204000D01*
X134543Y152000D02*X136543D01*
X135543Y153000D02*Y151000D01*
X137000Y114500D02*Y111000D01*
Y114500D02*X137500Y115000D01*
X139000D01*
X139500Y114500D01*
Y111000D01*
X137000Y113000D02*X139500D01*
X141200Y115000D02*Y111000D01*
X140700Y115000D02*X142700D01*
X143200Y114500D01*
Y113500D01*
X142700Y113000D02*X143200Y113500D01*
X141200Y113000D02*X142700D01*
X144900Y115000D02*Y111000D01*
X144400Y115000D02*X146400D01*
X146900Y114500D01*
Y113500D01*
X146400Y113000D02*X146900Y113500D01*
X144900Y113000D02*X146400D01*
X148100Y115000D02*X150100D01*
X150600Y114500D01*
Y113500D01*
X150100Y113000D02*X150600Y113500D01*
X148600Y113000D02*X150100D01*
X148600Y115000D02*Y111000D01*
Y113000D02*X150600Y111000D01*
X151800Y114500D02*Y111500D01*
Y114500D02*X152300Y115000D01*
X153300D01*
X153800Y114500D01*
Y111500D01*
X153300Y111000D02*X153800Y111500D01*
X152300Y111000D02*X153300D01*
X151800Y111500D02*X152300Y111000D01*
X155000Y114500D02*Y111000D01*
Y114500D02*X155500Y115000D01*
X157000D01*
X157500Y114500D01*
Y111000D01*
X155000Y113000D02*X157500D01*
X159200Y111000D02*X160700D01*
X158700Y111500D02*X159200Y111000D01*
X158700Y114500D02*Y111500D01*
Y114500D02*X159200Y115000D01*
X160700D01*
X161900D02*Y111000D01*
X164400Y115000D02*Y111000D01*
X161900Y113000D02*X164400D01*
X167400Y115000D02*X168400D01*
X167900D02*Y111000D01*
X167400D02*X168400D01*
X169600Y115000D02*Y111000D01*
Y115000D02*Y114500D01*
X172100Y112000D01*
Y115000D02*Y111000D01*
X173300Y111500D02*X176300Y114500D01*
X177500D02*Y111500D01*
Y114500D02*X178000Y115000D01*
X179000D01*
X179500Y114500D01*
Y111500D01*
X179000Y111000D02*X179500Y111500D01*
X178000Y111000D02*X179000D01*
X177500Y111500D02*X178000Y111000D01*
X180700Y115000D02*Y111500D01*
X181200Y111000D01*
X182200D01*
X182700Y111500D01*
Y115000D02*Y111500D01*
X183900Y115000D02*X185900D01*
X184900D02*Y111000D01*
X134043Y93000D02*X136043D01*
X135043Y94000D02*Y92000D01*
X116500Y58500D02*X117500D01*
X117000D02*Y54500D01*
X116500D02*X117500D01*
X118700Y56000D02*Y55000D01*
Y56000D02*X119200Y56500D01*
X120200D01*
X120700Y56000D01*
Y55000D01*
X120200Y54500D02*X120700Y55000D01*
X119200Y54500D02*X120200D01*
X118700Y55000D02*X119200Y54500D01*
X121900Y56500D02*Y55000D01*
X122400Y54500D01*
X122900D01*
X123400Y55000D01*
Y56500D02*Y55000D01*
X123900Y54500D01*
X124400D01*
X124900Y55000D01*
Y56500D02*Y55000D01*
X127600Y56500D02*X128100Y56000D01*
X126600Y56500D02*X127600D01*
X126100Y56000D02*X126600Y56500D01*
X126100Y56000D02*Y55000D01*
X126600Y54500D01*
X128100Y56500D02*Y55000D01*
X128600Y54500D01*
X126600D02*X127600D01*
X128100Y55000D01*
X133600Y58500D02*X134100Y58000D01*
X132100Y58500D02*X133600D01*
X131600Y58000D02*X132100Y58500D01*
X131600Y58000D02*Y57000D01*
X132100Y56500D01*
X133600D01*
X134100Y56000D01*
Y55000D01*
X133600Y54500D02*X134100Y55000D01*
X132100Y54500D02*X133600D01*
X131600Y55000D02*X132100Y54500D01*
X135800Y56500D02*X137300D01*
X135300Y56000D02*X135800Y56500D01*
X135300Y56000D02*Y55000D01*
X135800Y54500D01*
X137300D01*
X140000Y56500D02*X140500Y56000D01*
X139000Y56500D02*X140000D01*
X138500Y56000D02*X139000Y56500D01*
X138500Y56000D02*Y55000D01*
X139000Y54500D01*
X140500Y56500D02*Y55000D01*
X141000Y54500D01*
X139000D02*X140000D01*
X140500Y55000D01*
X142200Y58500D02*Y55000D01*
X142700Y54500D01*
X144200D02*X145700D01*
X143700Y55000D02*X144200Y54500D01*
X143700Y56000D02*Y55000D01*
Y56000D02*X144200Y56500D01*
X145200D01*
X145700Y56000D01*
X143700Y55500D02*X145700D01*
Y56000D02*Y55500D01*
X148900Y58500D02*Y54500D01*
X148400D02*X148900Y55000D01*
X147400Y54500D02*X148400D01*
X146900Y55000D02*X147400Y54500D01*
X146900Y56000D02*Y55000D01*
Y56000D02*X147400Y56500D01*
X148400D01*
X148900Y56000D01*
X151900Y56500D02*X153400D01*
X151900Y54500D02*X153900D01*
X151900Y58500D02*Y54500D01*
Y58500D02*X153900D01*
X155600Y56000D02*Y54500D01*
Y56000D02*X156100Y56500D01*
X156600D01*
X157100Y56000D01*
Y54500D01*
X155100Y56500D02*X155600Y56000D01*
X159800Y56500D02*X160300Y56000D01*
X158800Y56500D02*X159800D01*
X158300Y56000D02*X158800Y56500D01*
X158300Y56000D02*Y55000D01*
X158800Y54500D01*
X159800D01*
X160300Y55000D01*
X158300Y53500D02*X158800Y53000D01*
X159800D01*
X160300Y53500D01*
Y56500D02*Y53500D01*
X161500Y57500D02*Y57000D01*
Y56000D02*Y54500D01*
X163000Y56000D02*Y54500D01*
Y56000D02*X163500Y56500D01*
X164000D01*
X164500Y56000D01*
Y54500D01*
X162500Y56500D02*X163000Y56000D01*
X166200Y54500D02*X167700D01*
X165700Y55000D02*X166200Y54500D01*
X165700Y56000D02*Y55000D01*
Y56000D02*X166200Y56500D01*
X167200D01*
X167700Y56000D01*
X165700Y55500D02*X167700D01*
Y56000D02*Y55500D01*
X169400Y54500D02*X170900D01*
X168900Y55000D02*X169400Y54500D01*
X168900Y56000D02*Y55000D01*
Y56000D02*X169400Y56500D01*
X170400D01*
X170900Y56000D01*
X168900Y55500D02*X170900D01*
Y56000D02*Y55500D01*
X172600Y56000D02*Y54500D01*
Y56000D02*X173100Y56500D01*
X174100D01*
X172100D02*X172600Y56000D01*
X175300Y57500D02*Y57000D01*
Y56000D02*Y54500D01*
X176800Y56000D02*Y54500D01*
Y56000D02*X177300Y56500D01*
X177800D01*
X178300Y56000D01*
Y54500D01*
X176300Y56500D02*X176800Y56000D01*
X181000Y56500D02*X181500Y56000D01*
X180000Y56500D02*X181000D01*
X179500Y56000D02*X180000Y56500D01*
X179500Y56000D02*Y55000D01*
X180000Y54500D01*
X181000D01*
X181500Y55000D01*
X179500Y53500D02*X180000Y53000D01*
X181000D01*
X181500Y53500D01*
Y56500D02*Y53500D01*
X117000Y51500D02*Y47500D01*
Y51500D02*X118500Y50000D01*
X120000Y51500D01*
Y47500D01*
X123200Y51500D02*X123700Y51000D01*
X121700Y51500D02*X123200D01*
X121200Y51000D02*X121700Y51500D01*
X121200Y51000D02*Y50000D01*
X121700Y49500D01*
X123200D01*
X123700Y49000D01*
Y48000D01*
X123200Y47500D02*X123700Y48000D01*
X121700Y47500D02*X123200D01*
X121200Y48000D02*X121700Y47500D01*
X126900Y51500D02*X127400Y51000D01*
X125400Y51500D02*X126900D01*
X124900Y51000D02*X125400Y51500D01*
X124900Y51000D02*Y50000D01*
X125400Y49500D01*
X126900D01*
X127400Y49000D01*
Y48000D01*
X126900Y47500D02*X127400Y48000D01*
X125400Y47500D02*X126900D01*
X124900Y48000D02*X125400Y47500D01*
X128600Y49500D02*X130600D01*
X132300Y51500D02*Y47500D01*
X133800Y51500D02*X134300Y51000D01*
Y48000D01*
X133800Y47500D02*X134300Y48000D01*
X131800Y47500D02*X133800D01*
X131800Y51500D02*X133800D01*
X135500Y49500D02*X137000D01*
X135500Y47500D02*X137500D01*
X135500Y51500D02*Y47500D01*
Y51500D02*X137500D01*
X138700Y47500D02*X140700D01*
X141200Y48000D01*
Y49000D02*Y48000D01*
X140700Y49500D02*X141200Y49000D01*
X139200Y49500D02*X140700D01*
X139200Y51500D02*Y47500D01*
X138700Y51500D02*X140700D01*
X141200Y51000D01*
Y50000D01*
X140700Y49500D02*X141200Y50000D01*
X142400Y51500D02*Y48000D01*
X142900Y47500D01*
X143900D01*
X144400Y48000D01*
Y51500D02*Y48000D01*
X147600Y51500D02*X148100Y51000D01*
X146100Y51500D02*X147600D01*
X145600Y51000D02*X146100Y51500D01*
X145600Y51000D02*Y48000D01*
X146100Y47500D01*
X147600D01*
X148100Y48000D01*
Y49000D02*Y48000D01*
X147600Y49500D02*X148100Y49000D01*
X146600Y49500D02*X147600D01*
X151100D02*Y48500D01*
X152100Y47500D01*
X153100Y48500D01*
Y49500D02*Y48500D01*
X154800Y47500D02*X155800D01*
X155300Y51500D02*Y47500D01*
X154300Y50500D02*X155300Y51500D01*
X157000Y47500D02*X157500D01*
X158700Y48000D02*X159200Y47500D01*
X158700Y51000D02*Y48000D01*
Y51000D02*X159200Y51500D01*
X160200D01*
X160700Y51000D01*
Y48000D01*
X160200Y47500D02*X160700Y48000D01*
X159200Y47500D02*X160200D01*
X158700Y48500D02*X160700Y50500D01*
X117000Y41500D02*X117500Y41000D01*
X117000Y44500D02*X117500Y45000D01*
X117000Y44500D02*Y41500D01*
X119200Y41000D02*X120700D01*
X118700Y41500D02*X119200Y41000D01*
X118700Y44500D02*Y41500D01*
Y44500D02*X119200Y45000D01*
X120700D01*
X121900D02*X122400Y44500D01*
Y41500D01*
X121900Y41000D02*X122400Y41500D01*
X125400Y44500D02*X125900Y45000D01*
X127400D01*
X127900Y44500D01*
Y43500D01*
X125400Y41000D02*X127900Y43500D01*
X125400Y41000D02*X127900D01*
X129100Y41500D02*X129600Y41000D01*
X129100Y44500D02*Y41500D01*
Y44500D02*X129600Y45000D01*
X130600D01*
X131100Y44500D01*
Y41500D01*
X130600Y41000D02*X131100Y41500D01*
X129600Y41000D02*X130600D01*
X129100Y42000D02*X131100Y44000D01*
X132800Y41000D02*X133800D01*
X133300Y45000D02*Y41000D01*
X132300Y44000D02*X133300Y45000D01*
X136500D02*X137000Y44500D01*
X135500Y45000D02*X136500D01*
X135000Y44500D02*X135500Y45000D01*
X135000Y44500D02*Y41500D01*
X135500Y41000D01*
X136500Y43000D02*X137000Y42500D01*
X135000Y43000D02*X136500D01*
X135500Y41000D02*X136500D01*
X137000Y41500D01*
Y42500D02*Y41500D01*
X145900Y41000D02*X147400D01*
X145400Y41500D02*X145900Y41000D01*
X145400Y44500D02*Y41500D01*
Y44500D02*X145900Y45000D01*
X147400D01*
X149100Y41000D02*X150600D01*
X148600Y41500D02*X149100Y41000D01*
X148600Y44500D02*Y41500D01*
Y44500D02*X149100Y45000D01*
X150600D01*
X153600Y41000D02*X155600D01*
X156100Y41500D01*
Y42500D02*Y41500D01*
X155600Y43000D02*X156100Y42500D01*
X154100Y43000D02*X155600D01*
X154100Y45000D02*Y41000D01*
X153600Y45000D02*X155600D01*
X156100Y44500D01*
Y43500D01*
X155600Y43000D02*X156100Y43500D01*
X157300Y45000D02*Y44500D01*
X158300Y43500D01*
X159300Y44500D01*
Y45000D02*Y44500D01*
X158300Y43500D02*Y41000D01*
X160500Y43000D02*X162500D01*
X165700Y45000D02*X166200Y44500D01*
X164200Y45000D02*X165700D01*
X163700Y44500D02*X164200Y45000D01*
X163700Y44500D02*Y43500D01*
X164200Y43000D01*
X165700D01*
X166200Y42500D01*
Y41500D01*
X165700Y41000D02*X166200Y41500D01*
X164200Y41000D02*X165700D01*
X163700Y41500D02*X164200Y41000D01*
X167400Y44500D02*Y41000D01*
Y44500D02*X167900Y45000D01*
X169400D01*
X169900Y44500D01*
Y41000D01*
X167400Y43000D02*X169900D01*
X117000Y38500D02*Y34500D01*
Y36000D02*X117500Y36500D01*
X118500D01*
X119000Y36000D01*
Y34500D01*
X120700Y38500D02*Y35000D01*
X121200Y34500D01*
X120200Y37000D02*X121200D01*
X122700Y38500D02*Y35000D01*
X123200Y34500D01*
X122200Y37000D02*X123200D01*
X124700Y36000D02*Y33000D01*
X124200Y36500D02*X124700Y36000D01*
X125200Y36500D01*
X126200D01*
X126700Y36000D01*
Y35000D01*
X126200Y34500D02*X126700Y35000D01*
X125200Y34500D02*X126200D01*
X124700Y35000D02*X125200Y34500D01*
X127900Y37000D02*X128400D01*
X127900Y36000D02*X128400D01*
X129600Y35000D02*X132600Y38000D01*
X133800Y35000D02*X136800Y38000D01*
X138000Y36500D02*Y35000D01*
X138500Y34500D01*
X139000D01*
X139500Y35000D01*
Y36500D02*Y35000D01*
X140000Y34500D01*
X140500D01*
X141000Y35000D01*
Y36500D02*Y35000D01*
X142200Y36500D02*Y35000D01*
X142700Y34500D01*
X143200D01*
X143700Y35000D01*
Y36500D02*Y35000D01*
X144200Y34500D01*
X144700D01*
X145200Y35000D01*
Y36500D02*Y35000D01*
X146400Y36500D02*Y35000D01*
X146900Y34500D01*
X147400D01*
X147900Y35000D01*
Y36500D02*Y35000D01*
X148400Y34500D01*
X148900D01*
X149400Y35000D01*
Y36500D02*Y35000D01*
X150600Y34500D02*X151100D01*
X152300Y37500D02*Y37000D01*
Y36000D02*Y34500D01*
X154800Y36500D02*X155300Y36000D01*
X153800Y36500D02*X154800D01*
X153300Y36000D02*X153800Y36500D01*
X153300Y36000D02*Y35000D01*
X153800Y34500D01*
X155300Y36500D02*Y35000D01*
X155800Y34500D01*
X153800D02*X154800D01*
X155300Y35000D01*
X157500Y34500D02*X159000D01*
X159500Y35000D01*
X159000Y35500D02*X159500Y35000D01*
X157500Y35500D02*X159000D01*
X157000Y36000D02*X157500Y35500D01*
X157000Y36000D02*X157500Y36500D01*
X159000D01*
X159500Y36000D01*
X157000Y35000D02*X157500Y34500D01*
X161200Y36500D02*X162700D01*
X160700Y36000D02*X161200Y36500D01*
X160700Y36000D02*Y35000D01*
X161200Y34500D01*
X162700D01*
X165400Y36500D02*X165900Y36000D01*
X164400Y36500D02*X165400D01*
X163900Y36000D02*X164400Y36500D01*
X163900Y36000D02*Y35000D01*
X164400Y34500D01*
X165900Y36500D02*Y35000D01*
X166400Y34500D01*
X164400D02*X165400D01*
X165900Y35000D01*
X167600Y38500D02*Y35000D01*
X168100Y34500D01*
X169600D02*X171100D01*
X169100Y35000D02*X169600Y34500D01*
X169100Y36000D02*Y35000D01*
Y36000D02*X169600Y36500D01*
X170600D01*
X171100Y36000D01*
X169100Y35500D02*X171100D01*
Y36000D02*Y35500D01*
X174300Y38500D02*Y34500D01*
X173800D02*X174300Y35000D01*
X172800Y34500D02*X173800D01*
X172300Y35000D02*X172800Y34500D01*
X172300Y36000D02*Y35000D01*
Y36000D02*X172800Y36500D01*
X173800D01*
X174300Y36000D01*
X175500Y34500D02*X176000D01*
X177700Y36500D02*X179200D01*
X177200Y36000D02*X177700Y36500D01*
X177200Y36000D02*Y35000D01*
X177700Y34500D01*
X179200D01*
X180400Y36000D02*Y35000D01*
Y36000D02*X180900Y36500D01*
X181900D01*
X182400Y36000D01*
Y35000D01*
X181900Y34500D02*X182400Y35000D01*
X180900Y34500D02*X181900D01*
X180400Y35000D02*X180900Y34500D01*
X184100Y36000D02*Y34500D01*
Y36000D02*X184600Y36500D01*
X185100D01*
X185600Y36000D01*
Y34500D01*
Y36000D02*X186100Y36500D01*
X186600D01*
X187100Y36000D01*
Y34500D01*
X183600Y36500D02*X184100Y36000D01*
X57500Y37000D02*X59500D01*
X58500Y38000D02*Y36000D01*
X61500Y26500D02*Y22500D01*
X61000Y26500D02*X63000D01*
X63500Y26000D01*
Y25000D01*
X63000Y24500D02*X63500Y25000D01*
X61500Y24500D02*X63000D01*
X64700Y26500D02*Y22500D01*
X66200Y24000D01*
X67700Y22500D01*
Y26500D02*Y22500D01*
X68900Y26500D02*X70900D01*
X71400Y26000D01*
Y25000D01*
X70900Y24500D02*X71400Y25000D01*
X69400Y24500D02*X70900D01*
X69400Y26500D02*Y22500D01*
Y24500D02*X71400Y22500D01*
X63000Y20000D02*Y17000D01*
Y20000D02*X63500Y20500D01*
X64500D01*
X65000Y20000D01*
Y17000D01*
X64500Y16500D02*X65000Y17000D01*
X63500Y16500D02*X64500D01*
X63000Y17000D02*X63500Y16500D01*
X66200Y20500D02*Y16500D01*
Y20500D02*Y20000D01*
X68700Y17500D01*
Y20500D02*Y16500D01*
X57500Y205000D02*X59500D01*
X58500Y206000D02*Y204000D01*
G54D64*X8700Y249900D02*X9750Y248850D01*
X5550Y249900D02*X8700D01*
X4500Y248850D02*X5550Y249900D01*
X4500Y248850D02*Y246750D01*
X5550Y245700D01*
X8700D01*
X9750Y244650D01*
Y242550D01*
X8700Y241500D02*X9750Y242550D01*
X5550Y241500D02*X8700D01*
X4500Y242550D02*X5550Y241500D01*
X12270Y249900D02*X14370D01*
X13320D02*Y241500D01*
X12270D02*X14370D01*
X21090Y249900D02*X22140Y248850D01*
X17940Y249900D02*X21090D01*
X16890Y248850D02*X17940Y249900D01*
X16890Y248850D02*Y242550D01*
X17940Y241500D01*
X21090D01*
X22140Y242550D01*
Y244650D02*Y242550D01*
X21090Y245700D02*X22140Y244650D01*
X18990Y245700D02*X21090D01*
X24660Y249900D02*Y241500D01*
Y249900D02*Y248850D01*
X29910Y243600D01*
Y249900D02*Y241500D01*
X32430Y248850D02*Y241500D01*
Y248850D02*X33480Y249900D01*
X36630D01*
X37680Y248850D01*
Y241500D01*
X32430Y245700D02*X37680D01*
X40200Y249900D02*Y241500D01*
X44400D01*
X51120Y249900D02*X52170Y248850D01*
X47970Y249900D02*X51120D01*
X46920Y248850D02*X47970Y249900D01*
X46920Y248850D02*Y246750D01*
X47970Y245700D01*
X51120D01*
X52170Y244650D01*
Y242550D01*
X51120Y241500D02*X52170Y242550D01*
X47970Y241500D02*X51120D01*
X46920Y242550D02*X47970Y241500D01*
X58470Y249900D02*X60570D01*
X59520D02*Y241500D01*
X58470D02*X60570D01*
X63090Y249900D02*Y241500D01*
Y249900D02*Y248850D01*
X68340Y243600D01*
Y249900D02*Y241500D01*
G54D63*X5500Y233000D02*Y229500D01*
Y233000D02*X6000Y233500D01*
X7500D01*
X8000Y233000D01*
Y229500D01*
X5500Y231500D02*X8000D01*
X9700Y233500D02*Y229500D01*
X11200Y233500D02*X11700Y233000D01*
Y230000D01*
X11200Y229500D02*X11700Y230000D01*
X9200Y229500D02*X11200D01*
X9200Y233500D02*X11200D01*
X12900D02*Y230500D01*
X13900Y229500D01*
X14900Y230500D01*
Y233500D02*Y230500D01*
X16100Y233000D02*Y229500D01*
Y233000D02*X16600Y233500D01*
X18100D01*
X18600Y233000D01*
Y229500D01*
X16100Y231500D02*X18600D01*
X19800Y233500D02*Y229500D01*
Y233500D02*Y233000D01*
X22300Y230500D01*
Y233500D02*Y229500D01*
X24000D02*X25500D01*
X23500Y230000D02*X24000Y229500D01*
X23500Y233000D02*Y230000D01*
Y233000D02*X24000Y233500D01*
X25500D01*
X26700Y231500D02*X28200D01*
X26700Y229500D02*X28700D01*
X26700Y233500D02*Y229500D01*
Y233500D02*X28700D01*
X5500Y227000D02*Y223500D01*
Y227000D02*X6000Y227500D01*
X7500D01*
X8000Y227000D01*
Y223500D01*
X5500Y225500D02*X8000D01*
X9700Y227500D02*Y223500D01*
X9200Y227500D02*X11200D01*
X11700Y227000D01*
Y226000D01*
X11200Y225500D02*X11700Y226000D01*
X9700Y225500D02*X11200D01*
X13400Y227500D02*Y223500D01*
X12900Y227500D02*X14900D01*
X15400Y227000D01*
Y226000D01*
X14900Y225500D02*X15400Y226000D01*
X13400Y225500D02*X14900D01*
X16600Y227500D02*X18600D01*
X19100Y227000D01*
Y226000D01*
X18600Y225500D02*X19100Y226000D01*
X17100Y225500D02*X18600D01*
X17100Y227500D02*Y223500D01*
Y225500D02*X19100Y223500D01*
X20300Y227000D02*Y224000D01*
Y227000D02*X20800Y227500D01*
X21800D01*
X22300Y227000D01*
Y224000D01*
X21800Y223500D02*X22300Y224000D01*
X20800Y223500D02*X21800D01*
X20300Y224000D02*X20800Y223500D01*
X23500Y227000D02*Y223500D01*
Y227000D02*X24000Y227500D01*
X25500D01*
X26000Y227000D01*
Y223500D01*
X23500Y225500D02*X26000D01*
X27700Y223500D02*X29200D01*
X27200Y224000D02*X27700Y223500D01*
X27200Y227000D02*Y224000D01*
Y227000D02*X27700Y227500D01*
X29200D01*
X30400D02*Y223500D01*
X32900Y227500D02*Y223500D01*
X30400Y225500D02*X32900D01*
X35900Y227500D02*X36900D01*
X36400D02*Y223500D01*
X35900D02*X36900D01*
X38100Y227500D02*Y223500D01*
Y227500D02*Y227000D01*
X40600Y224500D01*
Y227500D02*Y223500D01*
X81060Y301000D02*Y298120D01*
X75300Y299560D02*X81060D01*
X76020Y296392D02*X80340D01*
X81060Y295672D01*
Y294232D01*
X80340Y293512D01*
X76020D02*X80340D01*
X75300Y294232D02*X76020Y293512D01*
X75300Y295672D02*Y294232D01*
X76020Y296392D02*X75300Y295672D01*
Y289192D02*Y286312D01*
X76020Y285592D01*
X77460D01*
X78180Y286312D02*X77460Y285592D01*
X78180Y288472D02*Y286312D01*
X75300Y288472D02*X81060D01*
Y289192D02*Y286312D01*
X80340Y285592D01*
X78900D02*X80340D01*
X78180Y286312D02*X78900Y285592D01*
X76020Y283864D02*X81060D01*
X76020D02*X75300Y283144D01*
Y281704D01*
X76020Y280984D01*
X81060D01*
Y276376D02*X80340Y275656D01*
X81060Y278536D02*Y276376D01*
X80340Y279256D02*X81060Y278536D01*
X78900Y279256D02*X80340D01*
X78900D02*X78180Y278536D01*
Y276376D01*
X77460Y275656D01*
X76020D02*X77460D01*
X75300Y276376D02*X76020Y275656D01*
X75300Y278536D02*Y276376D01*
X76020Y279256D02*X75300Y278536D01*
X144500Y227000D02*Y223500D01*
Y227000D02*X145000Y227500D01*
X146500D01*
X147000Y227000D01*
Y223500D01*
X144500Y225500D02*X147000D01*
X148700Y227500D02*Y223500D01*
X148200Y227500D02*X150200D01*
X150700Y227000D01*
Y226000D01*
X150200Y225500D02*X150700Y226000D01*
X148700Y225500D02*X150200D01*
X152400Y227500D02*Y223500D01*
X151900Y227500D02*X153900D01*
X154400Y227000D01*
Y226000D01*
X153900Y225500D02*X154400Y226000D01*
X152400Y225500D02*X153900D01*
X155600Y227500D02*X157600D01*
X158100Y227000D01*
Y226000D01*
X157600Y225500D02*X158100Y226000D01*
X156100Y225500D02*X157600D01*
X156100Y227500D02*Y223500D01*
Y225500D02*X158100Y223500D01*
X159300Y227000D02*Y224000D01*
Y227000D02*X159800Y227500D01*
X160800D01*
X161300Y227000D01*
Y224000D01*
X160800Y223500D02*X161300Y224000D01*
X159800Y223500D02*X160800D01*
X159300Y224000D02*X159800Y223500D01*
X162500Y227000D02*Y223500D01*
Y227000D02*X163000Y227500D01*
X164500D01*
X165000Y227000D01*
Y223500D01*
X162500Y225500D02*X165000D01*
X166700Y223500D02*X168200D01*
X166200Y224000D02*X166700Y223500D01*
X166200Y227000D02*Y224000D01*
Y227000D02*X166700Y227500D01*
X168200D01*
X169400D02*Y223500D01*
X171900Y227500D02*Y223500D01*
X169400Y225500D02*X171900D01*
X174900Y227000D02*Y224000D01*
Y227000D02*X175400Y227500D01*
X176400D01*
X176900Y227000D01*
Y224000D01*
X176400Y223500D02*X176900Y224000D01*
X175400Y223500D02*X176400D01*
X174900Y224000D02*X175400Y223500D01*
X178100Y227500D02*Y224000D01*
X178600Y223500D01*
X179600D01*
X180100Y224000D01*
Y227500D02*Y224000D01*
X181300Y227500D02*X183300D01*
X182300D02*Y223500D01*
X144500Y233500D02*Y230000D01*
Y233500D02*X145000Y234000D01*
X146500D01*
X147000Y233500D01*
Y230000D01*
X144500Y232000D02*X147000D01*
X148700Y234000D02*Y230000D01*
X150200Y234000D02*X150700Y233500D01*
Y230500D01*
X150200Y230000D02*X150700Y230500D01*
X148200Y230000D02*X150200D01*
X148200Y234000D02*X150200D01*
X151900D02*Y231000D01*
X152900Y230000D01*
X153900Y231000D01*
Y234000D02*Y231000D01*
X155100Y233500D02*Y230000D01*
Y233500D02*X155600Y234000D01*
X157100D01*
X157600Y233500D01*
Y230000D01*
X155100Y232000D02*X157600D01*
X158800Y234000D02*Y230000D01*
Y234000D02*Y233500D01*
X161300Y231000D01*
Y234000D02*Y230000D01*
X163000D02*X164500D01*
X162500Y230500D02*X163000Y230000D01*
X162500Y233500D02*Y230500D01*
Y233500D02*X163000Y234000D01*
X164500D01*
X165700Y232000D02*X167200D01*
X165700Y230000D02*X167700D01*
X165700Y234000D02*Y230000D01*
Y234000D02*X167700D01*
G54D65*X117680Y249910D02*X118725Y248865D01*
X114545Y249910D02*X117680D01*
X113500Y248865D02*X114545Y249910D01*
X113500Y248865D02*Y246775D01*
X114545Y245730D01*
X117680D01*
X118725Y244685D01*
Y242595D01*
X117680Y241550D02*X118725Y242595D01*
X114545Y241550D02*X117680D01*
X113500Y242595D02*X114545Y241550D01*
X121233Y249910D02*X123323D01*
X122278D02*Y241550D01*
X121233D02*X123323D01*
X130011Y249910D02*X131056Y248865D01*
X126876Y249910D02*X130011D01*
X125831Y248865D02*X126876Y249910D01*
X125831Y248865D02*Y242595D01*
X126876Y241550D01*
X130011D01*
X131056Y242595D01*
Y244685D02*Y242595D01*
X130011Y245730D02*X131056Y244685D01*
X127921Y245730D02*X130011D01*
X133564Y249910D02*Y241550D01*
Y249910D02*Y248865D01*
X138789Y243640D01*
Y249910D02*Y241550D01*
X141297Y248865D02*Y241550D01*
Y248865D02*X142342Y249910D01*
X145477D01*
X146522Y248865D01*
Y241550D01*
X141297Y245730D02*X146522D01*
X149030Y249910D02*Y241550D01*
X153210D01*
X159898Y249910D02*X160943Y248865D01*
X156763Y249910D02*X159898D01*
X155718Y248865D02*X156763Y249910D01*
X155718Y248865D02*Y246775D01*
X156763Y245730D01*
X159898D01*
X160943Y244685D01*
Y242595D01*
X159898Y241550D02*X160943Y242595D01*
X156763Y241550D02*X159898D01*
X155718Y242595D02*X156763Y241550D01*
X167213Y248865D02*Y242595D01*
Y248865D02*X168258Y249910D01*
X170348D01*
X171393Y248865D01*
Y242595D01*
X170348Y241550D02*X171393Y242595D01*
X168258Y241550D02*X170348D01*
X167213Y242595D02*X168258Y241550D01*
X173901Y249910D02*Y242595D01*
X174946Y241550D01*
X177036D01*
X178081Y242595D01*
Y249910D02*Y242595D01*
X180589Y249910D02*X184769D01*
X182679D02*Y241550D01*
G54D63*X107940Y277380D02*Y274500D01*
Y275940D02*X113700D01*
X108660Y279108D02*X112980D01*
X108660D02*X107940Y279828D01*
Y281268D02*Y279828D01*
Y281268D02*X108660Y281988D01*
X112980D01*
X113700Y281268D02*X112980Y281988D01*
X113700Y281268D02*Y279828D01*
X112980Y279108D02*X113700Y279828D01*
X107940Y286308D02*X113700D01*
X107940D02*X108660D01*
X112260Y289908D01*
X107940D02*X113700D01*
X108660Y291636D02*X112980D01*
X108660D02*X107940Y292356D01*
Y293796D02*Y292356D01*
Y293796D02*X108660Y294516D01*
X112980D01*
X113700Y293796D02*X112980Y294516D01*
X113700Y293796D02*Y292356D01*
X112980Y291636D02*X113700Y292356D01*
X107940Y296964D02*X113700D01*
X107940Y299124D02*X108660Y299844D01*
X112980D01*
X113700Y299124D02*X112980Y299844D01*
X113700Y299124D02*Y296244D01*
X107940Y299124D02*Y296244D01*
X110820Y303732D02*Y301572D01*
X113700Y304452D02*Y301572D01*
X107940D02*X113700D01*
X107940Y304452D02*Y301572D01*
X2500Y259370D02*X3710Y260580D01*
X2500Y259370D02*X3710Y258160D01*
X5162Y259370D02*X6372Y260580D01*
X5162Y259370D02*X6372Y258160D01*
X7824Y259370D02*X9034Y260580D01*
X7824Y259370D02*X9034Y258160D01*
X12664Y261790D02*X15084D01*
X13874D02*Y256950D01*
X16536Y261185D02*Y257555D01*
Y261185D02*X17141Y261790D01*
X18351D01*
X18956Y261185D01*
Y257555D01*
X18351Y256950D02*X18956Y257555D01*
X17141Y256950D02*X18351D01*
X16536Y257555D02*X17141Y256950D01*
X22586D02*X25006D01*
X25611Y257555D01*
Y258765D02*Y257555D01*
X25006Y259370D02*X25611Y258765D01*
X23191Y259370D02*X25006D01*
X23191Y261790D02*Y256950D01*
X22586Y261790D02*X25006D01*
X25611Y261185D01*
Y259975D01*
X25006Y259370D02*X25611Y259975D01*
X27063Y261790D02*Y257555D01*
X27668Y256950D01*
X28878D01*
X29483Y257555D01*
Y261790D02*Y257555D01*
X33355Y261790D02*X33960Y261185D01*
X31540Y261790D02*X33355D01*
X30935Y261185D02*X31540Y261790D01*
X30935Y261185D02*Y259975D01*
X31540Y259370D01*
X33355D01*
X33960Y258765D01*
Y257555D01*
X33355Y256950D02*X33960Y257555D01*
X31540Y256950D02*X33355D01*
X30935Y257555D02*X31540Y256950D01*
X37590Y259370D02*X38800Y260580D01*
X37590Y259370D02*X38800Y258160D01*
X40252Y259370D02*X41462Y260580D01*
X40252Y259370D02*X41462Y258160D01*
X42914Y259370D02*X44124Y260580D01*
X42914Y259370D02*X44124Y258160D01*
X141500Y260060D02*X142720Y258840D01*
X141500Y257620D02*X142720Y258840D01*
X144184Y260060D02*X145404Y258840D01*
X144184Y257620D02*X145404Y258840D01*
X146868Y260060D02*X148088Y258840D01*
X146868Y257620D02*X148088Y258840D01*
X151748Y261280D02*X154188D01*
X152968D02*Y256400D01*
X155652Y260670D02*Y257010D01*
Y260670D02*X156262Y261280D01*
X157482D01*
X158092Y260670D01*
Y257010D01*
X157482Y256400D02*X158092Y257010D01*
X156262Y256400D02*X157482D01*
X155652Y257010D02*X156262Y256400D01*
X161752Y261280D02*Y256400D01*
Y261280D02*Y260670D01*
X164802Y257620D01*
Y261280D02*Y256400D01*
X166266Y260670D02*Y257010D01*
Y260670D02*X166876Y261280D01*
X168096D01*
X168706Y260670D01*
Y257010D01*
X168096Y256400D02*X168706Y257010D01*
X166876Y256400D02*X168096D01*
X166266Y257010D02*X166876Y256400D01*
X170780Y261280D02*Y256400D01*
X172610Y261280D02*X173220Y260670D01*
Y257010D01*
X172610Y256400D02*X173220Y257010D01*
X170170Y256400D02*X172610D01*
X170170Y261280D02*X172610D01*
X174684Y258840D02*X176514D01*
X174684Y256400D02*X177124D01*
X174684Y261280D02*Y256400D01*
Y261280D02*X177124D01*
X180784Y260060D02*X182004Y258840D01*
X180784Y257620D02*X182004Y258840D01*
X183468Y260060D02*X184688Y258840D01*
X183468Y257620D02*X184688Y258840D01*
X186152Y260060D02*X187372Y258840D01*
X186152Y257620D02*X187372Y258840D01*
G54D62*X46375Y65200D02*X60275D01*
Y77000D02*Y65200D01*
X46375Y77000D02*X60275D01*
X46375D02*Y65200D01*
X38245Y104393D02*Y103607D01*
X43755Y104393D02*Y103607D01*
X13400Y15800D02*X27600D01*
X13400Y19800D02*Y15800D01*
X27600Y19800D02*Y15800D01*
X13400Y51200D02*X27600D01*
X13400D02*Y47200D01*
X27600Y51200D02*Y47200D01*
X41187Y19187D02*X55087D01*
Y31987D02*Y19187D01*
X41187Y31987D02*X55087D01*
X41187D02*Y19187D01*
X55607Y58255D02*X56393D01*
X55607Y52745D02*X56393D01*
X24607Y104745D02*X25393D01*
X24607Y110255D02*X25393D01*
X24607Y94755D02*X25393D01*
X24607Y89245D02*X25393D01*
X8813Y58187D02*X30813D01*
X8813Y80187D02*Y58187D01*
X12813Y84187D02*X34813D01*
Y62187D01*
X7000Y108800D02*Y89100D01*
X15000Y108800D02*Y89100D01*
X7000Y108800D02*X15000D01*
X7000Y89100D02*X15000D01*
X7000Y102000D02*X15000D01*
X99255Y178936D02*Y178150D01*
X93745Y178936D02*Y178150D01*
X52607Y214755D02*X53393D01*
X52607Y209245D02*X53393D01*
X52607Y162255D02*X53393D01*
X52607Y156745D02*X53393D01*
X68610Y184799D02*Y172201D01*
Y184799D02*X82390D01*
Y172201D01*
X68610D02*X82390D01*
X105166Y265147D02*Y252549D01*
X91386D02*X105166D01*
X91386Y265147D02*Y252549D01*
Y265147D02*X105166D01*
G54D66*X1000Y264000D02*X72300D01*
X1000Y324000D02*X72300D01*
Y264000D01*
X1000Y324000D02*X980Y264000D01*
G54D62*X82110Y321799D02*Y309201D01*
Y321799D02*X95890D01*
Y309201D01*
X82110D02*X95890D01*
X113390Y321799D02*Y309201D01*
X99610D02*X113390D01*
X99610Y321799D02*Y309201D01*
Y321799D02*X113390D01*
X81245Y249893D02*Y249107D01*
X86755Y249893D02*Y249107D01*
X17900Y184800D02*X32100D01*
X17900Y188800D02*Y184800D01*
X32100Y188800D02*Y184800D01*
X17900Y220200D02*X32100D01*
X17900D02*Y216200D01*
X32100Y220200D02*Y216200D01*
X17943Y131800D02*X32143D01*
X17943Y135800D02*Y131800D01*
X32143Y135800D02*Y131800D01*
X17943Y167200D02*X32143D01*
X17943D02*Y163200D01*
X32143Y167200D02*Y163200D01*
X79750Y235500D02*Y196500D01*
X110750D01*
Y235500D02*Y196500D01*
X79750Y235500D02*X92750D01*
X97750D02*X110750D01*
X92750D02*G75*G03X97750Y235500I2500J0D01*G01*
X79400Y103800D02*X93600D01*
X79400Y107800D02*Y103800D01*
X93600Y107800D02*Y103800D01*
X79400Y139200D02*X93600D01*
X79400D02*Y135200D01*
X93600Y139200D02*Y135200D01*
G54D66*X117700Y324000D02*X189000D01*
X117700Y264000D02*X189000D01*
X117700Y324000D02*Y264000D01*
X189000D02*X189020Y324000D01*
G54D62*X158900Y184800D02*X173100D01*
X158900Y188800D02*Y184800D01*
X173100Y188800D02*Y184800D01*
X158900Y220200D02*X173100D01*
X158900D02*Y216200D01*
X173100Y220200D02*Y216200D01*
X158900Y131800D02*X173100D01*
X158900Y135800D02*Y131800D01*
X173100Y135800D02*Y131800D01*
X158900Y167200D02*X173100D01*
X158900D02*Y163200D01*
X173100Y167200D02*Y163200D01*
X139107Y97745D02*X139893D01*
X139107Y103255D02*X139893D01*
X139064Y156745D02*X139850D01*
X139064Y162255D02*X139850D01*
X139064Y209245D02*X139850D01*
X139064Y214755D02*X139850D01*
X109610Y184799D02*Y172201D01*
Y184799D02*X123390D01*
Y172201D01*
X109610D02*X123390D01*
X112607Y134255D02*X113393D01*
X112607Y128745D02*X113393D01*
X172607Y67755D02*X173393D01*
X172607Y62245D02*X173393D01*
X109564Y88755D02*X110350D01*
X109564Y83245D02*X110350D01*
X81607Y28245D02*X82393D01*
X81607Y33755D02*X82393D01*
X103500Y60300D02*Y40600D01*
X111500Y60300D02*Y40600D01*
X103500Y60300D02*X111500D01*
X103500Y40600D02*X111500D01*
X103500Y53500D02*X111500D01*
X158900Y72800D02*X173100D01*
X158900Y76800D02*Y72800D01*
X173100Y76800D02*Y72800D01*
X158900Y108200D02*X173100D01*
X158900D02*Y104200D01*
X173100Y108200D02*Y104200D01*
X79400Y81800D02*X93300D01*
X79400D02*Y70000D01*
X93300D01*
Y81800D02*Y70000D01*
X119755Y73893D02*Y73107D01*
X114245Y73893D02*Y73107D01*
X103245Y73850D02*Y73064D01*
X108755Y73850D02*Y73064D01*
X73500Y66000D02*Y44000D01*
Y66000D02*X95500D01*
X99500Y62000D02*Y40000D01*
X77500D02*X99500D01*
X66107Y28245D02*X66893D01*
X66107Y33755D02*X66893D01*
G54D63*X62800Y72075D02*Y68575D01*
X63300Y68075D01*
X64300D01*
X64800Y68575D01*
Y72075D02*Y68575D01*
X66000Y71575D02*X66500Y72075D01*
X68000D01*
X68500Y71575D01*
Y70575D01*
X66000Y68075D02*X68500Y70575D01*
X66000Y68075D02*X68500D01*
X80500Y88000D02*Y84500D01*
X81000Y84000D01*
X82000D01*
X82500Y84500D01*
Y88000D02*Y84500D01*
X84200Y84000D02*X85200D01*
X84700Y88000D02*Y84000D01*
X83700Y87000D02*X84700Y88000D01*
X36686Y84187D02*Y80187D01*
X38686D01*
X39886Y83687D02*X40386Y84187D01*
X41886D01*
X42386Y83687D01*
Y82687D01*
X39886Y80187D02*X42386Y82687D01*
X39886Y80187D02*X42386D01*
X155807Y67150D02*X157807D01*
X158307Y66650D01*
Y65650D01*
X157807Y65150D02*X158307Y65650D01*
X156307Y65150D02*X157807D01*
X156307Y67150D02*Y63150D01*
Y65150D02*X158307Y63150D01*
X160007D02*X161007D01*
X160507Y67150D02*Y63150D01*
X159507Y66150D02*X160507Y67150D01*
X162707Y63150D02*X163707D01*
X163207Y67150D02*Y63150D01*
X162207Y66150D02*X163207Y67150D01*
X40500Y44500D02*X41000Y44000D01*
X39000Y44500D02*X40500D01*
X38500Y44000D02*X39000Y44500D01*
X38500Y44000D02*Y43000D01*
X39000Y42500D01*
X40500D01*
X41000Y42000D01*
Y41000D01*
X40500Y40500D02*X41000Y41000D01*
X39000Y40500D02*X40500D01*
X38500Y41000D02*X39000Y40500D01*
X42700D02*X43700D01*
X43200Y44500D02*Y40500D01*
X42200Y43500D02*X43200Y44500D01*
X45187Y15687D02*Y12687D01*
Y15687D02*X45687Y16187D01*
X46687D01*
X47187Y15687D01*
Y12687D01*
X46687Y12187D02*X47187Y12687D01*
X45687Y12187D02*X46687D01*
X45187Y12687D02*X45687Y12187D01*
X46187Y13187D02*X47187Y12187D01*
X48887D02*X49887D01*
X49387Y16187D02*Y12187D01*
X48387Y15187D02*X49387Y16187D01*
X44350Y53607D02*X45850D01*
X43850Y54107D02*X44350Y53607D01*
X43850Y57107D02*Y54107D01*
Y57107D02*X44350Y57607D01*
X45850D01*
X47550Y53607D02*X48550D01*
X48050Y57607D02*Y53607D01*
X47050Y56607D02*X48050Y57607D01*
X66936Y40150D02*Y36150D01*
X68436Y40150D02*X68936Y39650D01*
Y36650D01*
X68436Y36150D02*X68936Y36650D01*
X66436Y36150D02*X68436D01*
X66436Y40150D02*X68436D01*
X70636Y36150D02*X71636D01*
X71136Y40150D02*Y36150D01*
X70136Y39150D02*X71136Y40150D01*
X118500Y66000D02*X120500D01*
X121000Y65500D01*
Y64500D01*
X120500Y64000D02*X121000Y64500D01*
X119000Y64000D02*X120500D01*
X119000Y66000D02*Y62000D01*
Y64000D02*X121000Y62000D01*
X122700D02*X123700D01*
X123200Y66000D02*Y62000D01*
X122200Y65000D02*X123200Y66000D01*
X106500Y62000D02*X108000D01*
X106000Y62500D02*X106500Y62000D01*
X106000Y65500D02*Y62500D01*
Y65500D02*X106500Y66000D01*
X108000D01*
X109200Y65500D02*X109700Y66000D01*
X111200D01*
X111700Y65500D01*
Y64500D01*
X109200Y62000D02*X111700Y64500D01*
X109200Y62000D02*X111700D01*
X93875Y37200D02*Y33200D01*
X95875D01*
X97575D02*X98575D01*
X98075Y37200D02*Y33200D01*
X97075Y36200D02*X98075Y37200D01*
X78307Y25150D02*X80307D01*
X80807Y24650D01*
Y23650D01*
X80307Y23150D02*X80807Y23650D01*
X78807Y23150D02*X80307D01*
X78807Y25150D02*Y21150D01*
Y23150D02*X80807Y21150D01*
X82507D02*X83507D01*
X83007Y25150D02*Y21150D01*
X82007Y24150D02*X83007Y25150D01*
X84707Y24650D02*X85207Y25150D01*
X86707D01*
X87207Y24650D01*
Y23650D01*
X84707Y21150D02*X87207Y23650D01*
X84707Y21150D02*X87207D01*
X105500Y37500D02*Y33500D01*
X107000Y37500D02*X107500Y37000D01*
Y34000D01*
X107000Y33500D02*X107500Y34000D01*
X105000Y33500D02*X107000D01*
X105000Y37500D02*X107000D01*
X108700Y34000D02*X109200Y33500D01*
X108700Y35000D02*Y34000D01*
Y35000D02*X109200Y35500D01*
X110200D01*
X110700Y35000D01*
Y34000D01*
X110200Y33500D02*X110700Y34000D01*
X109200Y33500D02*X110200D01*
X108700Y36000D02*X109200Y35500D01*
X108700Y37000D02*Y36000D01*
Y37000D02*X109200Y37500D01*
X110200D01*
X110700Y37000D01*
Y36000D01*
X110200Y35500D02*X110700Y36000D01*
X92264Y191150D02*X94264D01*
X94764Y190650D01*
Y189650D01*
X94264Y189150D02*X94764Y189650D01*
X92764Y189150D02*X94264D01*
X92764Y191150D02*Y187150D01*
Y189150D02*X94764Y187150D01*
X96464D02*X97464D01*
X96964Y191150D02*Y187150D01*
X95964Y190150D02*X96964Y191150D01*
X98664Y187650D02*X99164Y187150D01*
X98664Y190650D02*Y187650D01*
Y190650D02*X99164Y191150D01*
X100164D01*
X100664Y190650D01*
Y187650D01*
X100164Y187150D02*X100664Y187650D01*
X99164Y187150D02*X100164D01*
X98664Y188150D02*X100664Y190150D01*
X47307Y207150D02*Y203150D01*
X48807Y207150D02*X49307Y206650D01*
Y203650D01*
X48807Y203150D02*X49307Y203650D01*
X46807Y203150D02*X48807D01*
X46807Y207150D02*X48807D01*
X50507Y206650D02*X51007Y207150D01*
X52507D01*
X53007Y206650D01*
Y205650D01*
X50507Y203150D02*X53007Y205650D01*
X50507Y203150D02*X53007D01*
X47307Y154150D02*Y150150D01*
X48807Y154150D02*X49307Y153650D01*
Y150650D01*
X48807Y150150D02*X49307Y150650D01*
X46807Y150150D02*X48807D01*
X46807Y154150D02*X48807D01*
X50507Y153650D02*X51007Y154150D01*
X52007D01*
X52507Y153650D01*
Y150650D01*
X52007Y150150D02*X52507Y150650D01*
X51007Y150150D02*X52007D01*
X50507Y150650D02*X51007Y150150D01*
Y152150D02*X52507D01*
X11543Y168000D02*X12043Y167500D01*
X10043Y168000D02*X11543D01*
X9543Y167500D02*X10043Y168000D01*
X9543Y167500D02*Y166500D01*
X10043Y166000D01*
X11543D01*
X12043Y165500D01*
Y164500D01*
X11543Y164000D02*X12043Y164500D01*
X10043Y164000D02*X11543D01*
X9543Y164500D02*X10043Y164000D01*
X13243Y167500D02*X13743Y168000D01*
X14743D01*
X15243Y167500D01*
Y164500D01*
X14743Y164000D02*X15243Y164500D01*
X13743Y164000D02*X14743D01*
X13243Y164500D02*X13743Y164000D01*
Y166000D02*X15243D01*
X72000Y191500D02*X74000D01*
X74500Y191000D01*
Y190000D01*
X74000Y189500D02*X74500Y190000D01*
X72500Y189500D02*X74000D01*
X72500Y191500D02*Y187500D01*
Y189500D02*X74500Y187500D01*
X75700D02*X78200Y190000D01*
Y191500D02*Y190000D01*
X75700Y191500D02*X78200D01*
X142850Y206650D02*Y202650D01*
X144350Y206650D02*X144850Y206150D01*
Y203150D01*
X144350Y202650D02*X144850Y203150D01*
X142350Y202650D02*X144350D01*
X142350Y206650D02*X144350D01*
X146050D02*X148050D01*
X146050D02*Y204650D01*
X146550Y205150D01*
X147550D01*
X148050Y204650D01*
Y203150D01*
X147550Y202650D02*X148050Y203150D01*
X146550Y202650D02*X147550D01*
X146050Y203150D02*X146550Y202650D01*
X177500Y221000D02*X178000Y220500D01*
X176000Y221000D02*X177500D01*
X175500Y220500D02*X176000Y221000D01*
X175500Y220500D02*Y219500D01*
X176000Y219000D01*
X177500D01*
X178000Y218500D01*
Y217500D01*
X177500Y217000D02*X178000Y217500D01*
X176000Y217000D02*X177500D01*
X175500Y217500D02*X176000Y217000D01*
X179200D02*X181700Y219500D01*
Y221000D02*Y219500D01*
X179200Y221000D02*X181700D01*
X11000Y220500D02*X11500Y220000D01*
X9500Y220500D02*X11000D01*
X9000Y220000D02*X9500Y220500D01*
X9000Y220000D02*Y219000D01*
X9500Y218500D01*
X11000D01*
X11500Y218000D01*
Y217000D01*
X11000Y216500D02*X11500Y217000D01*
X9500Y216500D02*X11000D01*
X9000Y217000D02*X9500Y216500D01*
X12700Y218500D02*X14700Y220500D01*
X12700Y218500D02*X15200D01*
X14700Y220500D02*Y216500D01*
X95500Y271500D02*X97500D01*
X98000Y271000D01*
Y270000D01*
X97500Y269500D02*X98000Y270000D01*
X96000Y269500D02*X97500D01*
X96000Y271500D02*Y267500D01*
Y269500D02*X98000Y267500D01*
X99200D02*X101200Y269500D01*
Y271000D02*Y269500D01*
X100700Y271500D02*X101200Y271000D01*
X99700Y271500D02*X100700D01*
X99200Y271000D02*X99700Y271500D01*
X99200Y271000D02*Y270000D01*
X99700Y269500D01*
X101200D01*
X110657Y270500D02*X112157D01*
Y267000D01*
X111657Y266500D02*X112157Y267000D01*
X111157Y266500D02*X111657D01*
X110657Y267000D02*X111157Y266500D01*
X113857D02*X114857D01*
X114357Y270500D02*Y266500D01*
X113357Y269500D02*X114357Y270500D01*
X75157D02*X76657D01*
Y267000D01*
X76157Y266500D02*X76657Y267000D01*
X75657Y266500D02*X76157D01*
X75157Y267000D02*X75657Y266500D01*
X77857Y270000D02*X78357Y270500D01*
X79857D01*
X80357Y270000D01*
Y269000D01*
X77857Y266500D02*X80357Y269000D01*
X77857Y266500D02*X80357D01*
X74652Y319075D02*X76652D01*
X77152Y318575D01*
Y317575D01*
X76652Y317075D02*X77152Y317575D01*
X75152Y317075D02*X76652D01*
X75152Y319075D02*Y315075D01*
Y317075D02*X77152Y315075D01*
X78352Y319075D02*X80352D01*
X78352D02*Y317075D01*
X78852Y317575D01*
X79852D01*
X80352Y317075D01*
Y315575D01*
X79852Y315075D02*X80352Y315575D01*
X78852Y315075D02*X79852D01*
X78352Y315575D02*X78852Y315075D01*
X89000Y244000D02*X90500D01*
X88500Y244500D02*X89000Y244000D01*
X88500Y247500D02*Y244500D01*
Y247500D02*X89000Y248000D01*
X90500D01*
X91700Y246000D02*X93700Y248000D01*
X91700Y246000D02*X94200D01*
X93700Y248000D02*Y244000D01*
X92696Y307150D02*X94696D01*
X95196Y306650D01*
Y305650D01*
X94696Y305150D02*X95196Y305650D01*
X93196Y305150D02*X94696D01*
X93196Y307150D02*Y303150D01*
Y305150D02*X95196Y303150D01*
X97896Y307150D02*X98396Y306650D01*
X96896Y307150D02*X97896D01*
X96396Y306650D02*X96896Y307150D01*
X96396Y306650D02*Y303650D01*
X96896Y303150D01*
X97896Y305150D02*X98396Y304650D01*
X96396Y305150D02*X97896D01*
X96896Y303150D02*X97896D01*
X98396Y303650D01*
Y304650D02*Y303650D01*
X104750Y242000D02*Y238500D01*
X105250Y238000D01*
X106250D01*
X106750Y238500D01*
Y242000D02*Y238500D01*
X107950Y241500D02*X108450Y242000D01*
X109450D01*
X109950Y241500D01*
Y238500D01*
X109450Y238000D02*X109950Y238500D01*
X108450Y238000D02*X109450D01*
X107950Y238500D02*X108450Y238000D01*
Y240000D02*X109950D01*
X141850Y154150D02*Y150150D01*
X143350Y154150D02*X143850Y153650D01*
Y150650D01*
X143350Y150150D02*X143850Y150650D01*
X141350Y150150D02*X143350D01*
X141350Y154150D02*X143350D01*
X146550D02*X147050Y153650D01*
X145550Y154150D02*X146550D01*
X145050Y153650D02*X145550Y154150D01*
X145050Y153650D02*Y150650D01*
X145550Y150150D01*
X146550Y152150D02*X147050Y151650D01*
X145050Y152150D02*X146550D01*
X145550Y150150D02*X146550D01*
X147050Y150650D01*
Y151650D02*Y150650D01*
X178000Y108500D02*X178500Y108000D01*
X176500Y108500D02*X178000D01*
X176000Y108000D02*X176500Y108500D01*
X176000Y108000D02*Y107000D01*
X176500Y106500D01*
X178000D01*
X178500Y106000D01*
Y105000D01*
X178000Y104500D02*X178500Y105000D01*
X176500Y104500D02*X178000D01*
X176000Y105000D02*X176500Y104500D01*
X179700Y108500D02*X181700D01*
X179700D02*Y106500D01*
X180200Y107000D01*
X181200D01*
X181700Y106500D01*
Y105000D01*
X181200Y104500D02*X181700Y105000D01*
X180200Y104500D02*X181200D01*
X179700Y105000D02*X180200Y104500D01*
X177500Y168500D02*X178000Y168000D01*
X176000Y168500D02*X177500D01*
X175500Y168000D02*X176000Y168500D01*
X175500Y168000D02*Y167000D01*
X176000Y166500D01*
X177500D01*
X178000Y166000D01*
Y165000D01*
X177500Y164500D02*X178000Y165000D01*
X176000Y164500D02*X177500D01*
X175500Y165000D02*X176000Y164500D01*
X180700Y168500D02*X181200Y168000D01*
X179700Y168500D02*X180700D01*
X179200Y168000D02*X179700Y168500D01*
X179200Y168000D02*Y165000D01*
X179700Y164500D01*
X180700Y166500D02*X181200Y166000D01*
X179200Y166500D02*X180700D01*
X179700Y164500D02*X180700D01*
X181200Y165000D01*
Y166000D02*Y165000D01*
X106500Y95000D02*X108500D01*
X109000Y94500D01*
Y93500D01*
X108500Y93000D02*X109000Y93500D01*
X107000Y93000D02*X108500D01*
X107000Y95000D02*Y91000D01*
Y93000D02*X109000Y91000D01*
X110200Y94500D02*X110700Y95000D01*
X112200D01*
X112700Y94500D01*
Y93500D01*
X110200Y91000D02*X112700Y93500D01*
X110200Y91000D02*X112700D01*
X141000Y95000D02*Y91000D01*
X142500Y95000D02*X143000Y94500D01*
Y91500D01*
X142500Y91000D02*X143000Y91500D01*
X140500Y91000D02*X142500D01*
X140500Y95000D02*X142500D01*
X144200Y91000D02*X146700Y93500D01*
Y95000D02*Y93500D01*
X144200Y95000D02*X146700D01*
X113500Y192000D02*X115500D01*
X116000Y191500D01*
Y190500D01*
X115500Y190000D02*X116000Y190500D01*
X114000Y190000D02*X115500D01*
X114000Y192000D02*Y188000D01*
Y190000D02*X116000Y188000D01*
X117200Y188500D02*X117700Y188000D01*
X117200Y189500D02*Y188500D01*
Y189500D02*X117700Y190000D01*
X118700D01*
X119200Y189500D01*
Y188500D01*
X118700Y188000D02*X119200Y188500D01*
X117700Y188000D02*X118700D01*
X117200Y190500D02*X117700Y190000D01*
X117200Y191500D02*Y190500D01*
Y191500D02*X117700Y192000D01*
X118700D01*
X119200Y191500D01*
Y190500D01*
X118700Y190000D02*X119200Y190500D01*
X99000Y141000D02*X99500Y140500D01*
X97500Y141000D02*X99000D01*
X97000Y140500D02*X97500Y141000D01*
X97000Y140500D02*Y139500D01*
X97500Y139000D01*
X99000D01*
X99500Y138500D01*
Y137500D01*
X99000Y137000D02*X99500Y137500D01*
X97500Y137000D02*X99000D01*
X97000Y137500D02*X97500Y137000D01*
X100700Y140500D02*X101200Y141000D01*
X102700D01*
X103200Y140500D01*
Y139500D01*
X100700Y137000D02*X103200Y139500D01*
X100700Y137000D02*X103200D01*
X106307Y126650D02*Y122650D01*
X107807Y126650D02*X108307Y126150D01*
Y123150D01*
X107807Y122650D02*X108307Y123150D01*
X105807Y122650D02*X107807D01*
X105807Y126650D02*X107807D01*
X109507Y124650D02*X111507Y126650D01*
X109507Y124650D02*X112007D01*
X111507Y126650D02*Y122650D01*
X37807Y116650D02*X39807D01*
X40307Y116150D01*
Y115150D01*
X39807Y114650D02*X40307Y115150D01*
X38307Y114650D02*X39807D01*
X38307Y116650D02*Y112650D01*
Y114650D02*X40307Y112650D01*
X41507Y114650D02*X43507Y116650D01*
X41507Y114650D02*X44007D01*
X43507Y116650D02*Y112650D01*
X22307Y117150D02*X24307D01*
X24807Y116650D01*
Y115650D01*
X24307Y115150D02*X24807Y115650D01*
X22807Y115150D02*X24307D01*
X22807Y117150D02*Y113150D01*
Y115150D02*X24807Y113150D01*
X26007Y116650D02*X26507Y117150D01*
X27507D01*
X28007Y116650D01*
Y113650D01*
X27507Y113150D02*X28007Y113650D01*
X26507Y113150D02*X27507D01*
X26007Y113650D02*X26507Y113150D01*
Y115150D02*X28007D01*
X24750Y96650D02*X26250D01*
X24250Y97150D02*X24750Y96650D01*
X24250Y100150D02*Y97150D01*
Y100150D02*X24750Y100650D01*
X26250D01*
X27450Y100150D02*X27950Y100650D01*
X28950D01*
X29450Y100150D01*
Y97150D01*
X28950Y96650D02*X29450Y97150D01*
X27950Y96650D02*X28950D01*
X27450Y97150D02*X27950Y96650D01*
Y98650D02*X29450D01*
X8000Y116000D02*Y112000D01*
X9500Y116000D02*X10000Y115500D01*
Y112500D01*
X9500Y112000D02*X10000Y112500D01*
X7500Y112000D02*X9500D01*
X7500Y116000D02*X9500D01*
X11200Y112000D02*X13200Y114000D01*
Y115500D02*Y114000D01*
X12700Y116000D02*X13200Y115500D01*
X11700Y116000D02*X12700D01*
X11200Y115500D02*X11700Y116000D01*
X11200Y115500D02*Y114500D01*
X11700Y114000D01*
X13200D01*
M02*
