G04 start of page 6 for group -4063 idx -4063 *
G04 Title: (unknown), componentmask *
G04 Creator: pcb 20140316 *
G04 CreationDate: Wed 08 Jun 2016 07:53:43 PM GMT UTC *
G04 For: ndholmes *
G04 Format: Gerber/RS-274X *
G04 PCB-Dimensions (mil): 1900.00 3250.00 *
G04 PCB-Coordinate-Origin: lower left *
%MOIN*%
%FSLAX25Y25*%
%LNTOPMASK*%
%ADD57R,0.0227X0.0227*%
%ADD56R,0.0420X0.0420*%
%ADD55R,0.0400X0.0400*%
%ADD54R,0.0520X0.0520*%
%ADD53R,0.0290X0.0290*%
%ADD52R,0.0572X0.0572*%
%ADD51R,0.0300X0.0300*%
%ADD50C,0.0860*%
%ADD49C,0.0001*%
%ADD48C,0.1500*%
%ADD47C,0.0760*%
G54D47*X133000Y276500D03*
X123000Y281500D03*
X133000Y286500D03*
X123000Y291500D03*
X133000Y296500D03*
X123000Y301500D03*
X133000Y306500D03*
X123000Y311500D03*
G54D48*X158000Y271500D03*
Y316500D03*
G54D49*G36*
X140700Y28800D02*Y20200D01*
X149300D01*
Y28800D01*
X140700D01*
G37*
G54D50*X95000Y24500D03*
G54D47*X67000Y296500D03*
X57000Y291500D03*
X67000Y286500D03*
X57000Y281500D03*
Y311500D03*
X67000Y306500D03*
X57000Y301500D03*
X67000Y276500D03*
G54D48*X32000Y316500D03*
Y271500D03*
G54D51*X81500Y79800D02*X83100D01*
X81500Y72000D02*X83100D01*
X89700Y75900D02*X91300D01*
G54D52*X116607Y77043D02*X117393D01*
X105607Y77000D02*X106393D01*
G54D51*X89700Y72000D02*X91300D01*
G54D52*X169457Y65393D02*Y64607D01*
X176543Y65393D02*Y64607D01*
X116607Y69957D02*X117393D01*
X105607Y69914D02*X106393D01*
G54D53*X91600Y63700D02*X97200D01*
G54D51*X89700Y79800D02*X91300D01*
G54D54*X152600Y80700D02*X157750D01*
X174250D02*X179400D01*
G54D52*X106414Y86393D02*Y85607D01*
X113500Y86393D02*Y85607D01*
X135957Y100893D02*Y100107D01*
X143043Y100893D02*Y100107D01*
G54D54*X152600Y90500D02*X157750D01*
X152600Y100300D02*X157750D01*
X174250Y90500D02*X179400D01*
X174250Y100300D02*X179400D01*
G54D52*X40607Y100457D02*X41393D01*
X40607Y107543D02*X41393D01*
X28543Y107893D02*Y107107D01*
X21457Y107893D02*Y107107D01*
G54D54*X73100Y111700D02*X78250D01*
X94750D02*X99900D01*
X73100Y121500D02*X78250D01*
X94750D02*X99900D01*
X73100Y131300D02*X78250D01*
X94750D02*X99900D01*
G54D52*X109457Y131893D02*Y131107D01*
X116543Y131893D02*Y131107D01*
G54D51*X56575Y67200D02*X58175D01*
X56575Y75000D02*X58175D01*
X48375D02*X49975D01*
X48375Y71100D02*X49975D01*
X48375Y67200D02*X49975D01*
G54D54*X7100Y23700D02*X12250D01*
X7100Y33500D02*X12250D01*
X7100Y43300D02*X12250D01*
X28750Y23700D02*X33900D01*
G54D55*X51887Y21687D02*X52487D01*
X51887Y29487D02*X52487D01*
X43687Y25587D02*X44287D01*
G54D54*X28750Y33500D02*X33900D01*
G54D52*X70043Y31393D02*Y30607D01*
X85543Y31393D02*Y30607D01*
X78457Y31393D02*Y30607D01*
X62957Y31393D02*Y30607D01*
X52457Y55893D02*Y55107D01*
X59543Y55893D02*Y55107D01*
G54D53*X75800Y63700D02*Y42300D01*
G54D49*G36*
X76950Y49469D02*X82969Y43450D01*
X80423Y40904D01*
X74404Y46923D01*
X76950Y49469D01*
G37*
G36*
X74404Y59077D02*X80423Y65096D01*
X82969Y62550D01*
X76950Y56531D01*
X74404Y59077D01*
G37*
G36*
X75150Y45250D02*Y41650D01*
X78750D01*
Y45250D01*
X75150D01*
G37*
G36*
Y64350D02*Y60750D01*
X78750D01*
Y64350D01*
X75150D01*
G37*
G54D53*X75800Y42300D02*X81400D01*
X75800Y63700D02*X81400D01*
X97200D02*Y42300D01*
X91600D02*X97200D01*
G54D49*G36*
X90031Y43450D02*X96050Y49469D01*
X98596Y46923D01*
X92577Y40904D01*
X90031Y43450D01*
G37*
G36*
X92577Y65096D02*X98596Y59077D01*
X96050Y56531D01*
X90031Y62550D01*
X92577Y65096D01*
G37*
G36*
X94250Y45250D02*Y41650D01*
X97850D01*
Y45250D01*
X94250D01*
G37*
G36*
Y64350D02*Y60750D01*
X97850D01*
Y64350D01*
X94250D01*
G37*
G54D56*X106900Y44000D02*X108100D01*
X106900Y56900D02*X108100D01*
G54D54*X28750Y43300D02*X33900D01*
G54D53*X32513Y66087D02*Y60487D01*
G54D49*G36*
X25345Y61637D02*X31363Y67655D01*
X33909Y65110D01*
X27890Y59091D01*
X25345Y61637D01*
G37*
G36*
X29563Y63437D02*Y59837D01*
X33163D01*
Y63437D01*
X29563D01*
G37*
G54D53*X11113Y60487D02*X32513D01*
X11113Y66087D02*Y60487D01*
G54D49*G36*
X12263Y67655D02*X18282Y61637D01*
X15736Y59091D01*
X9718Y65110D01*
X12263Y67655D01*
G37*
G36*
X10463Y63437D02*Y59837D01*
X14063D01*
Y63437D01*
X10463D01*
G37*
G54D53*X11113Y81887D02*X32513D01*
X11113D02*Y76287D01*
G54D49*G36*
X9718Y77264D02*X15736Y83282D01*
X18282Y80737D01*
X12263Y74718D01*
X9718Y77264D01*
G37*
G36*
X10463Y82537D02*Y78937D01*
X14063D01*
Y82537D01*
X10463D01*
G37*
G54D56*X10400Y92500D02*X11600D01*
X10400Y105400D02*X11600D01*
G54D52*X21457Y92393D02*Y91607D01*
X28543Y92393D02*Y91607D01*
G54D53*X32513Y81887D02*Y76287D01*
G54D49*G36*
X27890Y83282D02*X33909Y77264D01*
X31363Y74718D01*
X25345Y80737D01*
X27890Y83282D01*
G37*
G36*
X29563Y82537D02*Y78937D01*
X33163D01*
Y82537D01*
X29563D01*
G37*
G54D57*X103000Y263131D02*Y261261D01*
X99851Y263131D02*Y261261D01*
X96701Y263131D02*Y261261D01*
X93552Y263131D02*Y261261D01*
Y256435D02*Y254565D01*
X96701Y256435D02*Y254565D01*
X99851Y256435D02*Y254565D01*
X103000Y256435D02*Y254565D01*
G54D52*X83607Y245957D02*X84393D01*
X83607Y253043D02*X84393D01*
G54D57*X84276Y313087D02*Y311217D01*
Y319783D02*Y317913D01*
X87425Y313087D02*Y311217D01*
X90575Y313087D02*Y311217D01*
X93724Y313087D02*Y311217D01*
Y319783D02*Y317913D01*
X90575Y319783D02*Y317913D01*
X87425Y319783D02*Y317913D01*
X111224Y319783D02*Y317913D01*
Y313087D02*Y311217D01*
X108075Y319783D02*Y317913D01*
Y313087D02*Y311217D01*
X104925Y319783D02*Y317913D01*
Y313087D02*Y311217D01*
X101776Y319783D02*Y317913D01*
Y313087D02*Y311217D01*
G54D52*X143000Y159893D02*Y159107D01*
G54D54*X152600Y159300D02*X157750D01*
X174250D02*X179400D01*
X152600Y139700D02*X157750D01*
X152600Y149500D02*X157750D01*
X174250Y139700D02*X179400D01*
X174250Y149500D02*X179400D01*
G54D52*X49457Y212393D02*Y211607D01*
G54D54*X33250Y192700D02*X38400D01*
X33250Y202500D02*X38400D01*
X33250Y212300D02*X38400D01*
G54D52*X56543Y212393D02*Y211607D01*
G54D54*X11600Y192700D02*X16750D01*
X11600Y202500D02*X16750D01*
X11600Y212300D02*X16750D01*
G54D52*X96107Y182086D02*X96893D01*
X96107Y175000D02*X96893D01*
G54D57*X111776Y176087D02*Y174217D01*
X114925Y176087D02*Y174217D01*
X118075Y176087D02*Y174217D01*
X121224Y176087D02*Y174217D01*
Y182783D02*Y180913D01*
X118075Y182783D02*Y180913D01*
X114925Y182783D02*Y180913D01*
X111776Y182783D02*Y180913D01*
G54D51*X102250Y198500D02*X108750D01*
X102250Y203500D02*X108750D01*
X102250Y208500D02*X108750D01*
X102250Y213500D02*X108750D01*
X102250Y218500D02*X108750D01*
X102250Y223500D02*X108750D01*
X102250Y228500D02*X108750D01*
X102250Y233500D02*X108750D01*
G54D52*X49457Y159893D02*Y159107D01*
G54D54*X33293Y139700D02*X38443D01*
X33293Y149500D02*X38443D01*
X33293Y159300D02*X38443D01*
G54D52*X56543Y159893D02*Y159107D01*
G54D54*X11643Y139700D02*X16793D01*
X11643Y149500D02*X16793D01*
X11643Y159300D02*X16793D01*
G54D57*X70776Y176087D02*Y174217D01*
X73925Y176087D02*Y174217D01*
X77075Y176087D02*Y174217D01*
X80224Y176087D02*Y174217D01*
Y182783D02*Y180913D01*
X77075Y182783D02*Y180913D01*
X73925Y182783D02*Y180913D01*
X70776Y182783D02*Y180913D01*
G54D51*X81750Y233500D02*X88250D01*
X81750Y228500D02*X88250D01*
X81750Y223500D02*X88250D01*
X81750Y218500D02*X88250D01*
X81750Y213500D02*X88250D01*
X81750Y208500D02*X88250D01*
X81750Y203500D02*X88250D01*
X81750Y198500D02*X88250D01*
G54D52*X135914Y159893D02*Y159107D01*
Y212393D02*Y211607D01*
X143000Y212393D02*Y211607D01*
G54D54*X152600Y192700D02*X157750D01*
X152600Y202500D02*X157750D01*
X152600Y212300D02*X157750D01*
X174250Y192700D02*X179400D01*
X174250Y202500D02*X179400D01*
X174250Y212300D02*X179400D01*
M02*
