M48
INCH
T46C0.020
T45C0.048
T44C0.128
T43C0.030
%
T46
X000850Y000950
X001100Y012200
X001200Y000600
X002200Y021250
X002500Y015950
X002504Y014950
X002800Y021250
X003450Y010000
X003500Y009450
X003500Y008950
X004000Y009450
X004000Y008950
X004250Y007050
X004250Y006550
X004400Y015900
X005650Y021850
X005650Y019700
X005950Y004950
X006500Y006050
X006500Y005500
X006500Y004950
X007600Y031150
X007900Y023950
X008050Y030650
X008050Y026100
X008250Y019300
X008350Y013150
X008400Y023950
X008500Y030150
X008550Y026100
X008750Y019300
X008950Y029650
X008950Y013150
X009650Y029650
X009800Y008600
X009800Y008100
X009800Y007600
X009800Y007100
X010100Y030150
X010550Y030650
X010600Y018200
X010600Y002950
X010600Y002150
X011200Y002950
X011200Y002150
X011300Y020800
X011800Y002950
X011800Y002150
X011900Y011400
X011900Y010700
X012350Y002950
X012350Y002150
X012950Y002950
X012950Y002150
X014950Y016550
X015300Y021800
X015550Y016550
X015900Y012850
X016600Y020250
X016600Y014950
X016600Y009050
X018500Y021250
T43
X005700Y031150
X005700Y030150
X005700Y029150
X005700Y028150
X006700Y030650
X006700Y029650
X006700Y028650
X006700Y027650
X012300Y031150
X012300Y030150
X012300Y029150
X012300Y028150
X013300Y030650
X013300Y029650
X013300Y028650
X013300Y027650
T45
X009500Y002450
X014500Y002450
T44
X003200Y031650
X003200Y027150
X015800Y031650
X015800Y027150
M30
