G04 start of page 2 for group 0 idx 0 *
G04 Title: (unknown), component *
G04 Creator: pcb 20140316 *
G04 CreationDate: Wed 08 Jun 2016 07:53:43 PM GMT UTC *
G04 For: ndholmes *
G04 Format: Gerber/RS-274X *
G04 PCB-Dimensions (mil): 1900.00 3250.00 *
G04 PCB-Coordinate-Origin: lower left *
%MOIN*%
%FSLAX25Y25*%
%LNTOP*%
%ADD30C,0.0480*%
%ADD29C,0.1280*%
%ADD28C,0.0300*%
%ADD27C,0.0200*%
%ADD26R,0.0200X0.0200*%
%ADD25R,0.0167X0.0167*%
%ADD24R,0.0360X0.0360*%
%ADD23R,0.0340X0.0340*%
%ADD22R,0.0470X0.0470*%
%ADD21R,0.0230X0.0230*%
%ADD20R,0.0512X0.0512*%
%ADD19R,0.0240X0.0240*%
%ADD18C,0.0800*%
%ADD17C,0.1440*%
%ADD16C,0.0700*%
%ADD15C,0.0450*%
%ADD14C,0.0400*%
%ADD13C,0.0100*%
%ADD12C,0.0250*%
%ADD11C,0.0001*%
G54D11*G36*
X68000Y126000D02*Y149000D01*
X107379D01*
X112000Y144379D01*
Y126000D01*
X68000D01*
G37*
G36*
X140500Y172500D02*X180879D01*
X181500Y171879D01*
Y155000D01*
X140500D01*
Y172500D01*
G37*
G36*
X140000Y144500D02*X181500D01*
Y131500D01*
X159118D01*
X159000Y131509D01*
X158882Y131500D01*
X140000D01*
Y144500D01*
G37*
G36*
X140500Y236500D02*X188000D01*
Y207000D01*
X140500D01*
Y236500D01*
G37*
G36*
Y197500D02*X165000D01*
Y177500D01*
X140500D01*
Y197500D01*
G37*
G36*
X167500D02*X188000D01*
Y177500D01*
X167500D01*
Y197500D01*
G37*
G36*
X8500Y85000D02*X39000D01*
Y72500D01*
X8500D01*
Y85000D01*
G37*
G36*
Y70000D02*X38500D01*
Y57000D01*
X8500D01*
Y70000D01*
G37*
G36*
X26000Y98000D02*X43000D01*
Y86500D01*
X26000D01*
Y98000D01*
G37*
G36*
X15000Y109000D02*X24000D01*
Y87000D01*
X15000D01*
Y109000D01*
G37*
G36*
X6000D02*X24000D01*
Y96500D01*
X6000D01*
Y109000D01*
G37*
G36*
X55000Y48000D02*X8500D01*
Y62500D01*
X42382D01*
X42500Y62491D01*
X42618Y62500D01*
X55000D01*
Y48000D01*
G37*
G36*
X45500Y86500D02*X26000D01*
Y103000D01*
X45500D01*
Y86500D01*
G37*
G36*
X26000Y145000D02*X53000D01*
Y127000D01*
X26000D01*
Y145000D01*
G37*
G36*
X69500Y117000D02*X85500D01*
Y99000D01*
X69500D01*
Y117000D01*
G37*
G36*
X2500Y28500D02*X16500D01*
Y12500D01*
X9283D01*
X8986Y12571D01*
X8500Y12610D01*
X8014Y12571D01*
X7717Y12500D01*
X2500D01*
Y28500D01*
G37*
G36*
X24500Y29000D02*X38500D01*
Y17000D01*
X24500D01*
Y29000D01*
G37*
G36*
X2000Y46000D02*X38000D01*
Y37500D01*
X2000D01*
Y46000D01*
G37*
G36*
X35500D02*X46500D01*
Y37500D01*
X35500D01*
Y46000D01*
G37*
G36*
X40500D02*X46500D01*
Y19500D01*
X40500D01*
Y46000D01*
G37*
G36*
X79500Y200500D02*X90879D01*
X91000Y200379D01*
Y190000D01*
X79500D01*
Y200500D01*
G37*
G36*
X77500Y261000D02*X89000D01*
Y250500D01*
X77500D01*
Y261000D01*
G37*
G36*
Y264000D02*X89000D01*
Y253500D01*
X77500D01*
Y264000D01*
G37*
G36*
X8000Y198000D02*X24000D01*
Y180000D01*
X8000D01*
Y198000D01*
G37*
G36*
Y145000D02*X24000D01*
Y127000D01*
X9182D01*
X8000Y128182D01*
Y145000D01*
G37*
G36*
X26000Y198000D02*X53000D01*
Y180000D01*
X26000D01*
Y198000D01*
G37*
G36*
X8000Y154500D02*Y177500D01*
X52000D01*
Y154500D01*
X8000D01*
G37*
G36*
Y236500D02*X52000D01*
Y207500D01*
X8000D01*
Y236500D01*
G37*
G36*
X72500Y66500D02*X83500D01*
Y39000D01*
X72500D01*
Y66500D01*
G37*
G36*
X57000Y46500D02*Y63500D01*
X67500D01*
Y46500D01*
X57000D01*
G37*
G36*
X48500Y52000D02*X55000D01*
Y26000D01*
X48500D01*
Y52000D01*
G37*
G36*
X51000Y44500D02*X83500D01*
Y38000D01*
X51000D01*
Y44500D01*
G37*
G36*
X65500Y39500D02*Y26000D01*
X52500D01*
Y39500D01*
X65500D01*
G37*
G36*
X94500Y89000D02*X109000D01*
Y74500D01*
X94500D01*
Y89000D01*
G37*
G36*
X140000Y85500D02*X181500D01*
Y71000D01*
X140000D01*
Y85500D01*
G37*
G36*
X94500Y85000D02*X101500D01*
Y68000D01*
X94500D01*
Y85000D01*
G37*
G36*
X99493Y35000D02*X136500D01*
Y16500D01*
X99493D01*
Y21645D01*
X99578Y21681D01*
X99679Y21743D01*
X99769Y21819D01*
X99845Y21909D01*
X99905Y22011D01*
X100122Y22480D01*
X100289Y22969D01*
X100409Y23472D01*
X100482Y23984D01*
X100506Y24500D01*
X100482Y25016D01*
X100409Y25528D01*
X100289Y26031D01*
X100122Y26520D01*
X99910Y26992D01*
X99849Y27093D01*
X99772Y27184D01*
X99682Y27261D01*
X99580Y27323D01*
X99493Y27360D01*
Y35000D01*
G37*
G36*
X95002D02*X99493D01*
Y27360D01*
X99471Y27369D01*
X99355Y27397D01*
X99237Y27406D01*
X99119Y27397D01*
X99003Y27370D01*
X98893Y27324D01*
X98792Y27262D01*
X98702Y27186D01*
X98624Y27095D01*
X98562Y26994D01*
X98516Y26885D01*
X98489Y26769D01*
X98479Y26651D01*
X98488Y26532D01*
X98516Y26417D01*
X98563Y26308D01*
X98721Y25968D01*
X98842Y25612D01*
X98930Y25247D01*
X98982Y24875D01*
X99000Y24500D01*
X98982Y24125D01*
X98930Y23753D01*
X98842Y23388D01*
X98721Y23032D01*
X98567Y22690D01*
X98520Y22582D01*
X98493Y22467D01*
X98483Y22349D01*
X98493Y22232D01*
X98521Y22117D01*
X98566Y22008D01*
X98628Y21907D01*
X98705Y21818D01*
X98795Y21741D01*
X98895Y21680D01*
X99004Y21635D01*
X99119Y21607D01*
X99237Y21598D01*
X99355Y21608D01*
X99469Y21635D01*
X99493Y21645D01*
Y16500D01*
X95002D01*
Y18994D01*
X95516Y19018D01*
X96028Y19091D01*
X96531Y19211D01*
X97020Y19378D01*
X97492Y19590D01*
X97593Y19651D01*
X97684Y19728D01*
X97761Y19818D01*
X97823Y19920D01*
X97869Y20029D01*
X97897Y20145D01*
X97906Y20263D01*
X97897Y20381D01*
X97870Y20497D01*
X97824Y20607D01*
X97762Y20708D01*
X97686Y20798D01*
X97595Y20876D01*
X97494Y20938D01*
X97385Y20984D01*
X97269Y21011D01*
X97151Y21021D01*
X97032Y21012D01*
X96917Y20984D01*
X96808Y20937D01*
X96468Y20779D01*
X96112Y20658D01*
X95747Y20570D01*
X95375Y20518D01*
X95002Y20500D01*
Y28500D01*
X95375Y28482D01*
X95747Y28430D01*
X96112Y28342D01*
X96468Y28221D01*
X96810Y28067D01*
X96918Y28020D01*
X97033Y27993D01*
X97151Y27983D01*
X97268Y27993D01*
X97383Y28021D01*
X97492Y28066D01*
X97593Y28128D01*
X97682Y28205D01*
X97759Y28295D01*
X97820Y28395D01*
X97865Y28504D01*
X97893Y28619D01*
X97902Y28737D01*
X97892Y28855D01*
X97865Y28969D01*
X97819Y29078D01*
X97757Y29179D01*
X97681Y29269D01*
X97591Y29345D01*
X97489Y29405D01*
X97020Y29622D01*
X96531Y29789D01*
X96028Y29909D01*
X95516Y29982D01*
X95002Y30006D01*
Y35000D01*
G37*
G36*
X90507D02*X95002D01*
Y30006D01*
X95000Y30006D01*
X94484Y29982D01*
X93972Y29909D01*
X93469Y29789D01*
X92980Y29622D01*
X92508Y29410D01*
X92407Y29349D01*
X92316Y29272D01*
X92239Y29182D01*
X92177Y29080D01*
X92131Y28971D01*
X92103Y28855D01*
X92094Y28737D01*
X92103Y28619D01*
X92130Y28503D01*
X92176Y28393D01*
X92238Y28292D01*
X92314Y28202D01*
X92405Y28124D01*
X92506Y28062D01*
X92615Y28016D01*
X92731Y27989D01*
X92849Y27979D01*
X92968Y27988D01*
X93083Y28016D01*
X93192Y28063D01*
X93532Y28221D01*
X93888Y28342D01*
X94253Y28430D01*
X94625Y28482D01*
X95000Y28500D01*
X95002Y28500D01*
Y20500D01*
X95000Y20500D01*
X94625Y20518D01*
X94253Y20570D01*
X93888Y20658D01*
X93532Y20779D01*
X93190Y20933D01*
X93082Y20980D01*
X92967Y21007D01*
X92849Y21017D01*
X92732Y21007D01*
X92617Y20979D01*
X92508Y20934D01*
X92407Y20872D01*
X92318Y20795D01*
X92241Y20705D01*
X92180Y20605D01*
X92135Y20496D01*
X92107Y20381D01*
X92098Y20263D01*
X92108Y20145D01*
X92135Y20031D01*
X92181Y19922D01*
X92243Y19821D01*
X92319Y19731D01*
X92409Y19655D01*
X92511Y19595D01*
X92980Y19378D01*
X93469Y19211D01*
X93972Y19091D01*
X94484Y19018D01*
X95000Y18994D01*
X95002Y18994D01*
Y16500D01*
X90507D01*
Y21640D01*
X90529Y21631D01*
X90645Y21603D01*
X90763Y21594D01*
X90881Y21603D01*
X90997Y21630D01*
X91107Y21676D01*
X91208Y21738D01*
X91298Y21814D01*
X91376Y21905D01*
X91438Y22006D01*
X91484Y22115D01*
X91511Y22231D01*
X91521Y22349D01*
X91512Y22468D01*
X91484Y22583D01*
X91437Y22692D01*
X91279Y23032D01*
X91158Y23388D01*
X91070Y23753D01*
X91018Y24125D01*
X91000Y24500D01*
X91018Y24875D01*
X91070Y25247D01*
X91158Y25612D01*
X91279Y25968D01*
X91433Y26310D01*
X91480Y26418D01*
X91507Y26533D01*
X91517Y26651D01*
X91507Y26768D01*
X91479Y26883D01*
X91434Y26992D01*
X91372Y27093D01*
X91295Y27182D01*
X91205Y27259D01*
X91105Y27320D01*
X90996Y27365D01*
X90881Y27393D01*
X90763Y27402D01*
X90645Y27392D01*
X90531Y27365D01*
X90507Y27355D01*
Y35000D01*
G37*
G36*
X83000D02*X90507D01*
Y27355D01*
X90422Y27319D01*
X90321Y27257D01*
X90231Y27181D01*
X90155Y27091D01*
X90095Y26989D01*
X89878Y26520D01*
X89711Y26031D01*
X89591Y25528D01*
X89518Y25016D01*
X89494Y24500D01*
X89518Y23984D01*
X89591Y23472D01*
X89711Y22969D01*
X89878Y22480D01*
X90090Y22008D01*
X90151Y21907D01*
X90228Y21816D01*
X90318Y21739D01*
X90420Y21677D01*
X90507Y21640D01*
Y16500D01*
X83000D01*
Y35000D01*
G37*
G36*
X87500Y117000D02*X114500D01*
Y99000D01*
X87500D01*
Y117000D01*
G37*
G36*
X68000D02*X84000D01*
Y99000D01*
X68000D01*
Y117000D01*
G37*
G36*
X147500D02*X182500D01*
Y95500D01*
X147500D01*
Y117000D01*
G37*
G36*
X89000Y66500D02*X100000D01*
Y39000D01*
X89000D01*
Y66500D01*
G37*
G36*
X94000Y39000D02*Y51000D01*
X112000D01*
Y39000D01*
X94000D01*
G37*
G54D12*X119000Y276500D02*X78500D01*
X123000Y281500D02*X82000D01*
X119000Y286500D02*X87000D01*
X123000Y291500D02*X90500D01*
X89500Y292500D01*
X133000Y296500D02*X126500D01*
X133000Y306500D02*X126500D01*
G54D13*X117000D01*
X126500Y296500D02*X115000D01*
G54D12*X96500D02*X119000D01*
X123000Y301500D02*X101000D01*
X105500Y306500D02*X119000D01*
X87000Y286500D02*X85000Y288500D01*
Y301500D01*
X89500Y292500D02*Y296500D01*
G54D13*X88500Y301500D02*X85000D01*
G54D12*X76000Y279000D02*Y311500D01*
X80500Y283000D02*Y306500D01*
G54D13*X76152Y311652D02*X76000Y311500D01*
X84276Y312152D02*X77152D01*
X76000Y311000D01*
X81000Y306500D02*X80500Y307000D01*
X85500Y306500D02*X81000D01*
X90575Y303575D02*X88500Y301500D01*
X87425Y312152D02*Y308425D01*
X85500Y306500D01*
X90575Y312152D02*Y303575D01*
X93724Y312152D02*Y300724D01*
X89500Y296500D01*
X96500D02*Y313500D01*
X101776Y312152D02*Y302276D01*
X101000Y301500D01*
X84276Y318848D02*X93724D01*
X91652D02*X101776D01*
X87425D02*X75652D01*
X75500Y319000D01*
X111224Y318848D02*X121152D01*
X123000Y317000D01*
Y311500D01*
X109000Y322500D02*X138500D01*
X146500Y314500D01*
X96500Y313500D02*X98500Y315500D01*
X104500D01*
X105000Y315000D01*
X104925Y318848D02*X108075D01*
Y312152D02*X111224D01*
X105000Y315000D02*Y312227D01*
X104925Y312152D01*
X108000Y318848D02*Y321500D01*
X109000Y322500D01*
G54D12*X133000Y276500D02*X127500D01*
G54D13*X139000Y271500D02*X140500Y273000D01*
Y280000D01*
X139000Y281500D01*
X122500D01*
X127500Y286500D02*X116000D01*
X127500Y276500D02*X118000D01*
X98500Y271500D02*X139000D01*
X101500Y269500D02*X140500D01*
X141500Y267500D02*X104500D01*
X103000Y266000D01*
X110000Y263000D02*X143000D01*
X146500Y266500D01*
G54D12*X133000Y286500D02*X127500D01*
G54D13*X140000D02*X133000D01*
X123000Y291500D02*X140500D01*
X144500Y287500D01*
X140500Y269500D02*X142500Y271500D01*
Y284000D01*
X144500Y287500D02*Y270500D01*
X141500Y267500D01*
X146500Y266500D02*Y270000D01*
X142500Y284000D02*X140000Y286500D01*
X146500Y314500D02*Y266500D01*
G54D12*X78500Y276500D02*X76000Y279000D01*
X82000Y281500D02*X80500Y283000D01*
X65500Y206000D02*Y263500D01*
X78500Y276500D01*
X176825Y202500D02*X155175D01*
X176825Y149500D02*X155175D01*
G54D13*X113000Y178500D02*X133000D01*
X121224Y175152D02*X180348D01*
X184000Y171500D01*
X133000Y178500D02*X136000Y181500D01*
X119000Y159500D02*X135914D01*
X105914Y182086D02*X106000Y182000D01*
X110000Y168500D02*Y165000D01*
X131500Y149500D02*X156500D01*
X136000Y181500D02*Y211914D01*
X135914Y212000D01*
X116500Y210500D02*X113500Y213500D01*
X121224Y181848D02*Y223776D01*
X114925Y163575D02*X119000Y159500D01*
X96500Y175000D02*X103500D01*
X110000Y168500D01*
Y165000D02*X119000Y156000D01*
X116500Y142000D02*Y134000D01*
X119000Y156000D02*X125000D01*
X131500Y149500D01*
G54D12*X155175Y90500D02*X176825D01*
X169500Y64957D02*X169457Y65000D01*
G54D13*X184000Y171500D02*Y126000D01*
G54D12*X185000Y98000D02*Y67000D01*
X183000Y65000D01*
X184000Y100000D02*X185000Y99000D01*
Y96000D01*
G54D13*X184000Y126000D02*X179500Y121500D01*
G54D12*X183000Y65000D02*X176543D01*
G54D13*X179500Y121500D02*X147000D01*
X143000Y117500D01*
Y100543D01*
X143043Y100500D01*
G54D12*X140500Y121500D02*X147500Y128500D01*
X159000D01*
G54D14*X145000Y24500D02*Y17500D01*
X140000Y12500D01*
G54D12*X169500Y15500D02*Y64957D01*
Y19500D02*Y9000D01*
X166500Y6000D01*
X178500Y100000D02*X184000D01*
G54D13*X116500Y135500D02*Y131543D01*
X116543Y131500D01*
G54D12*X96000Y121500D02*X140500D01*
G54D14*X106000Y70000D02*X116957D01*
X111500D02*X123000D01*
X126000Y73000D01*
X116957Y70000D02*X117000Y69957D01*
G54D12*X113500Y86500D02*Y80500D01*
X112000Y92000D02*X113500Y90500D01*
Y86000D01*
Y80500D02*X117000Y77000D01*
G54D14*X126000Y73000D02*Y92500D01*
X119000Y99500D01*
Y114000D01*
G54D13*X136000Y100500D02*X127000D01*
X122500Y96000D01*
X93552Y262196D02*Y276448D01*
X91500Y249000D02*X93500Y251000D01*
Y255448D01*
X93552Y255500D01*
X93500Y248000D02*Y243500D01*
X93552Y276448D02*X93500Y276500D01*
X96701Y262196D02*Y269701D01*
Y255500D02*Y251201D01*
X93500Y248000D01*
X99851Y251351D02*X95500Y247000D01*
X105500Y228500D02*X116500D01*
X118500Y226500D01*
X121224Y223776D02*X117500Y227500D01*
X85000Y223500D02*X90500D01*
X91500Y224500D01*
Y249000D01*
X95500Y247000D02*Y243000D01*
G54D14*X84000Y246000D02*Y239500D01*
G54D12*Y233500D02*Y239500D01*
G54D13*X105500Y223500D02*X101500D01*
X99500Y225500D01*
Y243500D01*
X107500Y251500D01*
X96701Y269701D02*X98500Y271500D01*
X99851Y262196D02*Y267851D01*
X101500Y269500D01*
X103000Y266000D02*Y262196D01*
X97500Y245500D02*X103000Y251000D01*
X99851Y255500D02*Y251351D01*
X103000Y251000D02*Y255500D01*
X107500Y251500D02*Y260500D01*
X110000Y263000D01*
G54D12*X14175Y202500D02*X35825D01*
X14218Y149500D02*X35868D01*
G54D13*X60000Y169500D02*X56500Y166000D01*
Y159543D01*
X56543Y159500D01*
G54D12*X11000Y122000D02*X4250Y128750D01*
Y294750D01*
G54D13*X56500Y218500D02*Y212043D01*
X56543Y212000D01*
X56500Y197000D02*X64000D01*
X65500Y195500D01*
Y192000D01*
X85000Y213500D02*X90500D01*
X73925Y215925D02*X76500Y218500D01*
X85000D01*
X90500Y213500D02*X93500Y216500D01*
Y245500D01*
X74500Y228500D02*X85000D01*
G54D14*X84000Y239500D02*X79000D01*
G54D13*X78500Y208500D02*X85000D01*
Y203500D02*X90000D01*
G54D12*X75675Y121500D02*X97325D01*
G54D13*X77000Y175000D02*Y171000D01*
X78500Y169500D01*
X89000D01*
X95500Y202000D02*Y245000D01*
X97500Y203500D02*Y245500D01*
X105500Y203500D02*X113500D01*
X114500Y202500D01*
X112000Y199500D02*X110500Y201000D01*
X113500Y213500D02*X105500D01*
Y208500D02*X112500D01*
X113000Y208000D01*
X105500Y198500D02*X99000D01*
Y194500D02*X110500D01*
X99000Y198500D02*X95500Y202000D01*
X90000Y203500D02*X99000Y194500D01*
X110500Y201000D02*X100000D01*
X97500Y203500D01*
X111776Y181848D02*Y189776D01*
X114500Y192500D01*
X114925Y181848D02*Y189425D01*
X116500Y191000D01*
Y210500D01*
X114500Y202500D02*Y194000D01*
Y192500D02*Y196500D01*
X110500Y194500D02*X112000Y196000D01*
Y199500D01*
X114925Y175152D02*Y163575D01*
X111776Y175152D02*Y177276D01*
X113000Y178500D01*
X96500Y182086D02*X105914D01*
X89000Y169500D02*X116500Y142000D01*
X70776Y181848D02*Y224776D01*
X74500Y228500D01*
X73925Y181848D02*Y215925D01*
X77075Y181848D02*Y207075D01*
X78500Y208500D01*
X73925Y175152D02*Y171925D01*
X65500Y195500D02*Y180000D01*
X70776Y175152D02*X67348D01*
X65500Y177000D01*
Y182000D01*
X73925Y171925D02*X71500Y169500D01*
X60000D01*
G54D12*X35000Y202500D02*X62000D01*
X65500Y206000D01*
X4250Y294750D02*X13500Y304000D01*
X37000D01*
X52000Y319000D01*
X79500D01*
G54D14*X140000Y12500D02*X23000D01*
G54D12*X166500Y6000D02*X12000D01*
X8500Y9500D02*X12000Y6000D01*
G54D14*X23000Y12500D02*X20500Y15000D01*
Y33500D01*
X9675D01*
X31325D02*X15500D01*
X9675Y43300D02*X31325D01*
G54D13*X70043Y31000D02*X78457D01*
G54D12*X87000Y21500D02*X52373D01*
X52187Y21687D01*
G54D13*X53000Y78000D02*Y68000D01*
G54D12*X57375Y67200D02*Y75000D01*
X82300Y72000D02*X57375D01*
X82300Y79800D02*Y72000D01*
X90500Y61500D02*Y72000D01*
G54D14*X106000Y69914D02*Y58400D01*
X107500Y56900D01*
G54D12*X90500Y76000D02*X98500D01*
X90500Y80000D02*Y89500D01*
X93000Y92000D01*
X112000D01*
X53700Y57700D02*Y63800D01*
X57000Y67100D01*
X43175Y75000D02*X38500D01*
X49175Y71100D02*X43100D01*
X42500Y70500D01*
X42000Y75000D02*X49175D01*
X49500Y84000D02*X53000Y80500D01*
Y78000D01*
X57375Y67200D02*X56700D01*
G54D13*X53000Y68000D02*X52000Y67000D01*
X49375D01*
X49175Y67200D01*
G54D14*X42500Y70500D02*Y65500D01*
G54D12*X28543Y107500D02*X40957D01*
X41000Y107543D01*
X46457D01*
X49500Y104500D01*
Y84000D01*
G54D15*X11127Y79500D02*Y92373D01*
G54D12*X11000Y105400D02*Y122000D01*
G54D16*X133000Y276500D03*
X123000Y281500D03*
X133000Y286500D03*
X123000Y291500D03*
X133000Y296500D03*
X123000Y301500D03*
X133000Y306500D03*
X123000Y311500D03*
G54D17*X158000Y271500D03*
Y316500D03*
G54D11*G36*
X141000Y28500D02*Y20500D01*
X149000D01*
Y28500D01*
X141000D01*
G37*
G54D18*X95000Y24500D03*
G54D16*X67000Y296500D03*
X57000Y291500D03*
X67000Y286500D03*
X57000Y281500D03*
Y311500D03*
X67000Y306500D03*
X57000Y301500D03*
X67000Y276500D03*
G54D17*X32000Y316500D03*
Y271500D03*
G54D19*X81500Y79800D02*X83100D01*
X81500Y72000D02*X83100D01*
X89700Y75900D02*X91300D01*
G54D20*X116607Y77043D02*X117393D01*
X105607Y77000D02*X106393D01*
G54D19*X89700Y72000D02*X91300D01*
G54D20*X169457Y65393D02*Y64607D01*
X176543Y65393D02*Y64607D01*
X116607Y69957D02*X117393D01*
X105607Y69914D02*X106393D01*
G54D21*X91600Y63700D02*X97200D01*
G54D19*X89700Y79800D02*X91300D01*
G54D22*X152600Y80700D02*X157750D01*
X174250D02*X179400D01*
G54D20*X106414Y86393D02*Y85607D01*
X113500Y86393D02*Y85607D01*
X135957Y100893D02*Y100107D01*
X143043Y100893D02*Y100107D01*
G54D22*X152600Y90500D02*X157750D01*
X152600Y100300D02*X157750D01*
X174250Y90500D02*X179400D01*
X174250Y100300D02*X179400D01*
G54D20*X40607Y100457D02*X41393D01*
X40607Y107543D02*X41393D01*
X28543Y107893D02*Y107107D01*
X21457Y107893D02*Y107107D01*
G54D22*X73100Y111700D02*X78250D01*
X94750D02*X99900D01*
X73100Y121500D02*X78250D01*
X94750D02*X99900D01*
X73100Y131300D02*X78250D01*
X94750D02*X99900D01*
G54D20*X109457Y131893D02*Y131107D01*
X116543Y131893D02*Y131107D01*
G54D19*X56575Y67200D02*X58175D01*
X56575Y75000D02*X58175D01*
X48375D02*X49975D01*
X48375Y71100D02*X49975D01*
X48375Y67200D02*X49975D01*
G54D22*X7100Y23700D02*X12250D01*
X7100Y33500D02*X12250D01*
X7100Y43300D02*X12250D01*
X28750Y23700D02*X33900D01*
G54D23*X51887Y21687D02*X52487D01*
X51887Y29487D02*X52487D01*
X43687Y25587D02*X44287D01*
G54D22*X28750Y33500D02*X33900D01*
G54D20*X70043Y31393D02*Y30607D01*
X85543Y31393D02*Y30607D01*
X78457Y31393D02*Y30607D01*
X62957Y31393D02*Y30607D01*
X52457Y55893D02*Y55107D01*
X59543Y55893D02*Y55107D01*
G54D21*X75800Y63700D02*Y42300D01*
G54D11*G36*
X76950Y49044D02*X82544Y43450D01*
X80423Y41329D01*
X74829Y46923D01*
X76950Y49044D01*
G37*
G36*
X74829Y59077D02*X80423Y64671D01*
X82544Y62550D01*
X76950Y56956D01*
X74829Y59077D01*
G37*
G36*
X74950Y45450D02*Y41450D01*
X78950D01*
Y45450D01*
X74950D01*
G37*
G36*
Y64550D02*Y60550D01*
X78950D01*
Y64550D01*
X74950D01*
G37*
G54D21*X75800Y42300D02*X81400D01*
X75800Y63700D02*X81400D01*
X97200D02*Y42300D01*
X91600D02*X97200D01*
G54D11*G36*
X90456Y43450D02*X96050Y49044D01*
X98171Y46923D01*
X92577Y41329D01*
X90456Y43450D01*
G37*
G36*
X92577Y64671D02*X98171Y59077D01*
X96050Y56956D01*
X90456Y62550D01*
X92577Y64671D01*
G37*
G36*
X94050Y45450D02*Y41450D01*
X98050D01*
Y45450D01*
X94050D01*
G37*
G36*
Y64550D02*Y60550D01*
X98050D01*
Y64550D01*
X94050D01*
G37*
G54D24*X106900Y44000D02*X108100D01*
X106900Y56900D02*X108100D01*
G54D22*X28750Y43300D02*X33900D01*
G54D21*X32513Y66087D02*Y60487D01*
G54D11*G36*
X25769Y61637D02*X31363Y67231D01*
X33485Y65110D01*
X27890Y59515D01*
X25769Y61637D01*
G37*
G36*
X29363Y63637D02*Y59637D01*
X33363D01*
Y63637D01*
X29363D01*
G37*
G54D21*X11113Y60487D02*X32513D01*
X11113Y66087D02*Y60487D01*
G54D11*G36*
X12263Y67231D02*X17858Y61637D01*
X15736Y59515D01*
X10142Y65110D01*
X12263Y67231D01*
G37*
G36*
X10263Y63637D02*Y59637D01*
X14263D01*
Y63637D01*
X10263D01*
G37*
G54D21*X11113Y81887D02*X32513D01*
X11113D02*Y76287D01*
G54D11*G36*
X10142Y77264D02*X15736Y82858D01*
X17858Y80737D01*
X12263Y75142D01*
X10142Y77264D01*
G37*
G36*
X10263Y82737D02*Y78737D01*
X14263D01*
Y82737D01*
X10263D01*
G37*
G54D24*X10400Y92500D02*X11600D01*
X10400Y105400D02*X11600D01*
G54D20*X21457Y92393D02*Y91607D01*
X28543Y92393D02*Y91607D01*
G54D21*X32513Y81887D02*Y76287D01*
G54D11*G36*
X27890Y82858D02*X33485Y77264D01*
X31363Y75142D01*
X25769Y80737D01*
X27890Y82858D01*
G37*
G36*
X29363Y82737D02*Y78737D01*
X33363D01*
Y82737D01*
X29363D01*
G37*
G54D25*X103000Y263131D02*Y261261D01*
X99851Y263131D02*Y261261D01*
X96701Y263131D02*Y261261D01*
X93552Y263131D02*Y261261D01*
Y256435D02*Y254565D01*
X96701Y256435D02*Y254565D01*
X99851Y256435D02*Y254565D01*
X103000Y256435D02*Y254565D01*
G54D20*X83607Y245957D02*X84393D01*
X83607Y253043D02*X84393D01*
G54D25*X84276Y313087D02*Y311217D01*
Y319783D02*Y317913D01*
X87425Y313087D02*Y311217D01*
X90575Y313087D02*Y311217D01*
X93724Y313087D02*Y311217D01*
Y319783D02*Y317913D01*
X90575Y319783D02*Y317913D01*
X87425Y319783D02*Y317913D01*
X111224Y319783D02*Y317913D01*
Y313087D02*Y311217D01*
X108075Y319783D02*Y317913D01*
Y313087D02*Y311217D01*
X104925Y319783D02*Y317913D01*
Y313087D02*Y311217D01*
X101776Y319783D02*Y317913D01*
Y313087D02*Y311217D01*
G54D20*X143000Y159893D02*Y159107D01*
G54D22*X152600Y159300D02*X157750D01*
X174250D02*X179400D01*
X152600Y139700D02*X157750D01*
X152600Y149500D02*X157750D01*
X174250Y139700D02*X179400D01*
X174250Y149500D02*X179400D01*
G54D20*X49457Y212393D02*Y211607D01*
G54D22*X33250Y192700D02*X38400D01*
X33250Y202500D02*X38400D01*
X33250Y212300D02*X38400D01*
G54D20*X56543Y212393D02*Y211607D01*
G54D22*X11600Y192700D02*X16750D01*
X11600Y202500D02*X16750D01*
X11600Y212300D02*X16750D01*
G54D20*X96107Y182086D02*X96893D01*
X96107Y175000D02*X96893D01*
G54D25*X111776Y176087D02*Y174217D01*
X114925Y176087D02*Y174217D01*
X118075Y176087D02*Y174217D01*
X121224Y176087D02*Y174217D01*
Y182783D02*Y180913D01*
X118075Y182783D02*Y180913D01*
X114925Y182783D02*Y180913D01*
X111776Y182783D02*Y180913D01*
G54D26*X102250Y198500D02*X108750D01*
X102250Y203500D02*X108750D01*
X102250Y208500D02*X108750D01*
X102250Y213500D02*X108750D01*
X102250Y218500D02*X108750D01*
X102250Y223500D02*X108750D01*
X102250Y228500D02*X108750D01*
X102250Y233500D02*X108750D01*
G54D20*X49457Y159893D02*Y159107D01*
G54D22*X33293Y139700D02*X38443D01*
X33293Y149500D02*X38443D01*
X33293Y159300D02*X38443D01*
G54D20*X56543Y159893D02*Y159107D01*
G54D22*X11643Y139700D02*X16793D01*
X11643Y149500D02*X16793D01*
X11643Y159300D02*X16793D01*
G54D25*X70776Y176087D02*Y174217D01*
X73925Y176087D02*Y174217D01*
X77075Y176087D02*Y174217D01*
X80224Y176087D02*Y174217D01*
Y182783D02*Y180913D01*
X77075Y182783D02*Y180913D01*
X73925Y182783D02*Y180913D01*
X70776Y182783D02*Y180913D01*
G54D26*X81750Y233500D02*X88250D01*
X81750Y228500D02*X88250D01*
X81750Y223500D02*X88250D01*
X81750Y218500D02*X88250D01*
X81750Y213500D02*X88250D01*
X81750Y208500D02*X88250D01*
X81750Y203500D02*X88250D01*
X81750Y198500D02*X88250D01*
G54D20*X135914Y159893D02*Y159107D01*
Y212393D02*Y211607D01*
X143000Y212393D02*Y211607D01*
G54D22*X152600Y192700D02*X157750D01*
X152600Y202500D02*X157750D01*
X152600Y212300D02*X157750D01*
X174250Y192700D02*X179400D01*
X174250Y202500D02*X179400D01*
X174250Y212300D02*X179400D01*
G54D14*X25043Y149500D03*
X11000Y122000D03*
X12000Y6000D03*
X8500Y9500D03*
X42500Y70500D03*
Y65500D03*
X65000Y55000D03*
Y49500D03*
X59500D03*
X35000Y89500D03*
X40000D03*
Y94500D03*
X35000D03*
X34500Y100000D03*
X25000Y159500D03*
X22000Y212500D03*
X28000D03*
X44000Y159000D03*
X56500Y218500D03*
Y197000D03*
X89500Y296500D03*
X96500D03*
X101000Y301500D03*
X105500Y306500D03*
X76000Y311500D03*
X85000Y301500D03*
X80500Y306500D03*
X166000Y202500D03*
X113000Y208000D03*
X106000Y182000D03*
X185000Y212500D03*
X82500Y193000D03*
X79000Y239500D03*
X84000D03*
X80500Y261000D03*
X85500D03*
X87500Y193000D03*
X153000Y218000D03*
X155500Y165500D03*
X149500D03*
X166000Y149500D03*
X159000Y128500D03*
X166000Y90500D03*
X83500Y131500D03*
X89500D03*
X119000Y114000D03*
Y107000D03*
X65000Y60500D03*
X98000Y81000D03*
Y71000D03*
Y76000D03*
Y86000D03*
X106000Y29500D03*
X112000D03*
X118000D03*
X106000Y21500D03*
X112000D03*
X118000D03*
X123500Y29500D03*
X129500D03*
X123500Y21500D03*
X129500D03*
G54D27*G54D28*G54D29*G54D30*G54D28*G54D29*M02*
